M48
; DRILL file KiCad 10.0.1-1-gbb48a3fe96 date 2026-08-11T15:11:14
; FORMAT={-:-/ absolute / metric / decimal}
; #@! TF.CreationDate,2026-08-11T15:11:14+08:00
; #@! TF.GenerationSoftware,Kicad,Pcbnew,10.0.1-1-gbb48a3fe96
; #@! TF.FileFunction,Plated,1,4,PTH
FMAT,2
METRIC
; #@! TA.AperFunction,Plated,PTH,ViaDrill
T1C0.254
; #@! TA.AperFunction,Plated,PTH,ComponentDrill
T2C0.300
; #@! TA.AperFunction,Plated,PTH,ComponentDrill
T3C0.500
; #@! TA.AperFunction,Plated,PTH,ComponentDrill
T4C0.600
; #@! TA.AperFunction,Plated,PTH,ComponentDrill
T5C0.750
; #@! TA.AperFunction,Plated,PTH,ComponentDrill
T6C0.800
; #@! TA.AperFunction,Plated,PTH,ComponentDrill
T7C1.300
; #@! TA.AperFunction,Plated,PTH,ComponentDrill
T8C1.500
; #@! TA.AperFunction,Plated,PTH,ComponentDrill
T9C1.524
%
G90
G05
T1
X102.16Y-58.94
X102.34Y-45.43
X102.7Y-66.2
X104.15Y-59.87
X104.76Y-61.23
X104.95Y-58.67
X105.05Y-67.88
X105.17Y-87.76
X105.45Y-54.24
X105.65Y-57.89
X105.71Y-61.68
X106.072Y-59.765
X106.097Y-60.59
X106.28Y-89.79
X106.49Y-85.99
X106.56Y-87.84
X106.74Y-70.04
X106.91Y-72.42
X106.96Y-102.49
X107.73Y-66.77
X108.342Y-58.76
X108.367Y-59.585
X108.53Y-55.36
X108.55Y-54.09
X108.83Y-62.44
X109.5Y-43.12
X110.255Y-56.609
X110.43Y-43.4
X110.46Y-61.33
X110.6Y-44.48
X110.94Y-62.27
X111.51Y-57.02
X111.67Y-60.58
X112.255Y-48.536
X114.667Y-54.68
X115.88Y-101.2
X116.74Y-102.7
X117.37Y-66.29
X117.72Y-82.57
X118.2Y-106.78
X118.25Y-83.75
X118.34Y-46.965
X118.41Y-65.28
X118.86Y-100.77
X118.91Y-104.72
X119.35Y-97.28
X119.35Y-98.7
X119.8Y-82.54
X119.85Y-83.75
X119.93Y-65.33
X120.11Y-55.62
X120.18Y-44.1
X120.25Y-103.13
X120.62Y-71.04
X120.62Y-106.76
X121.04Y-43.42
X121.11Y-104.62
X121.23Y-65.94
X121.37Y-69.36
X121.53Y-83.71
X121.59Y-98.75
X121.71Y-82.81
X121.74Y-97.29
X121.81Y-43.95
X121.87Y-40.53
X122.46Y-100.89
X122.8Y-76.49
X123.08Y-103.43
X123.84Y-77.3
X124.45Y-76.5
X124.49Y-103.18
X124.59Y-100.35
X125.26Y-77.18
X125.92Y-58.29
X126.84Y-53.65
X127.31Y-50.32
X127.48Y-81.36
X127.48Y-82.53
X127.48Y-83.78
X127.48Y-85.01
X128.345Y-60.045
X129.0Y-81.82
X129.0Y-83.03
X129.0Y-84.35
X129.71Y-49.85
X129.71Y-51.35
X129.71Y-52.85
X130.49Y-81.18
X130.49Y-82.07
X130.49Y-83.01
X130.49Y-83.86
X130.49Y-84.9
X131.21Y-49.85
X131.21Y-51.35
X131.21Y-52.85
X131.91Y-81.85
X131.91Y-83.05
X131.91Y-84.54
X132.71Y-49.85
X132.71Y-51.35
X132.71Y-52.85
X132.8Y-56.0
X133.0Y-57.47
X133.6Y-81.2
X133.6Y-82.37
X133.6Y-83.62
X133.6Y-84.85
X135.38Y-51.83
X135.64Y-62.09
X136.04Y-74.78
X136.1Y-61.25
X136.83Y-57.39
X137.11Y-50.62
X137.13Y-92.07
X137.6Y-53.06
X138.41Y-59.45
X139.24Y-59.17
X139.87Y-61.78
X139.95Y-46.0
X140.18Y-66.74
X140.78Y-63.62
X141.48Y-64.25
X142.38Y-64.86
X142.61Y-58.5
X143.0Y-61.83
X143.03Y-59.89
X143.57Y-44.85
X143.83Y-51.82
X144.74Y-44.68
X145.51Y-47.57
X145.95Y-65.22
X146.035Y-59.955
X146.14Y-70.31
X146.84Y-72.58
X146.955Y-70.325
X147.33Y-44.7
X147.58Y-54.9
X148.71Y-91.79
X148.89Y-70.74
X150.18Y-69.19
X150.2Y-59.97
X150.2Y-65.2
X151.82Y-94.55
X152.35Y-45.73
X152.45Y-41.13
X152.51Y-72.55
X153.03Y-58.08
X153.09Y-86.74
X153.27Y-63.58
X153.385Y-80.655
X153.7Y-77.29
X153.72Y-90.97
X154.08Y-50.64
X154.231Y-84.319
X154.29Y-75.92
X154.32Y-93.43
X154.55Y-44.71
X155.1Y-88.8
X155.18Y-52.2
X155.58Y-99.2
X155.61Y-95.41
X155.75Y-54.97
X155.98Y-93.8
X156.44Y-80.83
X156.51Y-88.72
X156.75Y-77.29
X156.97Y-73.06
X157.35Y-82.19
X157.35Y-86.04
X157.38Y-87.89
X157.47Y-80.06
X157.98Y-100.18
X158.03Y-92.13
X158.37Y-86.85
X159.4Y-105.21
X159.45Y-44.76
X159.57Y-55.27
X160.2Y-81.13
X160.58Y-65.87
X161.29Y-85.68
X161.33Y-90.33
X161.4Y-84.29
X161.52Y-76.21
X161.78Y-51.26
X161.86Y-86.93
X162.6Y-93.78
X162.99Y-56.57
X163.0Y-98.5
X163.2Y-69.07
X165.31Y-97.94
X165.41Y-93.62
X165.47Y-69.19
T2
X109.29Y-76.29
X109.29Y-77.49
X110.49Y-76.29
X110.49Y-77.49
X111.79Y-76.29
X111.79Y-77.49
X112.89Y-76.29
X112.89Y-77.49
T5
X156.02Y-40.72
X157.28Y-40.72
T6
X125.55Y-66.96
X125.55Y-69.5
X125.55Y-72.04
X125.55Y-74.58
X133.17Y-66.96
X133.17Y-69.5
X133.17Y-72.04
X133.17Y-74.58
T7
X134.0Y-106.0
X137.5Y-106.0
X141.0Y-106.0
X145.5Y-106.0
X149.0Y-106.0
X152.5Y-106.0
X164.468Y-72.458
X164.468Y-75.958
X164.468Y-79.958
X164.468Y-83.458
X164.5Y-47.5
X164.5Y-51.0
X164.5Y-54.5
X164.5Y-59.0
X164.5Y-62.5
X164.5Y-66.0
X164.5Y-87.75
X164.5Y-91.25
T8
X110.46Y-105.47
X115.54Y-105.47
X123.46Y-105.47
X128.54Y-105.47
T9
X137.287Y-85.64
X137.287Y-97.84
X143.287Y-83.64
X149.287Y-85.64
X149.287Y-97.84
T3
G00X104.36Y-70.49
M15
G01X102.96Y-70.49
M16
G05
G00X104.36Y-74.19
M15
G01X102.96Y-74.19
M16
G05
G00X104.36Y-78.49
M15
G01X102.96Y-78.49
M16
G05
G00X102.96Y-82.19
M15
G01X104.36Y-82.19
M16
G05
G00X104.42Y-85.94
M15
G01X103.02Y-85.94
M16
G05
G00X104.42Y-89.64
M15
G01X103.02Y-89.64
M16
G05
G00X104.42Y-93.94
M15
G01X103.02Y-93.94
M16
G05
G00X103.02Y-97.64
M15
G01X104.42Y-97.64
M16
G05
G00X131.85Y-87.89
M15
G01X130.45Y-87.89
M16
G05
G00X131.85Y-91.59
M15
G01X130.45Y-91.59
M16
G05
G00X131.85Y-95.89
M15
G01X130.45Y-95.89
M16
G05
G00X130.45Y-99.59
M15
G01X131.85Y-99.59
M16
G05
T4
G00X102.697Y-55.355
M15
G01X102.097Y-55.355
M16
G05
G00X102.697Y-63.995
M15
G01X102.097Y-63.995
M16
G05
G00X107.127Y-55.355
M15
G01X106.027Y-55.355
M16
G05
G00X107.127Y-63.995
M15
G01X106.027Y-63.995
M16
G05
M30
