%TF.GenerationSoftware,KiCad,Pcbnew,10.0.1-1-gbb48a3fe96*%
%TF.CreationDate,2026-08-11T15:11:09+08:00*%
%TF.ProjectId,MarineBoard,4d617269-6e65-4426-9f61-72642e6b6963,rev?*%
%TF.SameCoordinates,Original*%
%TF.FileFunction,Legend,Bot*%
%TF.FilePolarity,Positive*%
%FSLAX46Y46*%
G04 Gerber Fmt 4.6, Leading zero omitted, Abs format (unit mm)*
G04 Created by KiCad (PCBNEW 10.0.1-1-gbb48a3fe96) date 2026-08-11 15:11:09*
%MOMM*%
%LPD*%
G01*
G04 APERTURE LIST*
%ADD10C,0.100000*%
%ADD11C,0.150000*%
%ADD12C,0.152400*%
%ADD13C,0.101600*%
%ADD14C,0.127000*%
%ADD15C,0.254000*%
%ADD16C,0.250000*%
%ADD17C,0.060000*%
%ADD18C,0.120000*%
%ADD19C,0.000000*%
%ADD20C,0.130000*%
G04 APERTURE END LIST*
D10*
X113540000Y-102710000D02*
X113540000Y-102710000D01*
G75*
G02*
X114540000Y-101710000I1000000J0D01*
G01*
X124620000Y-101710000D01*
G75*
G02*
X125620000Y-102710000I0J-1000000D01*
G01*
X125620000Y-106930000D01*
G75*
G02*
X124620000Y-107930000I-1000000J0D01*
G01*
X114540000Y-107930000D01*
G75*
G02*
X113540000Y-106930000I0J1000000D01*
G01*
X113540000Y-102710000D01*
X161234687Y-63052419D02*
X161568020Y-62576228D01*
X161806115Y-63052419D02*
X161806115Y-62052419D01*
X161806115Y-62052419D02*
X161425163Y-62052419D01*
X161425163Y-62052419D02*
X161329925Y-62100038D01*
X161329925Y-62100038D02*
X161282306Y-62147657D01*
X161282306Y-62147657D02*
X161234687Y-62242895D01*
X161234687Y-62242895D02*
X161234687Y-62385752D01*
X161234687Y-62385752D02*
X161282306Y-62480990D01*
X161282306Y-62480990D02*
X161329925Y-62528609D01*
X161329925Y-62528609D02*
X161425163Y-62576228D01*
X161425163Y-62576228D02*
X161806115Y-62576228D01*
X160806115Y-63052419D02*
X160806115Y-62052419D01*
X160806115Y-62052419D02*
X160425163Y-62052419D01*
X160425163Y-62052419D02*
X160329925Y-62100038D01*
X160329925Y-62100038D02*
X160282306Y-62147657D01*
X160282306Y-62147657D02*
X160234687Y-62242895D01*
X160234687Y-62242895D02*
X160234687Y-62385752D01*
X160234687Y-62385752D02*
X160282306Y-62480990D01*
X160282306Y-62480990D02*
X160329925Y-62528609D01*
X160329925Y-62528609D02*
X160425163Y-62576228D01*
X160425163Y-62576228D02*
X160806115Y-62576228D01*
X159806115Y-63052419D02*
X159806115Y-62052419D01*
X159806115Y-62052419D02*
X159472782Y-62766704D01*
X159472782Y-62766704D02*
X159139449Y-62052419D01*
X159139449Y-62052419D02*
X159139449Y-63052419D01*
X161863734Y-91824800D02*
X161720877Y-91872419D01*
X161720877Y-91872419D02*
X161482782Y-91872419D01*
X161482782Y-91872419D02*
X161387544Y-91824800D01*
X161387544Y-91824800D02*
X161339925Y-91777180D01*
X161339925Y-91777180D02*
X161292306Y-91681942D01*
X161292306Y-91681942D02*
X161292306Y-91586704D01*
X161292306Y-91586704D02*
X161339925Y-91491466D01*
X161339925Y-91491466D02*
X161387544Y-91443847D01*
X161387544Y-91443847D02*
X161482782Y-91396228D01*
X161482782Y-91396228D02*
X161673258Y-91348609D01*
X161673258Y-91348609D02*
X161768496Y-91300990D01*
X161768496Y-91300990D02*
X161816115Y-91253371D01*
X161816115Y-91253371D02*
X161863734Y-91158133D01*
X161863734Y-91158133D02*
X161863734Y-91062895D01*
X161863734Y-91062895D02*
X161816115Y-90967657D01*
X161816115Y-90967657D02*
X161768496Y-90920038D01*
X161768496Y-90920038D02*
X161673258Y-90872419D01*
X161673258Y-90872419D02*
X161435163Y-90872419D01*
X161435163Y-90872419D02*
X161292306Y-90920038D01*
X160863734Y-91872419D02*
X160863734Y-90872419D01*
X160863734Y-91348609D02*
X160292306Y-91348609D01*
X160292306Y-91872419D02*
X160292306Y-90872419D01*
X159816115Y-91491466D02*
X159054211Y-91491466D01*
X161322306Y-54050038D02*
X161417544Y-54002419D01*
X161417544Y-54002419D02*
X161560401Y-54002419D01*
X161560401Y-54002419D02*
X161703258Y-54050038D01*
X161703258Y-54050038D02*
X161798496Y-54145276D01*
X161798496Y-54145276D02*
X161846115Y-54240514D01*
X161846115Y-54240514D02*
X161893734Y-54430990D01*
X161893734Y-54430990D02*
X161893734Y-54573847D01*
X161893734Y-54573847D02*
X161846115Y-54764323D01*
X161846115Y-54764323D02*
X161798496Y-54859561D01*
X161798496Y-54859561D02*
X161703258Y-54954800D01*
X161703258Y-54954800D02*
X161560401Y-55002419D01*
X161560401Y-55002419D02*
X161465163Y-55002419D01*
X161465163Y-55002419D02*
X161322306Y-54954800D01*
X161322306Y-54954800D02*
X161274687Y-54907180D01*
X161274687Y-54907180D02*
X161274687Y-54573847D01*
X161274687Y-54573847D02*
X161465163Y-54573847D01*
X160846115Y-55002419D02*
X160846115Y-54002419D01*
X160846115Y-54002419D02*
X160274687Y-55002419D01*
X160274687Y-55002419D02*
X160274687Y-54002419D01*
X159798496Y-55002419D02*
X159798496Y-54002419D01*
X159798496Y-54002419D02*
X159560401Y-54002419D01*
X159560401Y-54002419D02*
X159417544Y-54050038D01*
X159417544Y-54050038D02*
X159322306Y-54145276D01*
X159322306Y-54145276D02*
X159274687Y-54240514D01*
X159274687Y-54240514D02*
X159227068Y-54430990D01*
X159227068Y-54430990D02*
X159227068Y-54573847D01*
X159227068Y-54573847D02*
X159274687Y-54764323D01*
X159274687Y-54764323D02*
X159322306Y-54859561D01*
X159322306Y-54859561D02*
X159417544Y-54954800D01*
X159417544Y-54954800D02*
X159560401Y-55002419D01*
X159560401Y-55002419D02*
X159798496Y-55002419D01*
X161943734Y-88224800D02*
X161800877Y-88272419D01*
X161800877Y-88272419D02*
X161562782Y-88272419D01*
X161562782Y-88272419D02*
X161467544Y-88224800D01*
X161467544Y-88224800D02*
X161419925Y-88177180D01*
X161419925Y-88177180D02*
X161372306Y-88081942D01*
X161372306Y-88081942D02*
X161372306Y-87986704D01*
X161372306Y-87986704D02*
X161419925Y-87891466D01*
X161419925Y-87891466D02*
X161467544Y-87843847D01*
X161467544Y-87843847D02*
X161562782Y-87796228D01*
X161562782Y-87796228D02*
X161753258Y-87748609D01*
X161753258Y-87748609D02*
X161848496Y-87700990D01*
X161848496Y-87700990D02*
X161896115Y-87653371D01*
X161896115Y-87653371D02*
X161943734Y-87558133D01*
X161943734Y-87558133D02*
X161943734Y-87462895D01*
X161943734Y-87462895D02*
X161896115Y-87367657D01*
X161896115Y-87367657D02*
X161848496Y-87320038D01*
X161848496Y-87320038D02*
X161753258Y-87272419D01*
X161753258Y-87272419D02*
X161515163Y-87272419D01*
X161515163Y-87272419D02*
X161372306Y-87320038D01*
X160943734Y-88272419D02*
X160943734Y-87272419D01*
X160943734Y-87748609D02*
X160372306Y-87748609D01*
X160372306Y-88272419D02*
X160372306Y-87272419D01*
X159896115Y-87891466D02*
X159134211Y-87891466D01*
X159515163Y-88272419D02*
X159515163Y-87510514D01*
X161956115Y-59038609D02*
X161622782Y-59038609D01*
X161479925Y-59562419D02*
X161956115Y-59562419D01*
X161956115Y-59562419D02*
X161956115Y-58562419D01*
X161956115Y-58562419D02*
X161479925Y-58562419D01*
X161051353Y-59562419D02*
X161051353Y-58562419D01*
X161051353Y-58562419D02*
X160479925Y-59562419D01*
X160479925Y-59562419D02*
X160479925Y-58562419D01*
X159670401Y-59038609D02*
X159527544Y-59086228D01*
X159527544Y-59086228D02*
X159479925Y-59133847D01*
X159479925Y-59133847D02*
X159432306Y-59229085D01*
X159432306Y-59229085D02*
X159432306Y-59371942D01*
X159432306Y-59371942D02*
X159479925Y-59467180D01*
X159479925Y-59467180D02*
X159527544Y-59514800D01*
X159527544Y-59514800D02*
X159622782Y-59562419D01*
X159622782Y-59562419D02*
X160003734Y-59562419D01*
X160003734Y-59562419D02*
X160003734Y-58562419D01*
X160003734Y-58562419D02*
X159670401Y-58562419D01*
X159670401Y-58562419D02*
X159575163Y-58610038D01*
X159575163Y-58610038D02*
X159527544Y-58657657D01*
X159527544Y-58657657D02*
X159479925Y-58752895D01*
X159479925Y-58752895D02*
X159479925Y-58848133D01*
X159479925Y-58848133D02*
X159527544Y-58943371D01*
X159527544Y-58943371D02*
X159575163Y-58990990D01*
X159575163Y-58990990D02*
X159670401Y-59038609D01*
X159670401Y-59038609D02*
X160003734Y-59038609D01*
X158527544Y-59562419D02*
X159003734Y-59562419D01*
X159003734Y-59562419D02*
X159003734Y-58562419D01*
X162098972Y-65772419D02*
X161527544Y-65772419D01*
X161813258Y-66772419D02*
X161813258Y-65772419D01*
X161194210Y-66772419D02*
X161194210Y-65772419D01*
X161194210Y-65772419D02*
X160860877Y-66486704D01*
X160860877Y-66486704D02*
X160527544Y-65772419D01*
X160527544Y-65772419D02*
X160527544Y-66772419D01*
X160051353Y-66772419D02*
X160051353Y-65772419D01*
X160051353Y-65772419D02*
X159670401Y-65772419D01*
X159670401Y-65772419D02*
X159575163Y-65820038D01*
X159575163Y-65820038D02*
X159527544Y-65867657D01*
X159527544Y-65867657D02*
X159479925Y-65962895D01*
X159479925Y-65962895D02*
X159479925Y-66105752D01*
X159479925Y-66105752D02*
X159527544Y-66200990D01*
X159527544Y-66200990D02*
X159575163Y-66248609D01*
X159575163Y-66248609D02*
X159670401Y-66296228D01*
X159670401Y-66296228D02*
X160051353Y-66296228D01*
X158527544Y-66772419D02*
X159098972Y-66772419D01*
X158813258Y-66772419D02*
X158813258Y-65772419D01*
X158813258Y-65772419D02*
X158908496Y-65915276D01*
X158908496Y-65915276D02*
X159003734Y-66010514D01*
X159003734Y-66010514D02*
X159098972Y-66058133D01*
X161424687Y-51527180D02*
X161472306Y-51574800D01*
X161472306Y-51574800D02*
X161615163Y-51622419D01*
X161615163Y-51622419D02*
X161710401Y-51622419D01*
X161710401Y-51622419D02*
X161853258Y-51574800D01*
X161853258Y-51574800D02*
X161948496Y-51479561D01*
X161948496Y-51479561D02*
X161996115Y-51384323D01*
X161996115Y-51384323D02*
X162043734Y-51193847D01*
X162043734Y-51193847D02*
X162043734Y-51050990D01*
X162043734Y-51050990D02*
X161996115Y-50860514D01*
X161996115Y-50860514D02*
X161948496Y-50765276D01*
X161948496Y-50765276D02*
X161853258Y-50670038D01*
X161853258Y-50670038D02*
X161710401Y-50622419D01*
X161710401Y-50622419D02*
X161615163Y-50622419D01*
X161615163Y-50622419D02*
X161472306Y-50670038D01*
X161472306Y-50670038D02*
X161424687Y-50717657D01*
X161043734Y-51336704D02*
X160567544Y-51336704D01*
X161138972Y-51622419D02*
X160805639Y-50622419D01*
X160805639Y-50622419D02*
X160472306Y-51622419D01*
X160138972Y-51622419D02*
X160138972Y-50622419D01*
X160138972Y-50622419D02*
X159567544Y-51622419D01*
X159567544Y-51622419D02*
X159567544Y-50622419D01*
X159091353Y-51622419D02*
X159091353Y-50622419D01*
X159091353Y-51098609D02*
X158519925Y-51098609D01*
X158519925Y-51622419D02*
X158519925Y-50622419D01*
X161569925Y-76502419D02*
X162046115Y-76502419D01*
X162046115Y-76502419D02*
X162046115Y-75502419D01*
X161379448Y-75502419D02*
X161046115Y-76502419D01*
X161046115Y-76502419D02*
X160712782Y-75502419D01*
X159903258Y-76502419D02*
X160379448Y-76502419D01*
X160379448Y-76502419D02*
X160379448Y-75502419D01*
X159046115Y-76502419D02*
X159617543Y-76502419D01*
X159331829Y-76502419D02*
X159331829Y-75502419D01*
X159331829Y-75502419D02*
X159427067Y-75645276D01*
X159427067Y-75645276D02*
X159522305Y-75740514D01*
X159522305Y-75740514D02*
X159617543Y-75788133D01*
X161494687Y-47997180D02*
X161542306Y-48044800D01*
X161542306Y-48044800D02*
X161685163Y-48092419D01*
X161685163Y-48092419D02*
X161780401Y-48092419D01*
X161780401Y-48092419D02*
X161923258Y-48044800D01*
X161923258Y-48044800D02*
X162018496Y-47949561D01*
X162018496Y-47949561D02*
X162066115Y-47854323D01*
X162066115Y-47854323D02*
X162113734Y-47663847D01*
X162113734Y-47663847D02*
X162113734Y-47520990D01*
X162113734Y-47520990D02*
X162066115Y-47330514D01*
X162066115Y-47330514D02*
X162018496Y-47235276D01*
X162018496Y-47235276D02*
X161923258Y-47140038D01*
X161923258Y-47140038D02*
X161780401Y-47092419D01*
X161780401Y-47092419D02*
X161685163Y-47092419D01*
X161685163Y-47092419D02*
X161542306Y-47140038D01*
X161542306Y-47140038D02*
X161494687Y-47187657D01*
X161113734Y-47806704D02*
X160637544Y-47806704D01*
X161208972Y-48092419D02*
X160875639Y-47092419D01*
X160875639Y-47092419D02*
X160542306Y-48092419D01*
X160208972Y-48092419D02*
X160208972Y-47092419D01*
X160208972Y-47092419D02*
X159637544Y-48092419D01*
X159637544Y-48092419D02*
X159637544Y-47092419D01*
X158685163Y-48092419D02*
X159161353Y-48092419D01*
X159161353Y-48092419D02*
X159161353Y-47092419D01*
X162306115Y-72771466D02*
X161544211Y-72771466D01*
X161925163Y-73152419D02*
X161925163Y-72390514D01*
X160544211Y-73152419D02*
X161115639Y-73152419D01*
X160829925Y-73152419D02*
X160829925Y-72152419D01*
X160829925Y-72152419D02*
X160925163Y-72295276D01*
X160925163Y-72295276D02*
X161020401Y-72390514D01*
X161020401Y-72390514D02*
X161115639Y-72438133D01*
X160163258Y-72247657D02*
X160115639Y-72200038D01*
X160115639Y-72200038D02*
X160020401Y-72152419D01*
X160020401Y-72152419D02*
X159782306Y-72152419D01*
X159782306Y-72152419D02*
X159687068Y-72200038D01*
X159687068Y-72200038D02*
X159639449Y-72247657D01*
X159639449Y-72247657D02*
X159591830Y-72342895D01*
X159591830Y-72342895D02*
X159591830Y-72438133D01*
X159591830Y-72438133D02*
X159639449Y-72580990D01*
X159639449Y-72580990D02*
X160210877Y-73152419D01*
X160210877Y-73152419D02*
X159591830Y-73152419D01*
X159306115Y-72152419D02*
X158972782Y-73152419D01*
X158972782Y-73152419D02*
X158639449Y-72152419D01*
X161859925Y-84082419D02*
X162336115Y-84082419D01*
X162336115Y-84082419D02*
X162336115Y-83082419D01*
X161669448Y-83082419D02*
X161336115Y-84082419D01*
X161336115Y-84082419D02*
X161002782Y-83082419D01*
X160193258Y-84082419D02*
X160669448Y-84082419D01*
X160669448Y-84082419D02*
X160669448Y-83082419D01*
X159907543Y-83177657D02*
X159859924Y-83130038D01*
X159859924Y-83130038D02*
X159764686Y-83082419D01*
X159764686Y-83082419D02*
X159526591Y-83082419D01*
X159526591Y-83082419D02*
X159431353Y-83130038D01*
X159431353Y-83130038D02*
X159383734Y-83177657D01*
X159383734Y-83177657D02*
X159336115Y-83272895D01*
X159336115Y-83272895D02*
X159336115Y-83368133D01*
X159336115Y-83368133D02*
X159383734Y-83510990D01*
X159383734Y-83510990D02*
X159955162Y-84082419D01*
X159955162Y-84082419D02*
X159336115Y-84082419D01*
X163276115Y-81131466D02*
X162514211Y-81131466D01*
X162895163Y-81512419D02*
X162895163Y-80750514D01*
X161514211Y-81512419D02*
X162085639Y-81512419D01*
X161799925Y-81512419D02*
X161799925Y-80512419D01*
X161799925Y-80512419D02*
X161895163Y-80655276D01*
X161895163Y-80655276D02*
X161990401Y-80750514D01*
X161990401Y-80750514D02*
X162085639Y-80798133D01*
X161133258Y-80607657D02*
X161085639Y-80560038D01*
X161085639Y-80560038D02*
X160990401Y-80512419D01*
X160990401Y-80512419D02*
X160752306Y-80512419D01*
X160752306Y-80512419D02*
X160657068Y-80560038D01*
X160657068Y-80560038D02*
X160609449Y-80607657D01*
X160609449Y-80607657D02*
X160561830Y-80702895D01*
X160561830Y-80702895D02*
X160561830Y-80798133D01*
X160561830Y-80798133D02*
X160609449Y-80940990D01*
X160609449Y-80940990D02*
X161180877Y-81512419D01*
X161180877Y-81512419D02*
X160561830Y-81512419D01*
X160276115Y-80512419D02*
X159942782Y-81512419D01*
X159942782Y-81512419D02*
X159609449Y-80512419D01*
D11*
X111039411Y-103109533D02*
X111134649Y-103061914D01*
X111134649Y-103061914D02*
X111277506Y-103061914D01*
X111277506Y-103061914D02*
X111420363Y-103109533D01*
X111420363Y-103109533D02*
X111515601Y-103204771D01*
X111515601Y-103204771D02*
X111563220Y-103300009D01*
X111563220Y-103300009D02*
X111610839Y-103490485D01*
X111610839Y-103490485D02*
X111610839Y-103633342D01*
X111610839Y-103633342D02*
X111563220Y-103823818D01*
X111563220Y-103823818D02*
X111515601Y-103919056D01*
X111515601Y-103919056D02*
X111420363Y-104014295D01*
X111420363Y-104014295D02*
X111277506Y-104061914D01*
X111277506Y-104061914D02*
X111182268Y-104061914D01*
X111182268Y-104061914D02*
X111039411Y-104014295D01*
X111039411Y-104014295D02*
X110991792Y-103966675D01*
X110991792Y-103966675D02*
X110991792Y-103633342D01*
X110991792Y-103633342D02*
X111182268Y-103633342D01*
X110563220Y-104061914D02*
X110563220Y-103061914D01*
X110563220Y-103061914D02*
X109991792Y-104061914D01*
X109991792Y-104061914D02*
X109991792Y-103061914D01*
X109515601Y-104061914D02*
X109515601Y-103061914D01*
X109515601Y-103061914D02*
X109277506Y-103061914D01*
X109277506Y-103061914D02*
X109134649Y-103109533D01*
X109134649Y-103109533D02*
X109039411Y-103204771D01*
X109039411Y-103204771D02*
X108991792Y-103300009D01*
X108991792Y-103300009D02*
X108944173Y-103490485D01*
X108944173Y-103490485D02*
X108944173Y-103633342D01*
X108944173Y-103633342D02*
X108991792Y-103823818D01*
X108991792Y-103823818D02*
X109039411Y-103919056D01*
X109039411Y-103919056D02*
X109134649Y-104014295D01*
X109134649Y-104014295D02*
X109277506Y-104061914D01*
X109277506Y-104061914D02*
X109515601Y-104061914D01*
X121759411Y-104061914D02*
X122330839Y-104061914D01*
X122045125Y-104061914D02*
X122045125Y-103061914D01*
X122045125Y-103061914D02*
X122140363Y-103204771D01*
X122140363Y-103204771D02*
X122235601Y-103300009D01*
X122235601Y-103300009D02*
X122330839Y-103347628D01*
X121378458Y-103157152D02*
X121330839Y-103109533D01*
X121330839Y-103109533D02*
X121235601Y-103061914D01*
X121235601Y-103061914D02*
X120997506Y-103061914D01*
X120997506Y-103061914D02*
X120902268Y-103109533D01*
X120902268Y-103109533D02*
X120854649Y-103157152D01*
X120854649Y-103157152D02*
X120807030Y-103252390D01*
X120807030Y-103252390D02*
X120807030Y-103347628D01*
X120807030Y-103347628D02*
X120854649Y-103490485D01*
X120854649Y-103490485D02*
X121426077Y-104061914D01*
X121426077Y-104061914D02*
X120807030Y-104061914D01*
X120521315Y-103061914D02*
X120187982Y-104061914D01*
X120187982Y-104061914D02*
X119854649Y-103061914D01*
X118426077Y-103538104D02*
X118283220Y-103585723D01*
X118283220Y-103585723D02*
X118235601Y-103633342D01*
X118235601Y-103633342D02*
X118187982Y-103728580D01*
X118187982Y-103728580D02*
X118187982Y-103871437D01*
X118187982Y-103871437D02*
X118235601Y-103966675D01*
X118235601Y-103966675D02*
X118283220Y-104014295D01*
X118283220Y-104014295D02*
X118378458Y-104061914D01*
X118378458Y-104061914D02*
X118759410Y-104061914D01*
X118759410Y-104061914D02*
X118759410Y-103061914D01*
X118759410Y-103061914D02*
X118426077Y-103061914D01*
X118426077Y-103061914D02*
X118330839Y-103109533D01*
X118330839Y-103109533D02*
X118283220Y-103157152D01*
X118283220Y-103157152D02*
X118235601Y-103252390D01*
X118235601Y-103252390D02*
X118235601Y-103347628D01*
X118235601Y-103347628D02*
X118283220Y-103442866D01*
X118283220Y-103442866D02*
X118330839Y-103490485D01*
X118330839Y-103490485D02*
X118426077Y-103538104D01*
X118426077Y-103538104D02*
X118759410Y-103538104D01*
X117807029Y-103776199D02*
X117330839Y-103776199D01*
X117902267Y-104061914D02*
X117568934Y-103061914D01*
X117568934Y-103061914D02*
X117235601Y-104061914D01*
X117045124Y-103061914D02*
X116473696Y-103061914D01*
X116759410Y-104061914D02*
X116759410Y-103061914D01*
X129863220Y-104061914D02*
X129863220Y-103061914D01*
X129863220Y-103061914D02*
X129482268Y-103061914D01*
X129482268Y-103061914D02*
X129387030Y-103109533D01*
X129387030Y-103109533D02*
X129339411Y-103157152D01*
X129339411Y-103157152D02*
X129291792Y-103252390D01*
X129291792Y-103252390D02*
X129291792Y-103395247D01*
X129291792Y-103395247D02*
X129339411Y-103490485D01*
X129339411Y-103490485D02*
X129387030Y-103538104D01*
X129387030Y-103538104D02*
X129482268Y-103585723D01*
X129482268Y-103585723D02*
X129863220Y-103585723D01*
X128958458Y-103061914D02*
X128720363Y-104061914D01*
X128720363Y-104061914D02*
X128529887Y-103347628D01*
X128529887Y-103347628D02*
X128339411Y-104061914D01*
X128339411Y-104061914D02*
X128101316Y-103061914D01*
X127720363Y-104061914D02*
X127720363Y-103061914D01*
X127720363Y-103061914D02*
X127387030Y-103776199D01*
X127387030Y-103776199D02*
X127053697Y-103061914D01*
X127053697Y-103061914D02*
X127053697Y-104061914D01*
X134969939Y-104061914D02*
X134969939Y-103061914D01*
X134969939Y-103061914D02*
X134398511Y-104061914D01*
X134398511Y-104061914D02*
X134398511Y-103061914D01*
X133731844Y-103061914D02*
X133541368Y-103061914D01*
X133541368Y-103061914D02*
X133446130Y-103109533D01*
X133446130Y-103109533D02*
X133350892Y-103204771D01*
X133350892Y-103204771D02*
X133303273Y-103395247D01*
X133303273Y-103395247D02*
X133303273Y-103728580D01*
X133303273Y-103728580D02*
X133350892Y-103919056D01*
X133350892Y-103919056D02*
X133446130Y-104014295D01*
X133446130Y-104014295D02*
X133541368Y-104061914D01*
X133541368Y-104061914D02*
X133731844Y-104061914D01*
X133731844Y-104061914D02*
X133827082Y-104014295D01*
X133827082Y-104014295D02*
X133922320Y-103919056D01*
X133922320Y-103919056D02*
X133969939Y-103728580D01*
X133969939Y-103728580D02*
X133969939Y-103395247D01*
X133969939Y-103395247D02*
X133922320Y-103204771D01*
X133922320Y-103204771D02*
X133827082Y-103109533D01*
X133827082Y-103109533D02*
X133731844Y-103061914D01*
X132350892Y-104061914D02*
X132922320Y-104061914D01*
X132636606Y-104061914D02*
X132636606Y-103061914D01*
X132636606Y-103061914D02*
X132731844Y-103204771D01*
X132731844Y-103204771D02*
X132827082Y-103300009D01*
X132827082Y-103300009D02*
X132922320Y-103347628D01*
X137814609Y-103966675D02*
X137862228Y-104014295D01*
X137862228Y-104014295D02*
X138005085Y-104061914D01*
X138005085Y-104061914D02*
X138100323Y-104061914D01*
X138100323Y-104061914D02*
X138243180Y-104014295D01*
X138243180Y-104014295D02*
X138338418Y-103919056D01*
X138338418Y-103919056D02*
X138386037Y-103823818D01*
X138386037Y-103823818D02*
X138433656Y-103633342D01*
X138433656Y-103633342D02*
X138433656Y-103490485D01*
X138433656Y-103490485D02*
X138386037Y-103300009D01*
X138386037Y-103300009D02*
X138338418Y-103204771D01*
X138338418Y-103204771D02*
X138243180Y-103109533D01*
X138243180Y-103109533D02*
X138100323Y-103061914D01*
X138100323Y-103061914D02*
X138005085Y-103061914D01*
X138005085Y-103061914D02*
X137862228Y-103109533D01*
X137862228Y-103109533D02*
X137814609Y-103157152D01*
X137195561Y-103061914D02*
X137100323Y-103061914D01*
X137100323Y-103061914D02*
X137005085Y-103109533D01*
X137005085Y-103109533D02*
X136957466Y-103157152D01*
X136957466Y-103157152D02*
X136909847Y-103252390D01*
X136909847Y-103252390D02*
X136862228Y-103442866D01*
X136862228Y-103442866D02*
X136862228Y-103680961D01*
X136862228Y-103680961D02*
X136909847Y-103871437D01*
X136909847Y-103871437D02*
X136957466Y-103966675D01*
X136957466Y-103966675D02*
X137005085Y-104014295D01*
X137005085Y-104014295D02*
X137100323Y-104061914D01*
X137100323Y-104061914D02*
X137195561Y-104061914D01*
X137195561Y-104061914D02*
X137290799Y-104014295D01*
X137290799Y-104014295D02*
X137338418Y-103966675D01*
X137338418Y-103966675D02*
X137386037Y-103871437D01*
X137386037Y-103871437D02*
X137433656Y-103680961D01*
X137433656Y-103680961D02*
X137433656Y-103442866D01*
X137433656Y-103442866D02*
X137386037Y-103252390D01*
X137386037Y-103252390D02*
X137338418Y-103157152D01*
X137338418Y-103157152D02*
X137290799Y-103109533D01*
X137290799Y-103109533D02*
X137195561Y-103061914D01*
X135909847Y-104061914D02*
X136481275Y-104061914D01*
X136195561Y-104061914D02*
X136195561Y-103061914D01*
X136195561Y-103061914D02*
X136290799Y-103204771D01*
X136290799Y-103204771D02*
X136386037Y-103300009D01*
X136386037Y-103300009D02*
X136481275Y-103347628D01*
X142420993Y-104061914D02*
X142420993Y-103061914D01*
X142420993Y-103061914D02*
X141849565Y-104061914D01*
X141849565Y-104061914D02*
X141849565Y-103061914D01*
X140801946Y-103966675D02*
X140849565Y-104014295D01*
X140849565Y-104014295D02*
X140992422Y-104061914D01*
X140992422Y-104061914D02*
X141087660Y-104061914D01*
X141087660Y-104061914D02*
X141230517Y-104014295D01*
X141230517Y-104014295D02*
X141325755Y-103919056D01*
X141325755Y-103919056D02*
X141373374Y-103823818D01*
X141373374Y-103823818D02*
X141420993Y-103633342D01*
X141420993Y-103633342D02*
X141420993Y-103490485D01*
X141420993Y-103490485D02*
X141373374Y-103300009D01*
X141373374Y-103300009D02*
X141325755Y-103204771D01*
X141325755Y-103204771D02*
X141230517Y-103109533D01*
X141230517Y-103109533D02*
X141087660Y-103061914D01*
X141087660Y-103061914D02*
X140992422Y-103061914D01*
X140992422Y-103061914D02*
X140849565Y-103109533D01*
X140849565Y-103109533D02*
X140801946Y-103157152D01*
X139849565Y-104061914D02*
X140420993Y-104061914D01*
X140135279Y-104061914D02*
X140135279Y-103061914D01*
X140135279Y-103061914D02*
X140230517Y-103204771D01*
X140230517Y-103204771D02*
X140325755Y-103300009D01*
X140325755Y-103300009D02*
X140420993Y-103347628D01*
X146339411Y-103109533D02*
X146434649Y-103061914D01*
X146434649Y-103061914D02*
X146577506Y-103061914D01*
X146577506Y-103061914D02*
X146720363Y-103109533D01*
X146720363Y-103109533D02*
X146815601Y-103204771D01*
X146815601Y-103204771D02*
X146863220Y-103300009D01*
X146863220Y-103300009D02*
X146910839Y-103490485D01*
X146910839Y-103490485D02*
X146910839Y-103633342D01*
X146910839Y-103633342D02*
X146863220Y-103823818D01*
X146863220Y-103823818D02*
X146815601Y-103919056D01*
X146815601Y-103919056D02*
X146720363Y-104014295D01*
X146720363Y-104014295D02*
X146577506Y-104061914D01*
X146577506Y-104061914D02*
X146482268Y-104061914D01*
X146482268Y-104061914D02*
X146339411Y-104014295D01*
X146339411Y-104014295D02*
X146291792Y-103966675D01*
X146291792Y-103966675D02*
X146291792Y-103633342D01*
X146291792Y-103633342D02*
X146482268Y-103633342D01*
X145863220Y-104061914D02*
X145863220Y-103061914D01*
X145863220Y-103061914D02*
X145291792Y-104061914D01*
X145291792Y-104061914D02*
X145291792Y-103061914D01*
X144815601Y-104061914D02*
X144815601Y-103061914D01*
X144815601Y-103061914D02*
X144577506Y-103061914D01*
X144577506Y-103061914D02*
X144434649Y-103109533D01*
X144434649Y-103109533D02*
X144339411Y-103204771D01*
X144339411Y-103204771D02*
X144291792Y-103300009D01*
X144291792Y-103300009D02*
X144244173Y-103490485D01*
X144244173Y-103490485D02*
X144244173Y-103633342D01*
X144244173Y-103633342D02*
X144291792Y-103823818D01*
X144291792Y-103823818D02*
X144339411Y-103919056D01*
X144339411Y-103919056D02*
X144434649Y-104014295D01*
X144434649Y-104014295D02*
X144577506Y-104061914D01*
X144577506Y-104061914D02*
X144815601Y-104061914D01*
X149217030Y-103061914D02*
X149693220Y-103061914D01*
X149693220Y-103061914D02*
X149740839Y-103538104D01*
X149740839Y-103538104D02*
X149693220Y-103490485D01*
X149693220Y-103490485D02*
X149597982Y-103442866D01*
X149597982Y-103442866D02*
X149359887Y-103442866D01*
X149359887Y-103442866D02*
X149264649Y-103490485D01*
X149264649Y-103490485D02*
X149217030Y-103538104D01*
X149217030Y-103538104D02*
X149169411Y-103633342D01*
X149169411Y-103633342D02*
X149169411Y-103871437D01*
X149169411Y-103871437D02*
X149217030Y-103966675D01*
X149217030Y-103966675D02*
X149264649Y-104014295D01*
X149264649Y-104014295D02*
X149359887Y-104061914D01*
X149359887Y-104061914D02*
X149597982Y-104061914D01*
X149597982Y-104061914D02*
X149693220Y-104014295D01*
X149693220Y-104014295D02*
X149740839Y-103966675D01*
X148883696Y-103061914D02*
X148550363Y-104061914D01*
X148550363Y-104061914D02*
X148217030Y-103061914D01*
X153968458Y-103061914D02*
X153349411Y-103061914D01*
X153349411Y-103061914D02*
X153682744Y-103442866D01*
X153682744Y-103442866D02*
X153539887Y-103442866D01*
X153539887Y-103442866D02*
X153444649Y-103490485D01*
X153444649Y-103490485D02*
X153397030Y-103538104D01*
X153397030Y-103538104D02*
X153349411Y-103633342D01*
X153349411Y-103633342D02*
X153349411Y-103871437D01*
X153349411Y-103871437D02*
X153397030Y-103966675D01*
X153397030Y-103966675D02*
X153444649Y-104014295D01*
X153444649Y-104014295D02*
X153539887Y-104061914D01*
X153539887Y-104061914D02*
X153825601Y-104061914D01*
X153825601Y-104061914D02*
X153920839Y-104014295D01*
X153920839Y-104014295D02*
X153968458Y-103966675D01*
X152920839Y-103966675D02*
X152873220Y-104014295D01*
X152873220Y-104014295D02*
X152920839Y-104061914D01*
X152920839Y-104061914D02*
X152968458Y-104014295D01*
X152968458Y-104014295D02*
X152920839Y-103966675D01*
X152920839Y-103966675D02*
X152920839Y-104061914D01*
X152539887Y-103061914D02*
X151920840Y-103061914D01*
X151920840Y-103061914D02*
X152254173Y-103442866D01*
X152254173Y-103442866D02*
X152111316Y-103442866D01*
X152111316Y-103442866D02*
X152016078Y-103490485D01*
X152016078Y-103490485D02*
X151968459Y-103538104D01*
X151968459Y-103538104D02*
X151920840Y-103633342D01*
X151920840Y-103633342D02*
X151920840Y-103871437D01*
X151920840Y-103871437D02*
X151968459Y-103966675D01*
X151968459Y-103966675D02*
X152016078Y-104014295D01*
X152016078Y-104014295D02*
X152111316Y-104061914D01*
X152111316Y-104061914D02*
X152397030Y-104061914D01*
X152397030Y-104061914D02*
X152492268Y-104014295D01*
X152492268Y-104014295D02*
X152539887Y-103966675D01*
X151635125Y-103061914D02*
X151301792Y-104061914D01*
X151301792Y-104061914D02*
X150968459Y-103061914D01*
D12*
X123753308Y-77682193D02*
X124297594Y-77682193D01*
X124297594Y-77682193D02*
X124297594Y-76539193D01*
X122882451Y-76920193D02*
X122882451Y-77682193D01*
X123154593Y-76484765D02*
X123426736Y-77301193D01*
X123426736Y-77301193D02*
X122719165Y-77301193D01*
D11*
X115611904Y-48464819D02*
X115611904Y-49274342D01*
X115611904Y-49274342D02*
X115564285Y-49369580D01*
X115564285Y-49369580D02*
X115516666Y-49417200D01*
X115516666Y-49417200D02*
X115421428Y-49464819D01*
X115421428Y-49464819D02*
X115230952Y-49464819D01*
X115230952Y-49464819D02*
X115135714Y-49417200D01*
X115135714Y-49417200D02*
X115088095Y-49369580D01*
X115088095Y-49369580D02*
X115040476Y-49274342D01*
X115040476Y-49274342D02*
X115040476Y-48464819D01*
X114040476Y-49464819D02*
X114611904Y-49464819D01*
X114326190Y-49464819D02*
X114326190Y-48464819D01*
X114326190Y-48464819D02*
X114421428Y-48607676D01*
X114421428Y-48607676D02*
X114516666Y-48702914D01*
X114516666Y-48702914D02*
X114611904Y-48750533D01*
X108126666Y-44939580D02*
X108174285Y-44987200D01*
X108174285Y-44987200D02*
X108317142Y-45034819D01*
X108317142Y-45034819D02*
X108412380Y-45034819D01*
X108412380Y-45034819D02*
X108555237Y-44987200D01*
X108555237Y-44987200D02*
X108650475Y-44891961D01*
X108650475Y-44891961D02*
X108698094Y-44796723D01*
X108698094Y-44796723D02*
X108745713Y-44606247D01*
X108745713Y-44606247D02*
X108745713Y-44463390D01*
X108745713Y-44463390D02*
X108698094Y-44272914D01*
X108698094Y-44272914D02*
X108650475Y-44177676D01*
X108650475Y-44177676D02*
X108555237Y-44082438D01*
X108555237Y-44082438D02*
X108412380Y-44034819D01*
X108412380Y-44034819D02*
X108317142Y-44034819D01*
X108317142Y-44034819D02*
X108174285Y-44082438D01*
X108174285Y-44082438D02*
X108126666Y-44130057D01*
X107269523Y-44368152D02*
X107269523Y-45034819D01*
X107507618Y-43987200D02*
X107745713Y-44701485D01*
X107745713Y-44701485D02*
X107126666Y-44701485D01*
X121569580Y-83647142D02*
X121617200Y-83599523D01*
X121617200Y-83599523D02*
X121664819Y-83456666D01*
X121664819Y-83456666D02*
X121664819Y-83361428D01*
X121664819Y-83361428D02*
X121617200Y-83218571D01*
X121617200Y-83218571D02*
X121521961Y-83123333D01*
X121521961Y-83123333D02*
X121426723Y-83075714D01*
X121426723Y-83075714D02*
X121236247Y-83028095D01*
X121236247Y-83028095D02*
X121093390Y-83028095D01*
X121093390Y-83028095D02*
X120902914Y-83075714D01*
X120902914Y-83075714D02*
X120807676Y-83123333D01*
X120807676Y-83123333D02*
X120712438Y-83218571D01*
X120712438Y-83218571D02*
X120664819Y-83361428D01*
X120664819Y-83361428D02*
X120664819Y-83456666D01*
X120664819Y-83456666D02*
X120712438Y-83599523D01*
X120712438Y-83599523D02*
X120760057Y-83647142D01*
X121664819Y-84599523D02*
X121664819Y-84028095D01*
X121664819Y-84313809D02*
X120664819Y-84313809D01*
X120664819Y-84313809D02*
X120807676Y-84218571D01*
X120807676Y-84218571D02*
X120902914Y-84123333D01*
X120902914Y-84123333D02*
X120950533Y-84028095D01*
X120664819Y-85504285D02*
X120664819Y-85028095D01*
X120664819Y-85028095D02*
X121141009Y-84980476D01*
X121141009Y-84980476D02*
X121093390Y-85028095D01*
X121093390Y-85028095D02*
X121045771Y-85123333D01*
X121045771Y-85123333D02*
X121045771Y-85361428D01*
X121045771Y-85361428D02*
X121093390Y-85456666D01*
X121093390Y-85456666D02*
X121141009Y-85504285D01*
X121141009Y-85504285D02*
X121236247Y-85551904D01*
X121236247Y-85551904D02*
X121474342Y-85551904D01*
X121474342Y-85551904D02*
X121569580Y-85504285D01*
X121569580Y-85504285D02*
X121617200Y-85456666D01*
X121617200Y-85456666D02*
X121664819Y-85361428D01*
X121664819Y-85361428D02*
X121664819Y-85123333D01*
X121664819Y-85123333D02*
X121617200Y-85028095D01*
X121617200Y-85028095D02*
X121569580Y-84980476D01*
X121939580Y-70187142D02*
X121987200Y-70139523D01*
X121987200Y-70139523D02*
X122034819Y-69996666D01*
X122034819Y-69996666D02*
X122034819Y-69901428D01*
X122034819Y-69901428D02*
X121987200Y-69758571D01*
X121987200Y-69758571D02*
X121891961Y-69663333D01*
X121891961Y-69663333D02*
X121796723Y-69615714D01*
X121796723Y-69615714D02*
X121606247Y-69568095D01*
X121606247Y-69568095D02*
X121463390Y-69568095D01*
X121463390Y-69568095D02*
X121272914Y-69615714D01*
X121272914Y-69615714D02*
X121177676Y-69663333D01*
X121177676Y-69663333D02*
X121082438Y-69758571D01*
X121082438Y-69758571D02*
X121034819Y-69901428D01*
X121034819Y-69901428D02*
X121034819Y-69996666D01*
X121034819Y-69996666D02*
X121082438Y-70139523D01*
X121082438Y-70139523D02*
X121130057Y-70187142D01*
X122034819Y-71139523D02*
X122034819Y-70568095D01*
X122034819Y-70853809D02*
X121034819Y-70853809D01*
X121034819Y-70853809D02*
X121177676Y-70758571D01*
X121177676Y-70758571D02*
X121272914Y-70663333D01*
X121272914Y-70663333D02*
X121320533Y-70568095D01*
X121034819Y-71472857D02*
X121034819Y-72091904D01*
X121034819Y-72091904D02*
X121415771Y-71758571D01*
X121415771Y-71758571D02*
X121415771Y-71901428D01*
X121415771Y-71901428D02*
X121463390Y-71996666D01*
X121463390Y-71996666D02*
X121511009Y-72044285D01*
X121511009Y-72044285D02*
X121606247Y-72091904D01*
X121606247Y-72091904D02*
X121844342Y-72091904D01*
X121844342Y-72091904D02*
X121939580Y-72044285D01*
X121939580Y-72044285D02*
X121987200Y-71996666D01*
X121987200Y-71996666D02*
X122034819Y-71901428D01*
X122034819Y-71901428D02*
X122034819Y-71615714D01*
X122034819Y-71615714D02*
X121987200Y-71520476D01*
X121987200Y-71520476D02*
X121939580Y-71472857D01*
D12*
X119132193Y-83396691D02*
X119132193Y-82852405D01*
X119132193Y-82852405D02*
X117989193Y-82852405D01*
X117989193Y-83668834D02*
X117989193Y-84376406D01*
X117989193Y-84376406D02*
X118424622Y-83995406D01*
X118424622Y-83995406D02*
X118424622Y-84158691D01*
X118424622Y-84158691D02*
X118479050Y-84267549D01*
X118479050Y-84267549D02*
X118533479Y-84321977D01*
X118533479Y-84321977D02*
X118642336Y-84376406D01*
X118642336Y-84376406D02*
X118914479Y-84376406D01*
X118914479Y-84376406D02*
X119023336Y-84321977D01*
X119023336Y-84321977D02*
X119077765Y-84267549D01*
X119077765Y-84267549D02*
X119132193Y-84158691D01*
X119132193Y-84158691D02*
X119132193Y-83832120D01*
X119132193Y-83832120D02*
X119077765Y-83723263D01*
X119077765Y-83723263D02*
X119023336Y-83668834D01*
D11*
X106489580Y-93427142D02*
X106537200Y-93379523D01*
X106537200Y-93379523D02*
X106584819Y-93236666D01*
X106584819Y-93236666D02*
X106584819Y-93141428D01*
X106584819Y-93141428D02*
X106537200Y-92998571D01*
X106537200Y-92998571D02*
X106441961Y-92903333D01*
X106441961Y-92903333D02*
X106346723Y-92855714D01*
X106346723Y-92855714D02*
X106156247Y-92808095D01*
X106156247Y-92808095D02*
X106013390Y-92808095D01*
X106013390Y-92808095D02*
X105822914Y-92855714D01*
X105822914Y-92855714D02*
X105727676Y-92903333D01*
X105727676Y-92903333D02*
X105632438Y-92998571D01*
X105632438Y-92998571D02*
X105584819Y-93141428D01*
X105584819Y-93141428D02*
X105584819Y-93236666D01*
X105584819Y-93236666D02*
X105632438Y-93379523D01*
X105632438Y-93379523D02*
X105680057Y-93427142D01*
X106584819Y-94379523D02*
X106584819Y-93808095D01*
X106584819Y-94093809D02*
X105584819Y-94093809D01*
X105584819Y-94093809D02*
X105727676Y-93998571D01*
X105727676Y-93998571D02*
X105822914Y-93903333D01*
X105822914Y-93903333D02*
X105870533Y-93808095D01*
X106584819Y-94855714D02*
X106584819Y-95046190D01*
X106584819Y-95046190D02*
X106537200Y-95141428D01*
X106537200Y-95141428D02*
X106489580Y-95189047D01*
X106489580Y-95189047D02*
X106346723Y-95284285D01*
X106346723Y-95284285D02*
X106156247Y-95331904D01*
X106156247Y-95331904D02*
X105775295Y-95331904D01*
X105775295Y-95331904D02*
X105680057Y-95284285D01*
X105680057Y-95284285D02*
X105632438Y-95236666D01*
X105632438Y-95236666D02*
X105584819Y-95141428D01*
X105584819Y-95141428D02*
X105584819Y-94950952D01*
X105584819Y-94950952D02*
X105632438Y-94855714D01*
X105632438Y-94855714D02*
X105680057Y-94808095D01*
X105680057Y-94808095D02*
X105775295Y-94760476D01*
X105775295Y-94760476D02*
X106013390Y-94760476D01*
X106013390Y-94760476D02*
X106108628Y-94808095D01*
X106108628Y-94808095D02*
X106156247Y-94855714D01*
X106156247Y-94855714D02*
X106203866Y-94950952D01*
X106203866Y-94950952D02*
X106203866Y-95141428D01*
X106203866Y-95141428D02*
X106156247Y-95236666D01*
X106156247Y-95236666D02*
X106108628Y-95284285D01*
X106108628Y-95284285D02*
X106013390Y-95331904D01*
D13*
X119338214Y-72108002D02*
X119368452Y-72138241D01*
X119368452Y-72138241D02*
X119459166Y-72168479D01*
X119459166Y-72168479D02*
X119519642Y-72168479D01*
X119519642Y-72168479D02*
X119610357Y-72138241D01*
X119610357Y-72138241D02*
X119670833Y-72077764D01*
X119670833Y-72077764D02*
X119701071Y-72017288D01*
X119701071Y-72017288D02*
X119731309Y-71896336D01*
X119731309Y-71896336D02*
X119731309Y-71805621D01*
X119731309Y-71805621D02*
X119701071Y-71684669D01*
X119701071Y-71684669D02*
X119670833Y-71624193D01*
X119670833Y-71624193D02*
X119610357Y-71563717D01*
X119610357Y-71563717D02*
X119519642Y-71533479D01*
X119519642Y-71533479D02*
X119459166Y-71533479D01*
X119459166Y-71533479D02*
X119368452Y-71563717D01*
X119368452Y-71563717D02*
X119338214Y-71593955D01*
X119096309Y-71593955D02*
X119066071Y-71563717D01*
X119066071Y-71563717D02*
X119005595Y-71533479D01*
X119005595Y-71533479D02*
X118854404Y-71533479D01*
X118854404Y-71533479D02*
X118793928Y-71563717D01*
X118793928Y-71563717D02*
X118763690Y-71593955D01*
X118763690Y-71593955D02*
X118733452Y-71654431D01*
X118733452Y-71654431D02*
X118733452Y-71714907D01*
X118733452Y-71714907D02*
X118763690Y-71805621D01*
X118763690Y-71805621D02*
X119126547Y-72168479D01*
X119126547Y-72168479D02*
X118733452Y-72168479D01*
X118128690Y-72168479D02*
X118491547Y-72168479D01*
X118310119Y-72168479D02*
X118310119Y-71533479D01*
X118310119Y-71533479D02*
X118370595Y-71624193D01*
X118370595Y-71624193D02*
X118431071Y-71684669D01*
X118431071Y-71684669D02*
X118491547Y-71714907D01*
D11*
X119609580Y-51123333D02*
X119657200Y-51075714D01*
X119657200Y-51075714D02*
X119704819Y-50932857D01*
X119704819Y-50932857D02*
X119704819Y-50837619D01*
X119704819Y-50837619D02*
X119657200Y-50694762D01*
X119657200Y-50694762D02*
X119561961Y-50599524D01*
X119561961Y-50599524D02*
X119466723Y-50551905D01*
X119466723Y-50551905D02*
X119276247Y-50504286D01*
X119276247Y-50504286D02*
X119133390Y-50504286D01*
X119133390Y-50504286D02*
X118942914Y-50551905D01*
X118942914Y-50551905D02*
X118847676Y-50599524D01*
X118847676Y-50599524D02*
X118752438Y-50694762D01*
X118752438Y-50694762D02*
X118704819Y-50837619D01*
X118704819Y-50837619D02*
X118704819Y-50932857D01*
X118704819Y-50932857D02*
X118752438Y-51075714D01*
X118752438Y-51075714D02*
X118800057Y-51123333D01*
X119133390Y-51694762D02*
X119085771Y-51599524D01*
X119085771Y-51599524D02*
X119038152Y-51551905D01*
X119038152Y-51551905D02*
X118942914Y-51504286D01*
X118942914Y-51504286D02*
X118895295Y-51504286D01*
X118895295Y-51504286D02*
X118800057Y-51551905D01*
X118800057Y-51551905D02*
X118752438Y-51599524D01*
X118752438Y-51599524D02*
X118704819Y-51694762D01*
X118704819Y-51694762D02*
X118704819Y-51885238D01*
X118704819Y-51885238D02*
X118752438Y-51980476D01*
X118752438Y-51980476D02*
X118800057Y-52028095D01*
X118800057Y-52028095D02*
X118895295Y-52075714D01*
X118895295Y-52075714D02*
X118942914Y-52075714D01*
X118942914Y-52075714D02*
X119038152Y-52028095D01*
X119038152Y-52028095D02*
X119085771Y-51980476D01*
X119085771Y-51980476D02*
X119133390Y-51885238D01*
X119133390Y-51885238D02*
X119133390Y-51694762D01*
X119133390Y-51694762D02*
X119181009Y-51599524D01*
X119181009Y-51599524D02*
X119228628Y-51551905D01*
X119228628Y-51551905D02*
X119323866Y-51504286D01*
X119323866Y-51504286D02*
X119514342Y-51504286D01*
X119514342Y-51504286D02*
X119609580Y-51551905D01*
X119609580Y-51551905D02*
X119657200Y-51599524D01*
X119657200Y-51599524D02*
X119704819Y-51694762D01*
X119704819Y-51694762D02*
X119704819Y-51885238D01*
X119704819Y-51885238D02*
X119657200Y-51980476D01*
X119657200Y-51980476D02*
X119609580Y-52028095D01*
X119609580Y-52028095D02*
X119514342Y-52075714D01*
X119514342Y-52075714D02*
X119323866Y-52075714D01*
X119323866Y-52075714D02*
X119228628Y-52028095D01*
X119228628Y-52028095D02*
X119181009Y-51980476D01*
X119181009Y-51980476D02*
X119133390Y-51885238D01*
X112516666Y-44614819D02*
X112992856Y-44614819D01*
X112992856Y-44614819D02*
X112992856Y-43614819D01*
X111659523Y-44614819D02*
X112230951Y-44614819D01*
X111945237Y-44614819D02*
X111945237Y-43614819D01*
X111945237Y-43614819D02*
X112040475Y-43757676D01*
X112040475Y-43757676D02*
X112135713Y-43852914D01*
X112135713Y-43852914D02*
X112230951Y-43900533D01*
X116889580Y-80477142D02*
X116937200Y-80429523D01*
X116937200Y-80429523D02*
X116984819Y-80286666D01*
X116984819Y-80286666D02*
X116984819Y-80191428D01*
X116984819Y-80191428D02*
X116937200Y-80048571D01*
X116937200Y-80048571D02*
X116841961Y-79953333D01*
X116841961Y-79953333D02*
X116746723Y-79905714D01*
X116746723Y-79905714D02*
X116556247Y-79858095D01*
X116556247Y-79858095D02*
X116413390Y-79858095D01*
X116413390Y-79858095D02*
X116222914Y-79905714D01*
X116222914Y-79905714D02*
X116127676Y-79953333D01*
X116127676Y-79953333D02*
X116032438Y-80048571D01*
X116032438Y-80048571D02*
X115984819Y-80191428D01*
X115984819Y-80191428D02*
X115984819Y-80286666D01*
X115984819Y-80286666D02*
X116032438Y-80429523D01*
X116032438Y-80429523D02*
X116080057Y-80477142D01*
X116984819Y-81429523D02*
X116984819Y-80858095D01*
X116984819Y-81143809D02*
X115984819Y-81143809D01*
X115984819Y-81143809D02*
X116127676Y-81048571D01*
X116127676Y-81048571D02*
X116222914Y-80953333D01*
X116222914Y-80953333D02*
X116270533Y-80858095D01*
X115984819Y-81762857D02*
X115984819Y-82429523D01*
X115984819Y-82429523D02*
X116984819Y-82000952D01*
X111921904Y-80794819D02*
X111921904Y-81604342D01*
X111921904Y-81604342D02*
X111874285Y-81699580D01*
X111874285Y-81699580D02*
X111826666Y-81747200D01*
X111826666Y-81747200D02*
X111731428Y-81794819D01*
X111731428Y-81794819D02*
X111540952Y-81794819D01*
X111540952Y-81794819D02*
X111445714Y-81747200D01*
X111445714Y-81747200D02*
X111398095Y-81699580D01*
X111398095Y-81699580D02*
X111350476Y-81604342D01*
X111350476Y-81604342D02*
X111350476Y-80794819D01*
X110969523Y-80794819D02*
X110350476Y-80794819D01*
X110350476Y-80794819D02*
X110683809Y-81175771D01*
X110683809Y-81175771D02*
X110540952Y-81175771D01*
X110540952Y-81175771D02*
X110445714Y-81223390D01*
X110445714Y-81223390D02*
X110398095Y-81271009D01*
X110398095Y-81271009D02*
X110350476Y-81366247D01*
X110350476Y-81366247D02*
X110350476Y-81604342D01*
X110350476Y-81604342D02*
X110398095Y-81699580D01*
X110398095Y-81699580D02*
X110445714Y-81747200D01*
X110445714Y-81747200D02*
X110540952Y-81794819D01*
X110540952Y-81794819D02*
X110826666Y-81794819D01*
X110826666Y-81794819D02*
X110921904Y-81747200D01*
X110921904Y-81747200D02*
X110969523Y-81699580D01*
X124634819Y-78817142D02*
X124158628Y-78483809D01*
X124634819Y-78245714D02*
X123634819Y-78245714D01*
X123634819Y-78245714D02*
X123634819Y-78626666D01*
X123634819Y-78626666D02*
X123682438Y-78721904D01*
X123682438Y-78721904D02*
X123730057Y-78769523D01*
X123730057Y-78769523D02*
X123825295Y-78817142D01*
X123825295Y-78817142D02*
X123968152Y-78817142D01*
X123968152Y-78817142D02*
X124063390Y-78769523D01*
X124063390Y-78769523D02*
X124111009Y-78721904D01*
X124111009Y-78721904D02*
X124158628Y-78626666D01*
X124158628Y-78626666D02*
X124158628Y-78245714D01*
X124634819Y-79769523D02*
X124634819Y-79198095D01*
X124634819Y-79483809D02*
X123634819Y-79483809D01*
X123634819Y-79483809D02*
X123777676Y-79388571D01*
X123777676Y-79388571D02*
X123872914Y-79293333D01*
X123872914Y-79293333D02*
X123920533Y-79198095D01*
X124634819Y-80721904D02*
X124634819Y-80150476D01*
X124634819Y-80436190D02*
X123634819Y-80436190D01*
X123634819Y-80436190D02*
X123777676Y-80340952D01*
X123777676Y-80340952D02*
X123872914Y-80245714D01*
X123872914Y-80245714D02*
X123920533Y-80150476D01*
X106046666Y-46969580D02*
X106094285Y-47017200D01*
X106094285Y-47017200D02*
X106237142Y-47064819D01*
X106237142Y-47064819D02*
X106332380Y-47064819D01*
X106332380Y-47064819D02*
X106475237Y-47017200D01*
X106475237Y-47017200D02*
X106570475Y-46921961D01*
X106570475Y-46921961D02*
X106618094Y-46826723D01*
X106618094Y-46826723D02*
X106665713Y-46636247D01*
X106665713Y-46636247D02*
X106665713Y-46493390D01*
X106665713Y-46493390D02*
X106618094Y-46302914D01*
X106618094Y-46302914D02*
X106570475Y-46207676D01*
X106570475Y-46207676D02*
X106475237Y-46112438D01*
X106475237Y-46112438D02*
X106332380Y-46064819D01*
X106332380Y-46064819D02*
X106237142Y-46064819D01*
X106237142Y-46064819D02*
X106094285Y-46112438D01*
X106094285Y-46112438D02*
X106046666Y-46160057D01*
X105713332Y-46064819D02*
X105094285Y-46064819D01*
X105094285Y-46064819D02*
X105427618Y-46445771D01*
X105427618Y-46445771D02*
X105284761Y-46445771D01*
X105284761Y-46445771D02*
X105189523Y-46493390D01*
X105189523Y-46493390D02*
X105141904Y-46541009D01*
X105141904Y-46541009D02*
X105094285Y-46636247D01*
X105094285Y-46636247D02*
X105094285Y-46874342D01*
X105094285Y-46874342D02*
X105141904Y-46969580D01*
X105141904Y-46969580D02*
X105189523Y-47017200D01*
X105189523Y-47017200D02*
X105284761Y-47064819D01*
X105284761Y-47064819D02*
X105570475Y-47064819D01*
X105570475Y-47064819D02*
X105665713Y-47017200D01*
X105665713Y-47017200D02*
X105713332Y-46969580D01*
X119684819Y-73517142D02*
X119208628Y-73183809D01*
X119684819Y-72945714D02*
X118684819Y-72945714D01*
X118684819Y-72945714D02*
X118684819Y-73326666D01*
X118684819Y-73326666D02*
X118732438Y-73421904D01*
X118732438Y-73421904D02*
X118780057Y-73469523D01*
X118780057Y-73469523D02*
X118875295Y-73517142D01*
X118875295Y-73517142D02*
X119018152Y-73517142D01*
X119018152Y-73517142D02*
X119113390Y-73469523D01*
X119113390Y-73469523D02*
X119161009Y-73421904D01*
X119161009Y-73421904D02*
X119208628Y-73326666D01*
X119208628Y-73326666D02*
X119208628Y-72945714D01*
X119684819Y-74469523D02*
X119684819Y-73898095D01*
X119684819Y-74183809D02*
X118684819Y-74183809D01*
X118684819Y-74183809D02*
X118827676Y-74088571D01*
X118827676Y-74088571D02*
X118922914Y-73993333D01*
X118922914Y-73993333D02*
X118970533Y-73898095D01*
X118684819Y-74802857D02*
X118684819Y-75421904D01*
X118684819Y-75421904D02*
X119065771Y-75088571D01*
X119065771Y-75088571D02*
X119065771Y-75231428D01*
X119065771Y-75231428D02*
X119113390Y-75326666D01*
X119113390Y-75326666D02*
X119161009Y-75374285D01*
X119161009Y-75374285D02*
X119256247Y-75421904D01*
X119256247Y-75421904D02*
X119494342Y-75421904D01*
X119494342Y-75421904D02*
X119589580Y-75374285D01*
X119589580Y-75374285D02*
X119637200Y-75326666D01*
X119637200Y-75326666D02*
X119684819Y-75231428D01*
X119684819Y-75231428D02*
X119684819Y-74945714D01*
X119684819Y-74945714D02*
X119637200Y-74850476D01*
X119637200Y-74850476D02*
X119589580Y-74802857D01*
X115349580Y-80497142D02*
X115397200Y-80449523D01*
X115397200Y-80449523D02*
X115444819Y-80306666D01*
X115444819Y-80306666D02*
X115444819Y-80211428D01*
X115444819Y-80211428D02*
X115397200Y-80068571D01*
X115397200Y-80068571D02*
X115301961Y-79973333D01*
X115301961Y-79973333D02*
X115206723Y-79925714D01*
X115206723Y-79925714D02*
X115016247Y-79878095D01*
X115016247Y-79878095D02*
X114873390Y-79878095D01*
X114873390Y-79878095D02*
X114682914Y-79925714D01*
X114682914Y-79925714D02*
X114587676Y-79973333D01*
X114587676Y-79973333D02*
X114492438Y-80068571D01*
X114492438Y-80068571D02*
X114444819Y-80211428D01*
X114444819Y-80211428D02*
X114444819Y-80306666D01*
X114444819Y-80306666D02*
X114492438Y-80449523D01*
X114492438Y-80449523D02*
X114540057Y-80497142D01*
X115444819Y-81449523D02*
X115444819Y-80878095D01*
X115444819Y-81163809D02*
X114444819Y-81163809D01*
X114444819Y-81163809D02*
X114587676Y-81068571D01*
X114587676Y-81068571D02*
X114682914Y-80973333D01*
X114682914Y-80973333D02*
X114730533Y-80878095D01*
X114444819Y-82306666D02*
X114444819Y-82116190D01*
X114444819Y-82116190D02*
X114492438Y-82020952D01*
X114492438Y-82020952D02*
X114540057Y-81973333D01*
X114540057Y-81973333D02*
X114682914Y-81878095D01*
X114682914Y-81878095D02*
X114873390Y-81830476D01*
X114873390Y-81830476D02*
X115254342Y-81830476D01*
X115254342Y-81830476D02*
X115349580Y-81878095D01*
X115349580Y-81878095D02*
X115397200Y-81925714D01*
X115397200Y-81925714D02*
X115444819Y-82020952D01*
X115444819Y-82020952D02*
X115444819Y-82211428D01*
X115444819Y-82211428D02*
X115397200Y-82306666D01*
X115397200Y-82306666D02*
X115349580Y-82354285D01*
X115349580Y-82354285D02*
X115254342Y-82401904D01*
X115254342Y-82401904D02*
X115016247Y-82401904D01*
X115016247Y-82401904D02*
X114921009Y-82354285D01*
X114921009Y-82354285D02*
X114873390Y-82306666D01*
X114873390Y-82306666D02*
X114825771Y-82211428D01*
X114825771Y-82211428D02*
X114825771Y-82020952D01*
X114825771Y-82020952D02*
X114873390Y-81925714D01*
X114873390Y-81925714D02*
X114921009Y-81878095D01*
X114921009Y-81878095D02*
X115016247Y-81830476D01*
X123409580Y-70237142D02*
X123457200Y-70189523D01*
X123457200Y-70189523D02*
X123504819Y-70046666D01*
X123504819Y-70046666D02*
X123504819Y-69951428D01*
X123504819Y-69951428D02*
X123457200Y-69808571D01*
X123457200Y-69808571D02*
X123361961Y-69713333D01*
X123361961Y-69713333D02*
X123266723Y-69665714D01*
X123266723Y-69665714D02*
X123076247Y-69618095D01*
X123076247Y-69618095D02*
X122933390Y-69618095D01*
X122933390Y-69618095D02*
X122742914Y-69665714D01*
X122742914Y-69665714D02*
X122647676Y-69713333D01*
X122647676Y-69713333D02*
X122552438Y-69808571D01*
X122552438Y-69808571D02*
X122504819Y-69951428D01*
X122504819Y-69951428D02*
X122504819Y-70046666D01*
X122504819Y-70046666D02*
X122552438Y-70189523D01*
X122552438Y-70189523D02*
X122600057Y-70237142D01*
X123504819Y-71189523D02*
X123504819Y-70618095D01*
X123504819Y-70903809D02*
X122504819Y-70903809D01*
X122504819Y-70903809D02*
X122647676Y-70808571D01*
X122647676Y-70808571D02*
X122742914Y-70713333D01*
X122742914Y-70713333D02*
X122790533Y-70618095D01*
X122838152Y-72046666D02*
X123504819Y-72046666D01*
X122457200Y-71808571D02*
X123171485Y-71570476D01*
X123171485Y-71570476D02*
X123171485Y-72189523D01*
X106939580Y-73217142D02*
X106987200Y-73169523D01*
X106987200Y-73169523D02*
X107034819Y-73026666D01*
X107034819Y-73026666D02*
X107034819Y-72931428D01*
X107034819Y-72931428D02*
X106987200Y-72788571D01*
X106987200Y-72788571D02*
X106891961Y-72693333D01*
X106891961Y-72693333D02*
X106796723Y-72645714D01*
X106796723Y-72645714D02*
X106606247Y-72598095D01*
X106606247Y-72598095D02*
X106463390Y-72598095D01*
X106463390Y-72598095D02*
X106272914Y-72645714D01*
X106272914Y-72645714D02*
X106177676Y-72693333D01*
X106177676Y-72693333D02*
X106082438Y-72788571D01*
X106082438Y-72788571D02*
X106034819Y-72931428D01*
X106034819Y-72931428D02*
X106034819Y-73026666D01*
X106034819Y-73026666D02*
X106082438Y-73169523D01*
X106082438Y-73169523D02*
X106130057Y-73217142D01*
X107034819Y-74169523D02*
X107034819Y-73598095D01*
X107034819Y-73883809D02*
X106034819Y-73883809D01*
X106034819Y-73883809D02*
X106177676Y-73788571D01*
X106177676Y-73788571D02*
X106272914Y-73693333D01*
X106272914Y-73693333D02*
X106320533Y-73598095D01*
X106463390Y-74740952D02*
X106415771Y-74645714D01*
X106415771Y-74645714D02*
X106368152Y-74598095D01*
X106368152Y-74598095D02*
X106272914Y-74550476D01*
X106272914Y-74550476D02*
X106225295Y-74550476D01*
X106225295Y-74550476D02*
X106130057Y-74598095D01*
X106130057Y-74598095D02*
X106082438Y-74645714D01*
X106082438Y-74645714D02*
X106034819Y-74740952D01*
X106034819Y-74740952D02*
X106034819Y-74931428D01*
X106034819Y-74931428D02*
X106082438Y-75026666D01*
X106082438Y-75026666D02*
X106130057Y-75074285D01*
X106130057Y-75074285D02*
X106225295Y-75121904D01*
X106225295Y-75121904D02*
X106272914Y-75121904D01*
X106272914Y-75121904D02*
X106368152Y-75074285D01*
X106368152Y-75074285D02*
X106415771Y-75026666D01*
X106415771Y-75026666D02*
X106463390Y-74931428D01*
X106463390Y-74931428D02*
X106463390Y-74740952D01*
X106463390Y-74740952D02*
X106511009Y-74645714D01*
X106511009Y-74645714D02*
X106558628Y-74598095D01*
X106558628Y-74598095D02*
X106653866Y-74550476D01*
X106653866Y-74550476D02*
X106844342Y-74550476D01*
X106844342Y-74550476D02*
X106939580Y-74598095D01*
X106939580Y-74598095D02*
X106987200Y-74645714D01*
X106987200Y-74645714D02*
X107034819Y-74740952D01*
X107034819Y-74740952D02*
X107034819Y-74931428D01*
X107034819Y-74931428D02*
X106987200Y-75026666D01*
X106987200Y-75026666D02*
X106939580Y-75074285D01*
X106939580Y-75074285D02*
X106844342Y-75121904D01*
X106844342Y-75121904D02*
X106653866Y-75121904D01*
X106653866Y-75121904D02*
X106558628Y-75074285D01*
X106558628Y-75074285D02*
X106511009Y-75026666D01*
X106511009Y-75026666D02*
X106463390Y-74931428D01*
X112938094Y-59594819D02*
X112938094Y-58594819D01*
X112938094Y-58594819D02*
X112699999Y-58594819D01*
X112699999Y-58594819D02*
X112557142Y-58642438D01*
X112557142Y-58642438D02*
X112461904Y-58737676D01*
X112461904Y-58737676D02*
X112414285Y-58832914D01*
X112414285Y-58832914D02*
X112366666Y-59023390D01*
X112366666Y-59023390D02*
X112366666Y-59166247D01*
X112366666Y-59166247D02*
X112414285Y-59356723D01*
X112414285Y-59356723D02*
X112461904Y-59451961D01*
X112461904Y-59451961D02*
X112557142Y-59547200D01*
X112557142Y-59547200D02*
X112699999Y-59594819D01*
X112699999Y-59594819D02*
X112938094Y-59594819D01*
X111509523Y-58928152D02*
X111509523Y-59594819D01*
X111747618Y-58547200D02*
X111985713Y-59261485D01*
X111985713Y-59261485D02*
X111366666Y-59261485D01*
X156102144Y-79020143D02*
X156138430Y-78983857D01*
X156138430Y-78983857D02*
X156174715Y-78875000D01*
X156174715Y-78875000D02*
X156174715Y-78802428D01*
X156174715Y-78802428D02*
X156138430Y-78693571D01*
X156138430Y-78693571D02*
X156065858Y-78621000D01*
X156065858Y-78621000D02*
X155993287Y-78584714D01*
X155993287Y-78584714D02*
X155848144Y-78548428D01*
X155848144Y-78548428D02*
X155739287Y-78548428D01*
X155739287Y-78548428D02*
X155594144Y-78584714D01*
X155594144Y-78584714D02*
X155521572Y-78621000D01*
X155521572Y-78621000D02*
X155449001Y-78693571D01*
X155449001Y-78693571D02*
X155412715Y-78802428D01*
X155412715Y-78802428D02*
X155412715Y-78875000D01*
X155412715Y-78875000D02*
X155449001Y-78983857D01*
X155449001Y-78983857D02*
X155485287Y-79020143D01*
X155412715Y-79274143D02*
X155412715Y-79745857D01*
X155412715Y-79745857D02*
X155703001Y-79491857D01*
X155703001Y-79491857D02*
X155703001Y-79600714D01*
X155703001Y-79600714D02*
X155739287Y-79673286D01*
X155739287Y-79673286D02*
X155775572Y-79709571D01*
X155775572Y-79709571D02*
X155848144Y-79745857D01*
X155848144Y-79745857D02*
X156029572Y-79745857D01*
X156029572Y-79745857D02*
X156102144Y-79709571D01*
X156102144Y-79709571D02*
X156138430Y-79673286D01*
X156138430Y-79673286D02*
X156174715Y-79600714D01*
X156174715Y-79600714D02*
X156174715Y-79383000D01*
X156174715Y-79383000D02*
X156138430Y-79310428D01*
X156138430Y-79310428D02*
X156102144Y-79274143D01*
X155412715Y-79999857D02*
X155412715Y-80507857D01*
X155412715Y-80507857D02*
X156174715Y-80181285D01*
X120999580Y-51173333D02*
X121047200Y-51125714D01*
X121047200Y-51125714D02*
X121094819Y-50982857D01*
X121094819Y-50982857D02*
X121094819Y-50887619D01*
X121094819Y-50887619D02*
X121047200Y-50744762D01*
X121047200Y-50744762D02*
X120951961Y-50649524D01*
X120951961Y-50649524D02*
X120856723Y-50601905D01*
X120856723Y-50601905D02*
X120666247Y-50554286D01*
X120666247Y-50554286D02*
X120523390Y-50554286D01*
X120523390Y-50554286D02*
X120332914Y-50601905D01*
X120332914Y-50601905D02*
X120237676Y-50649524D01*
X120237676Y-50649524D02*
X120142438Y-50744762D01*
X120142438Y-50744762D02*
X120094819Y-50887619D01*
X120094819Y-50887619D02*
X120094819Y-50982857D01*
X120094819Y-50982857D02*
X120142438Y-51125714D01*
X120142438Y-51125714D02*
X120190057Y-51173333D01*
X120094819Y-52078095D02*
X120094819Y-51601905D01*
X120094819Y-51601905D02*
X120571009Y-51554286D01*
X120571009Y-51554286D02*
X120523390Y-51601905D01*
X120523390Y-51601905D02*
X120475771Y-51697143D01*
X120475771Y-51697143D02*
X120475771Y-51935238D01*
X120475771Y-51935238D02*
X120523390Y-52030476D01*
X120523390Y-52030476D02*
X120571009Y-52078095D01*
X120571009Y-52078095D02*
X120666247Y-52125714D01*
X120666247Y-52125714D02*
X120904342Y-52125714D01*
X120904342Y-52125714D02*
X120999580Y-52078095D01*
X120999580Y-52078095D02*
X121047200Y-52030476D01*
X121047200Y-52030476D02*
X121094819Y-51935238D01*
X121094819Y-51935238D02*
X121094819Y-51697143D01*
X121094819Y-51697143D02*
X121047200Y-51601905D01*
X121047200Y-51601905D02*
X120999580Y-51554286D01*
D14*
X157355911Y-78664714D02*
X156593911Y-78664714D01*
X156593911Y-78664714D02*
X156593911Y-78846143D01*
X156593911Y-78846143D02*
X156630197Y-78955000D01*
X156630197Y-78955000D02*
X156702768Y-79027571D01*
X156702768Y-79027571D02*
X156775340Y-79063857D01*
X156775340Y-79063857D02*
X156920483Y-79100143D01*
X156920483Y-79100143D02*
X157029340Y-79100143D01*
X157029340Y-79100143D02*
X157174483Y-79063857D01*
X157174483Y-79063857D02*
X157247054Y-79027571D01*
X157247054Y-79027571D02*
X157319626Y-78955000D01*
X157319626Y-78955000D02*
X157355911Y-78846143D01*
X157355911Y-78846143D02*
X157355911Y-78664714D01*
X157355911Y-79825857D02*
X157355911Y-79390428D01*
X157355911Y-79608143D02*
X156593911Y-79608143D01*
X156593911Y-79608143D02*
X156702768Y-79535571D01*
X156702768Y-79535571D02*
X156775340Y-79463000D01*
X156775340Y-79463000D02*
X156811626Y-79390428D01*
X157355911Y-80188714D02*
X157355911Y-80333857D01*
X157355911Y-80333857D02*
X157319626Y-80406428D01*
X157319626Y-80406428D02*
X157283340Y-80442714D01*
X157283340Y-80442714D02*
X157174483Y-80515285D01*
X157174483Y-80515285D02*
X157029340Y-80551571D01*
X157029340Y-80551571D02*
X156739054Y-80551571D01*
X156739054Y-80551571D02*
X156666483Y-80515285D01*
X156666483Y-80515285D02*
X156630197Y-80479000D01*
X156630197Y-80479000D02*
X156593911Y-80406428D01*
X156593911Y-80406428D02*
X156593911Y-80261285D01*
X156593911Y-80261285D02*
X156630197Y-80188714D01*
X156630197Y-80188714D02*
X156666483Y-80152428D01*
X156666483Y-80152428D02*
X156739054Y-80116142D01*
X156739054Y-80116142D02*
X156920483Y-80116142D01*
X156920483Y-80116142D02*
X156993054Y-80152428D01*
X156993054Y-80152428D02*
X157029340Y-80188714D01*
X157029340Y-80188714D02*
X157065626Y-80261285D01*
X157065626Y-80261285D02*
X157065626Y-80406428D01*
X157065626Y-80406428D02*
X157029340Y-80479000D01*
X157029340Y-80479000D02*
X156993054Y-80515285D01*
X156993054Y-80515285D02*
X156920483Y-80551571D01*
D13*
X116018214Y-77018002D02*
X116048452Y-77048241D01*
X116048452Y-77048241D02*
X116139166Y-77078479D01*
X116139166Y-77078479D02*
X116199642Y-77078479D01*
X116199642Y-77078479D02*
X116290357Y-77048241D01*
X116290357Y-77048241D02*
X116350833Y-76987764D01*
X116350833Y-76987764D02*
X116381071Y-76927288D01*
X116381071Y-76927288D02*
X116411309Y-76806336D01*
X116411309Y-76806336D02*
X116411309Y-76715621D01*
X116411309Y-76715621D02*
X116381071Y-76594669D01*
X116381071Y-76594669D02*
X116350833Y-76534193D01*
X116350833Y-76534193D02*
X116290357Y-76473717D01*
X116290357Y-76473717D02*
X116199642Y-76443479D01*
X116199642Y-76443479D02*
X116139166Y-76443479D01*
X116139166Y-76443479D02*
X116048452Y-76473717D01*
X116048452Y-76473717D02*
X116018214Y-76503955D01*
X115776309Y-76503955D02*
X115746071Y-76473717D01*
X115746071Y-76473717D02*
X115685595Y-76443479D01*
X115685595Y-76443479D02*
X115534404Y-76443479D01*
X115534404Y-76443479D02*
X115473928Y-76473717D01*
X115473928Y-76473717D02*
X115443690Y-76503955D01*
X115443690Y-76503955D02*
X115413452Y-76564431D01*
X115413452Y-76564431D02*
X115413452Y-76624907D01*
X115413452Y-76624907D02*
X115443690Y-76715621D01*
X115443690Y-76715621D02*
X115806547Y-77078479D01*
X115806547Y-77078479D02*
X115413452Y-77078479D01*
X115171547Y-76503955D02*
X115141309Y-76473717D01*
X115141309Y-76473717D02*
X115080833Y-76443479D01*
X115080833Y-76443479D02*
X114929642Y-76443479D01*
X114929642Y-76443479D02*
X114869166Y-76473717D01*
X114869166Y-76473717D02*
X114838928Y-76503955D01*
X114838928Y-76503955D02*
X114808690Y-76564431D01*
X114808690Y-76564431D02*
X114808690Y-76624907D01*
X114808690Y-76624907D02*
X114838928Y-76715621D01*
X114838928Y-76715621D02*
X115201785Y-77078479D01*
X115201785Y-77078479D02*
X114808690Y-77078479D01*
D10*
X117511428Y-72078490D02*
X117535237Y-72102300D01*
X117535237Y-72102300D02*
X117606666Y-72126109D01*
X117606666Y-72126109D02*
X117654285Y-72126109D01*
X117654285Y-72126109D02*
X117725713Y-72102300D01*
X117725713Y-72102300D02*
X117773332Y-72054680D01*
X117773332Y-72054680D02*
X117797142Y-72007061D01*
X117797142Y-72007061D02*
X117820951Y-71911823D01*
X117820951Y-71911823D02*
X117820951Y-71840395D01*
X117820951Y-71840395D02*
X117797142Y-71745157D01*
X117797142Y-71745157D02*
X117773332Y-71697538D01*
X117773332Y-71697538D02*
X117725713Y-71649919D01*
X117725713Y-71649919D02*
X117654285Y-71626109D01*
X117654285Y-71626109D02*
X117606666Y-71626109D01*
X117606666Y-71626109D02*
X117535237Y-71649919D01*
X117535237Y-71649919D02*
X117511428Y-71673728D01*
X117320951Y-71673728D02*
X117297142Y-71649919D01*
X117297142Y-71649919D02*
X117249523Y-71626109D01*
X117249523Y-71626109D02*
X117130475Y-71626109D01*
X117130475Y-71626109D02*
X117082856Y-71649919D01*
X117082856Y-71649919D02*
X117059047Y-71673728D01*
X117059047Y-71673728D02*
X117035237Y-71721347D01*
X117035237Y-71721347D02*
X117035237Y-71768966D01*
X117035237Y-71768966D02*
X117059047Y-71840395D01*
X117059047Y-71840395D02*
X117344761Y-72126109D01*
X117344761Y-72126109D02*
X117035237Y-72126109D01*
X116868571Y-71626109D02*
X116559047Y-71626109D01*
X116559047Y-71626109D02*
X116725714Y-71816585D01*
X116725714Y-71816585D02*
X116654285Y-71816585D01*
X116654285Y-71816585D02*
X116606666Y-71840395D01*
X116606666Y-71840395D02*
X116582857Y-71864204D01*
X116582857Y-71864204D02*
X116559047Y-71911823D01*
X116559047Y-71911823D02*
X116559047Y-72030871D01*
X116559047Y-72030871D02*
X116582857Y-72078490D01*
X116582857Y-72078490D02*
X116606666Y-72102300D01*
X116606666Y-72102300D02*
X116654285Y-72126109D01*
X116654285Y-72126109D02*
X116797142Y-72126109D01*
X116797142Y-72126109D02*
X116844761Y-72102300D01*
X116844761Y-72102300D02*
X116868571Y-72078490D01*
D11*
X103784819Y-50753333D02*
X103308628Y-50420000D01*
X103784819Y-50181905D02*
X102784819Y-50181905D01*
X102784819Y-50181905D02*
X102784819Y-50562857D01*
X102784819Y-50562857D02*
X102832438Y-50658095D01*
X102832438Y-50658095D02*
X102880057Y-50705714D01*
X102880057Y-50705714D02*
X102975295Y-50753333D01*
X102975295Y-50753333D02*
X103118152Y-50753333D01*
X103118152Y-50753333D02*
X103213390Y-50705714D01*
X103213390Y-50705714D02*
X103261009Y-50658095D01*
X103261009Y-50658095D02*
X103308628Y-50562857D01*
X103308628Y-50562857D02*
X103308628Y-50181905D01*
X103213390Y-51324762D02*
X103165771Y-51229524D01*
X103165771Y-51229524D02*
X103118152Y-51181905D01*
X103118152Y-51181905D02*
X103022914Y-51134286D01*
X103022914Y-51134286D02*
X102975295Y-51134286D01*
X102975295Y-51134286D02*
X102880057Y-51181905D01*
X102880057Y-51181905D02*
X102832438Y-51229524D01*
X102832438Y-51229524D02*
X102784819Y-51324762D01*
X102784819Y-51324762D02*
X102784819Y-51515238D01*
X102784819Y-51515238D02*
X102832438Y-51610476D01*
X102832438Y-51610476D02*
X102880057Y-51658095D01*
X102880057Y-51658095D02*
X102975295Y-51705714D01*
X102975295Y-51705714D02*
X103022914Y-51705714D01*
X103022914Y-51705714D02*
X103118152Y-51658095D01*
X103118152Y-51658095D02*
X103165771Y-51610476D01*
X103165771Y-51610476D02*
X103213390Y-51515238D01*
X103213390Y-51515238D02*
X103213390Y-51324762D01*
X103213390Y-51324762D02*
X103261009Y-51229524D01*
X103261009Y-51229524D02*
X103308628Y-51181905D01*
X103308628Y-51181905D02*
X103403866Y-51134286D01*
X103403866Y-51134286D02*
X103594342Y-51134286D01*
X103594342Y-51134286D02*
X103689580Y-51181905D01*
X103689580Y-51181905D02*
X103737200Y-51229524D01*
X103737200Y-51229524D02*
X103784819Y-51324762D01*
X103784819Y-51324762D02*
X103784819Y-51515238D01*
X103784819Y-51515238D02*
X103737200Y-51610476D01*
X103737200Y-51610476D02*
X103689580Y-51658095D01*
X103689580Y-51658095D02*
X103594342Y-51705714D01*
X103594342Y-51705714D02*
X103403866Y-51705714D01*
X103403866Y-51705714D02*
X103308628Y-51658095D01*
X103308628Y-51658095D02*
X103261009Y-51610476D01*
X103261009Y-51610476D02*
X103213390Y-51515238D01*
X110236666Y-63009580D02*
X110284285Y-63057200D01*
X110284285Y-63057200D02*
X110427142Y-63104819D01*
X110427142Y-63104819D02*
X110522380Y-63104819D01*
X110522380Y-63104819D02*
X110665237Y-63057200D01*
X110665237Y-63057200D02*
X110760475Y-62961961D01*
X110760475Y-62961961D02*
X110808094Y-62866723D01*
X110808094Y-62866723D02*
X110855713Y-62676247D01*
X110855713Y-62676247D02*
X110855713Y-62533390D01*
X110855713Y-62533390D02*
X110808094Y-62342914D01*
X110808094Y-62342914D02*
X110760475Y-62247676D01*
X110760475Y-62247676D02*
X110665237Y-62152438D01*
X110665237Y-62152438D02*
X110522380Y-62104819D01*
X110522380Y-62104819D02*
X110427142Y-62104819D01*
X110427142Y-62104819D02*
X110284285Y-62152438D01*
X110284285Y-62152438D02*
X110236666Y-62200057D01*
X109284285Y-63104819D02*
X109855713Y-63104819D01*
X109569999Y-63104819D02*
X109569999Y-62104819D01*
X109569999Y-62104819D02*
X109665237Y-62247676D01*
X109665237Y-62247676D02*
X109760475Y-62342914D01*
X109760475Y-62342914D02*
X109855713Y-62390533D01*
X118294819Y-51143333D02*
X117818628Y-50810000D01*
X118294819Y-50571905D02*
X117294819Y-50571905D01*
X117294819Y-50571905D02*
X117294819Y-50952857D01*
X117294819Y-50952857D02*
X117342438Y-51048095D01*
X117342438Y-51048095D02*
X117390057Y-51095714D01*
X117390057Y-51095714D02*
X117485295Y-51143333D01*
X117485295Y-51143333D02*
X117628152Y-51143333D01*
X117628152Y-51143333D02*
X117723390Y-51095714D01*
X117723390Y-51095714D02*
X117771009Y-51048095D01*
X117771009Y-51048095D02*
X117818628Y-50952857D01*
X117818628Y-50952857D02*
X117818628Y-50571905D01*
X117294819Y-51476667D02*
X117294819Y-52095714D01*
X117294819Y-52095714D02*
X117675771Y-51762381D01*
X117675771Y-51762381D02*
X117675771Y-51905238D01*
X117675771Y-51905238D02*
X117723390Y-52000476D01*
X117723390Y-52000476D02*
X117771009Y-52048095D01*
X117771009Y-52048095D02*
X117866247Y-52095714D01*
X117866247Y-52095714D02*
X118104342Y-52095714D01*
X118104342Y-52095714D02*
X118199580Y-52048095D01*
X118199580Y-52048095D02*
X118247200Y-52000476D01*
X118247200Y-52000476D02*
X118294819Y-51905238D01*
X118294819Y-51905238D02*
X118294819Y-51619524D01*
X118294819Y-51619524D02*
X118247200Y-51524286D01*
X118247200Y-51524286D02*
X118199580Y-51476667D01*
X110206666Y-61869580D02*
X110254285Y-61917200D01*
X110254285Y-61917200D02*
X110397142Y-61964819D01*
X110397142Y-61964819D02*
X110492380Y-61964819D01*
X110492380Y-61964819D02*
X110635237Y-61917200D01*
X110635237Y-61917200D02*
X110730475Y-61821961D01*
X110730475Y-61821961D02*
X110778094Y-61726723D01*
X110778094Y-61726723D02*
X110825713Y-61536247D01*
X110825713Y-61536247D02*
X110825713Y-61393390D01*
X110825713Y-61393390D02*
X110778094Y-61202914D01*
X110778094Y-61202914D02*
X110730475Y-61107676D01*
X110730475Y-61107676D02*
X110635237Y-61012438D01*
X110635237Y-61012438D02*
X110492380Y-60964819D01*
X110492380Y-60964819D02*
X110397142Y-60964819D01*
X110397142Y-60964819D02*
X110254285Y-61012438D01*
X110254285Y-61012438D02*
X110206666Y-61060057D01*
X109873332Y-60964819D02*
X109206666Y-60964819D01*
X109206666Y-60964819D02*
X109635237Y-61964819D01*
X112512857Y-65409580D02*
X112560476Y-65457200D01*
X112560476Y-65457200D02*
X112703333Y-65504819D01*
X112703333Y-65504819D02*
X112798571Y-65504819D01*
X112798571Y-65504819D02*
X112941428Y-65457200D01*
X112941428Y-65457200D02*
X113036666Y-65361961D01*
X113036666Y-65361961D02*
X113084285Y-65266723D01*
X113084285Y-65266723D02*
X113131904Y-65076247D01*
X113131904Y-65076247D02*
X113131904Y-64933390D01*
X113131904Y-64933390D02*
X113084285Y-64742914D01*
X113084285Y-64742914D02*
X113036666Y-64647676D01*
X113036666Y-64647676D02*
X112941428Y-64552438D01*
X112941428Y-64552438D02*
X112798571Y-64504819D01*
X112798571Y-64504819D02*
X112703333Y-64504819D01*
X112703333Y-64504819D02*
X112560476Y-64552438D01*
X112560476Y-64552438D02*
X112512857Y-64600057D01*
X112131904Y-64600057D02*
X112084285Y-64552438D01*
X112084285Y-64552438D02*
X111989047Y-64504819D01*
X111989047Y-64504819D02*
X111750952Y-64504819D01*
X111750952Y-64504819D02*
X111655714Y-64552438D01*
X111655714Y-64552438D02*
X111608095Y-64600057D01*
X111608095Y-64600057D02*
X111560476Y-64695295D01*
X111560476Y-64695295D02*
X111560476Y-64790533D01*
X111560476Y-64790533D02*
X111608095Y-64933390D01*
X111608095Y-64933390D02*
X112179523Y-65504819D01*
X112179523Y-65504819D02*
X111560476Y-65504819D01*
X110941428Y-64504819D02*
X110846190Y-64504819D01*
X110846190Y-64504819D02*
X110750952Y-64552438D01*
X110750952Y-64552438D02*
X110703333Y-64600057D01*
X110703333Y-64600057D02*
X110655714Y-64695295D01*
X110655714Y-64695295D02*
X110608095Y-64885771D01*
X110608095Y-64885771D02*
X110608095Y-65123866D01*
X110608095Y-65123866D02*
X110655714Y-65314342D01*
X110655714Y-65314342D02*
X110703333Y-65409580D01*
X110703333Y-65409580D02*
X110750952Y-65457200D01*
X110750952Y-65457200D02*
X110846190Y-65504819D01*
X110846190Y-65504819D02*
X110941428Y-65504819D01*
X110941428Y-65504819D02*
X111036666Y-65457200D01*
X111036666Y-65457200D02*
X111084285Y-65409580D01*
X111084285Y-65409580D02*
X111131904Y-65314342D01*
X111131904Y-65314342D02*
X111179523Y-65123866D01*
X111179523Y-65123866D02*
X111179523Y-64885771D01*
X111179523Y-64885771D02*
X111131904Y-64695295D01*
X111131904Y-64695295D02*
X111084285Y-64600057D01*
X111084285Y-64600057D02*
X111036666Y-64552438D01*
X111036666Y-64552438D02*
X110941428Y-64504819D01*
X118328094Y-55134819D02*
X118328094Y-54134819D01*
X118328094Y-54134819D02*
X118089999Y-54134819D01*
X118089999Y-54134819D02*
X117947142Y-54182438D01*
X117947142Y-54182438D02*
X117851904Y-54277676D01*
X117851904Y-54277676D02*
X117804285Y-54372914D01*
X117804285Y-54372914D02*
X117756666Y-54563390D01*
X117756666Y-54563390D02*
X117756666Y-54706247D01*
X117756666Y-54706247D02*
X117804285Y-54896723D01*
X117804285Y-54896723D02*
X117851904Y-54991961D01*
X117851904Y-54991961D02*
X117947142Y-55087200D01*
X117947142Y-55087200D02*
X118089999Y-55134819D01*
X118089999Y-55134819D02*
X118328094Y-55134819D01*
X116804285Y-55134819D02*
X117375713Y-55134819D01*
X117089999Y-55134819D02*
X117089999Y-54134819D01*
X117089999Y-54134819D02*
X117185237Y-54277676D01*
X117185237Y-54277676D02*
X117280475Y-54372914D01*
X117280475Y-54372914D02*
X117375713Y-54420533D01*
D13*
X115918214Y-76158479D02*
X116129881Y-75856098D01*
X116281071Y-76158479D02*
X116281071Y-75523479D01*
X116281071Y-75523479D02*
X116039166Y-75523479D01*
X116039166Y-75523479D02*
X115978690Y-75553717D01*
X115978690Y-75553717D02*
X115948452Y-75583955D01*
X115948452Y-75583955D02*
X115918214Y-75644431D01*
X115918214Y-75644431D02*
X115918214Y-75735145D01*
X115918214Y-75735145D02*
X115948452Y-75795621D01*
X115948452Y-75795621D02*
X115978690Y-75825860D01*
X115978690Y-75825860D02*
X116039166Y-75856098D01*
X116039166Y-75856098D02*
X116281071Y-75856098D01*
X115313452Y-76158479D02*
X115676309Y-76158479D01*
X115494881Y-76158479D02*
X115494881Y-75523479D01*
X115494881Y-75523479D02*
X115555357Y-75614193D01*
X115555357Y-75614193D02*
X115615833Y-75674669D01*
X115615833Y-75674669D02*
X115676309Y-75704907D01*
X115071547Y-75583955D02*
X115041309Y-75553717D01*
X115041309Y-75553717D02*
X114980833Y-75523479D01*
X114980833Y-75523479D02*
X114829642Y-75523479D01*
X114829642Y-75523479D02*
X114769166Y-75553717D01*
X114769166Y-75553717D02*
X114738928Y-75583955D01*
X114738928Y-75583955D02*
X114708690Y-75644431D01*
X114708690Y-75644431D02*
X114708690Y-75704907D01*
X114708690Y-75704907D02*
X114738928Y-75795621D01*
X114738928Y-75795621D02*
X115101785Y-76158479D01*
X115101785Y-76158479D02*
X114708690Y-76158479D01*
D11*
X106146666Y-48459580D02*
X106194285Y-48507200D01*
X106194285Y-48507200D02*
X106337142Y-48554819D01*
X106337142Y-48554819D02*
X106432380Y-48554819D01*
X106432380Y-48554819D02*
X106575237Y-48507200D01*
X106575237Y-48507200D02*
X106670475Y-48411961D01*
X106670475Y-48411961D02*
X106718094Y-48316723D01*
X106718094Y-48316723D02*
X106765713Y-48126247D01*
X106765713Y-48126247D02*
X106765713Y-47983390D01*
X106765713Y-47983390D02*
X106718094Y-47792914D01*
X106718094Y-47792914D02*
X106670475Y-47697676D01*
X106670475Y-47697676D02*
X106575237Y-47602438D01*
X106575237Y-47602438D02*
X106432380Y-47554819D01*
X106432380Y-47554819D02*
X106337142Y-47554819D01*
X106337142Y-47554819D02*
X106194285Y-47602438D01*
X106194285Y-47602438D02*
X106146666Y-47650057D01*
X105289523Y-47554819D02*
X105479999Y-47554819D01*
X105479999Y-47554819D02*
X105575237Y-47602438D01*
X105575237Y-47602438D02*
X105622856Y-47650057D01*
X105622856Y-47650057D02*
X105718094Y-47792914D01*
X105718094Y-47792914D02*
X105765713Y-47983390D01*
X105765713Y-47983390D02*
X105765713Y-48364342D01*
X105765713Y-48364342D02*
X105718094Y-48459580D01*
X105718094Y-48459580D02*
X105670475Y-48507200D01*
X105670475Y-48507200D02*
X105575237Y-48554819D01*
X105575237Y-48554819D02*
X105384761Y-48554819D01*
X105384761Y-48554819D02*
X105289523Y-48507200D01*
X105289523Y-48507200D02*
X105241904Y-48459580D01*
X105241904Y-48459580D02*
X105194285Y-48364342D01*
X105194285Y-48364342D02*
X105194285Y-48126247D01*
X105194285Y-48126247D02*
X105241904Y-48031009D01*
X105241904Y-48031009D02*
X105289523Y-47983390D01*
X105289523Y-47983390D02*
X105384761Y-47935771D01*
X105384761Y-47935771D02*
X105575237Y-47935771D01*
X105575237Y-47935771D02*
X105670475Y-47983390D01*
X105670475Y-47983390D02*
X105718094Y-48031009D01*
X105718094Y-48031009D02*
X105765713Y-48126247D01*
D12*
X119905308Y-60782211D02*
X120449594Y-60782211D01*
X120449594Y-60782211D02*
X120449594Y-59639211D01*
X119034451Y-59639211D02*
X119252165Y-59639211D01*
X119252165Y-59639211D02*
X119361022Y-59693640D01*
X119361022Y-59693640D02*
X119415451Y-59748068D01*
X119415451Y-59748068D02*
X119524308Y-59911354D01*
X119524308Y-59911354D02*
X119578736Y-60129068D01*
X119578736Y-60129068D02*
X119578736Y-60564497D01*
X119578736Y-60564497D02*
X119524308Y-60673354D01*
X119524308Y-60673354D02*
X119469879Y-60727783D01*
X119469879Y-60727783D02*
X119361022Y-60782211D01*
X119361022Y-60782211D02*
X119143308Y-60782211D01*
X119143308Y-60782211D02*
X119034451Y-60727783D01*
X119034451Y-60727783D02*
X118980022Y-60673354D01*
X118980022Y-60673354D02*
X118925593Y-60564497D01*
X118925593Y-60564497D02*
X118925593Y-60292354D01*
X118925593Y-60292354D02*
X118980022Y-60183497D01*
X118980022Y-60183497D02*
X119034451Y-60129068D01*
X119034451Y-60129068D02*
X119143308Y-60074640D01*
X119143308Y-60074640D02*
X119361022Y-60074640D01*
X119361022Y-60074640D02*
X119469879Y-60129068D01*
X119469879Y-60129068D02*
X119524308Y-60183497D01*
X119524308Y-60183497D02*
X119578736Y-60292354D01*
D11*
X112644819Y-90221905D02*
X111644819Y-90221905D01*
X111644819Y-90221905D02*
X111644819Y-90460000D01*
X111644819Y-90460000D02*
X111692438Y-90602857D01*
X111692438Y-90602857D02*
X111787676Y-90698095D01*
X111787676Y-90698095D02*
X111882914Y-90745714D01*
X111882914Y-90745714D02*
X112073390Y-90793333D01*
X112073390Y-90793333D02*
X112216247Y-90793333D01*
X112216247Y-90793333D02*
X112406723Y-90745714D01*
X112406723Y-90745714D02*
X112501961Y-90698095D01*
X112501961Y-90698095D02*
X112597200Y-90602857D01*
X112597200Y-90602857D02*
X112644819Y-90460000D01*
X112644819Y-90460000D02*
X112644819Y-90221905D01*
X111644819Y-91650476D02*
X111644819Y-91460000D01*
X111644819Y-91460000D02*
X111692438Y-91364762D01*
X111692438Y-91364762D02*
X111740057Y-91317143D01*
X111740057Y-91317143D02*
X111882914Y-91221905D01*
X111882914Y-91221905D02*
X112073390Y-91174286D01*
X112073390Y-91174286D02*
X112454342Y-91174286D01*
X112454342Y-91174286D02*
X112549580Y-91221905D01*
X112549580Y-91221905D02*
X112597200Y-91269524D01*
X112597200Y-91269524D02*
X112644819Y-91364762D01*
X112644819Y-91364762D02*
X112644819Y-91555238D01*
X112644819Y-91555238D02*
X112597200Y-91650476D01*
X112597200Y-91650476D02*
X112549580Y-91698095D01*
X112549580Y-91698095D02*
X112454342Y-91745714D01*
X112454342Y-91745714D02*
X112216247Y-91745714D01*
X112216247Y-91745714D02*
X112121009Y-91698095D01*
X112121009Y-91698095D02*
X112073390Y-91650476D01*
X112073390Y-91650476D02*
X112025771Y-91555238D01*
X112025771Y-91555238D02*
X112025771Y-91364762D01*
X112025771Y-91364762D02*
X112073390Y-91269524D01*
X112073390Y-91269524D02*
X112121009Y-91221905D01*
X112121009Y-91221905D02*
X112216247Y-91174286D01*
D13*
X114068214Y-73118479D02*
X114279881Y-72816098D01*
X114431071Y-73118479D02*
X114431071Y-72483479D01*
X114431071Y-72483479D02*
X114189166Y-72483479D01*
X114189166Y-72483479D02*
X114128690Y-72513717D01*
X114128690Y-72513717D02*
X114098452Y-72543955D01*
X114098452Y-72543955D02*
X114068214Y-72604431D01*
X114068214Y-72604431D02*
X114068214Y-72695145D01*
X114068214Y-72695145D02*
X114098452Y-72755621D01*
X114098452Y-72755621D02*
X114128690Y-72785860D01*
X114128690Y-72785860D02*
X114189166Y-72816098D01*
X114189166Y-72816098D02*
X114431071Y-72816098D01*
X113463452Y-73118479D02*
X113826309Y-73118479D01*
X113644881Y-73118479D02*
X113644881Y-72483479D01*
X113644881Y-72483479D02*
X113705357Y-72574193D01*
X113705357Y-72574193D02*
X113765833Y-72634669D01*
X113765833Y-72634669D02*
X113826309Y-72664907D01*
X113070357Y-72483479D02*
X113009880Y-72483479D01*
X113009880Y-72483479D02*
X112949404Y-72513717D01*
X112949404Y-72513717D02*
X112919166Y-72543955D01*
X112919166Y-72543955D02*
X112888928Y-72604431D01*
X112888928Y-72604431D02*
X112858690Y-72725383D01*
X112858690Y-72725383D02*
X112858690Y-72876574D01*
X112858690Y-72876574D02*
X112888928Y-72997526D01*
X112888928Y-72997526D02*
X112919166Y-73058002D01*
X112919166Y-73058002D02*
X112949404Y-73088241D01*
X112949404Y-73088241D02*
X113009880Y-73118479D01*
X113009880Y-73118479D02*
X113070357Y-73118479D01*
X113070357Y-73118479D02*
X113130833Y-73088241D01*
X113130833Y-73088241D02*
X113161071Y-73058002D01*
X113161071Y-73058002D02*
X113191309Y-72997526D01*
X113191309Y-72997526D02*
X113221547Y-72876574D01*
X113221547Y-72876574D02*
X113221547Y-72725383D01*
X113221547Y-72725383D02*
X113191309Y-72604431D01*
X113191309Y-72604431D02*
X113161071Y-72543955D01*
X113161071Y-72543955D02*
X113130833Y-72513717D01*
X113130833Y-72513717D02*
X113070357Y-72483479D01*
D11*
X107858094Y-72044819D02*
X107858094Y-71044819D01*
X107858094Y-71044819D02*
X107619999Y-71044819D01*
X107619999Y-71044819D02*
X107477142Y-71092438D01*
X107477142Y-71092438D02*
X107381904Y-71187676D01*
X107381904Y-71187676D02*
X107334285Y-71282914D01*
X107334285Y-71282914D02*
X107286666Y-71473390D01*
X107286666Y-71473390D02*
X107286666Y-71616247D01*
X107286666Y-71616247D02*
X107334285Y-71806723D01*
X107334285Y-71806723D02*
X107381904Y-71901961D01*
X107381904Y-71901961D02*
X107477142Y-71997200D01*
X107477142Y-71997200D02*
X107619999Y-72044819D01*
X107619999Y-72044819D02*
X107858094Y-72044819D01*
X106953332Y-71044819D02*
X106286666Y-71044819D01*
X106286666Y-71044819D02*
X106715237Y-72044819D01*
X105294819Y-50773333D02*
X104818628Y-50440000D01*
X105294819Y-50201905D02*
X104294819Y-50201905D01*
X104294819Y-50201905D02*
X104294819Y-50582857D01*
X104294819Y-50582857D02*
X104342438Y-50678095D01*
X104342438Y-50678095D02*
X104390057Y-50725714D01*
X104390057Y-50725714D02*
X104485295Y-50773333D01*
X104485295Y-50773333D02*
X104628152Y-50773333D01*
X104628152Y-50773333D02*
X104723390Y-50725714D01*
X104723390Y-50725714D02*
X104771009Y-50678095D01*
X104771009Y-50678095D02*
X104818628Y-50582857D01*
X104818628Y-50582857D02*
X104818628Y-50201905D01*
X104628152Y-51630476D02*
X105294819Y-51630476D01*
X104247200Y-51392381D02*
X104961485Y-51154286D01*
X104961485Y-51154286D02*
X104961485Y-51773333D01*
%TO.C,L4*%
D15*
X118185000Y-76198000D02*
X118185000Y-76325000D01*
X118185000Y-76198000D02*
X118439000Y-75944000D01*
X118185000Y-76325000D02*
X118185000Y-77722000D01*
X118185000Y-77722000D02*
X118439000Y-77976000D01*
X118439000Y-75944000D02*
X119709000Y-75944000D01*
X118439000Y-77976000D02*
X118566000Y-77976000D01*
X118566000Y-77976000D02*
X119709000Y-77976000D01*
X120471000Y-75944000D02*
X121614000Y-75944000D01*
X120471000Y-77976000D02*
X121741000Y-77976000D01*
X121614000Y-75944000D02*
X121741000Y-75944000D01*
X121741000Y-75944000D02*
X121995000Y-76198000D01*
X121741000Y-77976000D02*
X121995000Y-77722000D01*
X121995000Y-76198000D02*
X121995000Y-77595000D01*
X121995000Y-77595000D02*
X121995000Y-77722000D01*
%TO.C,U1*%
D16*
X110635500Y-51496446D02*
X110635500Y-49956446D01*
X111815500Y-51696446D02*
X112695500Y-51696446D01*
X113855500Y-51536446D02*
X113855500Y-49936446D01*
X110715500Y-49266446D02*
G75*
G02*
X110595500Y-49266446I-60000J0D01*
G01*
X110595500Y-49266446D02*
G75*
G02*
X110715500Y-49266446I60000J0D01*
G01*
D17*
X110825500Y-49326446D02*
G75*
G02*
X110765500Y-49326446I-30000J0D01*
G01*
X110765500Y-49326446D02*
G75*
G02*
X110825500Y-49326446I30000J0D01*
G01*
%TO.C,C4*%
D18*
X107867664Y-45516446D02*
X108083336Y-45516446D01*
X107867664Y-46236446D02*
X108083336Y-46236446D01*
%TO.C,C15*%
X120260000Y-81081252D02*
X120260000Y-79658748D01*
X122080000Y-81081252D02*
X122080000Y-79658748D01*
%TO.C,C13*%
X120835000Y-74291252D02*
X120835000Y-73768748D01*
X122305000Y-74291252D02*
X122305000Y-73768748D01*
%TO.C,L3*%
D15*
X117604000Y-78579000D02*
X117858000Y-78325000D01*
X117604000Y-78706000D02*
X117604000Y-78579000D01*
X117604000Y-79849000D02*
X117604000Y-78706000D01*
X117604000Y-81881000D02*
X117604000Y-80611000D01*
X117858000Y-78325000D02*
X119255000Y-78325000D01*
X117858000Y-82135000D02*
X117604000Y-81881000D01*
X117858000Y-82135000D02*
X117985000Y-82135000D01*
X117985000Y-82135000D02*
X119382000Y-82135000D01*
X119255000Y-78325000D02*
X119382000Y-78325000D01*
X119382000Y-82135000D02*
X119636000Y-81881000D01*
X119636000Y-78579000D02*
X119382000Y-78325000D01*
X119636000Y-79849000D02*
X119636000Y-78579000D01*
X119636000Y-81754000D02*
X119636000Y-80611000D01*
X119636000Y-81881000D02*
X119636000Y-81754000D01*
%TO.C,C19*%
D18*
X106190000Y-91152164D02*
X106190000Y-91367836D01*
X106910000Y-91152164D02*
X106910000Y-91367836D01*
%TO.C,C8*%
X115080000Y-51082164D02*
X115080000Y-51297836D01*
X115800000Y-51082164D02*
X115800000Y-51297836D01*
%TO.C,L1*%
D11*
X108925500Y-45566446D02*
X109275500Y-45216446D01*
X108925500Y-47486446D02*
X108925500Y-45566446D01*
X109275500Y-45216446D02*
X110715500Y-45216446D01*
X109275500Y-47836446D02*
X108925500Y-47486446D01*
X110715500Y-47836446D02*
X109275500Y-47836446D01*
D19*
X110715500Y-47836446D02*
X110715499Y-47836446D01*
X110715499Y-47836446D01*
X110715499Y-47836446D01*
X110715499Y-47836446D01*
X110715499Y-47836446D01*
X110715499Y-47836446D01*
X110715499Y-47836446D01*
X110715499Y-47836445D01*
X110715499Y-47836445D01*
X110715499Y-47836445D01*
X110715499Y-47836445D01*
X110715499Y-47836445D01*
X110715500Y-47836445D01*
X110715500Y-47836445D01*
X110715500Y-47836445D01*
X110715500Y-47836445D01*
X110715500Y-47836445D01*
X110715500Y-47836445D01*
X110715500Y-47836445D01*
X110715500Y-47836445D01*
X110715500Y-47836445D01*
X110715500Y-47836445D01*
X110715500Y-47836445D01*
X110715500Y-47836445D01*
X110715501Y-47836445D01*
X110715501Y-47836445D01*
X110715501Y-47836445D01*
X110715501Y-47836445D01*
X110715501Y-47836445D01*
X110715501Y-47836445D01*
X110715501Y-47836446D01*
X110715501Y-47836446D01*
X110715501Y-47836446D01*
X110715501Y-47836446D01*
X110715501Y-47836446D01*
X110715501Y-47836446D01*
X110715501Y-47836446D01*
X110715500Y-47836446D01*
X110715500Y-47836446D02*
X110715501Y-47836446D01*
X110715501Y-47836446D01*
X110715501Y-47836446D01*
X110715501Y-47836446D01*
X110715501Y-47836446D01*
X110715501Y-47836446D01*
X110715501Y-47836447D01*
X110715501Y-47836447D01*
X110715501Y-47836447D01*
X110715501Y-47836447D01*
X110715501Y-47836447D01*
X110715501Y-47836447D01*
X110715501Y-47836447D01*
X110715500Y-47836447D01*
X110715500Y-47836447D01*
X110715500Y-47836447D01*
X110715500Y-47836447D01*
X110715500Y-47836447D01*
X110715500Y-47836447D01*
X110715500Y-47836447D01*
X110715500Y-47836447D01*
X110715500Y-47836447D01*
X110715500Y-47836447D01*
X110715500Y-47836447D01*
X110715500Y-47836447D01*
X110715499Y-47836447D01*
X110715499Y-47836447D01*
X110715499Y-47836447D01*
X110715499Y-47836447D01*
X110715499Y-47836447D01*
X110715499Y-47836447D01*
X110715499Y-47836446D01*
X110715499Y-47836446D01*
X110715499Y-47836446D01*
X110715499Y-47836446D01*
X110715499Y-47836446D01*
X110715499Y-47836446D01*
X110715500Y-47836446D01*
D11*
D19*
X111735500Y-47836446D02*
X111735499Y-47836446D01*
X111735499Y-47836446D01*
X111735499Y-47836446D01*
X111735499Y-47836446D01*
X111735499Y-47836446D01*
X111735499Y-47836446D01*
X111735499Y-47836446D01*
X111735499Y-47836445D01*
X111735499Y-47836445D01*
X111735499Y-47836445D01*
X111735499Y-47836445D01*
X111735499Y-47836445D01*
X111735500Y-47836445D01*
X111735500Y-47836445D01*
X111735500Y-47836445D01*
X111735500Y-47836445D01*
X111735500Y-47836445D01*
X111735500Y-47836445D01*
X111735500Y-47836445D01*
X111735500Y-47836445D01*
X111735500Y-47836445D01*
X111735500Y-47836445D01*
X111735500Y-47836445D01*
X111735500Y-47836445D01*
X111735501Y-47836445D01*
X111735501Y-47836445D01*
X111735501Y-47836445D01*
X111735501Y-47836445D01*
X111735501Y-47836445D01*
X111735501Y-47836445D01*
X111735501Y-47836446D01*
X111735501Y-47836446D01*
X111735501Y-47836446D01*
X111735501Y-47836446D01*
X111735501Y-47836446D01*
X111735501Y-47836446D01*
X111735501Y-47836446D01*
X111735500Y-47836446D01*
X111735500Y-47836446D02*
X111735501Y-47836446D01*
X111735501Y-47836446D01*
X111735501Y-47836446D01*
X111735501Y-47836446D01*
X111735501Y-47836446D01*
X111735501Y-47836446D01*
X111735501Y-47836447D01*
X111735501Y-47836447D01*
X111735501Y-47836447D01*
X111735501Y-47836447D01*
X111735501Y-47836447D01*
X111735501Y-47836447D01*
X111735501Y-47836447D01*
X111735500Y-47836447D01*
X111735500Y-47836447D01*
X111735500Y-47836447D01*
X111735500Y-47836447D01*
X111735500Y-47836447D01*
X111735500Y-47836447D01*
X111735500Y-47836447D01*
X111735500Y-47836447D01*
X111735500Y-47836447D01*
X111735500Y-47836447D01*
X111735500Y-47836447D01*
X111735500Y-47836447D01*
X111735499Y-47836447D01*
X111735499Y-47836447D01*
X111735499Y-47836447D01*
X111735499Y-47836447D01*
X111735499Y-47836447D01*
X111735499Y-47836447D01*
X111735499Y-47836446D01*
X111735499Y-47836446D01*
X111735499Y-47836446D01*
X111735499Y-47836446D01*
X111735499Y-47836446D01*
X111735499Y-47836446D01*
X111735500Y-47836446D01*
D11*
X111735500Y-47836446D02*
X113175500Y-47836446D01*
X113175500Y-45216446D02*
X111735500Y-45216446D01*
X113175500Y-47836446D02*
X113525500Y-47486446D01*
X113525500Y-45566446D02*
X113175500Y-45216446D01*
X113525500Y-47486446D02*
X113525500Y-45566446D01*
D17*
X112505500Y-47526446D02*
G75*
G02*
X112445500Y-47526446I-30000J0D01*
G01*
X112445500Y-47526446D02*
G75*
G02*
X112505500Y-47526446I30000J0D01*
G01*
%TO.C,C17*%
D18*
X114990000Y-78537836D02*
X114990000Y-78322164D01*
X115710000Y-78537836D02*
X115710000Y-78322164D01*
%TO.C,U3*%
D11*
X108515000Y-74815000D02*
X108515000Y-78965000D01*
X113665000Y-74815000D02*
X113665000Y-78965000D01*
D18*
X108590000Y-74390000D02*
X108260000Y-74630000D01*
X108260000Y-74150000D01*
X108590000Y-74390000D01*
G36*
X108590000Y-74390000D02*
G01*
X108260000Y-74630000D01*
X108260000Y-74150000D01*
X108590000Y-74390000D01*
G37*
%TO.C,R11*%
D11*
X122310000Y-78570000D02*
X123090000Y-78570000D01*
X122310000Y-79020000D02*
X122310000Y-78570000D01*
X122310000Y-79360000D02*
X122310000Y-79810000D01*
X122310000Y-79810000D02*
X123090000Y-79810000D01*
X123090000Y-78570000D02*
X123090000Y-79020000D01*
X123090000Y-79810000D02*
X123090000Y-79360000D01*
D17*
X122580000Y-79490000D02*
G75*
G02*
X122520000Y-79490000I-30000J0D01*
G01*
X122520000Y-79490000D02*
G75*
G02*
X122580000Y-79490000I30000J0D01*
G01*
%TO.C,C3*%
D18*
X108053336Y-46536446D02*
X107837664Y-46536446D01*
X108053336Y-47256446D02*
X107837664Y-47256446D01*
%TO.C,R13*%
D11*
X116750000Y-72780000D02*
X116750000Y-73740000D01*
X116750000Y-75560000D02*
X116750000Y-74600000D01*
X118070000Y-72780000D02*
X116750000Y-72780000D01*
X118070000Y-73740000D02*
X118070000Y-72780000D01*
X118070000Y-74600000D02*
X118070000Y-75560000D01*
X118070000Y-75560000D02*
X116750000Y-75560000D01*
D17*
X117840000Y-73370000D02*
G75*
G02*
X117780000Y-73370000I-30000J0D01*
G01*
X117780000Y-73370000D02*
G75*
G02*
X117840000Y-73370000I30000J0D01*
G01*
%TO.C,C16*%
D18*
X116090000Y-78322164D02*
X116090000Y-78537836D01*
X116810000Y-78322164D02*
X116810000Y-78537836D01*
%TO.C,C14*%
X122690000Y-74387836D02*
X122690000Y-74172164D01*
X123410000Y-74387836D02*
X123410000Y-74172164D01*
%TO.C,D4*%
X113360000Y-56492500D02*
X113360000Y-62002500D01*
X113360000Y-56492500D02*
X116660000Y-56492500D01*
X116660000Y-56492500D02*
X116660000Y-62002500D01*
%TO.C,C37*%
X158030000Y-79452164D02*
X158030000Y-79667836D01*
X158750000Y-79452164D02*
X158750000Y-79667836D01*
%TO.C,C5*%
X116070000Y-51317836D02*
X116070000Y-51102164D01*
X116790000Y-51317836D02*
X116790000Y-51102164D01*
%TO.C,D19*%
D20*
X158980000Y-78640000D02*
X158980000Y-79940000D01*
X159020000Y-79570000D02*
X159870000Y-79570000D01*
X159880000Y-78640000D02*
X159880000Y-79940000D01*
D17*
X159860000Y-78490000D02*
G75*
G02*
X159800000Y-78490000I-30000J0D01*
G01*
X159800000Y-78490000D02*
G75*
G02*
X159860000Y-78490000I30000J0D01*
G01*
%TO.C,C22*%
D18*
X115492164Y-74560000D02*
X115707836Y-74560000D01*
X115492164Y-75280000D02*
X115707836Y-75280000D01*
%TO.C,R8*%
D11*
X105755500Y-48876446D02*
X105755500Y-50156446D01*
X105755500Y-52396446D02*
X105755500Y-51116446D01*
X107595500Y-48876446D02*
X105755500Y-48876446D01*
X107595500Y-50156446D02*
X107595500Y-48876446D01*
X107595500Y-51116446D02*
X107595500Y-52396446D01*
X107595500Y-52396446D02*
X105755500Y-52396446D01*
D17*
X107345500Y-49636446D02*
G75*
G02*
X107285500Y-49636446I-30000J0D01*
G01*
X107285500Y-49636446D02*
G75*
G02*
X107345500Y-49636446I30000J0D01*
G01*
%TO.C,C1*%
D18*
X112112164Y-62110000D02*
X112327836Y-62110000D01*
X112112164Y-62830000D02*
X112327836Y-62830000D01*
%TO.C,R3*%
X114045500Y-51430087D02*
X114045500Y-51122805D01*
X114805500Y-51430087D02*
X114805500Y-51122805D01*
%TO.C,C7*%
X112132164Y-61070000D02*
X112347836Y-61070000D01*
X112132164Y-61790000D02*
X112347836Y-61790000D01*
%TO.C,C20*%
D11*
X113360000Y-64220000D02*
X118720000Y-64220000D01*
X113360000Y-70980000D02*
X118720000Y-70980000D01*
X113370000Y-66890000D02*
X113360000Y-64220000D01*
X113380000Y-68340000D02*
X113360000Y-70980000D01*
X118720000Y-64220000D02*
X120120000Y-65620000D01*
X118720000Y-70980000D02*
X120120000Y-69580000D01*
X120120000Y-65620000D02*
X120120000Y-66910000D01*
X120120000Y-69580000D02*
X120100000Y-68290000D01*
D17*
X120400000Y-70900000D02*
G75*
G02*
X120340000Y-70900000I-30000J0D01*
G01*
X120340000Y-70900000D02*
G75*
G02*
X120400000Y-70900000I30000J0D01*
G01*
D19*
G36*
X114429997Y-69216989D02*
G01*
X113638000Y-69216989D01*
X113638000Y-69018996D01*
X114429997Y-69018996D01*
X114429997Y-69216989D01*
G37*
G36*
X119544998Y-69777999D02*
G01*
X119347005Y-69777999D01*
X119347005Y-68458012D01*
X119544998Y-68458012D01*
X119544998Y-69777999D01*
G37*
G36*
X119842000Y-69216989D02*
G01*
X119050003Y-69216989D01*
X119050003Y-69018996D01*
X119842000Y-69018996D01*
X119842000Y-69216989D01*
G37*
%TO.C,D1*%
D18*
X116177500Y-53030000D02*
X110667500Y-53030000D01*
X116177500Y-53030000D02*
X116177500Y-56330000D01*
X116177500Y-56330000D02*
X110667500Y-56330000D01*
%TO.C,R12*%
D11*
X114660000Y-73280000D02*
X115370000Y-73280000D01*
X114660000Y-74280000D02*
X114660000Y-73280000D01*
X115370000Y-74280000D02*
X114660000Y-74280000D01*
X115830000Y-74280000D02*
X116540000Y-74280000D01*
X116540000Y-73280000D02*
X115830000Y-73280000D01*
X116540000Y-74280000D02*
X116540000Y-73280000D01*
D17*
X116130000Y-74030000D02*
G75*
G02*
X116070000Y-74030000I-30000J0D01*
G01*
X116070000Y-74030000D02*
G75*
G02*
X116130000Y-74030000I30000J0D01*
G01*
%TO.C,C6*%
D18*
X108047664Y-47826446D02*
X108263336Y-47826446D01*
X108047664Y-48546446D02*
X108263336Y-48546446D01*
%TO.C,L6*%
D15*
X116885000Y-61425000D02*
X116885000Y-61298000D01*
X116885000Y-62822000D02*
X116885000Y-61425000D01*
X117139000Y-61044000D02*
X116885000Y-61298000D01*
X117139000Y-63076000D02*
X116885000Y-62822000D01*
X117266000Y-63076000D02*
X117139000Y-63076000D01*
X118409000Y-61044000D02*
X117139000Y-61044000D01*
X118409000Y-63076000D02*
X117266000Y-63076000D01*
X120314000Y-61044000D02*
X119171000Y-61044000D01*
X120441000Y-61044000D02*
X120314000Y-61044000D01*
X120441000Y-63076000D02*
X119171000Y-63076000D01*
X120695000Y-61298000D02*
X120441000Y-61044000D01*
X120695000Y-62695000D02*
X120695000Y-61298000D01*
X120695000Y-62822000D02*
X120441000Y-63076000D01*
X120695000Y-62822000D02*
X120695000Y-62695000D01*
%TO.C,D6*%
D11*
X107110000Y-88100000D02*
X107110000Y-93580000D01*
X107110000Y-89820000D02*
X110890000Y-89820000D01*
X107110000Y-93580000D02*
X107700000Y-93580000D01*
X110890000Y-88100000D02*
X110890000Y-93580000D01*
X110890000Y-93580000D02*
X110300000Y-93580000D01*
D17*
X110830000Y-88190000D02*
G75*
G02*
X110770000Y-88190000I-30000J0D01*
G01*
X110770000Y-88190000D02*
G75*
G02*
X110830000Y-88190000I30000J0D01*
G01*
%TO.C,R10*%
D18*
X115416359Y-72350000D02*
X115723641Y-72350000D01*
X115416359Y-73110000D02*
X115723641Y-73110000D01*
%TO.C,D7*%
D11*
X109260000Y-70790000D02*
X112020000Y-70790000D01*
X109260000Y-72650000D02*
X112020000Y-72650000D01*
X109920000Y-72600000D02*
X109920000Y-70840000D01*
X112020000Y-70790000D02*
X112020000Y-70990000D01*
X112020000Y-72650000D02*
X112020000Y-72450000D01*
D17*
X108720000Y-70820000D02*
G75*
G02*
X108660000Y-70820000I-30000J0D01*
G01*
X108660000Y-70820000D02*
G75*
G02*
X108720000Y-70820000I30000J0D01*
G01*
%TO.C,R4*%
D11*
X108295500Y-48876446D02*
X110135500Y-48876446D01*
X108295500Y-50156446D02*
X108295500Y-48876446D01*
X108295500Y-51116446D02*
X108295500Y-52396446D01*
X108295500Y-52396446D02*
X110135500Y-52396446D01*
X110135500Y-48876446D02*
X110135500Y-50156446D01*
X110135500Y-52396446D02*
X110135500Y-51116446D01*
D17*
X108605500Y-51636446D02*
G75*
G02*
X108545500Y-51636446I-30000J0D01*
G01*
X108545500Y-51636446D02*
G75*
G02*
X108605500Y-51636446I30000J0D01*
G01*
%TD*%
M02*
