%TF.GenerationSoftware,KiCad,Pcbnew,10.0.1*%
%TF.CreationDate,2026-09-30T23:03:46-04:00*%
%TF.ProjectId,MarineBoard,4d617269-6e65-4426-9f61-72642e6b6963,rev?*%
%TF.SameCoordinates,Original*%
%TF.FileFunction,Paste,Bot*%
%TF.FilePolarity,Positive*%
%FSLAX46Y46*%
G04 Gerber Fmt 4.6, Leading zero omitted, Abs format (unit mm)*
G04 Created by KiCad (PCBNEW 10.0.1) date 2026-09-30 23:03:46*
%MOMM*%
%LPD*%
G01*
G04 APERTURE LIST*
G04 Aperture macros list*
%AMRoundRect*
0 Rectangle with rounded corners*
0 $1 Rounding radius*
0 $2 $3 $4 $5 $6 $7 $8 $9 X,Y pos of 4 corners*
0 Add a 4 corners polygon primitive as box body*
4,1,4,$2,$3,$4,$5,$6,$7,$8,$9,$2,$3,0*
0 Add four circle primitives for the rounded corners*
1,1,$1+$1,$2,$3*
1,1,$1+$1,$4,$5*
1,1,$1+$1,$6,$7*
1,1,$1+$1,$8,$9*
0 Add four rect primitives between the rounded corners*
20,1,$1+$1,$2,$3,$4,$5,0*
20,1,$1+$1,$4,$5,$6,$7,0*
20,1,$1+$1,$6,$7,$8,$9,0*
20,1,$1+$1,$8,$9,$2,$3,0*%
G04 Aperture macros list end*
%ADD10RoundRect,0.140000X0.170000X-0.140000X0.170000X0.140000X-0.170000X0.140000X-0.170000X-0.140000X0*%
%ADD11R,3.500000X5.600000*%
%ADD12RoundRect,0.250000X0.262500X0.450000X-0.262500X0.450000X-0.262500X-0.450000X0.262500X-0.450000X0*%
%ADD13RoundRect,0.218750X-0.381250X0.218750X-0.381250X-0.218750X0.381250X-0.218750X0.381250X0.218750X0*%
%ADD14RoundRect,0.150000X0.200000X-0.150000X0.200000X0.150000X-0.200000X0.150000X-0.200000X-0.150000X0*%
%ADD15RoundRect,0.135000X0.135000X0.185000X-0.135000X0.185000X-0.135000X-0.185000X0.135000X-0.185000X0*%
%ADD16RoundRect,0.250000X1.000000X0.900000X-1.000000X0.900000X-1.000000X-0.900000X1.000000X-0.900000X0*%
%ADD17RoundRect,0.140000X-0.170000X0.140000X-0.170000X-0.140000X0.170000X-0.140000X0.170000X0.140000X0*%
%ADD18RoundRect,0.135000X0.185000X-0.135000X0.185000X0.135000X-0.185000X0.135000X-0.185000X-0.135000X0*%
%ADD19RoundRect,0.250000X-0.325000X-1.100000X0.325000X-1.100000X0.325000X1.100000X-0.325000X1.100000X0*%
%ADD20R,1.420000X2.600000*%
%ADD21RoundRect,0.218750X0.218750X0.381250X-0.218750X0.381250X-0.218750X-0.381250X0.218750X-0.381250X0*%
%ADD22RoundRect,0.250000X0.450000X-0.262500X0.450000X0.262500X-0.450000X0.262500X-0.450000X-0.262500X0*%
%ADD23RoundRect,0.140000X0.140000X0.170000X-0.140000X0.170000X-0.140000X-0.170000X0.140000X-0.170000X0*%
%ADD24RoundRect,0.150000X-0.512500X-0.150000X0.512500X-0.150000X0.512500X0.150000X-0.512500X0.150000X0*%
%ADD25RoundRect,0.250000X0.650000X-1.000000X0.650000X1.000000X-0.650000X1.000000X-0.650000X-1.000000X0*%
%ADD26RoundRect,0.250000X-0.362500X-1.425000X0.362500X-1.425000X0.362500X1.425000X-0.362500X1.425000X0*%
%ADD27RoundRect,0.150000X-0.587500X-0.150000X0.587500X-0.150000X0.587500X0.150000X-0.587500X0.150000X0*%
%ADD28RoundRect,0.250000X-0.262500X-0.450000X0.262500X-0.450000X0.262500X0.450000X-0.262500X0.450000X0*%
%ADD29RoundRect,0.140000X-0.140000X-0.170000X0.140000X-0.170000X0.140000X0.170000X-0.140000X0.170000X0*%
%ADD30RoundRect,0.135000X-0.135000X-0.185000X0.135000X-0.185000X0.135000X0.185000X-0.135000X0.185000X0*%
%ADD31R,0.750000X0.400000*%
%ADD32RoundRect,0.150000X-0.200000X0.150000X-0.200000X-0.150000X0.200000X-0.150000X0.200000X0.150000X0*%
%ADD33RoundRect,0.050000X0.250000X-0.100000X0.250000X0.100000X-0.250000X0.100000X-0.250000X-0.100000X0*%
%ADD34RoundRect,0.250000X1.000000X0.650000X-1.000000X0.650000X-1.000000X-0.650000X1.000000X-0.650000X0*%
%ADD35RoundRect,0.135000X-0.185000X0.135000X-0.185000X-0.135000X0.185000X-0.135000X0.185000X0.135000X0*%
%ADD36RoundRect,0.150000X0.150000X0.200000X-0.150000X0.200000X-0.150000X-0.200000X0.150000X-0.200000X0*%
%ADD37RoundRect,0.250000X-0.475000X0.250000X-0.475000X-0.250000X0.475000X-0.250000X0.475000X0.250000X0*%
%ADD38RoundRect,0.250000X0.650000X-0.325000X0.650000X0.325000X-0.650000X0.325000X-0.650000X-0.325000X0*%
%ADD39RoundRect,0.150000X0.587500X0.150000X-0.587500X0.150000X-0.587500X-0.150000X0.587500X-0.150000X0*%
%ADD40RoundRect,0.079500X0.079500X0.100500X-0.079500X0.100500X-0.079500X-0.100500X0.079500X-0.100500X0*%
%ADD41RoundRect,0.218750X0.381250X-0.218750X0.381250X0.218750X-0.381250X0.218750X-0.381250X-0.218750X0*%
%ADD42RoundRect,0.250000X1.000000X-1.400000X1.000000X1.400000X-1.000000X1.400000X-1.000000X-1.400000X0*%
%ADD43R,2.600000X1.420000*%
G04 APERTURE END LIST*
D10*
%TO.C,C38*%
X270250000Y-69730000D03*
X270250000Y-68770000D03*
%TD*%
D11*
%TO.C,L2*%
X239750000Y-87375000D03*
X229250000Y-87375000D03*
%TD*%
D10*
%TO.C,C9*%
X269600000Y-61280000D03*
X269600000Y-60320000D03*
%TD*%
D12*
%TO.C,R7*%
X271500000Y-58800000D03*
X269675000Y-58800000D03*
%TD*%
D13*
%TO.C,L4*%
X218250000Y-93625000D03*
X218250000Y-95750000D03*
%TD*%
D10*
%TO.C,C27*%
X266500000Y-55750000D03*
X266500000Y-54790000D03*
%TD*%
D14*
%TO.C,D9*%
X199325000Y-58750000D03*
X199325000Y-60150000D03*
%TD*%
D15*
%TO.C,R25*%
X258700000Y-63700000D03*
X257680000Y-63700000D03*
%TD*%
D16*
%TO.C,D6*%
X238550000Y-96125000D03*
X234250000Y-96125000D03*
%TD*%
D17*
%TO.C,C32*%
X268000000Y-75270000D03*
X268000000Y-76230000D03*
%TD*%
%TO.C,C30*%
X260750000Y-51325000D03*
X260750000Y-52285000D03*
%TD*%
D18*
%TO.C,R27*%
X238500000Y-68250000D03*
X238500000Y-67230000D03*
%TD*%
D17*
%TO.C,C29*%
X263250000Y-52500000D03*
X263250000Y-53460000D03*
%TD*%
D19*
%TO.C,C39*%
X199325000Y-62500000D03*
X202275000Y-62500000D03*
%TD*%
D20*
%TO.C,U17*%
X203280000Y-84300000D03*
X205820000Y-84300000D03*
X205820000Y-93200000D03*
X203280000Y-93200000D03*
%TD*%
D21*
%TO.C,L7*%
X234000000Y-46750000D03*
X231875000Y-46750000D03*
%TD*%
D10*
%TO.C,C19*%
X240000000Y-80085000D03*
X240000000Y-79125000D03*
%TD*%
D14*
%TO.C,D11*%
X260950000Y-59550000D03*
X260950000Y-60950000D03*
%TD*%
D22*
%TO.C,R19*%
X260200000Y-57950000D03*
X260200000Y-56125000D03*
%TD*%
D23*
%TO.C,C37*%
X272000000Y-74020000D03*
X271040000Y-74020000D03*
%TD*%
D15*
%TO.C,R44*%
X258447500Y-66700000D03*
X257427500Y-66700000D03*
%TD*%
D24*
%TO.C,U22*%
X225937500Y-63950000D03*
X225937500Y-63000000D03*
X225937500Y-62050000D03*
X228212500Y-62050000D03*
X228212500Y-63950000D03*
%TD*%
D25*
%TO.C,D15*%
X212570000Y-89550000D03*
X212570000Y-85550000D03*
%TD*%
D15*
%TO.C,R43*%
X258447500Y-67700000D03*
X257427500Y-67700000D03*
%TD*%
D26*
%TO.C,R47*%
X215075000Y-68250000D03*
X221000000Y-68250000D03*
%TD*%
D10*
%TO.C,C26*%
X263250000Y-51075000D03*
X263250000Y-50115000D03*
%TD*%
D27*
%TO.C,Q2*%
X207945000Y-86000000D03*
X207945000Y-84100000D03*
X209820000Y-85050000D03*
%TD*%
D28*
%TO.C,R38*%
X266425000Y-67020000D03*
X268250000Y-67020000D03*
%TD*%
D29*
%TO.C,C2*%
X265290000Y-62290000D03*
X266250000Y-62290000D03*
%TD*%
D28*
%TO.C,R9*%
X269675000Y-62770000D03*
X271500000Y-62770000D03*
%TD*%
D17*
%TO.C,C10*%
X266250000Y-60310000D03*
X266250000Y-61270000D03*
%TD*%
D30*
%TO.C,R42*%
X208050000Y-87800000D03*
X209070000Y-87800000D03*
%TD*%
D31*
%TO.C,L8*%
X269000000Y-50750000D03*
X267160000Y-50750000D03*
X267160000Y-51550000D03*
X269000000Y-51550000D03*
%TD*%
D14*
%TO.C,D19*%
X271750000Y-75370000D03*
X271750000Y-76770000D03*
%TD*%
D12*
%TO.C,R36*%
X271750000Y-78270000D03*
X269925000Y-78270000D03*
%TD*%
D17*
%TO.C,C12*%
X265250000Y-60330000D03*
X265250000Y-61290000D03*
%TD*%
D32*
%TO.C,D18*%
X271500000Y-70170000D03*
X271500000Y-68770000D03*
%TD*%
D18*
%TO.C,R15*%
X200575000Y-60000000D03*
X200575000Y-58980000D03*
%TD*%
D17*
%TO.C,C31*%
X267200000Y-69040000D03*
X267200000Y-70000000D03*
%TD*%
D30*
%TO.C,R1*%
X200005000Y-49900000D03*
X201025000Y-49900000D03*
%TD*%
D10*
%TO.C,C34*%
X239750000Y-68230000D03*
X239750000Y-67270000D03*
%TD*%
D22*
%TO.C,R24*%
X258200000Y-57950000D03*
X258200000Y-56125000D03*
%TD*%
%TO.C,R49*%
X230575000Y-62412500D03*
X230575000Y-60587500D03*
%TD*%
D33*
%TO.C,D2*%
X204505000Y-48850000D03*
X204505000Y-48150000D03*
%TD*%
D23*
%TO.C,C7*%
X201005000Y-48900000D03*
X200045000Y-48900000D03*
%TD*%
D34*
%TO.C,D14*%
X231000000Y-96375000D03*
X227000000Y-96375000D03*
%TD*%
D17*
%TO.C,C42*%
X254250000Y-78040000D03*
X254250000Y-79000000D03*
%TD*%
D33*
%TO.C,D3*%
X204505000Y-53600000D03*
X204505000Y-52900000D03*
%TD*%
D23*
%TO.C,C1*%
X201005000Y-52900000D03*
X200045000Y-52900000D03*
%TD*%
D35*
%TO.C,R30*%
X201320000Y-86530000D03*
X201320000Y-87550000D03*
%TD*%
D10*
%TO.C,C35*%
X247750000Y-68250000D03*
X247750000Y-67290000D03*
%TD*%
D29*
%TO.C,C11*%
X267290000Y-63290000D03*
X268250000Y-63290000D03*
%TD*%
D30*
%TO.C,R20*%
X259930000Y-62200000D03*
X260950000Y-62200000D03*
%TD*%
D36*
%TO.C,D13*%
X257300000Y-62450000D03*
X258700000Y-62450000D03*
%TD*%
D30*
%TO.C,R2*%
X200035000Y-51650000D03*
X201055000Y-51650000D03*
%TD*%
D37*
%TO.C,C13*%
X216250000Y-95875000D03*
X216250000Y-97775000D03*
%TD*%
D38*
%TO.C,C15*%
X226000000Y-87375000D03*
X226000000Y-84425000D03*
%TD*%
D12*
%TO.C,R35*%
X271750000Y-67020000D03*
X269925000Y-67020000D03*
%TD*%
D30*
%TO.C,R6*%
X204505000Y-51650000D03*
X205525000Y-51650000D03*
%TD*%
D39*
%TO.C,Q3*%
X258437500Y-69050000D03*
X258437500Y-70950000D03*
X256562500Y-70000000D03*
%TD*%
D18*
%TO.C,R28*%
X246500000Y-68310000D03*
X246500000Y-67290000D03*
%TD*%
D40*
%TO.C,R11*%
X227250000Y-83125000D03*
X226560000Y-83125000D03*
%TD*%
D41*
%TO.C,L9*%
X265750000Y-70832500D03*
X265750000Y-68707500D03*
%TD*%
D28*
%TO.C,R39*%
X266250000Y-78270000D03*
X268075000Y-78270000D03*
%TD*%
D42*
%TO.C,D20*%
X211025000Y-60250000D03*
X217825000Y-60250000D03*
%TD*%
D13*
%TO.C,L10*%
X266500000Y-74310000D03*
X266500000Y-76435000D03*
%TD*%
D41*
%TO.C,L3*%
X220000000Y-95750000D03*
X220000000Y-93625000D03*
%TD*%
D15*
%TO.C,R41*%
X209070000Y-88800000D03*
X208050000Y-88800000D03*
%TD*%
D43*
%TO.C,U14*%
X202875000Y-67770000D03*
X202875000Y-65230000D03*
X211775000Y-65230000D03*
X211775000Y-67770000D03*
%TD*%
D29*
%TO.C,C14*%
X218000000Y-97125000D03*
X218960000Y-97125000D03*
%TD*%
D30*
%TO.C,R5*%
X204505000Y-50150000D03*
X205525000Y-50150000D03*
%TD*%
D17*
%TO.C,C28*%
X259500000Y-51250000D03*
X259500000Y-52210000D03*
%TD*%
M02*
