G04 #@! TF.GenerationSoftware,KiCad,Pcbnew,10.0.1*
G04 #@! TF.CreationDate,2026-05-17T11:52:32-04:00*
G04 #@! TF.ProjectId,MarineBoard,4d617269-6e65-4426-9f61-72642e6b6963,rev?*
G04 #@! TF.SameCoordinates,Original*
G04 #@! TF.FileFunction,Legend,Top*
G04 #@! TF.FilePolarity,Positive*
%FSLAX46Y46*%
G04 Gerber Fmt 4.6, Leading zero omitted, Abs format (unit mm)*
G04 Created by KiCad (PCBNEW 10.0.1) date 2026-05-17 11:52:32*
%MOMM*%
%LPD*%
G01*
G04 APERTURE LIST*
%ADD10C,0.100000*%
%ADD11C,0.150000*%
%ADD12C,0.120000*%
%ADD13C,0.250000*%
%ADD14C,0.060000*%
%ADD15C,0.130000*%
%ADD16C,0.000000*%
%ADD17C,0.300000*%
G04 APERTURE END LIST*
D10*
X109372419Y-50124687D02*
X108896228Y-50458020D01*
X109372419Y-50696115D02*
X108372419Y-50696115D01*
X108372419Y-50696115D02*
X108372419Y-50315163D01*
X108372419Y-50315163D02*
X108420038Y-50219925D01*
X108420038Y-50219925D02*
X108467657Y-50172306D01*
X108467657Y-50172306D02*
X108562895Y-50124687D01*
X108562895Y-50124687D02*
X108705752Y-50124687D01*
X108705752Y-50124687D02*
X108800990Y-50172306D01*
X108800990Y-50172306D02*
X108848609Y-50219925D01*
X108848609Y-50219925D02*
X108896228Y-50315163D01*
X108896228Y-50315163D02*
X108896228Y-50696115D01*
X108848609Y-49696115D02*
X108848609Y-49362782D01*
X109372419Y-49219925D02*
X109372419Y-49696115D01*
X109372419Y-49696115D02*
X108372419Y-49696115D01*
X108372419Y-49696115D02*
X108372419Y-49219925D01*
X109324800Y-48838972D02*
X109372419Y-48696115D01*
X109372419Y-48696115D02*
X109372419Y-48458020D01*
X109372419Y-48458020D02*
X109324800Y-48362782D01*
X109324800Y-48362782D02*
X109277180Y-48315163D01*
X109277180Y-48315163D02*
X109181942Y-48267544D01*
X109181942Y-48267544D02*
X109086704Y-48267544D01*
X109086704Y-48267544D02*
X108991466Y-48315163D01*
X108991466Y-48315163D02*
X108943847Y-48362782D01*
X108943847Y-48362782D02*
X108896228Y-48458020D01*
X108896228Y-48458020D02*
X108848609Y-48648496D01*
X108848609Y-48648496D02*
X108800990Y-48743734D01*
X108800990Y-48743734D02*
X108753371Y-48791353D01*
X108753371Y-48791353D02*
X108658133Y-48838972D01*
X108658133Y-48838972D02*
X108562895Y-48838972D01*
X108562895Y-48838972D02*
X108467657Y-48791353D01*
X108467657Y-48791353D02*
X108420038Y-48743734D01*
X108420038Y-48743734D02*
X108372419Y-48648496D01*
X108372419Y-48648496D02*
X108372419Y-48410401D01*
X108372419Y-48410401D02*
X108420038Y-48267544D01*
X108848609Y-47838972D02*
X108848609Y-47505639D01*
X109372419Y-47362782D02*
X109372419Y-47838972D01*
X109372419Y-47838972D02*
X108372419Y-47838972D01*
X108372419Y-47838972D02*
X108372419Y-47362782D01*
X108372419Y-47077067D02*
X108372419Y-46505639D01*
X109372419Y-46791353D02*
X108372419Y-46791353D01*
X111848609Y-50362782D02*
X111848609Y-50696115D01*
X112372419Y-50696115D02*
X111372419Y-50696115D01*
X111372419Y-50696115D02*
X111372419Y-50219925D01*
X112372419Y-49362782D02*
X112372419Y-49838972D01*
X112372419Y-49838972D02*
X111372419Y-49838972D01*
X112086704Y-49077067D02*
X112086704Y-48600877D01*
X112372419Y-49172305D02*
X111372419Y-48838972D01*
X111372419Y-48838972D02*
X112372419Y-48505639D01*
X112324800Y-48219924D02*
X112372419Y-48077067D01*
X112372419Y-48077067D02*
X112372419Y-47838972D01*
X112372419Y-47838972D02*
X112324800Y-47743734D01*
X112324800Y-47743734D02*
X112277180Y-47696115D01*
X112277180Y-47696115D02*
X112181942Y-47648496D01*
X112181942Y-47648496D02*
X112086704Y-47648496D01*
X112086704Y-47648496D02*
X111991466Y-47696115D01*
X111991466Y-47696115D02*
X111943847Y-47743734D01*
X111943847Y-47743734D02*
X111896228Y-47838972D01*
X111896228Y-47838972D02*
X111848609Y-48029448D01*
X111848609Y-48029448D02*
X111800990Y-48124686D01*
X111800990Y-48124686D02*
X111753371Y-48172305D01*
X111753371Y-48172305D02*
X111658133Y-48219924D01*
X111658133Y-48219924D02*
X111562895Y-48219924D01*
X111562895Y-48219924D02*
X111467657Y-48172305D01*
X111467657Y-48172305D02*
X111420038Y-48124686D01*
X111420038Y-48124686D02*
X111372419Y-48029448D01*
X111372419Y-48029448D02*
X111372419Y-47791353D01*
X111372419Y-47791353D02*
X111420038Y-47648496D01*
X112372419Y-47219924D02*
X111372419Y-47219924D01*
X111848609Y-47219924D02*
X111848609Y-46648496D01*
X112372419Y-46648496D02*
X111372419Y-46648496D01*
D11*
X123931009Y-93983333D02*
X123931009Y-94316666D01*
X124454819Y-94316666D02*
X123454819Y-94316666D01*
X123454819Y-94316666D02*
X123454819Y-93840476D01*
X123550057Y-93507142D02*
X123502438Y-93459523D01*
X123502438Y-93459523D02*
X123454819Y-93364285D01*
X123454819Y-93364285D02*
X123454819Y-93126190D01*
X123454819Y-93126190D02*
X123502438Y-93030952D01*
X123502438Y-93030952D02*
X123550057Y-92983333D01*
X123550057Y-92983333D02*
X123645295Y-92935714D01*
X123645295Y-92935714D02*
X123740533Y-92935714D01*
X123740533Y-92935714D02*
X123883390Y-92983333D01*
X123883390Y-92983333D02*
X124454819Y-93554761D01*
X124454819Y-93554761D02*
X124454819Y-92935714D01*
X117893333Y-85454819D02*
X117417143Y-85454819D01*
X117417143Y-85454819D02*
X117417143Y-84454819D01*
X118131429Y-84454819D02*
X118750476Y-84454819D01*
X118750476Y-84454819D02*
X118417143Y-84835771D01*
X118417143Y-84835771D02*
X118560000Y-84835771D01*
X118560000Y-84835771D02*
X118655238Y-84883390D01*
X118655238Y-84883390D02*
X118702857Y-84931009D01*
X118702857Y-84931009D02*
X118750476Y-85026247D01*
X118750476Y-85026247D02*
X118750476Y-85264342D01*
X118750476Y-85264342D02*
X118702857Y-85359580D01*
X118702857Y-85359580D02*
X118655238Y-85407200D01*
X118655238Y-85407200D02*
X118560000Y-85454819D01*
X118560000Y-85454819D02*
X118274286Y-85454819D01*
X118274286Y-85454819D02*
X118179048Y-85407200D01*
X118179048Y-85407200D02*
X118131429Y-85359580D01*
X193378095Y-60648819D02*
X193378095Y-61458342D01*
X193378095Y-61458342D02*
X193425714Y-61553580D01*
X193425714Y-61553580D02*
X193473333Y-61601200D01*
X193473333Y-61601200D02*
X193568571Y-61648819D01*
X193568571Y-61648819D02*
X193759047Y-61648819D01*
X193759047Y-61648819D02*
X193854285Y-61601200D01*
X193854285Y-61601200D02*
X193901904Y-61553580D01*
X193901904Y-61553580D02*
X193949523Y-61458342D01*
X193949523Y-61458342D02*
X193949523Y-60648819D01*
X194949523Y-61648819D02*
X194378095Y-61648819D01*
X194663809Y-61648819D02*
X194663809Y-60648819D01*
X194663809Y-60648819D02*
X194568571Y-60791676D01*
X194568571Y-60791676D02*
X194473333Y-60886914D01*
X194473333Y-60886914D02*
X194378095Y-60934533D01*
X186078333Y-73684580D02*
X186030714Y-73732200D01*
X186030714Y-73732200D02*
X185887857Y-73779819D01*
X185887857Y-73779819D02*
X185792619Y-73779819D01*
X185792619Y-73779819D02*
X185649762Y-73732200D01*
X185649762Y-73732200D02*
X185554524Y-73636961D01*
X185554524Y-73636961D02*
X185506905Y-73541723D01*
X185506905Y-73541723D02*
X185459286Y-73351247D01*
X185459286Y-73351247D02*
X185459286Y-73208390D01*
X185459286Y-73208390D02*
X185506905Y-73017914D01*
X185506905Y-73017914D02*
X185554524Y-72922676D01*
X185554524Y-72922676D02*
X185649762Y-72827438D01*
X185649762Y-72827438D02*
X185792619Y-72779819D01*
X185792619Y-72779819D02*
X185887857Y-72779819D01*
X185887857Y-72779819D02*
X186030714Y-72827438D01*
X186030714Y-72827438D02*
X186078333Y-72875057D01*
X186935476Y-73113152D02*
X186935476Y-73779819D01*
X186697381Y-72732200D02*
X186459286Y-73446485D01*
X186459286Y-73446485D02*
X187078333Y-73446485D01*
X105357142Y-73009580D02*
X105309523Y-73057200D01*
X105309523Y-73057200D02*
X105166666Y-73104819D01*
X105166666Y-73104819D02*
X105071428Y-73104819D01*
X105071428Y-73104819D02*
X104928571Y-73057200D01*
X104928571Y-73057200D02*
X104833333Y-72961961D01*
X104833333Y-72961961D02*
X104785714Y-72866723D01*
X104785714Y-72866723D02*
X104738095Y-72676247D01*
X104738095Y-72676247D02*
X104738095Y-72533390D01*
X104738095Y-72533390D02*
X104785714Y-72342914D01*
X104785714Y-72342914D02*
X104833333Y-72247676D01*
X104833333Y-72247676D02*
X104928571Y-72152438D01*
X104928571Y-72152438D02*
X105071428Y-72104819D01*
X105071428Y-72104819D02*
X105166666Y-72104819D01*
X105166666Y-72104819D02*
X105309523Y-72152438D01*
X105309523Y-72152438D02*
X105357142Y-72200057D01*
X106309523Y-73104819D02*
X105738095Y-73104819D01*
X106023809Y-73104819D02*
X106023809Y-72104819D01*
X106023809Y-72104819D02*
X105928571Y-72247676D01*
X105928571Y-72247676D02*
X105833333Y-72342914D01*
X105833333Y-72342914D02*
X105738095Y-72390533D01*
X107214285Y-72104819D02*
X106738095Y-72104819D01*
X106738095Y-72104819D02*
X106690476Y-72581009D01*
X106690476Y-72581009D02*
X106738095Y-72533390D01*
X106738095Y-72533390D02*
X106833333Y-72485771D01*
X106833333Y-72485771D02*
X107071428Y-72485771D01*
X107071428Y-72485771D02*
X107166666Y-72533390D01*
X107166666Y-72533390D02*
X107214285Y-72581009D01*
X107214285Y-72581009D02*
X107261904Y-72676247D01*
X107261904Y-72676247D02*
X107261904Y-72914342D01*
X107261904Y-72914342D02*
X107214285Y-73009580D01*
X107214285Y-73009580D02*
X107166666Y-73057200D01*
X107166666Y-73057200D02*
X107071428Y-73104819D01*
X107071428Y-73104819D02*
X106833333Y-73104819D01*
X106833333Y-73104819D02*
X106738095Y-73057200D01*
X106738095Y-73057200D02*
X106690476Y-73009580D01*
X106179580Y-82642857D02*
X106227200Y-82690476D01*
X106227200Y-82690476D02*
X106274819Y-82833333D01*
X106274819Y-82833333D02*
X106274819Y-82928571D01*
X106274819Y-82928571D02*
X106227200Y-83071428D01*
X106227200Y-83071428D02*
X106131961Y-83166666D01*
X106131961Y-83166666D02*
X106036723Y-83214285D01*
X106036723Y-83214285D02*
X105846247Y-83261904D01*
X105846247Y-83261904D02*
X105703390Y-83261904D01*
X105703390Y-83261904D02*
X105512914Y-83214285D01*
X105512914Y-83214285D02*
X105417676Y-83166666D01*
X105417676Y-83166666D02*
X105322438Y-83071428D01*
X105322438Y-83071428D02*
X105274819Y-82928571D01*
X105274819Y-82928571D02*
X105274819Y-82833333D01*
X105274819Y-82833333D02*
X105322438Y-82690476D01*
X105322438Y-82690476D02*
X105370057Y-82642857D01*
X106274819Y-81690476D02*
X106274819Y-82261904D01*
X106274819Y-81976190D02*
X105274819Y-81976190D01*
X105274819Y-81976190D02*
X105417676Y-82071428D01*
X105417676Y-82071428D02*
X105512914Y-82166666D01*
X105512914Y-82166666D02*
X105560533Y-82261904D01*
X105274819Y-81357142D02*
X105274819Y-80738095D01*
X105274819Y-80738095D02*
X105655771Y-81071428D01*
X105655771Y-81071428D02*
X105655771Y-80928571D01*
X105655771Y-80928571D02*
X105703390Y-80833333D01*
X105703390Y-80833333D02*
X105751009Y-80785714D01*
X105751009Y-80785714D02*
X105846247Y-80738095D01*
X105846247Y-80738095D02*
X106084342Y-80738095D01*
X106084342Y-80738095D02*
X106179580Y-80785714D01*
X106179580Y-80785714D02*
X106227200Y-80833333D01*
X106227200Y-80833333D02*
X106274819Y-80928571D01*
X106274819Y-80928571D02*
X106274819Y-81214285D01*
X106274819Y-81214285D02*
X106227200Y-81309523D01*
X106227200Y-81309523D02*
X106179580Y-81357142D01*
X112309523Y-102359580D02*
X112261904Y-102407200D01*
X112261904Y-102407200D02*
X112119047Y-102454819D01*
X112119047Y-102454819D02*
X112023809Y-102454819D01*
X112023809Y-102454819D02*
X111880952Y-102407200D01*
X111880952Y-102407200D02*
X111785714Y-102311961D01*
X111785714Y-102311961D02*
X111738095Y-102216723D01*
X111738095Y-102216723D02*
X111690476Y-102026247D01*
X111690476Y-102026247D02*
X111690476Y-101883390D01*
X111690476Y-101883390D02*
X111738095Y-101692914D01*
X111738095Y-101692914D02*
X111785714Y-101597676D01*
X111785714Y-101597676D02*
X111880952Y-101502438D01*
X111880952Y-101502438D02*
X112023809Y-101454819D01*
X112023809Y-101454819D02*
X112119047Y-101454819D01*
X112119047Y-101454819D02*
X112261904Y-101502438D01*
X112261904Y-101502438D02*
X112309523Y-101550057D01*
X112738095Y-102454819D02*
X112738095Y-101454819D01*
X112738095Y-101454819D02*
X113309523Y-102454819D01*
X113309523Y-102454819D02*
X113309523Y-101454819D01*
X114309523Y-102454819D02*
X113738095Y-102454819D01*
X114023809Y-102454819D02*
X114023809Y-101454819D01*
X114023809Y-101454819D02*
X113928571Y-101597676D01*
X113928571Y-101597676D02*
X113833333Y-101692914D01*
X113833333Y-101692914D02*
X113738095Y-101740533D01*
X103607142Y-86359580D02*
X103559523Y-86407200D01*
X103559523Y-86407200D02*
X103416666Y-86454819D01*
X103416666Y-86454819D02*
X103321428Y-86454819D01*
X103321428Y-86454819D02*
X103178571Y-86407200D01*
X103178571Y-86407200D02*
X103083333Y-86311961D01*
X103083333Y-86311961D02*
X103035714Y-86216723D01*
X103035714Y-86216723D02*
X102988095Y-86026247D01*
X102988095Y-86026247D02*
X102988095Y-85883390D01*
X102988095Y-85883390D02*
X103035714Y-85692914D01*
X103035714Y-85692914D02*
X103083333Y-85597676D01*
X103083333Y-85597676D02*
X103178571Y-85502438D01*
X103178571Y-85502438D02*
X103321428Y-85454819D01*
X103321428Y-85454819D02*
X103416666Y-85454819D01*
X103416666Y-85454819D02*
X103559523Y-85502438D01*
X103559523Y-85502438D02*
X103607142Y-85550057D01*
X104559523Y-86454819D02*
X103988095Y-86454819D01*
X104273809Y-86454819D02*
X104273809Y-85454819D01*
X104273809Y-85454819D02*
X104178571Y-85597676D01*
X104178571Y-85597676D02*
X104083333Y-85692914D01*
X104083333Y-85692914D02*
X103988095Y-85740533D01*
X105035714Y-86454819D02*
X105226190Y-86454819D01*
X105226190Y-86454819D02*
X105321428Y-86407200D01*
X105321428Y-86407200D02*
X105369047Y-86359580D01*
X105369047Y-86359580D02*
X105464285Y-86216723D01*
X105464285Y-86216723D02*
X105511904Y-86026247D01*
X105511904Y-86026247D02*
X105511904Y-85645295D01*
X105511904Y-85645295D02*
X105464285Y-85550057D01*
X105464285Y-85550057D02*
X105416666Y-85502438D01*
X105416666Y-85502438D02*
X105321428Y-85454819D01*
X105321428Y-85454819D02*
X105130952Y-85454819D01*
X105130952Y-85454819D02*
X105035714Y-85502438D01*
X105035714Y-85502438D02*
X104988095Y-85550057D01*
X104988095Y-85550057D02*
X104940476Y-85645295D01*
X104940476Y-85645295D02*
X104940476Y-85883390D01*
X104940476Y-85883390D02*
X104988095Y-85978628D01*
X104988095Y-85978628D02*
X105035714Y-86026247D01*
X105035714Y-86026247D02*
X105130952Y-86073866D01*
X105130952Y-86073866D02*
X105321428Y-86073866D01*
X105321428Y-86073866D02*
X105416666Y-86026247D01*
X105416666Y-86026247D02*
X105464285Y-85978628D01*
X105464285Y-85978628D02*
X105511904Y-85883390D01*
X119157142Y-72859580D02*
X119109523Y-72907200D01*
X119109523Y-72907200D02*
X118966666Y-72954819D01*
X118966666Y-72954819D02*
X118871428Y-72954819D01*
X118871428Y-72954819D02*
X118728571Y-72907200D01*
X118728571Y-72907200D02*
X118633333Y-72811961D01*
X118633333Y-72811961D02*
X118585714Y-72716723D01*
X118585714Y-72716723D02*
X118538095Y-72526247D01*
X118538095Y-72526247D02*
X118538095Y-72383390D01*
X118538095Y-72383390D02*
X118585714Y-72192914D01*
X118585714Y-72192914D02*
X118633333Y-72097676D01*
X118633333Y-72097676D02*
X118728571Y-72002438D01*
X118728571Y-72002438D02*
X118871428Y-71954819D01*
X118871428Y-71954819D02*
X118966666Y-71954819D01*
X118966666Y-71954819D02*
X119109523Y-72002438D01*
X119109523Y-72002438D02*
X119157142Y-72050057D01*
X119538095Y-72050057D02*
X119585714Y-72002438D01*
X119585714Y-72002438D02*
X119680952Y-71954819D01*
X119680952Y-71954819D02*
X119919047Y-71954819D01*
X119919047Y-71954819D02*
X120014285Y-72002438D01*
X120014285Y-72002438D02*
X120061904Y-72050057D01*
X120061904Y-72050057D02*
X120109523Y-72145295D01*
X120109523Y-72145295D02*
X120109523Y-72240533D01*
X120109523Y-72240533D02*
X120061904Y-72383390D01*
X120061904Y-72383390D02*
X119490476Y-72954819D01*
X119490476Y-72954819D02*
X120109523Y-72954819D01*
X121061904Y-72954819D02*
X120490476Y-72954819D01*
X120776190Y-72954819D02*
X120776190Y-71954819D01*
X120776190Y-71954819D02*
X120680952Y-72097676D01*
X120680952Y-72097676D02*
X120585714Y-72192914D01*
X120585714Y-72192914D02*
X120490476Y-72240533D01*
X158359580Y-47192857D02*
X158407200Y-47240476D01*
X158407200Y-47240476D02*
X158454819Y-47383333D01*
X158454819Y-47383333D02*
X158454819Y-47478571D01*
X158454819Y-47478571D02*
X158407200Y-47621428D01*
X158407200Y-47621428D02*
X158311961Y-47716666D01*
X158311961Y-47716666D02*
X158216723Y-47764285D01*
X158216723Y-47764285D02*
X158026247Y-47811904D01*
X158026247Y-47811904D02*
X157883390Y-47811904D01*
X157883390Y-47811904D02*
X157692914Y-47764285D01*
X157692914Y-47764285D02*
X157597676Y-47716666D01*
X157597676Y-47716666D02*
X157502438Y-47621428D01*
X157502438Y-47621428D02*
X157454819Y-47478571D01*
X157454819Y-47478571D02*
X157454819Y-47383333D01*
X157454819Y-47383333D02*
X157502438Y-47240476D01*
X157502438Y-47240476D02*
X157550057Y-47192857D01*
X157550057Y-46811904D02*
X157502438Y-46764285D01*
X157502438Y-46764285D02*
X157454819Y-46669047D01*
X157454819Y-46669047D02*
X157454819Y-46430952D01*
X157454819Y-46430952D02*
X157502438Y-46335714D01*
X157502438Y-46335714D02*
X157550057Y-46288095D01*
X157550057Y-46288095D02*
X157645295Y-46240476D01*
X157645295Y-46240476D02*
X157740533Y-46240476D01*
X157740533Y-46240476D02*
X157883390Y-46288095D01*
X157883390Y-46288095D02*
X158454819Y-46859523D01*
X158454819Y-46859523D02*
X158454819Y-46240476D01*
X158454819Y-45764285D02*
X158454819Y-45573809D01*
X158454819Y-45573809D02*
X158407200Y-45478571D01*
X158407200Y-45478571D02*
X158359580Y-45430952D01*
X158359580Y-45430952D02*
X158216723Y-45335714D01*
X158216723Y-45335714D02*
X158026247Y-45288095D01*
X158026247Y-45288095D02*
X157645295Y-45288095D01*
X157645295Y-45288095D02*
X157550057Y-45335714D01*
X157550057Y-45335714D02*
X157502438Y-45383333D01*
X157502438Y-45383333D02*
X157454819Y-45478571D01*
X157454819Y-45478571D02*
X157454819Y-45669047D01*
X157454819Y-45669047D02*
X157502438Y-45764285D01*
X157502438Y-45764285D02*
X157550057Y-45811904D01*
X157550057Y-45811904D02*
X157645295Y-45859523D01*
X157645295Y-45859523D02*
X157883390Y-45859523D01*
X157883390Y-45859523D02*
X157978628Y-45811904D01*
X157978628Y-45811904D02*
X158026247Y-45764285D01*
X158026247Y-45764285D02*
X158073866Y-45669047D01*
X158073866Y-45669047D02*
X158073866Y-45478571D01*
X158073866Y-45478571D02*
X158026247Y-45383333D01*
X158026247Y-45383333D02*
X157978628Y-45335714D01*
X157978628Y-45335714D02*
X157883390Y-45288095D01*
X127988094Y-35669104D02*
X128464284Y-35669104D01*
X127892856Y-35954819D02*
X128226189Y-34954819D01*
X128226189Y-34954819D02*
X128559522Y-35954819D01*
X128892856Y-35288152D02*
X128892856Y-35954819D01*
X128892856Y-35383390D02*
X128940475Y-35335771D01*
X128940475Y-35335771D02*
X129035713Y-35288152D01*
X129035713Y-35288152D02*
X129178570Y-35288152D01*
X129178570Y-35288152D02*
X129273808Y-35335771D01*
X129273808Y-35335771D02*
X129321427Y-35431009D01*
X129321427Y-35431009D02*
X129321427Y-35954819D01*
X129654761Y-35288152D02*
X130035713Y-35288152D01*
X129797618Y-34954819D02*
X129797618Y-35811961D01*
X129797618Y-35811961D02*
X129845237Y-35907200D01*
X129845237Y-35907200D02*
X129940475Y-35954819D01*
X129940475Y-35954819D02*
X130035713Y-35954819D01*
X130749999Y-35907200D02*
X130654761Y-35954819D01*
X130654761Y-35954819D02*
X130464285Y-35954819D01*
X130464285Y-35954819D02*
X130369047Y-35907200D01*
X130369047Y-35907200D02*
X130321428Y-35811961D01*
X130321428Y-35811961D02*
X130321428Y-35431009D01*
X130321428Y-35431009D02*
X130369047Y-35335771D01*
X130369047Y-35335771D02*
X130464285Y-35288152D01*
X130464285Y-35288152D02*
X130654761Y-35288152D01*
X130654761Y-35288152D02*
X130749999Y-35335771D01*
X130749999Y-35335771D02*
X130797618Y-35431009D01*
X130797618Y-35431009D02*
X130797618Y-35526247D01*
X130797618Y-35526247D02*
X130321428Y-35621485D01*
X131226190Y-35288152D02*
X131226190Y-35954819D01*
X131226190Y-35383390D02*
X131273809Y-35335771D01*
X131273809Y-35335771D02*
X131369047Y-35288152D01*
X131369047Y-35288152D02*
X131511904Y-35288152D01*
X131511904Y-35288152D02*
X131607142Y-35335771D01*
X131607142Y-35335771D02*
X131654761Y-35431009D01*
X131654761Y-35431009D02*
X131654761Y-35954819D01*
X132130952Y-35288152D02*
X132130952Y-35954819D01*
X132130952Y-35383390D02*
X132178571Y-35335771D01*
X132178571Y-35335771D02*
X132273809Y-35288152D01*
X132273809Y-35288152D02*
X132416666Y-35288152D01*
X132416666Y-35288152D02*
X132511904Y-35335771D01*
X132511904Y-35335771D02*
X132559523Y-35431009D01*
X132559523Y-35431009D02*
X132559523Y-35954819D01*
X133464285Y-35954819D02*
X133464285Y-35431009D01*
X133464285Y-35431009D02*
X133416666Y-35335771D01*
X133416666Y-35335771D02*
X133321428Y-35288152D01*
X133321428Y-35288152D02*
X133130952Y-35288152D01*
X133130952Y-35288152D02*
X133035714Y-35335771D01*
X133464285Y-35907200D02*
X133369047Y-35954819D01*
X133369047Y-35954819D02*
X133130952Y-35954819D01*
X133130952Y-35954819D02*
X133035714Y-35907200D01*
X133035714Y-35907200D02*
X132988095Y-35811961D01*
X132988095Y-35811961D02*
X132988095Y-35716723D01*
X132988095Y-35716723D02*
X133035714Y-35621485D01*
X133035714Y-35621485D02*
X133130952Y-35573866D01*
X133130952Y-35573866D02*
X133369047Y-35573866D01*
X133369047Y-35573866D02*
X133464285Y-35526247D01*
X134654762Y-35669104D02*
X135130952Y-35669104D01*
X134559524Y-35954819D02*
X134892857Y-34954819D01*
X134892857Y-34954819D02*
X135226190Y-35954819D01*
X135559524Y-35954819D02*
X135559524Y-35288152D01*
X135559524Y-35478628D02*
X135607143Y-35383390D01*
X135607143Y-35383390D02*
X135654762Y-35335771D01*
X135654762Y-35335771D02*
X135750000Y-35288152D01*
X135750000Y-35288152D02*
X135845238Y-35288152D01*
X136559524Y-35907200D02*
X136464286Y-35954819D01*
X136464286Y-35954819D02*
X136273810Y-35954819D01*
X136273810Y-35954819D02*
X136178572Y-35907200D01*
X136178572Y-35907200D02*
X136130953Y-35811961D01*
X136130953Y-35811961D02*
X136130953Y-35431009D01*
X136130953Y-35431009D02*
X136178572Y-35335771D01*
X136178572Y-35335771D02*
X136273810Y-35288152D01*
X136273810Y-35288152D02*
X136464286Y-35288152D01*
X136464286Y-35288152D02*
X136559524Y-35335771D01*
X136559524Y-35335771D02*
X136607143Y-35431009D01*
X136607143Y-35431009D02*
X136607143Y-35526247D01*
X136607143Y-35526247D02*
X136130953Y-35621485D01*
X137464286Y-35954819D02*
X137464286Y-35431009D01*
X137464286Y-35431009D02*
X137416667Y-35335771D01*
X137416667Y-35335771D02*
X137321429Y-35288152D01*
X137321429Y-35288152D02*
X137130953Y-35288152D01*
X137130953Y-35288152D02*
X137035715Y-35335771D01*
X137464286Y-35907200D02*
X137369048Y-35954819D01*
X137369048Y-35954819D02*
X137130953Y-35954819D01*
X137130953Y-35954819D02*
X137035715Y-35907200D01*
X137035715Y-35907200D02*
X136988096Y-35811961D01*
X136988096Y-35811961D02*
X136988096Y-35716723D01*
X136988096Y-35716723D02*
X137035715Y-35621485D01*
X137035715Y-35621485D02*
X137130953Y-35573866D01*
X137130953Y-35573866D02*
X137369048Y-35573866D01*
X137369048Y-35573866D02*
X137464286Y-35526247D01*
X177862142Y-53949819D02*
X177528809Y-53473628D01*
X177290714Y-53949819D02*
X177290714Y-52949819D01*
X177290714Y-52949819D02*
X177671666Y-52949819D01*
X177671666Y-52949819D02*
X177766904Y-52997438D01*
X177766904Y-52997438D02*
X177814523Y-53045057D01*
X177814523Y-53045057D02*
X177862142Y-53140295D01*
X177862142Y-53140295D02*
X177862142Y-53283152D01*
X177862142Y-53283152D02*
X177814523Y-53378390D01*
X177814523Y-53378390D02*
X177766904Y-53426009D01*
X177766904Y-53426009D02*
X177671666Y-53473628D01*
X177671666Y-53473628D02*
X177290714Y-53473628D01*
X178814523Y-53949819D02*
X178243095Y-53949819D01*
X178528809Y-53949819D02*
X178528809Y-52949819D01*
X178528809Y-52949819D02*
X178433571Y-53092676D01*
X178433571Y-53092676D02*
X178338333Y-53187914D01*
X178338333Y-53187914D02*
X178243095Y-53235533D01*
X179147857Y-52949819D02*
X179814523Y-52949819D01*
X179814523Y-52949819D02*
X179385952Y-53949819D01*
X173192142Y-62919819D02*
X172858809Y-62443628D01*
X172620714Y-62919819D02*
X172620714Y-61919819D01*
X172620714Y-61919819D02*
X173001666Y-61919819D01*
X173001666Y-61919819D02*
X173096904Y-61967438D01*
X173096904Y-61967438D02*
X173144523Y-62015057D01*
X173144523Y-62015057D02*
X173192142Y-62110295D01*
X173192142Y-62110295D02*
X173192142Y-62253152D01*
X173192142Y-62253152D02*
X173144523Y-62348390D01*
X173144523Y-62348390D02*
X173096904Y-62396009D01*
X173096904Y-62396009D02*
X173001666Y-62443628D01*
X173001666Y-62443628D02*
X172620714Y-62443628D01*
X174144523Y-62919819D02*
X173573095Y-62919819D01*
X173858809Y-62919819D02*
X173858809Y-61919819D01*
X173858809Y-61919819D02*
X173763571Y-62062676D01*
X173763571Y-62062676D02*
X173668333Y-62157914D01*
X173668333Y-62157914D02*
X173573095Y-62205533D01*
X175001666Y-62253152D02*
X175001666Y-62919819D01*
X174763571Y-61872200D02*
X174525476Y-62586485D01*
X174525476Y-62586485D02*
X175144523Y-62586485D01*
X186078333Y-76634580D02*
X186030714Y-76682200D01*
X186030714Y-76682200D02*
X185887857Y-76729819D01*
X185887857Y-76729819D02*
X185792619Y-76729819D01*
X185792619Y-76729819D02*
X185649762Y-76682200D01*
X185649762Y-76682200D02*
X185554524Y-76586961D01*
X185554524Y-76586961D02*
X185506905Y-76491723D01*
X185506905Y-76491723D02*
X185459286Y-76301247D01*
X185459286Y-76301247D02*
X185459286Y-76158390D01*
X185459286Y-76158390D02*
X185506905Y-75967914D01*
X185506905Y-75967914D02*
X185554524Y-75872676D01*
X185554524Y-75872676D02*
X185649762Y-75777438D01*
X185649762Y-75777438D02*
X185792619Y-75729819D01*
X185792619Y-75729819D02*
X185887857Y-75729819D01*
X185887857Y-75729819D02*
X186030714Y-75777438D01*
X186030714Y-75777438D02*
X186078333Y-75825057D01*
X186649762Y-76158390D02*
X186554524Y-76110771D01*
X186554524Y-76110771D02*
X186506905Y-76063152D01*
X186506905Y-76063152D02*
X186459286Y-75967914D01*
X186459286Y-75967914D02*
X186459286Y-75920295D01*
X186459286Y-75920295D02*
X186506905Y-75825057D01*
X186506905Y-75825057D02*
X186554524Y-75777438D01*
X186554524Y-75777438D02*
X186649762Y-75729819D01*
X186649762Y-75729819D02*
X186840238Y-75729819D01*
X186840238Y-75729819D02*
X186935476Y-75777438D01*
X186935476Y-75777438D02*
X186983095Y-75825057D01*
X186983095Y-75825057D02*
X187030714Y-75920295D01*
X187030714Y-75920295D02*
X187030714Y-75967914D01*
X187030714Y-75967914D02*
X186983095Y-76063152D01*
X186983095Y-76063152D02*
X186935476Y-76110771D01*
X186935476Y-76110771D02*
X186840238Y-76158390D01*
X186840238Y-76158390D02*
X186649762Y-76158390D01*
X186649762Y-76158390D02*
X186554524Y-76206009D01*
X186554524Y-76206009D02*
X186506905Y-76253628D01*
X186506905Y-76253628D02*
X186459286Y-76348866D01*
X186459286Y-76348866D02*
X186459286Y-76539342D01*
X186459286Y-76539342D02*
X186506905Y-76634580D01*
X186506905Y-76634580D02*
X186554524Y-76682200D01*
X186554524Y-76682200D02*
X186649762Y-76729819D01*
X186649762Y-76729819D02*
X186840238Y-76729819D01*
X186840238Y-76729819D02*
X186935476Y-76682200D01*
X186935476Y-76682200D02*
X186983095Y-76634580D01*
X186983095Y-76634580D02*
X187030714Y-76539342D01*
X187030714Y-76539342D02*
X187030714Y-76348866D01*
X187030714Y-76348866D02*
X186983095Y-76253628D01*
X186983095Y-76253628D02*
X186935476Y-76206009D01*
X186935476Y-76206009D02*
X186840238Y-76158390D01*
X191488333Y-71349819D02*
X191012143Y-71349819D01*
X191012143Y-71349819D02*
X191012143Y-70349819D01*
X192345476Y-71349819D02*
X191774048Y-71349819D01*
X192059762Y-71349819D02*
X192059762Y-70349819D01*
X192059762Y-70349819D02*
X191964524Y-70492676D01*
X191964524Y-70492676D02*
X191869286Y-70587914D01*
X191869286Y-70587914D02*
X191774048Y-70635533D01*
X102785713Y-49169819D02*
X102452380Y-48693628D01*
X102214285Y-49169819D02*
X102214285Y-48169819D01*
X102214285Y-48169819D02*
X102595237Y-48169819D01*
X102595237Y-48169819D02*
X102690475Y-48217438D01*
X102690475Y-48217438D02*
X102738094Y-48265057D01*
X102738094Y-48265057D02*
X102785713Y-48360295D01*
X102785713Y-48360295D02*
X102785713Y-48503152D01*
X102785713Y-48503152D02*
X102738094Y-48598390D01*
X102738094Y-48598390D02*
X102690475Y-48646009D01*
X102690475Y-48646009D02*
X102595237Y-48693628D01*
X102595237Y-48693628D02*
X102214285Y-48693628D01*
X103595237Y-49122200D02*
X103499999Y-49169819D01*
X103499999Y-49169819D02*
X103309523Y-49169819D01*
X103309523Y-49169819D02*
X103214285Y-49122200D01*
X103214285Y-49122200D02*
X103166666Y-49026961D01*
X103166666Y-49026961D02*
X103166666Y-48646009D01*
X103166666Y-48646009D02*
X103214285Y-48550771D01*
X103214285Y-48550771D02*
X103309523Y-48503152D01*
X103309523Y-48503152D02*
X103499999Y-48503152D01*
X103499999Y-48503152D02*
X103595237Y-48550771D01*
X103595237Y-48550771D02*
X103642856Y-48646009D01*
X103642856Y-48646009D02*
X103642856Y-48741247D01*
X103642856Y-48741247D02*
X103166666Y-48836485D01*
X104023809Y-49122200D02*
X104119047Y-49169819D01*
X104119047Y-49169819D02*
X104309523Y-49169819D01*
X104309523Y-49169819D02*
X104404761Y-49122200D01*
X104404761Y-49122200D02*
X104452380Y-49026961D01*
X104452380Y-49026961D02*
X104452380Y-48979342D01*
X104452380Y-48979342D02*
X104404761Y-48884104D01*
X104404761Y-48884104D02*
X104309523Y-48836485D01*
X104309523Y-48836485D02*
X104166666Y-48836485D01*
X104166666Y-48836485D02*
X104071428Y-48788866D01*
X104071428Y-48788866D02*
X104023809Y-48693628D01*
X104023809Y-48693628D02*
X104023809Y-48646009D01*
X104023809Y-48646009D02*
X104071428Y-48550771D01*
X104071428Y-48550771D02*
X104166666Y-48503152D01*
X104166666Y-48503152D02*
X104309523Y-48503152D01*
X104309523Y-48503152D02*
X104404761Y-48550771D01*
X105261904Y-49122200D02*
X105166666Y-49169819D01*
X105166666Y-49169819D02*
X104976190Y-49169819D01*
X104976190Y-49169819D02*
X104880952Y-49122200D01*
X104880952Y-49122200D02*
X104833333Y-49026961D01*
X104833333Y-49026961D02*
X104833333Y-48646009D01*
X104833333Y-48646009D02*
X104880952Y-48550771D01*
X104880952Y-48550771D02*
X104976190Y-48503152D01*
X104976190Y-48503152D02*
X105166666Y-48503152D01*
X105166666Y-48503152D02*
X105261904Y-48550771D01*
X105261904Y-48550771D02*
X105309523Y-48646009D01*
X105309523Y-48646009D02*
X105309523Y-48741247D01*
X105309523Y-48741247D02*
X104833333Y-48836485D01*
X105595238Y-48503152D02*
X105976190Y-48503152D01*
X105738095Y-48169819D02*
X105738095Y-49026961D01*
X105738095Y-49026961D02*
X105785714Y-49122200D01*
X105785714Y-49122200D02*
X105880952Y-49169819D01*
X105880952Y-49169819D02*
X105976190Y-49169819D01*
X106833333Y-49169819D02*
X106261905Y-49169819D01*
X106547619Y-49169819D02*
X106547619Y-48169819D01*
X106547619Y-48169819D02*
X106452381Y-48312676D01*
X106452381Y-48312676D02*
X106357143Y-48407914D01*
X106357143Y-48407914D02*
X106261905Y-48455533D01*
X181632142Y-66034580D02*
X181584523Y-66082200D01*
X181584523Y-66082200D02*
X181441666Y-66129819D01*
X181441666Y-66129819D02*
X181346428Y-66129819D01*
X181346428Y-66129819D02*
X181203571Y-66082200D01*
X181203571Y-66082200D02*
X181108333Y-65986961D01*
X181108333Y-65986961D02*
X181060714Y-65891723D01*
X181060714Y-65891723D02*
X181013095Y-65701247D01*
X181013095Y-65701247D02*
X181013095Y-65558390D01*
X181013095Y-65558390D02*
X181060714Y-65367914D01*
X181060714Y-65367914D02*
X181108333Y-65272676D01*
X181108333Y-65272676D02*
X181203571Y-65177438D01*
X181203571Y-65177438D02*
X181346428Y-65129819D01*
X181346428Y-65129819D02*
X181441666Y-65129819D01*
X181441666Y-65129819D02*
X181584523Y-65177438D01*
X181584523Y-65177438D02*
X181632142Y-65225057D01*
X182584523Y-66129819D02*
X182013095Y-66129819D01*
X182298809Y-66129819D02*
X182298809Y-65129819D01*
X182298809Y-65129819D02*
X182203571Y-65272676D01*
X182203571Y-65272676D02*
X182108333Y-65367914D01*
X182108333Y-65367914D02*
X182013095Y-65415533D01*
X182917857Y-65129819D02*
X183584523Y-65129819D01*
X183584523Y-65129819D02*
X183155952Y-66129819D01*
X173898333Y-69049819D02*
X173422143Y-69049819D01*
X173422143Y-69049819D02*
X173422143Y-68049819D01*
X174660238Y-68049819D02*
X174469762Y-68049819D01*
X174469762Y-68049819D02*
X174374524Y-68097438D01*
X174374524Y-68097438D02*
X174326905Y-68145057D01*
X174326905Y-68145057D02*
X174231667Y-68287914D01*
X174231667Y-68287914D02*
X174184048Y-68478390D01*
X174184048Y-68478390D02*
X174184048Y-68859342D01*
X174184048Y-68859342D02*
X174231667Y-68954580D01*
X174231667Y-68954580D02*
X174279286Y-69002200D01*
X174279286Y-69002200D02*
X174374524Y-69049819D01*
X174374524Y-69049819D02*
X174565000Y-69049819D01*
X174565000Y-69049819D02*
X174660238Y-69002200D01*
X174660238Y-69002200D02*
X174707857Y-68954580D01*
X174707857Y-68954580D02*
X174755476Y-68859342D01*
X174755476Y-68859342D02*
X174755476Y-68621247D01*
X174755476Y-68621247D02*
X174707857Y-68526009D01*
X174707857Y-68526009D02*
X174660238Y-68478390D01*
X174660238Y-68478390D02*
X174565000Y-68430771D01*
X174565000Y-68430771D02*
X174374524Y-68430771D01*
X174374524Y-68430771D02*
X174279286Y-68478390D01*
X174279286Y-68478390D02*
X174231667Y-68526009D01*
X174231667Y-68526009D02*
X174184048Y-68621247D01*
X182108333Y-56184580D02*
X182060714Y-56232200D01*
X182060714Y-56232200D02*
X181917857Y-56279819D01*
X181917857Y-56279819D02*
X181822619Y-56279819D01*
X181822619Y-56279819D02*
X181679762Y-56232200D01*
X181679762Y-56232200D02*
X181584524Y-56136961D01*
X181584524Y-56136961D02*
X181536905Y-56041723D01*
X181536905Y-56041723D02*
X181489286Y-55851247D01*
X181489286Y-55851247D02*
X181489286Y-55708390D01*
X181489286Y-55708390D02*
X181536905Y-55517914D01*
X181536905Y-55517914D02*
X181584524Y-55422676D01*
X181584524Y-55422676D02*
X181679762Y-55327438D01*
X181679762Y-55327438D02*
X181822619Y-55279819D01*
X181822619Y-55279819D02*
X181917857Y-55279819D01*
X181917857Y-55279819D02*
X182060714Y-55327438D01*
X182060714Y-55327438D02*
X182108333Y-55375057D01*
X182441667Y-55279819D02*
X183060714Y-55279819D01*
X183060714Y-55279819D02*
X182727381Y-55660771D01*
X182727381Y-55660771D02*
X182870238Y-55660771D01*
X182870238Y-55660771D02*
X182965476Y-55708390D01*
X182965476Y-55708390D02*
X183013095Y-55756009D01*
X183013095Y-55756009D02*
X183060714Y-55851247D01*
X183060714Y-55851247D02*
X183060714Y-56089342D01*
X183060714Y-56089342D02*
X183013095Y-56184580D01*
X183013095Y-56184580D02*
X182965476Y-56232200D01*
X182965476Y-56232200D02*
X182870238Y-56279819D01*
X182870238Y-56279819D02*
X182584524Y-56279819D01*
X182584524Y-56279819D02*
X182489286Y-56232200D01*
X182489286Y-56232200D02*
X182441667Y-56184580D01*
X101357142Y-69954819D02*
X101023809Y-69478628D01*
X100785714Y-69954819D02*
X100785714Y-68954819D01*
X100785714Y-68954819D02*
X101166666Y-68954819D01*
X101166666Y-68954819D02*
X101261904Y-69002438D01*
X101261904Y-69002438D02*
X101309523Y-69050057D01*
X101309523Y-69050057D02*
X101357142Y-69145295D01*
X101357142Y-69145295D02*
X101357142Y-69288152D01*
X101357142Y-69288152D02*
X101309523Y-69383390D01*
X101309523Y-69383390D02*
X101261904Y-69431009D01*
X101261904Y-69431009D02*
X101166666Y-69478628D01*
X101166666Y-69478628D02*
X100785714Y-69478628D01*
X102309523Y-69954819D02*
X101738095Y-69954819D01*
X102023809Y-69954819D02*
X102023809Y-68954819D01*
X102023809Y-68954819D02*
X101928571Y-69097676D01*
X101928571Y-69097676D02*
X101833333Y-69192914D01*
X101833333Y-69192914D02*
X101738095Y-69240533D01*
X102642857Y-68954819D02*
X103261904Y-68954819D01*
X103261904Y-68954819D02*
X102928571Y-69335771D01*
X102928571Y-69335771D02*
X103071428Y-69335771D01*
X103071428Y-69335771D02*
X103166666Y-69383390D01*
X103166666Y-69383390D02*
X103214285Y-69431009D01*
X103214285Y-69431009D02*
X103261904Y-69526247D01*
X103261904Y-69526247D02*
X103261904Y-69764342D01*
X103261904Y-69764342D02*
X103214285Y-69859580D01*
X103214285Y-69859580D02*
X103166666Y-69907200D01*
X103166666Y-69907200D02*
X103071428Y-69954819D01*
X103071428Y-69954819D02*
X102785714Y-69954819D01*
X102785714Y-69954819D02*
X102690476Y-69907200D01*
X102690476Y-69907200D02*
X102642857Y-69859580D01*
X109166666Y-60794819D02*
X109166666Y-61509104D01*
X109166666Y-61509104D02*
X109119047Y-61651961D01*
X109119047Y-61651961D02*
X109023809Y-61747200D01*
X109023809Y-61747200D02*
X108880952Y-61794819D01*
X108880952Y-61794819D02*
X108785714Y-61794819D01*
X110166666Y-61794819D02*
X109595238Y-61794819D01*
X109880952Y-61794819D02*
X109880952Y-60794819D01*
X109880952Y-60794819D02*
X109785714Y-60937676D01*
X109785714Y-60937676D02*
X109690476Y-61032914D01*
X109690476Y-61032914D02*
X109595238Y-61080533D01*
X125309523Y-102359580D02*
X125261904Y-102407200D01*
X125261904Y-102407200D02*
X125119047Y-102454819D01*
X125119047Y-102454819D02*
X125023809Y-102454819D01*
X125023809Y-102454819D02*
X124880952Y-102407200D01*
X124880952Y-102407200D02*
X124785714Y-102311961D01*
X124785714Y-102311961D02*
X124738095Y-102216723D01*
X124738095Y-102216723D02*
X124690476Y-102026247D01*
X124690476Y-102026247D02*
X124690476Y-101883390D01*
X124690476Y-101883390D02*
X124738095Y-101692914D01*
X124738095Y-101692914D02*
X124785714Y-101597676D01*
X124785714Y-101597676D02*
X124880952Y-101502438D01*
X124880952Y-101502438D02*
X125023809Y-101454819D01*
X125023809Y-101454819D02*
X125119047Y-101454819D01*
X125119047Y-101454819D02*
X125261904Y-101502438D01*
X125261904Y-101502438D02*
X125309523Y-101550057D01*
X125738095Y-102454819D02*
X125738095Y-101454819D01*
X125738095Y-101454819D02*
X126309523Y-102454819D01*
X126309523Y-102454819D02*
X126309523Y-101454819D01*
X126738095Y-101550057D02*
X126785714Y-101502438D01*
X126785714Y-101502438D02*
X126880952Y-101454819D01*
X126880952Y-101454819D02*
X127119047Y-101454819D01*
X127119047Y-101454819D02*
X127214285Y-101502438D01*
X127214285Y-101502438D02*
X127261904Y-101550057D01*
X127261904Y-101550057D02*
X127309523Y-101645295D01*
X127309523Y-101645295D02*
X127309523Y-101740533D01*
X127309523Y-101740533D02*
X127261904Y-101883390D01*
X127261904Y-101883390D02*
X126690476Y-102454819D01*
X126690476Y-102454819D02*
X127309523Y-102454819D01*
X112269580Y-78842857D02*
X112317200Y-78890476D01*
X112317200Y-78890476D02*
X112364819Y-79033333D01*
X112364819Y-79033333D02*
X112364819Y-79128571D01*
X112364819Y-79128571D02*
X112317200Y-79271428D01*
X112317200Y-79271428D02*
X112221961Y-79366666D01*
X112221961Y-79366666D02*
X112126723Y-79414285D01*
X112126723Y-79414285D02*
X111936247Y-79461904D01*
X111936247Y-79461904D02*
X111793390Y-79461904D01*
X111793390Y-79461904D02*
X111602914Y-79414285D01*
X111602914Y-79414285D02*
X111507676Y-79366666D01*
X111507676Y-79366666D02*
X111412438Y-79271428D01*
X111412438Y-79271428D02*
X111364819Y-79128571D01*
X111364819Y-79128571D02*
X111364819Y-79033333D01*
X111364819Y-79033333D02*
X111412438Y-78890476D01*
X111412438Y-78890476D02*
X111460057Y-78842857D01*
X112364819Y-77890476D02*
X112364819Y-78461904D01*
X112364819Y-78176190D02*
X111364819Y-78176190D01*
X111364819Y-78176190D02*
X111507676Y-78271428D01*
X111507676Y-78271428D02*
X111602914Y-78366666D01*
X111602914Y-78366666D02*
X111650533Y-78461904D01*
X111364819Y-77033333D02*
X111364819Y-77223809D01*
X111364819Y-77223809D02*
X111412438Y-77319047D01*
X111412438Y-77319047D02*
X111460057Y-77366666D01*
X111460057Y-77366666D02*
X111602914Y-77461904D01*
X111602914Y-77461904D02*
X111793390Y-77509523D01*
X111793390Y-77509523D02*
X112174342Y-77509523D01*
X112174342Y-77509523D02*
X112269580Y-77461904D01*
X112269580Y-77461904D02*
X112317200Y-77414285D01*
X112317200Y-77414285D02*
X112364819Y-77319047D01*
X112364819Y-77319047D02*
X112364819Y-77128571D01*
X112364819Y-77128571D02*
X112317200Y-77033333D01*
X112317200Y-77033333D02*
X112269580Y-76985714D01*
X112269580Y-76985714D02*
X112174342Y-76938095D01*
X112174342Y-76938095D02*
X111936247Y-76938095D01*
X111936247Y-76938095D02*
X111841009Y-76985714D01*
X111841009Y-76985714D02*
X111793390Y-77033333D01*
X111793390Y-77033333D02*
X111745771Y-77128571D01*
X111745771Y-77128571D02*
X111745771Y-77319047D01*
X111745771Y-77319047D02*
X111793390Y-77414285D01*
X111793390Y-77414285D02*
X111841009Y-77461904D01*
X111841009Y-77461904D02*
X111936247Y-77509523D01*
X168296666Y-41954819D02*
X168296666Y-42669104D01*
X168296666Y-42669104D02*
X168249047Y-42811961D01*
X168249047Y-42811961D02*
X168153809Y-42907200D01*
X168153809Y-42907200D02*
X168010952Y-42954819D01*
X168010952Y-42954819D02*
X167915714Y-42954819D01*
X168772857Y-42954819D02*
X168772857Y-41954819D01*
X168772857Y-41954819D02*
X169153809Y-41954819D01*
X169153809Y-41954819D02*
X169249047Y-42002438D01*
X169249047Y-42002438D02*
X169296666Y-42050057D01*
X169296666Y-42050057D02*
X169344285Y-42145295D01*
X169344285Y-42145295D02*
X169344285Y-42288152D01*
X169344285Y-42288152D02*
X169296666Y-42383390D01*
X169296666Y-42383390D02*
X169249047Y-42431009D01*
X169249047Y-42431009D02*
X169153809Y-42478628D01*
X169153809Y-42478628D02*
X168772857Y-42478628D01*
X169725238Y-42050057D02*
X169772857Y-42002438D01*
X169772857Y-42002438D02*
X169868095Y-41954819D01*
X169868095Y-41954819D02*
X170106190Y-41954819D01*
X170106190Y-41954819D02*
X170201428Y-42002438D01*
X170201428Y-42002438D02*
X170249047Y-42050057D01*
X170249047Y-42050057D02*
X170296666Y-42145295D01*
X170296666Y-42145295D02*
X170296666Y-42240533D01*
X170296666Y-42240533D02*
X170249047Y-42383390D01*
X170249047Y-42383390D02*
X169677619Y-42954819D01*
X169677619Y-42954819D02*
X170296666Y-42954819D01*
X156359580Y-54342857D02*
X156407200Y-54390476D01*
X156407200Y-54390476D02*
X156454819Y-54533333D01*
X156454819Y-54533333D02*
X156454819Y-54628571D01*
X156454819Y-54628571D02*
X156407200Y-54771428D01*
X156407200Y-54771428D02*
X156311961Y-54866666D01*
X156311961Y-54866666D02*
X156216723Y-54914285D01*
X156216723Y-54914285D02*
X156026247Y-54961904D01*
X156026247Y-54961904D02*
X155883390Y-54961904D01*
X155883390Y-54961904D02*
X155692914Y-54914285D01*
X155692914Y-54914285D02*
X155597676Y-54866666D01*
X155597676Y-54866666D02*
X155502438Y-54771428D01*
X155502438Y-54771428D02*
X155454819Y-54628571D01*
X155454819Y-54628571D02*
X155454819Y-54533333D01*
X155454819Y-54533333D02*
X155502438Y-54390476D01*
X155502438Y-54390476D02*
X155550057Y-54342857D01*
X155550057Y-53961904D02*
X155502438Y-53914285D01*
X155502438Y-53914285D02*
X155454819Y-53819047D01*
X155454819Y-53819047D02*
X155454819Y-53580952D01*
X155454819Y-53580952D02*
X155502438Y-53485714D01*
X155502438Y-53485714D02*
X155550057Y-53438095D01*
X155550057Y-53438095D02*
X155645295Y-53390476D01*
X155645295Y-53390476D02*
X155740533Y-53390476D01*
X155740533Y-53390476D02*
X155883390Y-53438095D01*
X155883390Y-53438095D02*
X156454819Y-54009523D01*
X156454819Y-54009523D02*
X156454819Y-53390476D01*
X155454819Y-52533333D02*
X155454819Y-52723809D01*
X155454819Y-52723809D02*
X155502438Y-52819047D01*
X155502438Y-52819047D02*
X155550057Y-52866666D01*
X155550057Y-52866666D02*
X155692914Y-52961904D01*
X155692914Y-52961904D02*
X155883390Y-53009523D01*
X155883390Y-53009523D02*
X156264342Y-53009523D01*
X156264342Y-53009523D02*
X156359580Y-52961904D01*
X156359580Y-52961904D02*
X156407200Y-52914285D01*
X156407200Y-52914285D02*
X156454819Y-52819047D01*
X156454819Y-52819047D02*
X156454819Y-52628571D01*
X156454819Y-52628571D02*
X156407200Y-52533333D01*
X156407200Y-52533333D02*
X156359580Y-52485714D01*
X156359580Y-52485714D02*
X156264342Y-52438095D01*
X156264342Y-52438095D02*
X156026247Y-52438095D01*
X156026247Y-52438095D02*
X155931009Y-52485714D01*
X155931009Y-52485714D02*
X155883390Y-52533333D01*
X155883390Y-52533333D02*
X155835771Y-52628571D01*
X155835771Y-52628571D02*
X155835771Y-52819047D01*
X155835771Y-52819047D02*
X155883390Y-52914285D01*
X155883390Y-52914285D02*
X155931009Y-52961904D01*
X155931009Y-52961904D02*
X156026247Y-53009523D01*
X177372142Y-73219819D02*
X177038809Y-72743628D01*
X176800714Y-73219819D02*
X176800714Y-72219819D01*
X176800714Y-72219819D02*
X177181666Y-72219819D01*
X177181666Y-72219819D02*
X177276904Y-72267438D01*
X177276904Y-72267438D02*
X177324523Y-72315057D01*
X177324523Y-72315057D02*
X177372142Y-72410295D01*
X177372142Y-72410295D02*
X177372142Y-72553152D01*
X177372142Y-72553152D02*
X177324523Y-72648390D01*
X177324523Y-72648390D02*
X177276904Y-72696009D01*
X177276904Y-72696009D02*
X177181666Y-72743628D01*
X177181666Y-72743628D02*
X176800714Y-72743628D01*
X178324523Y-73219819D02*
X177753095Y-73219819D01*
X178038809Y-73219819D02*
X178038809Y-72219819D01*
X178038809Y-72219819D02*
X177943571Y-72362676D01*
X177943571Y-72362676D02*
X177848333Y-72457914D01*
X177848333Y-72457914D02*
X177753095Y-72505533D01*
X179181666Y-72219819D02*
X178991190Y-72219819D01*
X178991190Y-72219819D02*
X178895952Y-72267438D01*
X178895952Y-72267438D02*
X178848333Y-72315057D01*
X178848333Y-72315057D02*
X178753095Y-72457914D01*
X178753095Y-72457914D02*
X178705476Y-72648390D01*
X178705476Y-72648390D02*
X178705476Y-73029342D01*
X178705476Y-73029342D02*
X178753095Y-73124580D01*
X178753095Y-73124580D02*
X178800714Y-73172200D01*
X178800714Y-73172200D02*
X178895952Y-73219819D01*
X178895952Y-73219819D02*
X179086428Y-73219819D01*
X179086428Y-73219819D02*
X179181666Y-73172200D01*
X179181666Y-73172200D02*
X179229285Y-73124580D01*
X179229285Y-73124580D02*
X179276904Y-73029342D01*
X179276904Y-73029342D02*
X179276904Y-72791247D01*
X179276904Y-72791247D02*
X179229285Y-72696009D01*
X179229285Y-72696009D02*
X179181666Y-72648390D01*
X179181666Y-72648390D02*
X179086428Y-72600771D01*
X179086428Y-72600771D02*
X178895952Y-72600771D01*
X178895952Y-72600771D02*
X178800714Y-72648390D01*
X178800714Y-72648390D02*
X178753095Y-72696009D01*
X178753095Y-72696009D02*
X178705476Y-72791247D01*
X119359580Y-83222857D02*
X119407200Y-83270476D01*
X119407200Y-83270476D02*
X119454819Y-83413333D01*
X119454819Y-83413333D02*
X119454819Y-83508571D01*
X119454819Y-83508571D02*
X119407200Y-83651428D01*
X119407200Y-83651428D02*
X119311961Y-83746666D01*
X119311961Y-83746666D02*
X119216723Y-83794285D01*
X119216723Y-83794285D02*
X119026247Y-83841904D01*
X119026247Y-83841904D02*
X118883390Y-83841904D01*
X118883390Y-83841904D02*
X118692914Y-83794285D01*
X118692914Y-83794285D02*
X118597676Y-83746666D01*
X118597676Y-83746666D02*
X118502438Y-83651428D01*
X118502438Y-83651428D02*
X118454819Y-83508571D01*
X118454819Y-83508571D02*
X118454819Y-83413333D01*
X118454819Y-83413333D02*
X118502438Y-83270476D01*
X118502438Y-83270476D02*
X118550057Y-83222857D01*
X119454819Y-82270476D02*
X119454819Y-82841904D01*
X119454819Y-82556190D02*
X118454819Y-82556190D01*
X118454819Y-82556190D02*
X118597676Y-82651428D01*
X118597676Y-82651428D02*
X118692914Y-82746666D01*
X118692914Y-82746666D02*
X118740533Y-82841904D01*
X118883390Y-81699047D02*
X118835771Y-81794285D01*
X118835771Y-81794285D02*
X118788152Y-81841904D01*
X118788152Y-81841904D02*
X118692914Y-81889523D01*
X118692914Y-81889523D02*
X118645295Y-81889523D01*
X118645295Y-81889523D02*
X118550057Y-81841904D01*
X118550057Y-81841904D02*
X118502438Y-81794285D01*
X118502438Y-81794285D02*
X118454819Y-81699047D01*
X118454819Y-81699047D02*
X118454819Y-81508571D01*
X118454819Y-81508571D02*
X118502438Y-81413333D01*
X118502438Y-81413333D02*
X118550057Y-81365714D01*
X118550057Y-81365714D02*
X118645295Y-81318095D01*
X118645295Y-81318095D02*
X118692914Y-81318095D01*
X118692914Y-81318095D02*
X118788152Y-81365714D01*
X118788152Y-81365714D02*
X118835771Y-81413333D01*
X118835771Y-81413333D02*
X118883390Y-81508571D01*
X118883390Y-81508571D02*
X118883390Y-81699047D01*
X118883390Y-81699047D02*
X118931009Y-81794285D01*
X118931009Y-81794285D02*
X118978628Y-81841904D01*
X118978628Y-81841904D02*
X119073866Y-81889523D01*
X119073866Y-81889523D02*
X119264342Y-81889523D01*
X119264342Y-81889523D02*
X119359580Y-81841904D01*
X119359580Y-81841904D02*
X119407200Y-81794285D01*
X119407200Y-81794285D02*
X119454819Y-81699047D01*
X119454819Y-81699047D02*
X119454819Y-81508571D01*
X119454819Y-81508571D02*
X119407200Y-81413333D01*
X119407200Y-81413333D02*
X119359580Y-81365714D01*
X119359580Y-81365714D02*
X119264342Y-81318095D01*
X119264342Y-81318095D02*
X119073866Y-81318095D01*
X119073866Y-81318095D02*
X118978628Y-81365714D01*
X118978628Y-81365714D02*
X118931009Y-81413333D01*
X118931009Y-81413333D02*
X118883390Y-81508571D01*
X177372142Y-75209819D02*
X177038809Y-74733628D01*
X176800714Y-75209819D02*
X176800714Y-74209819D01*
X176800714Y-74209819D02*
X177181666Y-74209819D01*
X177181666Y-74209819D02*
X177276904Y-74257438D01*
X177276904Y-74257438D02*
X177324523Y-74305057D01*
X177324523Y-74305057D02*
X177372142Y-74400295D01*
X177372142Y-74400295D02*
X177372142Y-74543152D01*
X177372142Y-74543152D02*
X177324523Y-74638390D01*
X177324523Y-74638390D02*
X177276904Y-74686009D01*
X177276904Y-74686009D02*
X177181666Y-74733628D01*
X177181666Y-74733628D02*
X176800714Y-74733628D01*
X177753095Y-74305057D02*
X177800714Y-74257438D01*
X177800714Y-74257438D02*
X177895952Y-74209819D01*
X177895952Y-74209819D02*
X178134047Y-74209819D01*
X178134047Y-74209819D02*
X178229285Y-74257438D01*
X178229285Y-74257438D02*
X178276904Y-74305057D01*
X178276904Y-74305057D02*
X178324523Y-74400295D01*
X178324523Y-74400295D02*
X178324523Y-74495533D01*
X178324523Y-74495533D02*
X178276904Y-74638390D01*
X178276904Y-74638390D02*
X177705476Y-75209819D01*
X177705476Y-75209819D02*
X178324523Y-75209819D01*
X178705476Y-74305057D02*
X178753095Y-74257438D01*
X178753095Y-74257438D02*
X178848333Y-74209819D01*
X178848333Y-74209819D02*
X179086428Y-74209819D01*
X179086428Y-74209819D02*
X179181666Y-74257438D01*
X179181666Y-74257438D02*
X179229285Y-74305057D01*
X179229285Y-74305057D02*
X179276904Y-74400295D01*
X179276904Y-74400295D02*
X179276904Y-74495533D01*
X179276904Y-74495533D02*
X179229285Y-74638390D01*
X179229285Y-74638390D02*
X178657857Y-75209819D01*
X178657857Y-75209819D02*
X179276904Y-75209819D01*
X187041905Y-68689819D02*
X187041905Y-67689819D01*
X187041905Y-67689819D02*
X187280000Y-67689819D01*
X187280000Y-67689819D02*
X187422857Y-67737438D01*
X187422857Y-67737438D02*
X187518095Y-67832676D01*
X187518095Y-67832676D02*
X187565714Y-67927914D01*
X187565714Y-67927914D02*
X187613333Y-68118390D01*
X187613333Y-68118390D02*
X187613333Y-68261247D01*
X187613333Y-68261247D02*
X187565714Y-68451723D01*
X187565714Y-68451723D02*
X187518095Y-68546961D01*
X187518095Y-68546961D02*
X187422857Y-68642200D01*
X187422857Y-68642200D02*
X187280000Y-68689819D01*
X187280000Y-68689819D02*
X187041905Y-68689819D01*
X188470476Y-68023152D02*
X188470476Y-68689819D01*
X188232381Y-67642200D02*
X187994286Y-68356485D01*
X187994286Y-68356485D02*
X188613333Y-68356485D01*
X181632142Y-60124580D02*
X181584523Y-60172200D01*
X181584523Y-60172200D02*
X181441666Y-60219819D01*
X181441666Y-60219819D02*
X181346428Y-60219819D01*
X181346428Y-60219819D02*
X181203571Y-60172200D01*
X181203571Y-60172200D02*
X181108333Y-60076961D01*
X181108333Y-60076961D02*
X181060714Y-59981723D01*
X181060714Y-59981723D02*
X181013095Y-59791247D01*
X181013095Y-59791247D02*
X181013095Y-59648390D01*
X181013095Y-59648390D02*
X181060714Y-59457914D01*
X181060714Y-59457914D02*
X181108333Y-59362676D01*
X181108333Y-59362676D02*
X181203571Y-59267438D01*
X181203571Y-59267438D02*
X181346428Y-59219819D01*
X181346428Y-59219819D02*
X181441666Y-59219819D01*
X181441666Y-59219819D02*
X181584523Y-59267438D01*
X181584523Y-59267438D02*
X181632142Y-59315057D01*
X181965476Y-59219819D02*
X182584523Y-59219819D01*
X182584523Y-59219819D02*
X182251190Y-59600771D01*
X182251190Y-59600771D02*
X182394047Y-59600771D01*
X182394047Y-59600771D02*
X182489285Y-59648390D01*
X182489285Y-59648390D02*
X182536904Y-59696009D01*
X182536904Y-59696009D02*
X182584523Y-59791247D01*
X182584523Y-59791247D02*
X182584523Y-60029342D01*
X182584523Y-60029342D02*
X182536904Y-60124580D01*
X182536904Y-60124580D02*
X182489285Y-60172200D01*
X182489285Y-60172200D02*
X182394047Y-60219819D01*
X182394047Y-60219819D02*
X182108333Y-60219819D01*
X182108333Y-60219819D02*
X182013095Y-60172200D01*
X182013095Y-60172200D02*
X181965476Y-60124580D01*
X182917857Y-59219819D02*
X183584523Y-59219819D01*
X183584523Y-59219819D02*
X183155952Y-60219819D01*
X114595237Y-48771009D02*
X114261904Y-48771009D01*
X114261904Y-49294819D02*
X114261904Y-48294819D01*
X114261904Y-48294819D02*
X114738094Y-48294819D01*
X115261904Y-49294819D02*
X115166666Y-49247200D01*
X115166666Y-49247200D02*
X115119047Y-49151961D01*
X115119047Y-49151961D02*
X115119047Y-48294819D01*
X116071428Y-49294819D02*
X116071428Y-48771009D01*
X116071428Y-48771009D02*
X116023809Y-48675771D01*
X116023809Y-48675771D02*
X115928571Y-48628152D01*
X115928571Y-48628152D02*
X115738095Y-48628152D01*
X115738095Y-48628152D02*
X115642857Y-48675771D01*
X116071428Y-49247200D02*
X115976190Y-49294819D01*
X115976190Y-49294819D02*
X115738095Y-49294819D01*
X115738095Y-49294819D02*
X115642857Y-49247200D01*
X115642857Y-49247200D02*
X115595238Y-49151961D01*
X115595238Y-49151961D02*
X115595238Y-49056723D01*
X115595238Y-49056723D02*
X115642857Y-48961485D01*
X115642857Y-48961485D02*
X115738095Y-48913866D01*
X115738095Y-48913866D02*
X115976190Y-48913866D01*
X115976190Y-48913866D02*
X116071428Y-48866247D01*
X116500000Y-49247200D02*
X116595238Y-49294819D01*
X116595238Y-49294819D02*
X116785714Y-49294819D01*
X116785714Y-49294819D02*
X116880952Y-49247200D01*
X116880952Y-49247200D02*
X116928571Y-49151961D01*
X116928571Y-49151961D02*
X116928571Y-49104342D01*
X116928571Y-49104342D02*
X116880952Y-49009104D01*
X116880952Y-49009104D02*
X116785714Y-48961485D01*
X116785714Y-48961485D02*
X116642857Y-48961485D01*
X116642857Y-48961485D02*
X116547619Y-48913866D01*
X116547619Y-48913866D02*
X116500000Y-48818628D01*
X116500000Y-48818628D02*
X116500000Y-48771009D01*
X116500000Y-48771009D02*
X116547619Y-48675771D01*
X116547619Y-48675771D02*
X116642857Y-48628152D01*
X116642857Y-48628152D02*
X116785714Y-48628152D01*
X116785714Y-48628152D02*
X116880952Y-48675771D01*
X117357143Y-49294819D02*
X117357143Y-48294819D01*
X117785714Y-49294819D02*
X117785714Y-48771009D01*
X117785714Y-48771009D02*
X117738095Y-48675771D01*
X117738095Y-48675771D02*
X117642857Y-48628152D01*
X117642857Y-48628152D02*
X117500000Y-48628152D01*
X117500000Y-48628152D02*
X117404762Y-48675771D01*
X117404762Y-48675771D02*
X117357143Y-48723390D01*
X118785714Y-49294819D02*
X118214286Y-49294819D01*
X118500000Y-49294819D02*
X118500000Y-48294819D01*
X118500000Y-48294819D02*
X118404762Y-48437676D01*
X118404762Y-48437676D02*
X118309524Y-48532914D01*
X118309524Y-48532914D02*
X118214286Y-48580533D01*
X182108333Y-64064580D02*
X182060714Y-64112200D01*
X182060714Y-64112200D02*
X181917857Y-64159819D01*
X181917857Y-64159819D02*
X181822619Y-64159819D01*
X181822619Y-64159819D02*
X181679762Y-64112200D01*
X181679762Y-64112200D02*
X181584524Y-64016961D01*
X181584524Y-64016961D02*
X181536905Y-63921723D01*
X181536905Y-63921723D02*
X181489286Y-63731247D01*
X181489286Y-63731247D02*
X181489286Y-63588390D01*
X181489286Y-63588390D02*
X181536905Y-63397914D01*
X181536905Y-63397914D02*
X181584524Y-63302676D01*
X181584524Y-63302676D02*
X181679762Y-63207438D01*
X181679762Y-63207438D02*
X181822619Y-63159819D01*
X181822619Y-63159819D02*
X181917857Y-63159819D01*
X181917857Y-63159819D02*
X182060714Y-63207438D01*
X182060714Y-63207438D02*
X182108333Y-63255057D01*
X183013095Y-63159819D02*
X182536905Y-63159819D01*
X182536905Y-63159819D02*
X182489286Y-63636009D01*
X182489286Y-63636009D02*
X182536905Y-63588390D01*
X182536905Y-63588390D02*
X182632143Y-63540771D01*
X182632143Y-63540771D02*
X182870238Y-63540771D01*
X182870238Y-63540771D02*
X182965476Y-63588390D01*
X182965476Y-63588390D02*
X183013095Y-63636009D01*
X183013095Y-63636009D02*
X183060714Y-63731247D01*
X183060714Y-63731247D02*
X183060714Y-63969342D01*
X183060714Y-63969342D02*
X183013095Y-64064580D01*
X183013095Y-64064580D02*
X182965476Y-64112200D01*
X182965476Y-64112200D02*
X182870238Y-64159819D01*
X182870238Y-64159819D02*
X182632143Y-64159819D01*
X182632143Y-64159819D02*
X182536905Y-64112200D01*
X182536905Y-64112200D02*
X182489286Y-64064580D01*
X173192142Y-65909819D02*
X172858809Y-65433628D01*
X172620714Y-65909819D02*
X172620714Y-64909819D01*
X172620714Y-64909819D02*
X173001666Y-64909819D01*
X173001666Y-64909819D02*
X173096904Y-64957438D01*
X173096904Y-64957438D02*
X173144523Y-65005057D01*
X173144523Y-65005057D02*
X173192142Y-65100295D01*
X173192142Y-65100295D02*
X173192142Y-65243152D01*
X173192142Y-65243152D02*
X173144523Y-65338390D01*
X173144523Y-65338390D02*
X173096904Y-65386009D01*
X173096904Y-65386009D02*
X173001666Y-65433628D01*
X173001666Y-65433628D02*
X172620714Y-65433628D01*
X173573095Y-65005057D02*
X173620714Y-64957438D01*
X173620714Y-64957438D02*
X173715952Y-64909819D01*
X173715952Y-64909819D02*
X173954047Y-64909819D01*
X173954047Y-64909819D02*
X174049285Y-64957438D01*
X174049285Y-64957438D02*
X174096904Y-65005057D01*
X174096904Y-65005057D02*
X174144523Y-65100295D01*
X174144523Y-65100295D02*
X174144523Y-65195533D01*
X174144523Y-65195533D02*
X174096904Y-65338390D01*
X174096904Y-65338390D02*
X173525476Y-65909819D01*
X173525476Y-65909819D02*
X174144523Y-65909819D01*
X175001666Y-65243152D02*
X175001666Y-65909819D01*
X174763571Y-64862200D02*
X174525476Y-65576485D01*
X174525476Y-65576485D02*
X175144523Y-65576485D01*
X173422142Y-72339819D02*
X172945952Y-72339819D01*
X172945952Y-72339819D02*
X172945952Y-71339819D01*
X174279285Y-72339819D02*
X173707857Y-72339819D01*
X173993571Y-72339819D02*
X173993571Y-71339819D01*
X173993571Y-71339819D02*
X173898333Y-71482676D01*
X173898333Y-71482676D02*
X173803095Y-71577914D01*
X173803095Y-71577914D02*
X173707857Y-71625533D01*
X174898333Y-71339819D02*
X174993571Y-71339819D01*
X174993571Y-71339819D02*
X175088809Y-71387438D01*
X175088809Y-71387438D02*
X175136428Y-71435057D01*
X175136428Y-71435057D02*
X175184047Y-71530295D01*
X175184047Y-71530295D02*
X175231666Y-71720771D01*
X175231666Y-71720771D02*
X175231666Y-71958866D01*
X175231666Y-71958866D02*
X175184047Y-72149342D01*
X175184047Y-72149342D02*
X175136428Y-72244580D01*
X175136428Y-72244580D02*
X175088809Y-72292200D01*
X175088809Y-72292200D02*
X174993571Y-72339819D01*
X174993571Y-72339819D02*
X174898333Y-72339819D01*
X174898333Y-72339819D02*
X174803095Y-72292200D01*
X174803095Y-72292200D02*
X174755476Y-72244580D01*
X174755476Y-72244580D02*
X174707857Y-72149342D01*
X174707857Y-72149342D02*
X174660238Y-71958866D01*
X174660238Y-71958866D02*
X174660238Y-71720771D01*
X174660238Y-71720771D02*
X174707857Y-71530295D01*
X174707857Y-71530295D02*
X174755476Y-71435057D01*
X174755476Y-71435057D02*
X174803095Y-71387438D01*
X174803095Y-71387438D02*
X174898333Y-71339819D01*
X120454819Y-67166666D02*
X120454819Y-67642856D01*
X120454819Y-67642856D02*
X119454819Y-67642856D01*
X119454819Y-66357142D02*
X119454819Y-66833332D01*
X119454819Y-66833332D02*
X119931009Y-66880951D01*
X119931009Y-66880951D02*
X119883390Y-66833332D01*
X119883390Y-66833332D02*
X119835771Y-66738094D01*
X119835771Y-66738094D02*
X119835771Y-66499999D01*
X119835771Y-66499999D02*
X119883390Y-66404761D01*
X119883390Y-66404761D02*
X119931009Y-66357142D01*
X119931009Y-66357142D02*
X120026247Y-66309523D01*
X120026247Y-66309523D02*
X120264342Y-66309523D01*
X120264342Y-66309523D02*
X120359580Y-66357142D01*
X120359580Y-66357142D02*
X120407200Y-66404761D01*
X120407200Y-66404761D02*
X120454819Y-66499999D01*
X120454819Y-66499999D02*
X120454819Y-66738094D01*
X120454819Y-66738094D02*
X120407200Y-66833332D01*
X120407200Y-66833332D02*
X120359580Y-66880951D01*
X107359580Y-67142857D02*
X107407200Y-67190476D01*
X107407200Y-67190476D02*
X107454819Y-67333333D01*
X107454819Y-67333333D02*
X107454819Y-67428571D01*
X107454819Y-67428571D02*
X107407200Y-67571428D01*
X107407200Y-67571428D02*
X107311961Y-67666666D01*
X107311961Y-67666666D02*
X107216723Y-67714285D01*
X107216723Y-67714285D02*
X107026247Y-67761904D01*
X107026247Y-67761904D02*
X106883390Y-67761904D01*
X106883390Y-67761904D02*
X106692914Y-67714285D01*
X106692914Y-67714285D02*
X106597676Y-67666666D01*
X106597676Y-67666666D02*
X106502438Y-67571428D01*
X106502438Y-67571428D02*
X106454819Y-67428571D01*
X106454819Y-67428571D02*
X106454819Y-67333333D01*
X106454819Y-67333333D02*
X106502438Y-67190476D01*
X106502438Y-67190476D02*
X106550057Y-67142857D01*
X106550057Y-66761904D02*
X106502438Y-66714285D01*
X106502438Y-66714285D02*
X106454819Y-66619047D01*
X106454819Y-66619047D02*
X106454819Y-66380952D01*
X106454819Y-66380952D02*
X106502438Y-66285714D01*
X106502438Y-66285714D02*
X106550057Y-66238095D01*
X106550057Y-66238095D02*
X106645295Y-66190476D01*
X106645295Y-66190476D02*
X106740533Y-66190476D01*
X106740533Y-66190476D02*
X106883390Y-66238095D01*
X106883390Y-66238095D02*
X107454819Y-66809523D01*
X107454819Y-66809523D02*
X107454819Y-66190476D01*
X106550057Y-65809523D02*
X106502438Y-65761904D01*
X106502438Y-65761904D02*
X106454819Y-65666666D01*
X106454819Y-65666666D02*
X106454819Y-65428571D01*
X106454819Y-65428571D02*
X106502438Y-65333333D01*
X106502438Y-65333333D02*
X106550057Y-65285714D01*
X106550057Y-65285714D02*
X106645295Y-65238095D01*
X106645295Y-65238095D02*
X106740533Y-65238095D01*
X106740533Y-65238095D02*
X106883390Y-65285714D01*
X106883390Y-65285714D02*
X107454819Y-65857142D01*
X107454819Y-65857142D02*
X107454819Y-65238095D01*
X181632142Y-62094580D02*
X181584523Y-62142200D01*
X181584523Y-62142200D02*
X181441666Y-62189819D01*
X181441666Y-62189819D02*
X181346428Y-62189819D01*
X181346428Y-62189819D02*
X181203571Y-62142200D01*
X181203571Y-62142200D02*
X181108333Y-62046961D01*
X181108333Y-62046961D02*
X181060714Y-61951723D01*
X181060714Y-61951723D02*
X181013095Y-61761247D01*
X181013095Y-61761247D02*
X181013095Y-61618390D01*
X181013095Y-61618390D02*
X181060714Y-61427914D01*
X181060714Y-61427914D02*
X181108333Y-61332676D01*
X181108333Y-61332676D02*
X181203571Y-61237438D01*
X181203571Y-61237438D02*
X181346428Y-61189819D01*
X181346428Y-61189819D02*
X181441666Y-61189819D01*
X181441666Y-61189819D02*
X181584523Y-61237438D01*
X181584523Y-61237438D02*
X181632142Y-61285057D01*
X182013095Y-61285057D02*
X182060714Y-61237438D01*
X182060714Y-61237438D02*
X182155952Y-61189819D01*
X182155952Y-61189819D02*
X182394047Y-61189819D01*
X182394047Y-61189819D02*
X182489285Y-61237438D01*
X182489285Y-61237438D02*
X182536904Y-61285057D01*
X182536904Y-61285057D02*
X182584523Y-61380295D01*
X182584523Y-61380295D02*
X182584523Y-61475533D01*
X182584523Y-61475533D02*
X182536904Y-61618390D01*
X182536904Y-61618390D02*
X181965476Y-62189819D01*
X181965476Y-62189819D02*
X182584523Y-62189819D01*
X182917857Y-61189819D02*
X183584523Y-61189819D01*
X183584523Y-61189819D02*
X183155952Y-62189819D01*
X192612142Y-77054580D02*
X192564523Y-77102200D01*
X192564523Y-77102200D02*
X192421666Y-77149819D01*
X192421666Y-77149819D02*
X192326428Y-77149819D01*
X192326428Y-77149819D02*
X192183571Y-77102200D01*
X192183571Y-77102200D02*
X192088333Y-77006961D01*
X192088333Y-77006961D02*
X192040714Y-76911723D01*
X192040714Y-76911723D02*
X191993095Y-76721247D01*
X191993095Y-76721247D02*
X191993095Y-76578390D01*
X191993095Y-76578390D02*
X192040714Y-76387914D01*
X192040714Y-76387914D02*
X192088333Y-76292676D01*
X192088333Y-76292676D02*
X192183571Y-76197438D01*
X192183571Y-76197438D02*
X192326428Y-76149819D01*
X192326428Y-76149819D02*
X192421666Y-76149819D01*
X192421666Y-76149819D02*
X192564523Y-76197438D01*
X192564523Y-76197438D02*
X192612142Y-76245057D01*
X192945476Y-76149819D02*
X193564523Y-76149819D01*
X193564523Y-76149819D02*
X193231190Y-76530771D01*
X193231190Y-76530771D02*
X193374047Y-76530771D01*
X193374047Y-76530771D02*
X193469285Y-76578390D01*
X193469285Y-76578390D02*
X193516904Y-76626009D01*
X193516904Y-76626009D02*
X193564523Y-76721247D01*
X193564523Y-76721247D02*
X193564523Y-76959342D01*
X193564523Y-76959342D02*
X193516904Y-77054580D01*
X193516904Y-77054580D02*
X193469285Y-77102200D01*
X193469285Y-77102200D02*
X193374047Y-77149819D01*
X193374047Y-77149819D02*
X193088333Y-77149819D01*
X193088333Y-77149819D02*
X192993095Y-77102200D01*
X192993095Y-77102200D02*
X192945476Y-77054580D01*
X194183571Y-76149819D02*
X194278809Y-76149819D01*
X194278809Y-76149819D02*
X194374047Y-76197438D01*
X194374047Y-76197438D02*
X194421666Y-76245057D01*
X194421666Y-76245057D02*
X194469285Y-76340295D01*
X194469285Y-76340295D02*
X194516904Y-76530771D01*
X194516904Y-76530771D02*
X194516904Y-76768866D01*
X194516904Y-76768866D02*
X194469285Y-76959342D01*
X194469285Y-76959342D02*
X194421666Y-77054580D01*
X194421666Y-77054580D02*
X194374047Y-77102200D01*
X194374047Y-77102200D02*
X194278809Y-77149819D01*
X194278809Y-77149819D02*
X194183571Y-77149819D01*
X194183571Y-77149819D02*
X194088333Y-77102200D01*
X194088333Y-77102200D02*
X194040714Y-77054580D01*
X194040714Y-77054580D02*
X193993095Y-76959342D01*
X193993095Y-76959342D02*
X193945476Y-76768866D01*
X193945476Y-76768866D02*
X193945476Y-76530771D01*
X193945476Y-76530771D02*
X193993095Y-76340295D01*
X193993095Y-76340295D02*
X194040714Y-76245057D01*
X194040714Y-76245057D02*
X194088333Y-76197438D01*
X194088333Y-76197438D02*
X194183571Y-76149819D01*
X123954819Y-105378094D02*
X122954819Y-105378094D01*
X122954819Y-105378094D02*
X122954819Y-105139999D01*
X122954819Y-105139999D02*
X123002438Y-104997142D01*
X123002438Y-104997142D02*
X123097676Y-104901904D01*
X123097676Y-104901904D02*
X123192914Y-104854285D01*
X123192914Y-104854285D02*
X123383390Y-104806666D01*
X123383390Y-104806666D02*
X123526247Y-104806666D01*
X123526247Y-104806666D02*
X123716723Y-104854285D01*
X123716723Y-104854285D02*
X123811961Y-104901904D01*
X123811961Y-104901904D02*
X123907200Y-104997142D01*
X123907200Y-104997142D02*
X123954819Y-105139999D01*
X123954819Y-105139999D02*
X123954819Y-105378094D01*
X122954819Y-103901904D02*
X122954819Y-104378094D01*
X122954819Y-104378094D02*
X123431009Y-104425713D01*
X123431009Y-104425713D02*
X123383390Y-104378094D01*
X123383390Y-104378094D02*
X123335771Y-104282856D01*
X123335771Y-104282856D02*
X123335771Y-104044761D01*
X123335771Y-104044761D02*
X123383390Y-103949523D01*
X123383390Y-103949523D02*
X123431009Y-103901904D01*
X123431009Y-103901904D02*
X123526247Y-103854285D01*
X123526247Y-103854285D02*
X123764342Y-103854285D01*
X123764342Y-103854285D02*
X123859580Y-103901904D01*
X123859580Y-103901904D02*
X123907200Y-103949523D01*
X123907200Y-103949523D02*
X123954819Y-104044761D01*
X123954819Y-104044761D02*
X123954819Y-104282856D01*
X123954819Y-104282856D02*
X123907200Y-104378094D01*
X123907200Y-104378094D02*
X123859580Y-104425713D01*
X112557142Y-72859580D02*
X112509523Y-72907200D01*
X112509523Y-72907200D02*
X112366666Y-72954819D01*
X112366666Y-72954819D02*
X112271428Y-72954819D01*
X112271428Y-72954819D02*
X112128571Y-72907200D01*
X112128571Y-72907200D02*
X112033333Y-72811961D01*
X112033333Y-72811961D02*
X111985714Y-72716723D01*
X111985714Y-72716723D02*
X111938095Y-72526247D01*
X111938095Y-72526247D02*
X111938095Y-72383390D01*
X111938095Y-72383390D02*
X111985714Y-72192914D01*
X111985714Y-72192914D02*
X112033333Y-72097676D01*
X112033333Y-72097676D02*
X112128571Y-72002438D01*
X112128571Y-72002438D02*
X112271428Y-71954819D01*
X112271428Y-71954819D02*
X112366666Y-71954819D01*
X112366666Y-71954819D02*
X112509523Y-72002438D01*
X112509523Y-72002438D02*
X112557142Y-72050057D01*
X112938095Y-72050057D02*
X112985714Y-72002438D01*
X112985714Y-72002438D02*
X113080952Y-71954819D01*
X113080952Y-71954819D02*
X113319047Y-71954819D01*
X113319047Y-71954819D02*
X113414285Y-72002438D01*
X113414285Y-72002438D02*
X113461904Y-72050057D01*
X113461904Y-72050057D02*
X113509523Y-72145295D01*
X113509523Y-72145295D02*
X113509523Y-72240533D01*
X113509523Y-72240533D02*
X113461904Y-72383390D01*
X113461904Y-72383390D02*
X112890476Y-72954819D01*
X112890476Y-72954819D02*
X113509523Y-72954819D01*
X113842857Y-71954819D02*
X114461904Y-71954819D01*
X114461904Y-71954819D02*
X114128571Y-72335771D01*
X114128571Y-72335771D02*
X114271428Y-72335771D01*
X114271428Y-72335771D02*
X114366666Y-72383390D01*
X114366666Y-72383390D02*
X114414285Y-72431009D01*
X114414285Y-72431009D02*
X114461904Y-72526247D01*
X114461904Y-72526247D02*
X114461904Y-72764342D01*
X114461904Y-72764342D02*
X114414285Y-72859580D01*
X114414285Y-72859580D02*
X114366666Y-72907200D01*
X114366666Y-72907200D02*
X114271428Y-72954819D01*
X114271428Y-72954819D02*
X113985714Y-72954819D01*
X113985714Y-72954819D02*
X113890476Y-72907200D01*
X113890476Y-72907200D02*
X113842857Y-72859580D01*
X177862142Y-56939819D02*
X177528809Y-56463628D01*
X177290714Y-56939819D02*
X177290714Y-55939819D01*
X177290714Y-55939819D02*
X177671666Y-55939819D01*
X177671666Y-55939819D02*
X177766904Y-55987438D01*
X177766904Y-55987438D02*
X177814523Y-56035057D01*
X177814523Y-56035057D02*
X177862142Y-56130295D01*
X177862142Y-56130295D02*
X177862142Y-56273152D01*
X177862142Y-56273152D02*
X177814523Y-56368390D01*
X177814523Y-56368390D02*
X177766904Y-56416009D01*
X177766904Y-56416009D02*
X177671666Y-56463628D01*
X177671666Y-56463628D02*
X177290714Y-56463628D01*
X178243095Y-56035057D02*
X178290714Y-55987438D01*
X178290714Y-55987438D02*
X178385952Y-55939819D01*
X178385952Y-55939819D02*
X178624047Y-55939819D01*
X178624047Y-55939819D02*
X178719285Y-55987438D01*
X178719285Y-55987438D02*
X178766904Y-56035057D01*
X178766904Y-56035057D02*
X178814523Y-56130295D01*
X178814523Y-56130295D02*
X178814523Y-56225533D01*
X178814523Y-56225533D02*
X178766904Y-56368390D01*
X178766904Y-56368390D02*
X178195476Y-56939819D01*
X178195476Y-56939819D02*
X178814523Y-56939819D01*
X179147857Y-55939819D02*
X179766904Y-55939819D01*
X179766904Y-55939819D02*
X179433571Y-56320771D01*
X179433571Y-56320771D02*
X179576428Y-56320771D01*
X179576428Y-56320771D02*
X179671666Y-56368390D01*
X179671666Y-56368390D02*
X179719285Y-56416009D01*
X179719285Y-56416009D02*
X179766904Y-56511247D01*
X179766904Y-56511247D02*
X179766904Y-56749342D01*
X179766904Y-56749342D02*
X179719285Y-56844580D01*
X179719285Y-56844580D02*
X179671666Y-56892200D01*
X179671666Y-56892200D02*
X179576428Y-56939819D01*
X179576428Y-56939819D02*
X179290714Y-56939819D01*
X179290714Y-56939819D02*
X179195476Y-56892200D01*
X179195476Y-56892200D02*
X179147857Y-56844580D01*
X103464142Y-67704819D02*
X103130809Y-67228628D01*
X102892714Y-67704819D02*
X102892714Y-66704819D01*
X102892714Y-66704819D02*
X103273666Y-66704819D01*
X103273666Y-66704819D02*
X103368904Y-66752438D01*
X103368904Y-66752438D02*
X103416523Y-66800057D01*
X103416523Y-66800057D02*
X103464142Y-66895295D01*
X103464142Y-66895295D02*
X103464142Y-67038152D01*
X103464142Y-67038152D02*
X103416523Y-67133390D01*
X103416523Y-67133390D02*
X103368904Y-67181009D01*
X103368904Y-67181009D02*
X103273666Y-67228628D01*
X103273666Y-67228628D02*
X102892714Y-67228628D01*
X103797476Y-66704819D02*
X104416523Y-66704819D01*
X104416523Y-66704819D02*
X104083190Y-67085771D01*
X104083190Y-67085771D02*
X104226047Y-67085771D01*
X104226047Y-67085771D02*
X104321285Y-67133390D01*
X104321285Y-67133390D02*
X104368904Y-67181009D01*
X104368904Y-67181009D02*
X104416523Y-67276247D01*
X104416523Y-67276247D02*
X104416523Y-67514342D01*
X104416523Y-67514342D02*
X104368904Y-67609580D01*
X104368904Y-67609580D02*
X104321285Y-67657200D01*
X104321285Y-67657200D02*
X104226047Y-67704819D01*
X104226047Y-67704819D02*
X103940333Y-67704819D01*
X103940333Y-67704819D02*
X103845095Y-67657200D01*
X103845095Y-67657200D02*
X103797476Y-67609580D01*
X104749857Y-66704819D02*
X105368904Y-66704819D01*
X105368904Y-66704819D02*
X105035571Y-67085771D01*
X105035571Y-67085771D02*
X105178428Y-67085771D01*
X105178428Y-67085771D02*
X105273666Y-67133390D01*
X105273666Y-67133390D02*
X105321285Y-67181009D01*
X105321285Y-67181009D02*
X105368904Y-67276247D01*
X105368904Y-67276247D02*
X105368904Y-67514342D01*
X105368904Y-67514342D02*
X105321285Y-67609580D01*
X105321285Y-67609580D02*
X105273666Y-67657200D01*
X105273666Y-67657200D02*
X105178428Y-67704819D01*
X105178428Y-67704819D02*
X104892714Y-67704819D01*
X104892714Y-67704819D02*
X104797476Y-67657200D01*
X104797476Y-67657200D02*
X104749857Y-67609580D01*
X110454819Y-69214285D02*
X109454819Y-69214285D01*
X109454819Y-69214285D02*
X109454819Y-68976190D01*
X109454819Y-68976190D02*
X109502438Y-68833333D01*
X109502438Y-68833333D02*
X109597676Y-68738095D01*
X109597676Y-68738095D02*
X109692914Y-68690476D01*
X109692914Y-68690476D02*
X109883390Y-68642857D01*
X109883390Y-68642857D02*
X110026247Y-68642857D01*
X110026247Y-68642857D02*
X110216723Y-68690476D01*
X110216723Y-68690476D02*
X110311961Y-68738095D01*
X110311961Y-68738095D02*
X110407200Y-68833333D01*
X110407200Y-68833333D02*
X110454819Y-68976190D01*
X110454819Y-68976190D02*
X110454819Y-69214285D01*
X110454819Y-67690476D02*
X110454819Y-68261904D01*
X110454819Y-67976190D02*
X109454819Y-67976190D01*
X109454819Y-67976190D02*
X109597676Y-68071428D01*
X109597676Y-68071428D02*
X109692914Y-68166666D01*
X109692914Y-68166666D02*
X109740533Y-68261904D01*
X109454819Y-66833333D02*
X109454819Y-67023809D01*
X109454819Y-67023809D02*
X109502438Y-67119047D01*
X109502438Y-67119047D02*
X109550057Y-67166666D01*
X109550057Y-67166666D02*
X109692914Y-67261904D01*
X109692914Y-67261904D02*
X109883390Y-67309523D01*
X109883390Y-67309523D02*
X110264342Y-67309523D01*
X110264342Y-67309523D02*
X110359580Y-67261904D01*
X110359580Y-67261904D02*
X110407200Y-67214285D01*
X110407200Y-67214285D02*
X110454819Y-67119047D01*
X110454819Y-67119047D02*
X110454819Y-66928571D01*
X110454819Y-66928571D02*
X110407200Y-66833333D01*
X110407200Y-66833333D02*
X110359580Y-66785714D01*
X110359580Y-66785714D02*
X110264342Y-66738095D01*
X110264342Y-66738095D02*
X110026247Y-66738095D01*
X110026247Y-66738095D02*
X109931009Y-66785714D01*
X109931009Y-66785714D02*
X109883390Y-66833333D01*
X109883390Y-66833333D02*
X109835771Y-66928571D01*
X109835771Y-66928571D02*
X109835771Y-67119047D01*
X109835771Y-67119047D02*
X109883390Y-67214285D01*
X109883390Y-67214285D02*
X109931009Y-67261904D01*
X109931009Y-67261904D02*
X110026247Y-67309523D01*
X128431009Y-93983333D02*
X128431009Y-94316666D01*
X128954819Y-94316666D02*
X127954819Y-94316666D01*
X127954819Y-94316666D02*
X127954819Y-93840476D01*
X127954819Y-93554761D02*
X127954819Y-92935714D01*
X127954819Y-92935714D02*
X128335771Y-93269047D01*
X128335771Y-93269047D02*
X128335771Y-93126190D01*
X128335771Y-93126190D02*
X128383390Y-93030952D01*
X128383390Y-93030952D02*
X128431009Y-92983333D01*
X128431009Y-92983333D02*
X128526247Y-92935714D01*
X128526247Y-92935714D02*
X128764342Y-92935714D01*
X128764342Y-92935714D02*
X128859580Y-92983333D01*
X128859580Y-92983333D02*
X128907200Y-93030952D01*
X128907200Y-93030952D02*
X128954819Y-93126190D01*
X128954819Y-93126190D02*
X128954819Y-93411904D01*
X128954819Y-93411904D02*
X128907200Y-93507142D01*
X128907200Y-93507142D02*
X128859580Y-93554761D01*
X173668333Y-56939819D02*
X173335000Y-56463628D01*
X173096905Y-56939819D02*
X173096905Y-55939819D01*
X173096905Y-55939819D02*
X173477857Y-55939819D01*
X173477857Y-55939819D02*
X173573095Y-55987438D01*
X173573095Y-55987438D02*
X173620714Y-56035057D01*
X173620714Y-56035057D02*
X173668333Y-56130295D01*
X173668333Y-56130295D02*
X173668333Y-56273152D01*
X173668333Y-56273152D02*
X173620714Y-56368390D01*
X173620714Y-56368390D02*
X173573095Y-56416009D01*
X173573095Y-56416009D02*
X173477857Y-56463628D01*
X173477857Y-56463628D02*
X173096905Y-56463628D01*
X174239762Y-56368390D02*
X174144524Y-56320771D01*
X174144524Y-56320771D02*
X174096905Y-56273152D01*
X174096905Y-56273152D02*
X174049286Y-56177914D01*
X174049286Y-56177914D02*
X174049286Y-56130295D01*
X174049286Y-56130295D02*
X174096905Y-56035057D01*
X174096905Y-56035057D02*
X174144524Y-55987438D01*
X174144524Y-55987438D02*
X174239762Y-55939819D01*
X174239762Y-55939819D02*
X174430238Y-55939819D01*
X174430238Y-55939819D02*
X174525476Y-55987438D01*
X174525476Y-55987438D02*
X174573095Y-56035057D01*
X174573095Y-56035057D02*
X174620714Y-56130295D01*
X174620714Y-56130295D02*
X174620714Y-56177914D01*
X174620714Y-56177914D02*
X174573095Y-56273152D01*
X174573095Y-56273152D02*
X174525476Y-56320771D01*
X174525476Y-56320771D02*
X174430238Y-56368390D01*
X174430238Y-56368390D02*
X174239762Y-56368390D01*
X174239762Y-56368390D02*
X174144524Y-56416009D01*
X174144524Y-56416009D02*
X174096905Y-56463628D01*
X174096905Y-56463628D02*
X174049286Y-56558866D01*
X174049286Y-56558866D02*
X174049286Y-56749342D01*
X174049286Y-56749342D02*
X174096905Y-56844580D01*
X174096905Y-56844580D02*
X174144524Y-56892200D01*
X174144524Y-56892200D02*
X174239762Y-56939819D01*
X174239762Y-56939819D02*
X174430238Y-56939819D01*
X174430238Y-56939819D02*
X174525476Y-56892200D01*
X174525476Y-56892200D02*
X174573095Y-56844580D01*
X174573095Y-56844580D02*
X174620714Y-56749342D01*
X174620714Y-56749342D02*
X174620714Y-56558866D01*
X174620714Y-56558866D02*
X174573095Y-56463628D01*
X174573095Y-56463628D02*
X174525476Y-56416009D01*
X174525476Y-56416009D02*
X174430238Y-56368390D01*
X177862142Y-65909819D02*
X177528809Y-65433628D01*
X177290714Y-65909819D02*
X177290714Y-64909819D01*
X177290714Y-64909819D02*
X177671666Y-64909819D01*
X177671666Y-64909819D02*
X177766904Y-64957438D01*
X177766904Y-64957438D02*
X177814523Y-65005057D01*
X177814523Y-65005057D02*
X177862142Y-65100295D01*
X177862142Y-65100295D02*
X177862142Y-65243152D01*
X177862142Y-65243152D02*
X177814523Y-65338390D01*
X177814523Y-65338390D02*
X177766904Y-65386009D01*
X177766904Y-65386009D02*
X177671666Y-65433628D01*
X177671666Y-65433628D02*
X177290714Y-65433628D01*
X178195476Y-64909819D02*
X178814523Y-64909819D01*
X178814523Y-64909819D02*
X178481190Y-65290771D01*
X178481190Y-65290771D02*
X178624047Y-65290771D01*
X178624047Y-65290771D02*
X178719285Y-65338390D01*
X178719285Y-65338390D02*
X178766904Y-65386009D01*
X178766904Y-65386009D02*
X178814523Y-65481247D01*
X178814523Y-65481247D02*
X178814523Y-65719342D01*
X178814523Y-65719342D02*
X178766904Y-65814580D01*
X178766904Y-65814580D02*
X178719285Y-65862200D01*
X178719285Y-65862200D02*
X178624047Y-65909819D01*
X178624047Y-65909819D02*
X178338333Y-65909819D01*
X178338333Y-65909819D02*
X178243095Y-65862200D01*
X178243095Y-65862200D02*
X178195476Y-65814580D01*
X179290714Y-65909819D02*
X179481190Y-65909819D01*
X179481190Y-65909819D02*
X179576428Y-65862200D01*
X179576428Y-65862200D02*
X179624047Y-65814580D01*
X179624047Y-65814580D02*
X179719285Y-65671723D01*
X179719285Y-65671723D02*
X179766904Y-65481247D01*
X179766904Y-65481247D02*
X179766904Y-65100295D01*
X179766904Y-65100295D02*
X179719285Y-65005057D01*
X179719285Y-65005057D02*
X179671666Y-64957438D01*
X179671666Y-64957438D02*
X179576428Y-64909819D01*
X179576428Y-64909819D02*
X179385952Y-64909819D01*
X179385952Y-64909819D02*
X179290714Y-64957438D01*
X179290714Y-64957438D02*
X179243095Y-65005057D01*
X179243095Y-65005057D02*
X179195476Y-65100295D01*
X179195476Y-65100295D02*
X179195476Y-65338390D01*
X179195476Y-65338390D02*
X179243095Y-65433628D01*
X179243095Y-65433628D02*
X179290714Y-65481247D01*
X179290714Y-65481247D02*
X179385952Y-65528866D01*
X179385952Y-65528866D02*
X179576428Y-65528866D01*
X179576428Y-65528866D02*
X179671666Y-65481247D01*
X179671666Y-65481247D02*
X179719285Y-65433628D01*
X179719285Y-65433628D02*
X179766904Y-65338390D01*
X199768333Y-73674580D02*
X199720714Y-73722200D01*
X199720714Y-73722200D02*
X199577857Y-73769819D01*
X199577857Y-73769819D02*
X199482619Y-73769819D01*
X199482619Y-73769819D02*
X199339762Y-73722200D01*
X199339762Y-73722200D02*
X199244524Y-73626961D01*
X199244524Y-73626961D02*
X199196905Y-73531723D01*
X199196905Y-73531723D02*
X199149286Y-73341247D01*
X199149286Y-73341247D02*
X199149286Y-73198390D01*
X199149286Y-73198390D02*
X199196905Y-73007914D01*
X199196905Y-73007914D02*
X199244524Y-72912676D01*
X199244524Y-72912676D02*
X199339762Y-72817438D01*
X199339762Y-72817438D02*
X199482619Y-72769819D01*
X199482619Y-72769819D02*
X199577857Y-72769819D01*
X199577857Y-72769819D02*
X199720714Y-72817438D01*
X199720714Y-72817438D02*
X199768333Y-72865057D01*
X200720714Y-73769819D02*
X200149286Y-73769819D01*
X200435000Y-73769819D02*
X200435000Y-72769819D01*
X200435000Y-72769819D02*
X200339762Y-72912676D01*
X200339762Y-72912676D02*
X200244524Y-73007914D01*
X200244524Y-73007914D02*
X200149286Y-73055533D01*
X199788333Y-71779819D02*
X199455000Y-71303628D01*
X199216905Y-71779819D02*
X199216905Y-70779819D01*
X199216905Y-70779819D02*
X199597857Y-70779819D01*
X199597857Y-70779819D02*
X199693095Y-70827438D01*
X199693095Y-70827438D02*
X199740714Y-70875057D01*
X199740714Y-70875057D02*
X199788333Y-70970295D01*
X199788333Y-70970295D02*
X199788333Y-71113152D01*
X199788333Y-71113152D02*
X199740714Y-71208390D01*
X199740714Y-71208390D02*
X199693095Y-71256009D01*
X199693095Y-71256009D02*
X199597857Y-71303628D01*
X199597857Y-71303628D02*
X199216905Y-71303628D01*
X200121667Y-70779819D02*
X200740714Y-70779819D01*
X200740714Y-70779819D02*
X200407381Y-71160771D01*
X200407381Y-71160771D02*
X200550238Y-71160771D01*
X200550238Y-71160771D02*
X200645476Y-71208390D01*
X200645476Y-71208390D02*
X200693095Y-71256009D01*
X200693095Y-71256009D02*
X200740714Y-71351247D01*
X200740714Y-71351247D02*
X200740714Y-71589342D01*
X200740714Y-71589342D02*
X200693095Y-71684580D01*
X200693095Y-71684580D02*
X200645476Y-71732200D01*
X200645476Y-71732200D02*
X200550238Y-71779819D01*
X200550238Y-71779819D02*
X200264524Y-71779819D01*
X200264524Y-71779819D02*
X200169286Y-71732200D01*
X200169286Y-71732200D02*
X200121667Y-71684580D01*
X199768333Y-75644580D02*
X199720714Y-75692200D01*
X199720714Y-75692200D02*
X199577857Y-75739819D01*
X199577857Y-75739819D02*
X199482619Y-75739819D01*
X199482619Y-75739819D02*
X199339762Y-75692200D01*
X199339762Y-75692200D02*
X199244524Y-75596961D01*
X199244524Y-75596961D02*
X199196905Y-75501723D01*
X199196905Y-75501723D02*
X199149286Y-75311247D01*
X199149286Y-75311247D02*
X199149286Y-75168390D01*
X199149286Y-75168390D02*
X199196905Y-74977914D01*
X199196905Y-74977914D02*
X199244524Y-74882676D01*
X199244524Y-74882676D02*
X199339762Y-74787438D01*
X199339762Y-74787438D02*
X199482619Y-74739819D01*
X199482619Y-74739819D02*
X199577857Y-74739819D01*
X199577857Y-74739819D02*
X199720714Y-74787438D01*
X199720714Y-74787438D02*
X199768333Y-74835057D01*
X200101667Y-74739819D02*
X200768333Y-74739819D01*
X200768333Y-74739819D02*
X200339762Y-75739819D01*
X173192142Y-59929819D02*
X172858809Y-59453628D01*
X172620714Y-59929819D02*
X172620714Y-58929819D01*
X172620714Y-58929819D02*
X173001666Y-58929819D01*
X173001666Y-58929819D02*
X173096904Y-58977438D01*
X173096904Y-58977438D02*
X173144523Y-59025057D01*
X173144523Y-59025057D02*
X173192142Y-59120295D01*
X173192142Y-59120295D02*
X173192142Y-59263152D01*
X173192142Y-59263152D02*
X173144523Y-59358390D01*
X173144523Y-59358390D02*
X173096904Y-59406009D01*
X173096904Y-59406009D02*
X173001666Y-59453628D01*
X173001666Y-59453628D02*
X172620714Y-59453628D01*
X174144523Y-59929819D02*
X173573095Y-59929819D01*
X173858809Y-59929819D02*
X173858809Y-58929819D01*
X173858809Y-58929819D02*
X173763571Y-59072676D01*
X173763571Y-59072676D02*
X173668333Y-59167914D01*
X173668333Y-59167914D02*
X173573095Y-59215533D01*
X174620714Y-59929819D02*
X174811190Y-59929819D01*
X174811190Y-59929819D02*
X174906428Y-59882200D01*
X174906428Y-59882200D02*
X174954047Y-59834580D01*
X174954047Y-59834580D02*
X175049285Y-59691723D01*
X175049285Y-59691723D02*
X175096904Y-59501247D01*
X175096904Y-59501247D02*
X175096904Y-59120295D01*
X175096904Y-59120295D02*
X175049285Y-59025057D01*
X175049285Y-59025057D02*
X175001666Y-58977438D01*
X175001666Y-58977438D02*
X174906428Y-58929819D01*
X174906428Y-58929819D02*
X174715952Y-58929819D01*
X174715952Y-58929819D02*
X174620714Y-58977438D01*
X174620714Y-58977438D02*
X174573095Y-59025057D01*
X174573095Y-59025057D02*
X174525476Y-59120295D01*
X174525476Y-59120295D02*
X174525476Y-59358390D01*
X174525476Y-59358390D02*
X174573095Y-59453628D01*
X174573095Y-59453628D02*
X174620714Y-59501247D01*
X174620714Y-59501247D02*
X174715952Y-59548866D01*
X174715952Y-59548866D02*
X174906428Y-59548866D01*
X174906428Y-59548866D02*
X175001666Y-59501247D01*
X175001666Y-59501247D02*
X175049285Y-59453628D01*
X175049285Y-59453628D02*
X175096904Y-59358390D01*
X181632142Y-58154580D02*
X181584523Y-58202200D01*
X181584523Y-58202200D02*
X181441666Y-58249819D01*
X181441666Y-58249819D02*
X181346428Y-58249819D01*
X181346428Y-58249819D02*
X181203571Y-58202200D01*
X181203571Y-58202200D02*
X181108333Y-58106961D01*
X181108333Y-58106961D02*
X181060714Y-58011723D01*
X181060714Y-58011723D02*
X181013095Y-57821247D01*
X181013095Y-57821247D02*
X181013095Y-57678390D01*
X181013095Y-57678390D02*
X181060714Y-57487914D01*
X181060714Y-57487914D02*
X181108333Y-57392676D01*
X181108333Y-57392676D02*
X181203571Y-57297438D01*
X181203571Y-57297438D02*
X181346428Y-57249819D01*
X181346428Y-57249819D02*
X181441666Y-57249819D01*
X181441666Y-57249819D02*
X181584523Y-57297438D01*
X181584523Y-57297438D02*
X181632142Y-57345057D01*
X181965476Y-57249819D02*
X182584523Y-57249819D01*
X182584523Y-57249819D02*
X182251190Y-57630771D01*
X182251190Y-57630771D02*
X182394047Y-57630771D01*
X182394047Y-57630771D02*
X182489285Y-57678390D01*
X182489285Y-57678390D02*
X182536904Y-57726009D01*
X182536904Y-57726009D02*
X182584523Y-57821247D01*
X182584523Y-57821247D02*
X182584523Y-58059342D01*
X182584523Y-58059342D02*
X182536904Y-58154580D01*
X182536904Y-58154580D02*
X182489285Y-58202200D01*
X182489285Y-58202200D02*
X182394047Y-58249819D01*
X182394047Y-58249819D02*
X182108333Y-58249819D01*
X182108333Y-58249819D02*
X182013095Y-58202200D01*
X182013095Y-58202200D02*
X181965476Y-58154580D01*
X183155952Y-57678390D02*
X183060714Y-57630771D01*
X183060714Y-57630771D02*
X183013095Y-57583152D01*
X183013095Y-57583152D02*
X182965476Y-57487914D01*
X182965476Y-57487914D02*
X182965476Y-57440295D01*
X182965476Y-57440295D02*
X183013095Y-57345057D01*
X183013095Y-57345057D02*
X183060714Y-57297438D01*
X183060714Y-57297438D02*
X183155952Y-57249819D01*
X183155952Y-57249819D02*
X183346428Y-57249819D01*
X183346428Y-57249819D02*
X183441666Y-57297438D01*
X183441666Y-57297438D02*
X183489285Y-57345057D01*
X183489285Y-57345057D02*
X183536904Y-57440295D01*
X183536904Y-57440295D02*
X183536904Y-57487914D01*
X183536904Y-57487914D02*
X183489285Y-57583152D01*
X183489285Y-57583152D02*
X183441666Y-57630771D01*
X183441666Y-57630771D02*
X183346428Y-57678390D01*
X183346428Y-57678390D02*
X183155952Y-57678390D01*
X183155952Y-57678390D02*
X183060714Y-57726009D01*
X183060714Y-57726009D02*
X183013095Y-57773628D01*
X183013095Y-57773628D02*
X182965476Y-57868866D01*
X182965476Y-57868866D02*
X182965476Y-58059342D01*
X182965476Y-58059342D02*
X183013095Y-58154580D01*
X183013095Y-58154580D02*
X183060714Y-58202200D01*
X183060714Y-58202200D02*
X183155952Y-58249819D01*
X183155952Y-58249819D02*
X183346428Y-58249819D01*
X183346428Y-58249819D02*
X183441666Y-58202200D01*
X183441666Y-58202200D02*
X183489285Y-58154580D01*
X183489285Y-58154580D02*
X183536904Y-58059342D01*
X183536904Y-58059342D02*
X183536904Y-57868866D01*
X183536904Y-57868866D02*
X183489285Y-57773628D01*
X183489285Y-57773628D02*
X183441666Y-57726009D01*
X183441666Y-57726009D02*
X183346428Y-57678390D01*
X157921580Y-98690476D02*
X157969200Y-98738095D01*
X157969200Y-98738095D02*
X158016819Y-98880952D01*
X158016819Y-98880952D02*
X158016819Y-98976190D01*
X158016819Y-98976190D02*
X157969200Y-99119047D01*
X157969200Y-99119047D02*
X157873961Y-99214285D01*
X157873961Y-99214285D02*
X157778723Y-99261904D01*
X157778723Y-99261904D02*
X157588247Y-99309523D01*
X157588247Y-99309523D02*
X157445390Y-99309523D01*
X157445390Y-99309523D02*
X157254914Y-99261904D01*
X157254914Y-99261904D02*
X157159676Y-99214285D01*
X157159676Y-99214285D02*
X157064438Y-99119047D01*
X157064438Y-99119047D02*
X157016819Y-98976190D01*
X157016819Y-98976190D02*
X157016819Y-98880952D01*
X157016819Y-98880952D02*
X157064438Y-98738095D01*
X157064438Y-98738095D02*
X157112057Y-98690476D01*
X158016819Y-98261904D02*
X157016819Y-98261904D01*
X157016819Y-98261904D02*
X158016819Y-97690476D01*
X158016819Y-97690476D02*
X157016819Y-97690476D01*
X157016819Y-97309523D02*
X157016819Y-96690476D01*
X157016819Y-96690476D02*
X157397771Y-97023809D01*
X157397771Y-97023809D02*
X157397771Y-96880952D01*
X157397771Y-96880952D02*
X157445390Y-96785714D01*
X157445390Y-96785714D02*
X157493009Y-96738095D01*
X157493009Y-96738095D02*
X157588247Y-96690476D01*
X157588247Y-96690476D02*
X157826342Y-96690476D01*
X157826342Y-96690476D02*
X157921580Y-96738095D01*
X157921580Y-96738095D02*
X157969200Y-96785714D01*
X157969200Y-96785714D02*
X158016819Y-96880952D01*
X158016819Y-96880952D02*
X158016819Y-97166666D01*
X158016819Y-97166666D02*
X157969200Y-97261904D01*
X157969200Y-97261904D02*
X157921580Y-97309523D01*
X187987142Y-56314580D02*
X187939523Y-56362200D01*
X187939523Y-56362200D02*
X187796666Y-56409819D01*
X187796666Y-56409819D02*
X187701428Y-56409819D01*
X187701428Y-56409819D02*
X187558571Y-56362200D01*
X187558571Y-56362200D02*
X187463333Y-56266961D01*
X187463333Y-56266961D02*
X187415714Y-56171723D01*
X187415714Y-56171723D02*
X187368095Y-55981247D01*
X187368095Y-55981247D02*
X187368095Y-55838390D01*
X187368095Y-55838390D02*
X187415714Y-55647914D01*
X187415714Y-55647914D02*
X187463333Y-55552676D01*
X187463333Y-55552676D02*
X187558571Y-55457438D01*
X187558571Y-55457438D02*
X187701428Y-55409819D01*
X187701428Y-55409819D02*
X187796666Y-55409819D01*
X187796666Y-55409819D02*
X187939523Y-55457438D01*
X187939523Y-55457438D02*
X187987142Y-55505057D01*
X188368095Y-55505057D02*
X188415714Y-55457438D01*
X188415714Y-55457438D02*
X188510952Y-55409819D01*
X188510952Y-55409819D02*
X188749047Y-55409819D01*
X188749047Y-55409819D02*
X188844285Y-55457438D01*
X188844285Y-55457438D02*
X188891904Y-55505057D01*
X188891904Y-55505057D02*
X188939523Y-55600295D01*
X188939523Y-55600295D02*
X188939523Y-55695533D01*
X188939523Y-55695533D02*
X188891904Y-55838390D01*
X188891904Y-55838390D02*
X188320476Y-56409819D01*
X188320476Y-56409819D02*
X188939523Y-56409819D01*
X189558571Y-55409819D02*
X189653809Y-55409819D01*
X189653809Y-55409819D02*
X189749047Y-55457438D01*
X189749047Y-55457438D02*
X189796666Y-55505057D01*
X189796666Y-55505057D02*
X189844285Y-55600295D01*
X189844285Y-55600295D02*
X189891904Y-55790771D01*
X189891904Y-55790771D02*
X189891904Y-56028866D01*
X189891904Y-56028866D02*
X189844285Y-56219342D01*
X189844285Y-56219342D02*
X189796666Y-56314580D01*
X189796666Y-56314580D02*
X189749047Y-56362200D01*
X189749047Y-56362200D02*
X189653809Y-56409819D01*
X189653809Y-56409819D02*
X189558571Y-56409819D01*
X189558571Y-56409819D02*
X189463333Y-56362200D01*
X189463333Y-56362200D02*
X189415714Y-56314580D01*
X189415714Y-56314580D02*
X189368095Y-56219342D01*
X189368095Y-56219342D02*
X189320476Y-56028866D01*
X189320476Y-56028866D02*
X189320476Y-55790771D01*
X189320476Y-55790771D02*
X189368095Y-55600295D01*
X189368095Y-55600295D02*
X189415714Y-55505057D01*
X189415714Y-55505057D02*
X189463333Y-55457438D01*
X189463333Y-55457438D02*
X189558571Y-55409819D01*
X155699580Y-90222857D02*
X155747200Y-90270476D01*
X155747200Y-90270476D02*
X155794819Y-90413333D01*
X155794819Y-90413333D02*
X155794819Y-90508571D01*
X155794819Y-90508571D02*
X155747200Y-90651428D01*
X155747200Y-90651428D02*
X155651961Y-90746666D01*
X155651961Y-90746666D02*
X155556723Y-90794285D01*
X155556723Y-90794285D02*
X155366247Y-90841904D01*
X155366247Y-90841904D02*
X155223390Y-90841904D01*
X155223390Y-90841904D02*
X155032914Y-90794285D01*
X155032914Y-90794285D02*
X154937676Y-90746666D01*
X154937676Y-90746666D02*
X154842438Y-90651428D01*
X154842438Y-90651428D02*
X154794819Y-90508571D01*
X154794819Y-90508571D02*
X154794819Y-90413333D01*
X154794819Y-90413333D02*
X154842438Y-90270476D01*
X154842438Y-90270476D02*
X154890057Y-90222857D01*
X155794819Y-89270476D02*
X155794819Y-89841904D01*
X155794819Y-89556190D02*
X154794819Y-89556190D01*
X154794819Y-89556190D02*
X154937676Y-89651428D01*
X154937676Y-89651428D02*
X155032914Y-89746666D01*
X155032914Y-89746666D02*
X155080533Y-89841904D01*
X154794819Y-88651428D02*
X154794819Y-88556190D01*
X154794819Y-88556190D02*
X154842438Y-88460952D01*
X154842438Y-88460952D02*
X154890057Y-88413333D01*
X154890057Y-88413333D02*
X154985295Y-88365714D01*
X154985295Y-88365714D02*
X155175771Y-88318095D01*
X155175771Y-88318095D02*
X155413866Y-88318095D01*
X155413866Y-88318095D02*
X155604342Y-88365714D01*
X155604342Y-88365714D02*
X155699580Y-88413333D01*
X155699580Y-88413333D02*
X155747200Y-88460952D01*
X155747200Y-88460952D02*
X155794819Y-88556190D01*
X155794819Y-88556190D02*
X155794819Y-88651428D01*
X155794819Y-88651428D02*
X155747200Y-88746666D01*
X155747200Y-88746666D02*
X155699580Y-88794285D01*
X155699580Y-88794285D02*
X155604342Y-88841904D01*
X155604342Y-88841904D02*
X155413866Y-88889523D01*
X155413866Y-88889523D02*
X155175771Y-88889523D01*
X155175771Y-88889523D02*
X154985295Y-88841904D01*
X154985295Y-88841904D02*
X154890057Y-88794285D01*
X154890057Y-88794285D02*
X154842438Y-88746666D01*
X154842438Y-88746666D02*
X154794819Y-88651428D01*
X187041905Y-64139819D02*
X187041905Y-63139819D01*
X187041905Y-63139819D02*
X187280000Y-63139819D01*
X187280000Y-63139819D02*
X187422857Y-63187438D01*
X187422857Y-63187438D02*
X187518095Y-63282676D01*
X187518095Y-63282676D02*
X187565714Y-63377914D01*
X187565714Y-63377914D02*
X187613333Y-63568390D01*
X187613333Y-63568390D02*
X187613333Y-63711247D01*
X187613333Y-63711247D02*
X187565714Y-63901723D01*
X187565714Y-63901723D02*
X187518095Y-63996961D01*
X187518095Y-63996961D02*
X187422857Y-64092200D01*
X187422857Y-64092200D02*
X187280000Y-64139819D01*
X187280000Y-64139819D02*
X187041905Y-64139819D01*
X188565714Y-64139819D02*
X187994286Y-64139819D01*
X188280000Y-64139819D02*
X188280000Y-63139819D01*
X188280000Y-63139819D02*
X188184762Y-63282676D01*
X188184762Y-63282676D02*
X188089524Y-63377914D01*
X188089524Y-63377914D02*
X187994286Y-63425533D01*
X177862142Y-62919819D02*
X177528809Y-62443628D01*
X177290714Y-62919819D02*
X177290714Y-61919819D01*
X177290714Y-61919819D02*
X177671666Y-61919819D01*
X177671666Y-61919819D02*
X177766904Y-61967438D01*
X177766904Y-61967438D02*
X177814523Y-62015057D01*
X177814523Y-62015057D02*
X177862142Y-62110295D01*
X177862142Y-62110295D02*
X177862142Y-62253152D01*
X177862142Y-62253152D02*
X177814523Y-62348390D01*
X177814523Y-62348390D02*
X177766904Y-62396009D01*
X177766904Y-62396009D02*
X177671666Y-62443628D01*
X177671666Y-62443628D02*
X177290714Y-62443628D01*
X178195476Y-61919819D02*
X178814523Y-61919819D01*
X178814523Y-61919819D02*
X178481190Y-62300771D01*
X178481190Y-62300771D02*
X178624047Y-62300771D01*
X178624047Y-62300771D02*
X178719285Y-62348390D01*
X178719285Y-62348390D02*
X178766904Y-62396009D01*
X178766904Y-62396009D02*
X178814523Y-62491247D01*
X178814523Y-62491247D02*
X178814523Y-62729342D01*
X178814523Y-62729342D02*
X178766904Y-62824580D01*
X178766904Y-62824580D02*
X178719285Y-62872200D01*
X178719285Y-62872200D02*
X178624047Y-62919819D01*
X178624047Y-62919819D02*
X178338333Y-62919819D01*
X178338333Y-62919819D02*
X178243095Y-62872200D01*
X178243095Y-62872200D02*
X178195476Y-62824580D01*
X179671666Y-61919819D02*
X179481190Y-61919819D01*
X179481190Y-61919819D02*
X179385952Y-61967438D01*
X179385952Y-61967438D02*
X179338333Y-62015057D01*
X179338333Y-62015057D02*
X179243095Y-62157914D01*
X179243095Y-62157914D02*
X179195476Y-62348390D01*
X179195476Y-62348390D02*
X179195476Y-62729342D01*
X179195476Y-62729342D02*
X179243095Y-62824580D01*
X179243095Y-62824580D02*
X179290714Y-62872200D01*
X179290714Y-62872200D02*
X179385952Y-62919819D01*
X179385952Y-62919819D02*
X179576428Y-62919819D01*
X179576428Y-62919819D02*
X179671666Y-62872200D01*
X179671666Y-62872200D02*
X179719285Y-62824580D01*
X179719285Y-62824580D02*
X179766904Y-62729342D01*
X179766904Y-62729342D02*
X179766904Y-62491247D01*
X179766904Y-62491247D02*
X179719285Y-62396009D01*
X179719285Y-62396009D02*
X179671666Y-62348390D01*
X179671666Y-62348390D02*
X179576428Y-62300771D01*
X179576428Y-62300771D02*
X179385952Y-62300771D01*
X179385952Y-62300771D02*
X179290714Y-62348390D01*
X179290714Y-62348390D02*
X179243095Y-62396009D01*
X179243095Y-62396009D02*
X179195476Y-62491247D01*
X189652142Y-74309819D02*
X189318809Y-73833628D01*
X189080714Y-74309819D02*
X189080714Y-73309819D01*
X189080714Y-73309819D02*
X189461666Y-73309819D01*
X189461666Y-73309819D02*
X189556904Y-73357438D01*
X189556904Y-73357438D02*
X189604523Y-73405057D01*
X189604523Y-73405057D02*
X189652142Y-73500295D01*
X189652142Y-73500295D02*
X189652142Y-73643152D01*
X189652142Y-73643152D02*
X189604523Y-73738390D01*
X189604523Y-73738390D02*
X189556904Y-73786009D01*
X189556904Y-73786009D02*
X189461666Y-73833628D01*
X189461666Y-73833628D02*
X189080714Y-73833628D01*
X190604523Y-74309819D02*
X190033095Y-74309819D01*
X190318809Y-74309819D02*
X190318809Y-73309819D01*
X190318809Y-73309819D02*
X190223571Y-73452676D01*
X190223571Y-73452676D02*
X190128333Y-73547914D01*
X190128333Y-73547914D02*
X190033095Y-73595533D01*
X190985476Y-73405057D02*
X191033095Y-73357438D01*
X191033095Y-73357438D02*
X191128333Y-73309819D01*
X191128333Y-73309819D02*
X191366428Y-73309819D01*
X191366428Y-73309819D02*
X191461666Y-73357438D01*
X191461666Y-73357438D02*
X191509285Y-73405057D01*
X191509285Y-73405057D02*
X191556904Y-73500295D01*
X191556904Y-73500295D02*
X191556904Y-73595533D01*
X191556904Y-73595533D02*
X191509285Y-73738390D01*
X191509285Y-73738390D02*
X190937857Y-74309819D01*
X190937857Y-74309819D02*
X191556904Y-74309819D01*
X193648333Y-68954580D02*
X193600714Y-69002200D01*
X193600714Y-69002200D02*
X193457857Y-69049819D01*
X193457857Y-69049819D02*
X193362619Y-69049819D01*
X193362619Y-69049819D02*
X193219762Y-69002200D01*
X193219762Y-69002200D02*
X193124524Y-68906961D01*
X193124524Y-68906961D02*
X193076905Y-68811723D01*
X193076905Y-68811723D02*
X193029286Y-68621247D01*
X193029286Y-68621247D02*
X193029286Y-68478390D01*
X193029286Y-68478390D02*
X193076905Y-68287914D01*
X193076905Y-68287914D02*
X193124524Y-68192676D01*
X193124524Y-68192676D02*
X193219762Y-68097438D01*
X193219762Y-68097438D02*
X193362619Y-68049819D01*
X193362619Y-68049819D02*
X193457857Y-68049819D01*
X193457857Y-68049819D02*
X193600714Y-68097438D01*
X193600714Y-68097438D02*
X193648333Y-68145057D01*
X194505476Y-68049819D02*
X194315000Y-68049819D01*
X194315000Y-68049819D02*
X194219762Y-68097438D01*
X194219762Y-68097438D02*
X194172143Y-68145057D01*
X194172143Y-68145057D02*
X194076905Y-68287914D01*
X194076905Y-68287914D02*
X194029286Y-68478390D01*
X194029286Y-68478390D02*
X194029286Y-68859342D01*
X194029286Y-68859342D02*
X194076905Y-68954580D01*
X194076905Y-68954580D02*
X194124524Y-69002200D01*
X194124524Y-69002200D02*
X194219762Y-69049819D01*
X194219762Y-69049819D02*
X194410238Y-69049819D01*
X194410238Y-69049819D02*
X194505476Y-69002200D01*
X194505476Y-69002200D02*
X194553095Y-68954580D01*
X194553095Y-68954580D02*
X194600714Y-68859342D01*
X194600714Y-68859342D02*
X194600714Y-68621247D01*
X194600714Y-68621247D02*
X194553095Y-68526009D01*
X194553095Y-68526009D02*
X194505476Y-68478390D01*
X194505476Y-68478390D02*
X194410238Y-68430771D01*
X194410238Y-68430771D02*
X194219762Y-68430771D01*
X194219762Y-68430771D02*
X194124524Y-68478390D01*
X194124524Y-68478390D02*
X194076905Y-68526009D01*
X194076905Y-68526009D02*
X194029286Y-68621247D01*
X154454819Y-53963333D02*
X155169104Y-53963333D01*
X155169104Y-53963333D02*
X155311961Y-54010952D01*
X155311961Y-54010952D02*
X155407200Y-54106190D01*
X155407200Y-54106190D02*
X155454819Y-54249047D01*
X155454819Y-54249047D02*
X155454819Y-54344285D01*
X155454819Y-53487142D02*
X154454819Y-53487142D01*
X154454819Y-53487142D02*
X154454819Y-53106190D01*
X154454819Y-53106190D02*
X154502438Y-53010952D01*
X154502438Y-53010952D02*
X154550057Y-52963333D01*
X154550057Y-52963333D02*
X154645295Y-52915714D01*
X154645295Y-52915714D02*
X154788152Y-52915714D01*
X154788152Y-52915714D02*
X154883390Y-52963333D01*
X154883390Y-52963333D02*
X154931009Y-53010952D01*
X154931009Y-53010952D02*
X154978628Y-53106190D01*
X154978628Y-53106190D02*
X154978628Y-53487142D01*
X155454819Y-51963333D02*
X155454819Y-52534761D01*
X155454819Y-52249047D02*
X154454819Y-52249047D01*
X154454819Y-52249047D02*
X154597676Y-52344285D01*
X154597676Y-52344285D02*
X154692914Y-52439523D01*
X154692914Y-52439523D02*
X154740533Y-52534761D01*
X177862142Y-59929819D02*
X177528809Y-59453628D01*
X177290714Y-59929819D02*
X177290714Y-58929819D01*
X177290714Y-58929819D02*
X177671666Y-58929819D01*
X177671666Y-58929819D02*
X177766904Y-58977438D01*
X177766904Y-58977438D02*
X177814523Y-59025057D01*
X177814523Y-59025057D02*
X177862142Y-59120295D01*
X177862142Y-59120295D02*
X177862142Y-59263152D01*
X177862142Y-59263152D02*
X177814523Y-59358390D01*
X177814523Y-59358390D02*
X177766904Y-59406009D01*
X177766904Y-59406009D02*
X177671666Y-59453628D01*
X177671666Y-59453628D02*
X177290714Y-59453628D01*
X178195476Y-58929819D02*
X178814523Y-58929819D01*
X178814523Y-58929819D02*
X178481190Y-59310771D01*
X178481190Y-59310771D02*
X178624047Y-59310771D01*
X178624047Y-59310771D02*
X178719285Y-59358390D01*
X178719285Y-59358390D02*
X178766904Y-59406009D01*
X178766904Y-59406009D02*
X178814523Y-59501247D01*
X178814523Y-59501247D02*
X178814523Y-59739342D01*
X178814523Y-59739342D02*
X178766904Y-59834580D01*
X178766904Y-59834580D02*
X178719285Y-59882200D01*
X178719285Y-59882200D02*
X178624047Y-59929819D01*
X178624047Y-59929819D02*
X178338333Y-59929819D01*
X178338333Y-59929819D02*
X178243095Y-59882200D01*
X178243095Y-59882200D02*
X178195476Y-59834580D01*
X179719285Y-58929819D02*
X179243095Y-58929819D01*
X179243095Y-58929819D02*
X179195476Y-59406009D01*
X179195476Y-59406009D02*
X179243095Y-59358390D01*
X179243095Y-59358390D02*
X179338333Y-59310771D01*
X179338333Y-59310771D02*
X179576428Y-59310771D01*
X179576428Y-59310771D02*
X179671666Y-59358390D01*
X179671666Y-59358390D02*
X179719285Y-59406009D01*
X179719285Y-59406009D02*
X179766904Y-59501247D01*
X179766904Y-59501247D02*
X179766904Y-59739342D01*
X179766904Y-59739342D02*
X179719285Y-59834580D01*
X179719285Y-59834580D02*
X179671666Y-59882200D01*
X179671666Y-59882200D02*
X179576428Y-59929819D01*
X179576428Y-59929819D02*
X179338333Y-59929819D01*
X179338333Y-59929819D02*
X179243095Y-59882200D01*
X179243095Y-59882200D02*
X179195476Y-59834580D01*
X102954819Y-82738094D02*
X101954819Y-82738094D01*
X101954819Y-82738094D02*
X101954819Y-82499999D01*
X101954819Y-82499999D02*
X102002438Y-82357142D01*
X102002438Y-82357142D02*
X102097676Y-82261904D01*
X102097676Y-82261904D02*
X102192914Y-82214285D01*
X102192914Y-82214285D02*
X102383390Y-82166666D01*
X102383390Y-82166666D02*
X102526247Y-82166666D01*
X102526247Y-82166666D02*
X102716723Y-82214285D01*
X102716723Y-82214285D02*
X102811961Y-82261904D01*
X102811961Y-82261904D02*
X102907200Y-82357142D01*
X102907200Y-82357142D02*
X102954819Y-82499999D01*
X102954819Y-82499999D02*
X102954819Y-82738094D01*
X101954819Y-81309523D02*
X101954819Y-81499999D01*
X101954819Y-81499999D02*
X102002438Y-81595237D01*
X102002438Y-81595237D02*
X102050057Y-81642856D01*
X102050057Y-81642856D02*
X102192914Y-81738094D01*
X102192914Y-81738094D02*
X102383390Y-81785713D01*
X102383390Y-81785713D02*
X102764342Y-81785713D01*
X102764342Y-81785713D02*
X102859580Y-81738094D01*
X102859580Y-81738094D02*
X102907200Y-81690475D01*
X102907200Y-81690475D02*
X102954819Y-81595237D01*
X102954819Y-81595237D02*
X102954819Y-81404761D01*
X102954819Y-81404761D02*
X102907200Y-81309523D01*
X102907200Y-81309523D02*
X102859580Y-81261904D01*
X102859580Y-81261904D02*
X102764342Y-81214285D01*
X102764342Y-81214285D02*
X102526247Y-81214285D01*
X102526247Y-81214285D02*
X102431009Y-81261904D01*
X102431009Y-81261904D02*
X102383390Y-81309523D01*
X102383390Y-81309523D02*
X102335771Y-81404761D01*
X102335771Y-81404761D02*
X102335771Y-81595237D01*
X102335771Y-81595237D02*
X102383390Y-81690475D01*
X102383390Y-81690475D02*
X102431009Y-81738094D01*
X102431009Y-81738094D02*
X102526247Y-81785713D01*
X104954819Y-93166666D02*
X104954819Y-93642856D01*
X104954819Y-93642856D02*
X103954819Y-93642856D01*
X104050057Y-92880951D02*
X104002438Y-92833332D01*
X104002438Y-92833332D02*
X103954819Y-92738094D01*
X103954819Y-92738094D02*
X103954819Y-92499999D01*
X103954819Y-92499999D02*
X104002438Y-92404761D01*
X104002438Y-92404761D02*
X104050057Y-92357142D01*
X104050057Y-92357142D02*
X104145295Y-92309523D01*
X104145295Y-92309523D02*
X104240533Y-92309523D01*
X104240533Y-92309523D02*
X104383390Y-92357142D01*
X104383390Y-92357142D02*
X104954819Y-92928570D01*
X104954819Y-92928570D02*
X104954819Y-92309523D01*
X172833333Y-49454819D02*
X172500000Y-48978628D01*
X172261905Y-49454819D02*
X172261905Y-48454819D01*
X172261905Y-48454819D02*
X172642857Y-48454819D01*
X172642857Y-48454819D02*
X172738095Y-48502438D01*
X172738095Y-48502438D02*
X172785714Y-48550057D01*
X172785714Y-48550057D02*
X172833333Y-48645295D01*
X172833333Y-48645295D02*
X172833333Y-48788152D01*
X172833333Y-48788152D02*
X172785714Y-48883390D01*
X172785714Y-48883390D02*
X172738095Y-48931009D01*
X172738095Y-48931009D02*
X172642857Y-48978628D01*
X172642857Y-48978628D02*
X172261905Y-48978628D01*
X173690476Y-48788152D02*
X173690476Y-49454819D01*
X173452381Y-48407200D02*
X173214286Y-49121485D01*
X173214286Y-49121485D02*
X173833333Y-49121485D01*
X117931009Y-93983333D02*
X117931009Y-94316666D01*
X118454819Y-94316666D02*
X117454819Y-94316666D01*
X117454819Y-94316666D02*
X117454819Y-93840476D01*
X118454819Y-92935714D02*
X118454819Y-93507142D01*
X118454819Y-93221428D02*
X117454819Y-93221428D01*
X117454819Y-93221428D02*
X117597676Y-93316666D01*
X117597676Y-93316666D02*
X117692914Y-93411904D01*
X117692914Y-93411904D02*
X117740533Y-93507142D01*
G04 #@! TO.C,C32*
D12*
X156140000Y-84107836D02*
X156140000Y-83892164D01*
X156860000Y-84107836D02*
X156860000Y-83892164D01*
G04 #@! TO.C,F2*
D13*
X121250000Y-86250000D02*
X126050000Y-86250000D01*
X121250000Y-101050000D02*
X121250000Y-86250000D01*
X121250000Y-101050000D02*
X126050000Y-101050000D01*
X121590000Y-91150000D02*
X121250000Y-91150000D01*
X121590000Y-91150000D02*
X122100000Y-91150000D01*
X121590000Y-98850000D02*
X121250000Y-98850000D01*
X121590000Y-98850000D02*
X122100000Y-98850000D01*
X122100000Y-88480000D02*
X121250000Y-88480000D01*
X122100000Y-91150000D02*
X122100000Y-88480000D01*
X122100000Y-96180000D02*
X121250000Y-96180000D01*
X122100000Y-98850000D02*
X122100000Y-96180000D01*
X126050000Y-101050000D02*
X126050000Y-86250000D01*
D14*
X126080000Y-101050000D02*
G75*
G02*
X126020000Y-101050000I-30000J0D01*
G01*
X126020000Y-101050000D02*
G75*
G02*
X126080000Y-101050000I30000J0D01*
G01*
G04 #@! TO.C,L3*
D13*
X113160000Y-84240000D02*
X113160000Y-85630000D01*
X113160000Y-85630000D02*
X113160000Y-85760000D01*
X113160000Y-85760000D02*
X113420000Y-86020000D01*
X113420000Y-83980000D02*
X113160000Y-84240000D01*
X113420000Y-86020000D02*
X114690000Y-86020000D01*
X113550000Y-83980000D02*
X113420000Y-83980000D01*
X114690000Y-83980000D02*
X113550000Y-83980000D01*
X115450000Y-86020000D02*
X116590000Y-86020000D01*
X116590000Y-86020000D02*
X116720000Y-86020000D01*
X116720000Y-83980000D02*
X115450000Y-83980000D01*
X116720000Y-86020000D02*
X116970000Y-85760000D01*
X116970000Y-84240000D02*
X116720000Y-83980000D01*
X116970000Y-84360000D02*
X116970000Y-84240000D01*
X116970000Y-85760000D02*
X116970000Y-84360000D01*
D14*
X116060000Y-84360000D02*
G75*
G02*
X116000000Y-84360000I-30000J0D01*
G01*
X116000000Y-84360000D02*
G75*
G02*
X116060000Y-84360000I30000J0D01*
G01*
G04 #@! TO.C,U17*
D11*
X148120000Y-74150000D02*
X152880000Y-74150000D01*
X148120000Y-79850000D02*
X148120000Y-74150000D01*
X152880000Y-74150000D02*
X152880000Y-79850000D01*
X152880000Y-79850000D02*
X148120000Y-79850000D01*
D13*
X152590000Y-74560000D02*
G75*
G02*
X152350000Y-74560000I-120000J0D01*
G01*
X152350000Y-74560000D02*
G75*
G02*
X152590000Y-74560000I120000J0D01*
G01*
D14*
X152830000Y-71850000D02*
G75*
G02*
X152770000Y-71850000I-30000J0D01*
G01*
X152770000Y-71850000D02*
G75*
G02*
X152830000Y-71850000I30000J0D01*
G01*
D13*
X153160000Y-73440000D02*
G75*
G02*
X152920000Y-73440000I-120000J0D01*
G01*
X152920000Y-73440000D02*
G75*
G02*
X153160000Y-73440000I120000J0D01*
G01*
G04 #@! TO.C,R26*
D12*
X145836359Y-55120000D02*
X146143641Y-55120000D01*
X145836359Y-55880000D02*
X146143641Y-55880000D01*
G04 #@! TO.C,D11*
D15*
X158650000Y-95550000D02*
X159950000Y-95550000D01*
X158650000Y-96450000D02*
X159950000Y-96450000D01*
X159580000Y-95590000D02*
X159580000Y-96440000D01*
D14*
X158530000Y-96400000D02*
G75*
G02*
X158470000Y-96400000I-30000J0D01*
G01*
X158470000Y-96400000D02*
G75*
G02*
X158530000Y-96400000I30000J0D01*
G01*
G04 #@! TO.C,U1*
D13*
X193170000Y-66575000D02*
X193170000Y-65695000D01*
X193330000Y-64535000D02*
X194930000Y-64535000D01*
X193370000Y-67755000D02*
X194910000Y-67755000D01*
D14*
X195570000Y-67595000D02*
G75*
G02*
X195510000Y-67595000I-30000J0D01*
G01*
X195510000Y-67595000D02*
G75*
G02*
X195570000Y-67595000I30000J0D01*
G01*
D13*
X195660000Y-67735000D02*
G75*
G02*
X195540000Y-67735000I-60000J0D01*
G01*
X195540000Y-67735000D02*
G75*
G02*
X195660000Y-67735000I60000J0D01*
G01*
G04 #@! TO.C,C4*
D12*
X186137164Y-74125000D02*
X186352836Y-74125000D01*
X186137164Y-74845000D02*
X186352836Y-74845000D01*
G04 #@! TO.C,C15*
X105288748Y-73590000D02*
X106711252Y-73590000D01*
X105288748Y-75410000D02*
X106711252Y-75410000D01*
G04 #@! TO.C,C13*
X106765000Y-82261252D02*
X106765000Y-81738748D01*
X108235000Y-82261252D02*
X108235000Y-81738748D01*
G04 #@! TO.C,C36*
X130140000Y-84412164D02*
X130140000Y-84627836D01*
X130860000Y-84412164D02*
X130860000Y-84627836D01*
G04 #@! TO.C,R20*
X159163641Y-94120000D02*
X158856359Y-94120000D01*
X159163641Y-94880000D02*
X158856359Y-94880000D01*
G04 #@! TO.C,CN1*
D13*
X107920000Y-101950000D02*
X107920000Y-110050000D01*
X107920000Y-110050000D02*
X115310000Y-110050000D01*
X109460000Y-108000000D02*
X111460000Y-108000000D01*
X109460000Y-110050000D02*
X109460000Y-108000000D01*
X111460000Y-108000000D02*
X111460000Y-110050000D01*
X114390000Y-101950000D02*
X107920000Y-101950000D01*
X114540000Y-108000000D02*
X116540000Y-108000000D01*
X114540000Y-110050000D02*
X114540000Y-108000000D01*
X115310000Y-110050000D02*
X118080000Y-110050000D01*
X116540000Y-108000000D02*
X116540000Y-110050000D01*
X118080000Y-101950000D02*
X114390000Y-101950000D01*
X118080000Y-103500000D02*
X107920000Y-103500000D01*
X118080000Y-110050000D02*
X118080000Y-101950000D01*
D14*
X107950000Y-110050000D02*
G75*
G02*
X107890000Y-110050000I-30000J0D01*
G01*
X107890000Y-110050000D02*
G75*
G02*
X107950000Y-110050000I30000J0D01*
G01*
D16*
G36*
X111059999Y-108999994D02*
G01*
X110660000Y-108999994D01*
X110660000Y-110049979D01*
X110460000Y-110049979D01*
X110260000Y-110049979D01*
X110260000Y-108999994D01*
X109860001Y-108999994D01*
X110460000Y-108399995D01*
X111059999Y-108999994D01*
G37*
G36*
X116139999Y-108999994D02*
G01*
X115740000Y-108999994D01*
X115740000Y-110049979D01*
X115540000Y-110049979D01*
X115340000Y-110049979D01*
X115340000Y-108999994D01*
X114940001Y-108999994D01*
X115540000Y-108399995D01*
X116139999Y-108999994D01*
G37*
G04 #@! TO.C,Relay1*
D13*
X131700000Y-101900000D02*
X131700000Y-82700000D01*
X131700000Y-101900000D02*
X147300000Y-101900000D01*
D17*
X133500000Y-89110000D02*
X133500000Y-88090000D01*
X133500000Y-89110000D02*
X138450000Y-89110000D01*
X135250000Y-98570000D02*
X139190000Y-98570000D01*
D13*
X139210000Y-82700000D02*
X131700000Y-82700000D01*
D17*
X140210000Y-93030000D02*
X140210000Y-97040000D01*
X140210000Y-97040000D02*
X140210000Y-97550000D01*
X140210000Y-97550000D02*
X141810000Y-99200000D01*
X140230000Y-93000000D02*
X140210000Y-93030000D01*
X140550000Y-89110000D02*
X145500000Y-89110000D01*
X141300000Y-84370000D02*
X143230000Y-84370000D01*
X143230000Y-84370000D02*
X143230000Y-93000000D01*
X143230000Y-93000000D02*
X140230000Y-93000000D01*
D13*
X143750000Y-98500000D02*
X141520000Y-98500000D01*
D17*
X145500000Y-89110000D02*
X145500000Y-88090000D01*
D13*
X147300000Y-82700000D02*
X139800000Y-82700000D01*
X147300000Y-101900000D02*
X147300000Y-82700000D01*
D14*
X131730000Y-82700000D02*
G75*
G02*
X131670000Y-82700000I-30000J0D01*
G01*
X131670000Y-82700000D02*
G75*
G02*
X131730000Y-82700000I30000J0D01*
G01*
D13*
X133200000Y-83800000D02*
G75*
G02*
X132200000Y-83800000I-500000J0D01*
G01*
X132200000Y-83800000D02*
G75*
G02*
X133200000Y-83800000I500000J0D01*
G01*
G04 #@! TO.C,L7*
X119540000Y-38930000D02*
X119540000Y-40200000D01*
X119540000Y-40960000D02*
X119540000Y-42100000D01*
X119540000Y-42100000D02*
X119540000Y-42230000D01*
X119540000Y-42230000D02*
X119800000Y-42480000D01*
X119800000Y-38670000D02*
X119540000Y-38930000D01*
X119800000Y-42480000D02*
X121200000Y-42480000D01*
X119930000Y-38670000D02*
X119800000Y-38670000D01*
X121200000Y-42480000D02*
X121320000Y-42480000D01*
X121320000Y-38670000D02*
X119930000Y-38670000D01*
X121320000Y-42480000D02*
X121580000Y-42230000D01*
X121580000Y-38930000D02*
X121320000Y-38670000D01*
X121580000Y-39060000D02*
X121580000Y-38930000D01*
X121580000Y-40200000D02*
X121580000Y-39060000D01*
X121580000Y-42230000D02*
X121580000Y-40960000D01*
D14*
X121230000Y-41540000D02*
G75*
G02*
X121170000Y-41540000I-30000J0D01*
G01*
X121170000Y-41540000D02*
G75*
G02*
X121230000Y-41540000I30000J0D01*
G01*
G04 #@! TO.C,U19*
D12*
X157358323Y-79347922D02*
X157558323Y-79347922D01*
X157358323Y-82567922D02*
X157358323Y-79347922D01*
X157558323Y-82567922D02*
X157358323Y-82567922D01*
X160378323Y-79347922D02*
X160578323Y-79347922D01*
X160578323Y-79347922D02*
X160578323Y-82567922D01*
X160578323Y-82567922D02*
X160378323Y-82567922D01*
X160708323Y-78997922D02*
X160378323Y-78757922D01*
X160708323Y-78517922D01*
X160708323Y-78997922D01*
G36*
X160708323Y-78997922D02*
G01*
X160378323Y-78757922D01*
X160708323Y-78517922D01*
X160708323Y-78997922D01*
G37*
G04 #@! TO.C,C19*
X102127836Y-85640000D02*
X101912164Y-85640000D01*
X102127836Y-86360000D02*
X101912164Y-86360000D01*
G04 #@! TO.C,D17*
X111227500Y-38605000D02*
X111227500Y-40075000D01*
X111227500Y-40075000D02*
X113512500Y-40075000D01*
X113512500Y-38605000D02*
X111227500Y-38605000D01*
G04 #@! TO.C,D14*
D13*
X122180000Y-75360000D02*
X122180000Y-74390000D01*
X122180000Y-80610000D02*
X122180000Y-79640000D01*
X124260000Y-77500000D02*
X126290000Y-77500000D01*
X124760000Y-76990000D02*
X124760000Y-78010000D01*
X124760000Y-78010000D02*
X125780000Y-77500000D01*
X125780000Y-76990000D02*
X125780000Y-78010000D01*
X125780000Y-77500000D02*
X124760000Y-76990000D01*
X125780000Y-77500000D02*
X125780000Y-76990000D01*
X126970000Y-80610000D02*
X126970000Y-74390000D01*
X129380000Y-74390000D02*
X122180000Y-74390000D01*
X129380000Y-75360000D02*
X129380000Y-74390000D01*
X129380000Y-80610000D02*
X122180000Y-80610000D01*
X129380000Y-80610000D02*
X129380000Y-79640000D01*
D14*
X121870000Y-80450000D02*
G75*
G02*
X121810000Y-80450000I-30000J0D01*
G01*
X121810000Y-80450000D02*
G75*
G02*
X121870000Y-80450000I30000J0D01*
G01*
G04 #@! TO.C,C28*
D12*
X148372164Y-48640000D02*
X148587836Y-48640000D01*
X148372164Y-49360000D02*
X148587836Y-49360000D01*
G04 #@! TO.C,U8*
X123750000Y-32500000D02*
X123750000Y-39250000D01*
X123750000Y-32500000D02*
X141750000Y-32500000D01*
X123750000Y-57250000D02*
X123750000Y-58000000D01*
X123750000Y-58000000D02*
X124750000Y-58000000D01*
X141750000Y-32500000D02*
X141750000Y-39250000D01*
X141750000Y-38500000D02*
X123750000Y-38500000D01*
X141750000Y-57250000D02*
X141750000Y-58000000D01*
X141750000Y-58000000D02*
X140750000Y-58000000D01*
G04 #@! TO.C,D13*
D15*
X158350000Y-98050000D02*
X159650000Y-98050000D01*
X158350000Y-98950000D02*
X159650000Y-98950000D01*
X159280000Y-98090000D02*
X159280000Y-98940000D01*
D14*
X158230000Y-98900000D02*
G75*
G02*
X158170000Y-98900000I-30000J0D01*
G01*
X158170000Y-98900000D02*
G75*
G02*
X158230000Y-98900000I30000J0D01*
G01*
G04 #@! TO.C,R17*
D11*
X176745000Y-56575000D02*
X178025000Y-56575000D01*
X176745000Y-58415000D02*
X176745000Y-56575000D01*
X178025000Y-58415000D02*
X176745000Y-58415000D01*
X178985000Y-58415000D02*
X180265000Y-58415000D01*
X180265000Y-56575000D02*
X178985000Y-56575000D01*
X180265000Y-58415000D02*
X180265000Y-56575000D01*
D14*
X177535000Y-58135000D02*
G75*
G02*
X177475000Y-58135000I-30000J0D01*
G01*
X177475000Y-58135000D02*
G75*
G02*
X177535000Y-58135000I30000J0D01*
G01*
G04 #@! TO.C,R6*
D12*
X111720000Y-55696359D02*
X111720000Y-56003641D01*
X112480000Y-55696359D02*
X112480000Y-56003641D01*
G04 #@! TO.C,R27*
X108336359Y-44620000D02*
X108643641Y-44620000D01*
X108336359Y-45380000D02*
X108643641Y-45380000D01*
G04 #@! TO.C,R14*
D11*
X172075000Y-65545000D02*
X173355000Y-65545000D01*
X172075000Y-67385000D02*
X172075000Y-65545000D01*
X173355000Y-67385000D02*
X172075000Y-67385000D01*
X174315000Y-67385000D02*
X175595000Y-67385000D01*
X175595000Y-65545000D02*
X174315000Y-65545000D01*
X175595000Y-67385000D02*
X175595000Y-65545000D01*
D14*
X172865000Y-67105000D02*
G75*
G02*
X172805000Y-67105000I-30000J0D01*
G01*
X172805000Y-67105000D02*
G75*
G02*
X172865000Y-67105000I30000J0D01*
G01*
G04 #@! TO.C,C2*
D12*
X158596159Y-91769599D02*
X158380487Y-91769599D01*
X158596159Y-92489599D02*
X158380487Y-92489599D01*
G04 #@! TO.C,U7*
D13*
X161330000Y-45790000D02*
X161330000Y-56080000D01*
X162210000Y-45790000D02*
X162210000Y-56080000D01*
X166530000Y-45790000D02*
X166530000Y-56080000D01*
X167180000Y-46610000D02*
X167180000Y-48870000D01*
X167180000Y-48870000D02*
X167870000Y-48870000D01*
X167180000Y-49860000D02*
X167180000Y-52110000D01*
X167180000Y-52110000D02*
X167870000Y-52110000D01*
X167180000Y-53160000D02*
X167180000Y-55420000D01*
X167180000Y-55420000D02*
X167870000Y-55420000D01*
X167870000Y-46610000D02*
X167180000Y-46610000D01*
X167870000Y-49860000D02*
X167180000Y-49860000D01*
X167870000Y-53160000D02*
X167180000Y-53160000D01*
D14*
X160400000Y-45620000D02*
G75*
G02*
X160340000Y-45620000I-30000J0D01*
G01*
X160340000Y-45620000D02*
G75*
G02*
X160400000Y-45620000I30000J0D01*
G01*
G04 #@! TO.C,C25*
D12*
X121920000Y-39942164D02*
X121920000Y-40157836D01*
X122640000Y-39942164D02*
X122640000Y-40157836D01*
G04 #@! TO.C,U6*
D13*
X162438323Y-85167922D02*
X162438323Y-78277922D01*
D14*
X168398323Y-85207922D02*
G75*
G02*
X168338323Y-85207922I-30000J0D01*
G01*
X168338323Y-85207922D02*
G75*
G02*
X168398323Y-85207922I30000J0D01*
G01*
G04 #@! TO.C,C8*
D12*
X186137164Y-77075000D02*
X186352836Y-77075000D01*
X186137164Y-77795000D02*
X186352836Y-77795000D01*
G04 #@! TO.C,R7*
D11*
X153240000Y-95080000D02*
X153240000Y-96920000D01*
X153240000Y-96920000D02*
X154520000Y-96920000D01*
X154520000Y-95080000D02*
X153240000Y-95080000D01*
X155480000Y-95080000D02*
X156760000Y-95080000D01*
X156760000Y-95080000D02*
X156760000Y-96920000D01*
X156760000Y-96920000D02*
X155480000Y-96920000D01*
D14*
X156030000Y-95360000D02*
G75*
G02*
X155970000Y-95360000I-30000J0D01*
G01*
X155970000Y-95360000D02*
G75*
G02*
X156030000Y-95360000I30000J0D01*
G01*
G04 #@! TO.C,L1*
D11*
X189355000Y-73935000D02*
X189705000Y-73585000D01*
X189355000Y-75855000D02*
X189355000Y-73935000D01*
X189705000Y-73585000D02*
X191145000Y-73585000D01*
X189705000Y-76205000D02*
X189355000Y-75855000D01*
X191145000Y-76205000D02*
X189705000Y-76205000D01*
D16*
X191145000Y-76205000D02*
X191144999Y-76205000D01*
X191144999Y-76205000D01*
X191144999Y-76205000D01*
X191144999Y-76205000D01*
X191144999Y-76205000D01*
X191144999Y-76205000D01*
X191144999Y-76205000D01*
X191144999Y-76204999D01*
X191144999Y-76204999D01*
X191144999Y-76204999D01*
X191144999Y-76204999D01*
X191144999Y-76204999D01*
X191145000Y-76204999D01*
X191145000Y-76204999D01*
X191145000Y-76204999D01*
X191145000Y-76204999D01*
X191145000Y-76204999D01*
X191145000Y-76204999D01*
X191145000Y-76204999D01*
X191145000Y-76204999D01*
X191145000Y-76204999D01*
X191145000Y-76204999D01*
X191145000Y-76204999D01*
X191145000Y-76204999D01*
X191145001Y-76204999D01*
X191145001Y-76204999D01*
X191145001Y-76204999D01*
X191145001Y-76204999D01*
X191145001Y-76204999D01*
X191145001Y-76204999D01*
X191145001Y-76205000D01*
X191145001Y-76205000D01*
X191145001Y-76205000D01*
X191145001Y-76205000D01*
X191145001Y-76205000D01*
X191145001Y-76205000D01*
X191145001Y-76205000D01*
X191145000Y-76205000D01*
X191145000Y-76205000D02*
X191145001Y-76205000D01*
X191145001Y-76205000D01*
X191145001Y-76205000D01*
X191145001Y-76205000D01*
X191145001Y-76205000D01*
X191145001Y-76205000D01*
X191145001Y-76205001D01*
X191145001Y-76205001D01*
X191145001Y-76205001D01*
X191145001Y-76205001D01*
X191145001Y-76205001D01*
X191145001Y-76205001D01*
X191145001Y-76205001D01*
X191145000Y-76205001D01*
X191145000Y-76205001D01*
X191145000Y-76205001D01*
X191145000Y-76205001D01*
X191145000Y-76205001D01*
X191145000Y-76205001D01*
X191145000Y-76205001D01*
X191145000Y-76205001D01*
X191145000Y-76205001D01*
X191145000Y-76205001D01*
X191145000Y-76205001D01*
X191145000Y-76205001D01*
X191144999Y-76205001D01*
X191144999Y-76205001D01*
X191144999Y-76205001D01*
X191144999Y-76205001D01*
X191144999Y-76205001D01*
X191144999Y-76205001D01*
X191144999Y-76205000D01*
X191144999Y-76205000D01*
X191144999Y-76205000D01*
X191144999Y-76205000D01*
X191144999Y-76205000D01*
X191144999Y-76205000D01*
X191145000Y-76205000D01*
D11*
D16*
X192165000Y-76205000D02*
X192164999Y-76205000D01*
X192164999Y-76205000D01*
X192164999Y-76205000D01*
X192164999Y-76205000D01*
X192164999Y-76205000D01*
X192164999Y-76205000D01*
X192164999Y-76205000D01*
X192164999Y-76204999D01*
X192164999Y-76204999D01*
X192164999Y-76204999D01*
X192164999Y-76204999D01*
X192164999Y-76204999D01*
X192165000Y-76204999D01*
X192165000Y-76204999D01*
X192165000Y-76204999D01*
X192165000Y-76204999D01*
X192165000Y-76204999D01*
X192165000Y-76204999D01*
X192165000Y-76204999D01*
X192165000Y-76204999D01*
X192165000Y-76204999D01*
X192165000Y-76204999D01*
X192165000Y-76204999D01*
X192165000Y-76204999D01*
X192165001Y-76204999D01*
X192165001Y-76204999D01*
X192165001Y-76204999D01*
X192165001Y-76204999D01*
X192165001Y-76204999D01*
X192165001Y-76204999D01*
X192165001Y-76205000D01*
X192165001Y-76205000D01*
X192165001Y-76205000D01*
X192165001Y-76205000D01*
X192165001Y-76205000D01*
X192165001Y-76205000D01*
X192165001Y-76205000D01*
X192165000Y-76205000D01*
X192165000Y-76205000D02*
X192165001Y-76205000D01*
X192165001Y-76205000D01*
X192165001Y-76205000D01*
X192165001Y-76205000D01*
X192165001Y-76205000D01*
X192165001Y-76205000D01*
X192165001Y-76205001D01*
X192165001Y-76205001D01*
X192165001Y-76205001D01*
X192165001Y-76205001D01*
X192165001Y-76205001D01*
X192165001Y-76205001D01*
X192165001Y-76205001D01*
X192165000Y-76205001D01*
X192165000Y-76205001D01*
X192165000Y-76205001D01*
X192165000Y-76205001D01*
X192165000Y-76205001D01*
X192165000Y-76205001D01*
X192165000Y-76205001D01*
X192165000Y-76205001D01*
X192165000Y-76205001D01*
X192165000Y-76205001D01*
X192165000Y-76205001D01*
X192165000Y-76205001D01*
X192164999Y-76205001D01*
X192164999Y-76205001D01*
X192164999Y-76205001D01*
X192164999Y-76205001D01*
X192164999Y-76205001D01*
X192164999Y-76205001D01*
X192164999Y-76205000D01*
X192164999Y-76205000D01*
X192164999Y-76205000D01*
X192164999Y-76205000D01*
X192164999Y-76205000D01*
X192164999Y-76205000D01*
X192165000Y-76205000D01*
D11*
X192165000Y-76205000D02*
X193605000Y-76205000D01*
X193605000Y-73585000D02*
X192165000Y-73585000D01*
X193605000Y-76205000D02*
X193955000Y-75855000D01*
X193955000Y-73935000D02*
X193605000Y-73585000D01*
X193955000Y-75855000D02*
X193955000Y-73935000D01*
D14*
X190435000Y-75895000D02*
G75*
G02*
X190375000Y-75895000I-30000J0D01*
G01*
X190375000Y-75895000D02*
G75*
G02*
X190435000Y-75895000I30000J0D01*
G01*
G04 #@! TO.C,C9*
D12*
X154954343Y-90617310D02*
X154954343Y-90401638D01*
X155674343Y-90617310D02*
X155674343Y-90401638D01*
G04 #@! TO.C,U10*
D11*
X156088323Y-58779599D02*
X160848323Y-58779599D01*
X156088323Y-64479599D02*
X156088323Y-58779599D01*
X160848323Y-58779599D02*
X160848323Y-64479599D01*
X160848323Y-64479599D02*
X156088323Y-64479599D01*
D13*
X160558323Y-59189599D02*
G75*
G02*
X160318323Y-59189599I-120000J0D01*
G01*
X160318323Y-59189599D02*
G75*
G02*
X160558323Y-59189599I120000J0D01*
G01*
D14*
X160798323Y-56479599D02*
G75*
G02*
X160738323Y-56479599I-30000J0D01*
G01*
X160738323Y-56479599D02*
G75*
G02*
X160798323Y-56479599I30000J0D01*
G01*
D13*
X161128323Y-58069599D02*
G75*
G02*
X160888323Y-58069599I-120000J0D01*
G01*
X160888323Y-58069599D02*
G75*
G02*
X161128323Y-58069599I120000J0D01*
G01*
G04 #@! TO.C,Reset1*
D12*
X101750000Y-49715000D02*
X101750000Y-47715000D01*
X102750000Y-46415000D02*
X103200000Y-45965000D01*
X102750000Y-51015000D02*
X103200000Y-51465000D01*
X105800000Y-45965000D02*
X103200000Y-45965000D01*
X105800000Y-51465000D02*
X103200000Y-51465000D01*
X106250000Y-46415000D02*
X105800000Y-45965000D01*
X106250000Y-51015000D02*
X105800000Y-51465000D01*
X107250000Y-49715000D02*
X107250000Y-47715000D01*
G04 #@! TO.C,C17*
X182167164Y-66475000D02*
X182382836Y-66475000D01*
X182167164Y-67195000D02*
X182382836Y-67195000D01*
G04 #@! TO.C,U3*
D11*
X118675000Y-75825000D02*
X114525000Y-75825000D01*
X118675000Y-80975000D02*
X114525000Y-80975000D01*
D12*
X119340000Y-81230000D02*
X118860000Y-81230000D01*
X119100000Y-80900000D01*
X119340000Y-81230000D01*
G36*
X119340000Y-81230000D02*
G01*
X118860000Y-81230000D01*
X119100000Y-80900000D01*
X119340000Y-81230000D01*
G37*
G04 #@! TO.C,C39*
X114412164Y-44640000D02*
X114627836Y-44640000D01*
X114412164Y-45360000D02*
X114627836Y-45360000D01*
G04 #@! TO.C,L6*
D13*
X172125000Y-71835000D02*
X172125000Y-73235000D01*
X172125000Y-73235000D02*
X172125000Y-73355000D01*
X172125000Y-73355000D02*
X172375000Y-73615000D01*
X172375000Y-71575000D02*
X172125000Y-71835000D01*
X172375000Y-73615000D02*
X173645000Y-73615000D01*
X172505000Y-71575000D02*
X172375000Y-71575000D01*
X173645000Y-71575000D02*
X172505000Y-71575000D01*
X174405000Y-73615000D02*
X175545000Y-73615000D01*
X175545000Y-73615000D02*
X175675000Y-73615000D01*
X175675000Y-71575000D02*
X174405000Y-71575000D01*
X175675000Y-73615000D02*
X175935000Y-73355000D01*
X175935000Y-71835000D02*
X175675000Y-71575000D01*
X175935000Y-71965000D02*
X175935000Y-71835000D01*
X175935000Y-73355000D02*
X175935000Y-71965000D01*
D14*
X173095000Y-73235000D02*
G75*
G02*
X173035000Y-73235000I-30000J0D01*
G01*
X173035000Y-73235000D02*
G75*
G02*
X173095000Y-73235000I30000J0D01*
G01*
G04 #@! TO.C,C24*
D12*
X120412164Y-44640000D02*
X120627836Y-44640000D01*
X120412164Y-45360000D02*
X120627836Y-45360000D01*
G04 #@! TO.C,C33*
X156140000Y-87372164D02*
X156140000Y-87587836D01*
X156860000Y-87372164D02*
X156860000Y-87587836D01*
G04 #@! TO.C,R11*
D11*
X110140000Y-75610000D02*
X110140000Y-76390000D01*
X110140000Y-76390000D02*
X110590000Y-76390000D01*
X110590000Y-75610000D02*
X110140000Y-75610000D01*
X110930000Y-75610000D02*
X111380000Y-75610000D01*
X111380000Y-75610000D02*
X111380000Y-76390000D01*
X111380000Y-76390000D02*
X110930000Y-76390000D01*
D14*
X111090000Y-75850000D02*
G75*
G02*
X111030000Y-75850000I-30000J0D01*
G01*
X111030000Y-75850000D02*
G75*
G02*
X111090000Y-75850000I30000J0D01*
G01*
G04 #@! TO.C,C3*
D12*
X182167164Y-56625000D02*
X182382836Y-56625000D01*
X182167164Y-57345000D02*
X182382836Y-57345000D01*
G04 #@! TO.C,R13*
D11*
X103360000Y-68840000D02*
X104320000Y-68840000D01*
X103360000Y-70160000D02*
X103360000Y-68840000D01*
X104320000Y-70160000D02*
X103360000Y-70160000D01*
X105180000Y-70160000D02*
X106140000Y-70160000D01*
X106140000Y-68840000D02*
X105180000Y-68840000D01*
X106140000Y-70160000D02*
X106140000Y-68840000D01*
D14*
X103980000Y-69900000D02*
G75*
G02*
X103920000Y-69900000I-30000J0D01*
G01*
X103920000Y-69900000D02*
G75*
G02*
X103980000Y-69900000I30000J0D01*
G01*
G04 #@! TO.C,J1*
D12*
X105280000Y-52640000D02*
X103500000Y-52640000D01*
X105280000Y-62040000D02*
X103500000Y-62040000D01*
X108200000Y-54540000D02*
X108200000Y-53740000D01*
G04 #@! TO.C,CN2*
D13*
X120920000Y-101950000D02*
X120920000Y-110050000D01*
X120920000Y-110050000D02*
X128310000Y-110050000D01*
X122460000Y-108000000D02*
X124460000Y-108000000D01*
X122460000Y-110050000D02*
X122460000Y-108000000D01*
X124460000Y-108000000D02*
X124460000Y-110050000D01*
X127390000Y-101950000D02*
X120920000Y-101950000D01*
X127540000Y-108000000D02*
X129540000Y-108000000D01*
X127540000Y-110050000D02*
X127540000Y-108000000D01*
X128310000Y-110050000D02*
X131080000Y-110050000D01*
X129540000Y-108000000D02*
X129540000Y-110050000D01*
X131080000Y-101950000D02*
X127390000Y-101950000D01*
X131080000Y-103500000D02*
X120920000Y-103500000D01*
X131080000Y-110050000D02*
X131080000Y-101950000D01*
D14*
X120950000Y-110050000D02*
G75*
G02*
X120890000Y-110050000I-30000J0D01*
G01*
X120890000Y-110050000D02*
G75*
G02*
X120950000Y-110050000I30000J0D01*
G01*
D16*
G36*
X124059999Y-108999994D02*
G01*
X123660000Y-108999994D01*
X123660000Y-110049979D01*
X123460000Y-110049979D01*
X123260000Y-110049979D01*
X123260000Y-108999994D01*
X122860001Y-108999994D01*
X123460000Y-108399995D01*
X124059999Y-108999994D01*
G37*
G36*
X129139999Y-108999994D02*
G01*
X128740000Y-108999994D01*
X128740000Y-110049979D01*
X128540000Y-110049979D01*
X128340000Y-110049979D01*
X128340000Y-108999994D01*
X127940001Y-108999994D01*
X128540000Y-108399995D01*
X129139999Y-108999994D01*
G37*
G04 #@! TO.C,R38*
D11*
X157208323Y-68209599D02*
X158488323Y-68209599D01*
X157208323Y-70049599D02*
X157208323Y-68209599D01*
X158488323Y-70049599D02*
X157208323Y-70049599D01*
X159448323Y-70049599D02*
X160728323Y-70049599D01*
X160728323Y-68209599D02*
X159448323Y-68209599D01*
X160728323Y-70049599D02*
X160728323Y-68209599D01*
D14*
X157998323Y-69769599D02*
G75*
G02*
X157938323Y-69769599I-30000J0D01*
G01*
X157938323Y-69769599D02*
G75*
G02*
X157998323Y-69769599I30000J0D01*
G01*
G04 #@! TO.C,C16*
D12*
X110390000Y-78092164D02*
X110390000Y-78307836D01*
X111110000Y-78092164D02*
X111110000Y-78307836D01*
G04 #@! TO.C,JP2*
D13*
X167870000Y-43320000D02*
X167870000Y-43810000D01*
X167870000Y-45190000D02*
X167870000Y-45680000D01*
X170390000Y-43320000D02*
X167870000Y-43320000D01*
X170390000Y-43320000D02*
X170390000Y-44140000D01*
X170390000Y-44860000D02*
X170390000Y-45680000D01*
X170390000Y-45680000D02*
X167870000Y-45680000D01*
D14*
X167890000Y-45680000D02*
G75*
G02*
X167830000Y-45680000I-30000J0D01*
G01*
X167830000Y-45680000D02*
G75*
G02*
X167890000Y-45680000I30000J0D01*
G01*
G04 #@! TO.C,C11*
D12*
X156140000Y-91627836D02*
X156140000Y-91412164D01*
X156860000Y-91627836D02*
X156860000Y-91412164D01*
G04 #@! TO.C,D3*
D15*
X110150000Y-56690000D02*
X110150000Y-55390000D01*
X110190000Y-55760000D02*
X111040000Y-55760000D01*
X111050000Y-56690000D02*
X111050000Y-55390000D01*
D14*
X111030000Y-56840000D02*
G75*
G02*
X110970000Y-56840000I-30000J0D01*
G01*
X110970000Y-56840000D02*
G75*
G02*
X111030000Y-56840000I30000J0D01*
G01*
G04 #@! TO.C,C14*
D12*
X124140000Y-84627836D02*
X124140000Y-84412164D01*
X124860000Y-84627836D02*
X124860000Y-84412164D01*
G04 #@! TO.C,R34*
X110143641Y-38960000D02*
X109836359Y-38960000D01*
X110143641Y-39720000D02*
X109836359Y-39720000D01*
G04 #@! TO.C,D15*
X155010000Y-82850000D02*
X149500000Y-82850000D01*
X155010000Y-86150000D02*
X149500000Y-86150000D01*
X155010000Y-86150000D02*
X155010000Y-82850000D01*
G04 #@! TO.C,D18*
D15*
X155018323Y-75279599D02*
X155018323Y-76579599D01*
X155878323Y-76209599D02*
X155028323Y-76209599D01*
X155918323Y-75279599D02*
X155918323Y-76579599D01*
D14*
X155098323Y-75129599D02*
G75*
G02*
X155038323Y-75129599I-30000J0D01*
G01*
X155038323Y-75129599D02*
G75*
G02*
X155098323Y-75129599I30000J0D01*
G01*
G04 #@! TO.C,R16*
D12*
X177861359Y-73555000D02*
X178168641Y-73555000D01*
X177861359Y-74315000D02*
X178168641Y-74315000D01*
G04 #@! TO.C,L4*
D13*
X110480000Y-80780000D02*
X110480000Y-82050000D01*
X110480000Y-82810000D02*
X110480000Y-83950000D01*
X110480000Y-83950000D02*
X110480000Y-84080000D01*
X110480000Y-84080000D02*
X110740000Y-84340000D01*
X110740000Y-80530000D02*
X110480000Y-80780000D01*
X110740000Y-84340000D02*
X112130000Y-84340000D01*
X110860000Y-80530000D02*
X110740000Y-80530000D01*
X112130000Y-84340000D02*
X112260000Y-84340000D01*
X112260000Y-80530000D02*
X110860000Y-80530000D01*
X112260000Y-84340000D02*
X112520000Y-84080000D01*
X112520000Y-80780000D02*
X112260000Y-80530000D01*
X112520000Y-80910000D02*
X112520000Y-80780000D01*
X112520000Y-82050000D02*
X112520000Y-80910000D01*
X112520000Y-84080000D02*
X112520000Y-82810000D01*
D14*
X110890000Y-81470000D02*
G75*
G02*
X110830000Y-81470000I-30000J0D01*
G01*
X110830000Y-81470000D02*
G75*
G02*
X110890000Y-81470000I30000J0D01*
G01*
G04 #@! TO.C,R22*
D12*
X177861359Y-75545000D02*
X178168641Y-75545000D01*
X177861359Y-76305000D02*
X178168641Y-76305000D01*
G04 #@! TO.C,L9*
D13*
X154948323Y-70969599D02*
X154948323Y-72239599D01*
X154948323Y-72999599D02*
X154948323Y-74139599D01*
X154948323Y-74139599D02*
X154948323Y-74269599D01*
X154948323Y-74269599D02*
X155208323Y-74529599D01*
X155208323Y-70719599D02*
X154948323Y-70969599D01*
X155208323Y-74529599D02*
X156598323Y-74529599D01*
X155328323Y-70719599D02*
X155208323Y-70719599D01*
X156598323Y-74529599D02*
X156728323Y-74529599D01*
X156728323Y-70719599D02*
X155328323Y-70719599D01*
X156728323Y-74529599D02*
X156988323Y-74269599D01*
X156988323Y-70969599D02*
X156728323Y-70719599D01*
X156988323Y-71099599D02*
X156988323Y-70969599D01*
X156988323Y-72239599D02*
X156988323Y-71099599D01*
X156988323Y-74269599D02*
X156988323Y-72999599D01*
D14*
X155358323Y-71659599D02*
G75*
G02*
X155298323Y-71659599I-30000J0D01*
G01*
X155298323Y-71659599D02*
G75*
G02*
X155358323Y-71659599I30000J0D01*
G01*
G04 #@! TO.C,D4*
D12*
X184270000Y-69085000D02*
X184270000Y-72385000D01*
X184270000Y-69085000D02*
X189780000Y-69085000D01*
X184270000Y-72385000D02*
X189780000Y-72385000D01*
G04 #@! TO.C,U9*
D13*
X144580000Y-108680000D02*
X144580000Y-109370000D01*
X146840000Y-108680000D02*
X144580000Y-108680000D01*
X146840000Y-109370000D02*
X146840000Y-108680000D01*
X147890000Y-108680000D02*
X147890000Y-109370000D01*
X150140000Y-108680000D02*
X147890000Y-108680000D01*
X150140000Y-109370000D02*
X150140000Y-108680000D01*
X151130000Y-108680000D02*
X151130000Y-109370000D01*
X153390000Y-108680000D02*
X151130000Y-108680000D01*
X153390000Y-109370000D02*
X153390000Y-108680000D01*
X154210000Y-102830000D02*
X143920000Y-102830000D01*
X154210000Y-103710000D02*
X143920000Y-103710000D01*
X154210000Y-108030000D02*
X143920000Y-108030000D01*
D14*
X154410000Y-101870000D02*
G75*
G02*
X154350000Y-101870000I-30000J0D01*
G01*
X154350000Y-101870000D02*
G75*
G02*
X154410000Y-101870000I30000J0D01*
G01*
G04 #@! TO.C,C37*
D12*
X182167164Y-60565000D02*
X182382836Y-60565000D01*
X182167164Y-61285000D02*
X182382836Y-61285000D01*
G04 #@! TO.C,Flash1*
X113750000Y-47840000D02*
X113750000Y-49840000D01*
X114750000Y-46540000D02*
X115200000Y-46090000D01*
X114750000Y-51140000D02*
X115200000Y-51590000D01*
X115200000Y-46090000D02*
X117800000Y-46090000D01*
X115200000Y-51590000D02*
X117800000Y-51590000D01*
X118250000Y-46540000D02*
X117800000Y-46090000D01*
X118250000Y-51140000D02*
X117800000Y-51590000D01*
X119250000Y-47840000D02*
X119250000Y-49840000D01*
G04 #@! TO.C,C5*
X182167164Y-64505000D02*
X182382836Y-64505000D01*
X182167164Y-65225000D02*
X182382836Y-65225000D01*
G04 #@! TO.C,R9*
D11*
X153240000Y-97580000D02*
X154520000Y-97580000D01*
X153240000Y-99420000D02*
X153240000Y-97580000D01*
X154520000Y-99420000D02*
X153240000Y-99420000D01*
X155480000Y-99420000D02*
X156760000Y-99420000D01*
X156760000Y-97580000D02*
X155480000Y-97580000D01*
X156760000Y-99420000D02*
X156760000Y-97580000D01*
D14*
X154030000Y-99140000D02*
G75*
G02*
X153970000Y-99140000I-30000J0D01*
G01*
X153970000Y-99140000D02*
G75*
G02*
X154030000Y-99140000I30000J0D01*
G01*
G04 #@! TO.C,R24*
D11*
X172075000Y-68535000D02*
X173355000Y-68535000D01*
X172075000Y-70375000D02*
X172075000Y-68535000D01*
X173355000Y-70375000D02*
X172075000Y-70375000D01*
X174315000Y-70375000D02*
X175595000Y-70375000D01*
X175595000Y-68535000D02*
X174315000Y-68535000D01*
X175595000Y-70375000D02*
X175595000Y-68535000D01*
D14*
X172865000Y-70095000D02*
G75*
G02*
X172805000Y-70095000I-30000J0D01*
G01*
X172805000Y-70095000D02*
G75*
G02*
X172865000Y-70095000I30000J0D01*
G01*
G04 #@! TO.C,U16*
D11*
X135150000Y-60620000D02*
X140850000Y-60620000D01*
X135150000Y-65380000D02*
X135150000Y-60620000D01*
X140850000Y-60620000D02*
X140850000Y-65380000D01*
X140850000Y-65380000D02*
X135150000Y-65380000D01*
D14*
X132880000Y-60700000D02*
G75*
G02*
X132820000Y-60700000I-30000J0D01*
G01*
X132820000Y-60700000D02*
G75*
G02*
X132880000Y-60700000I30000J0D01*
G01*
D13*
X134560000Y-60460000D02*
G75*
G02*
X134320000Y-60460000I-120000J0D01*
G01*
X134320000Y-60460000D02*
G75*
G02*
X134560000Y-60460000I120000J0D01*
G01*
X135680000Y-61030000D02*
G75*
G02*
X135440000Y-61030000I-120000J0D01*
G01*
X135440000Y-61030000D02*
G75*
G02*
X135680000Y-61030000I120000J0D01*
G01*
G04 #@! TO.C,L10*
X172125000Y-75125000D02*
X172125000Y-76525000D01*
X172125000Y-76525000D02*
X172125000Y-76645000D01*
X172125000Y-76645000D02*
X172375000Y-76905000D01*
X172375000Y-74865000D02*
X172125000Y-75125000D01*
X172375000Y-76905000D02*
X173645000Y-76905000D01*
X172505000Y-74865000D02*
X172375000Y-74865000D01*
X173645000Y-74865000D02*
X172505000Y-74865000D01*
X174405000Y-76905000D02*
X175545000Y-76905000D01*
X175545000Y-76905000D02*
X175675000Y-76905000D01*
X175675000Y-74865000D02*
X174405000Y-74865000D01*
X175675000Y-76905000D02*
X175935000Y-76645000D01*
X175935000Y-75125000D02*
X175675000Y-74865000D01*
X175935000Y-75255000D02*
X175935000Y-75125000D01*
X175935000Y-76645000D02*
X175935000Y-75255000D01*
D14*
X173095000Y-76525000D02*
G75*
G02*
X173035000Y-76525000I-30000J0D01*
G01*
X173035000Y-76525000D02*
G75*
G02*
X173095000Y-76525000I30000J0D01*
G01*
G04 #@! TO.C,D19*
D15*
X155318323Y-81050000D02*
X156618323Y-81050000D01*
X155318323Y-81950000D02*
X156618323Y-81950000D01*
X156248323Y-81090000D02*
X156248323Y-81940000D01*
D14*
X155198323Y-81900000D02*
G75*
G02*
X155138323Y-81900000I-30000J0D01*
G01*
X155138323Y-81900000D02*
G75*
G02*
X155198323Y-81900000I30000J0D01*
G01*
G04 #@! TO.C,R1*
D12*
X109120000Y-52336359D02*
X109120000Y-52643641D01*
X109880000Y-52336359D02*
X109880000Y-52643641D01*
G04 #@! TO.C,L5*
D11*
X110920000Y-61820000D02*
X110920000Y-72180000D01*
X110920000Y-72180000D02*
X114190000Y-72180000D01*
X114190000Y-61820000D02*
X110920000Y-61820000D01*
X117810000Y-61820000D02*
X121080000Y-61820000D01*
X121080000Y-61820000D02*
X121080000Y-72180000D01*
X121080000Y-72180000D02*
X117810000Y-72180000D01*
D14*
X111030000Y-61900000D02*
G75*
G02*
X110970000Y-61900000I-30000J0D01*
G01*
X110970000Y-61900000D02*
G75*
G02*
X111030000Y-61900000I30000J0D01*
G01*
G04 #@! TO.C,R2*
D12*
X110205000Y-58533641D02*
X110205000Y-58226359D01*
X110965000Y-58533641D02*
X110965000Y-58226359D01*
G04 #@! TO.C,C22*
X106640000Y-69127836D02*
X106640000Y-68912164D01*
X107360000Y-69127836D02*
X107360000Y-68912164D01*
G04 #@! TO.C,R32*
X131143641Y-61620000D02*
X130836359Y-61620000D01*
X131143641Y-62380000D02*
X130836359Y-62380000D01*
G04 #@! TO.C,C27*
X182167164Y-62535000D02*
X182382836Y-62535000D01*
X182167164Y-63255000D02*
X182382836Y-63255000D01*
G04 #@! TO.C,D12*
D15*
X159088323Y-51539599D02*
X159088323Y-50689599D01*
X160018323Y-50679599D02*
X158718323Y-50679599D01*
X160018323Y-51579599D02*
X158718323Y-51579599D01*
D14*
X160198323Y-50729599D02*
G75*
G02*
X160138323Y-50729599I-30000J0D01*
G01*
X160138323Y-50729599D02*
G75*
G02*
X160198323Y-50729599I30000J0D01*
G01*
G04 #@! TO.C,U11*
D13*
X150171677Y-43270401D02*
X153171677Y-43270401D01*
X150171677Y-48270401D02*
X150171677Y-43270401D01*
X150171677Y-48270401D02*
X150941677Y-48270401D01*
X153171677Y-48270401D02*
X152401677Y-48270401D01*
X153171677Y-48270401D02*
X153171677Y-43270401D01*
X150941788Y-48257661D02*
G75*
G02*
X150941677Y-48270401I729889J-12730D01*
G01*
D17*
X152841677Y-47550401D02*
G75*
G02*
X152541677Y-47550401I-150000J0D01*
G01*
X152541677Y-47550401D02*
G75*
G02*
X152841677Y-47550401I150000J0D01*
G01*
D14*
X154701677Y-48180401D02*
G75*
G02*
X154641677Y-48180401I-30000J0D01*
G01*
X154641677Y-48180401D02*
G75*
G02*
X154701677Y-48180401I30000J0D01*
G01*
G04 #@! TO.C,D8*
D15*
X158888323Y-54539599D02*
X158888323Y-53689599D01*
X159818323Y-53679599D02*
X158518323Y-53679599D01*
X159818323Y-54579599D02*
X158518323Y-54579599D01*
D14*
X159998323Y-53729599D02*
G75*
G02*
X159938323Y-53729599I-30000J0D01*
G01*
X159938323Y-53729599D02*
G75*
G02*
X159998323Y-53729599I30000J0D01*
G01*
G04 #@! TO.C,U5*
D13*
X162438323Y-77667922D02*
X162438323Y-70777922D01*
D14*
X168398323Y-77707922D02*
G75*
G02*
X168338323Y-77707922I-30000J0D01*
G01*
X168338323Y-77707922D02*
G75*
G02*
X168398323Y-77707922I30000J0D01*
G01*
G04 #@! TO.C,C30*
D12*
X193147164Y-77495000D02*
X193362836Y-77495000D01*
X193147164Y-78215000D02*
X193362836Y-78215000D01*
G04 #@! TO.C,R28*
X120620000Y-48836359D02*
X120620000Y-49143641D01*
X121380000Y-48836359D02*
X121380000Y-49143641D01*
G04 #@! TO.C,U4*
D13*
X162470000Y-92960000D02*
X162470000Y-86070000D01*
D14*
X168430000Y-93000000D02*
G75*
G02*
X168370000Y-93000000I-30000J0D01*
G01*
X168370000Y-93000000D02*
G75*
G02*
X168430000Y-93000000I30000J0D01*
G01*
G04 #@! TO.C,C34*
D12*
X110627836Y-44640000D02*
X110412164Y-44640000D01*
X110627836Y-45360000D02*
X110412164Y-45360000D01*
G04 #@! TO.C,C35*
X120640000Y-51127836D02*
X120640000Y-50912164D01*
X121360000Y-51127836D02*
X121360000Y-50912164D01*
G04 #@! TO.C,D5*
D13*
X116390000Y-101040000D02*
X116390000Y-108240000D01*
X117360000Y-101040000D02*
X116390000Y-101040000D01*
X117360000Y-108240000D02*
X116390000Y-108240000D01*
X118990000Y-104640000D02*
X120010000Y-104640000D01*
X118990000Y-105660000D02*
X120010000Y-105660000D01*
X119500000Y-104640000D02*
X118990000Y-104640000D01*
X119500000Y-104640000D02*
X118990000Y-105660000D01*
X119500000Y-106160000D02*
X119500000Y-104130000D01*
X120010000Y-105660000D02*
X119500000Y-104640000D01*
X122610000Y-101040000D02*
X121640000Y-101040000D01*
X122610000Y-101040000D02*
X122610000Y-108240000D01*
X122610000Y-103450000D02*
X116390000Y-103450000D01*
X122610000Y-108240000D02*
X121640000Y-108240000D01*
D14*
X122480000Y-108580000D02*
G75*
G02*
X122420000Y-108580000I-30000J0D01*
G01*
X122420000Y-108580000D02*
G75*
G02*
X122480000Y-108580000I30000J0D01*
G01*
G04 #@! TO.C,U12*
D13*
X133080000Y-108680000D02*
X133080000Y-109370000D01*
X135340000Y-108680000D02*
X133080000Y-108680000D01*
X135340000Y-109370000D02*
X135340000Y-108680000D01*
X136390000Y-108680000D02*
X136390000Y-109370000D01*
X138640000Y-108680000D02*
X136390000Y-108680000D01*
X138640000Y-109370000D02*
X138640000Y-108680000D01*
X139630000Y-108680000D02*
X139630000Y-109370000D01*
X141890000Y-108680000D02*
X139630000Y-108680000D01*
X141890000Y-109370000D02*
X141890000Y-108680000D01*
X142710000Y-102830000D02*
X132420000Y-102830000D01*
X142710000Y-103710000D02*
X132420000Y-103710000D01*
X142710000Y-108030000D02*
X132420000Y-108030000D01*
D14*
X142910000Y-101870000D02*
G75*
G02*
X142850000Y-101870000I-30000J0D01*
G01*
X142850000Y-101870000D02*
G75*
G02*
X142910000Y-101870000I30000J0D01*
G01*
G04 #@! TO.C,D2*
D15*
X110210000Y-52990000D02*
X110210000Y-54290000D01*
X111070000Y-53920000D02*
X110220000Y-53920000D01*
X111110000Y-52990000D02*
X111110000Y-54290000D01*
D14*
X110290000Y-52840000D02*
G75*
G02*
X110230000Y-52840000I-30000J0D01*
G01*
X110230000Y-52840000D02*
G75*
G02*
X110290000Y-52840000I30000J0D01*
G01*
G04 #@! TO.C,U15*
D11*
X144130000Y-63330000D02*
X153870000Y-63330000D01*
X144130000Y-68670000D02*
X144130000Y-63330000D01*
X153870000Y-63330000D02*
X153870000Y-68670000D01*
X153870000Y-68670000D02*
X144130000Y-68670000D01*
X153870000Y-66790000D02*
G75*
G02*
X153870000Y-65210000I0J790000D01*
G01*
D14*
X153830000Y-62070000D02*
G75*
G02*
X153770000Y-62070000I-30000J0D01*
G01*
X153770000Y-62070000D02*
G75*
G02*
X153830000Y-62070000I30000J0D01*
G01*
D17*
X154100000Y-62190000D02*
G75*
G02*
X153800000Y-62190000I-150000J0D01*
G01*
X153800000Y-62190000D02*
G75*
G02*
X154100000Y-62190000I150000J0D01*
G01*
G04 #@! TO.C,R23*
D11*
X176745000Y-59565000D02*
X178025000Y-59565000D01*
X176745000Y-61405000D02*
X176745000Y-59565000D01*
X178025000Y-61405000D02*
X176745000Y-61405000D01*
X178985000Y-61405000D02*
X180265000Y-61405000D01*
X180265000Y-59565000D02*
X178985000Y-59565000D01*
X180265000Y-61405000D02*
X180265000Y-59565000D01*
D14*
X177535000Y-61125000D02*
G75*
G02*
X177475000Y-61125000I-30000J0D01*
G01*
X177475000Y-61125000D02*
G75*
G02*
X177535000Y-61125000I30000J0D01*
G01*
G04 #@! TO.C,R31*
D11*
X126240000Y-83580000D02*
X126240000Y-85420000D01*
X126240000Y-85420000D02*
X127520000Y-85420000D01*
X127520000Y-83580000D02*
X126240000Y-83580000D01*
X128480000Y-83580000D02*
X129760000Y-83580000D01*
X129760000Y-83580000D02*
X129760000Y-85420000D01*
X129760000Y-85420000D02*
X128480000Y-85420000D01*
D14*
X129030000Y-83860000D02*
G75*
G02*
X128970000Y-83860000I-30000J0D01*
G01*
X128970000Y-83860000D02*
G75*
G02*
X129030000Y-83860000I30000J0D01*
G01*
G04 #@! TO.C,R33*
D12*
X106663641Y-67120000D02*
X106356359Y-67120000D01*
X106663641Y-67880000D02*
X106356359Y-67880000D01*
G04 #@! TO.C,D16*
X107765000Y-67227500D02*
X107765000Y-69512500D01*
X109235000Y-67227500D02*
X107765000Y-67227500D01*
X109235000Y-69512500D02*
X109235000Y-67227500D01*
G04 #@! TO.C,U13*
D13*
X161330000Y-57290000D02*
X161330000Y-67580000D01*
X162210000Y-57290000D02*
X162210000Y-67580000D01*
X166530000Y-57290000D02*
X166530000Y-67580000D01*
X167180000Y-58110000D02*
X167180000Y-60370000D01*
X167180000Y-60370000D02*
X167870000Y-60370000D01*
X167180000Y-61360000D02*
X167180000Y-63610000D01*
X167180000Y-63610000D02*
X167870000Y-63610000D01*
X167180000Y-64660000D02*
X167180000Y-66920000D01*
X167180000Y-66920000D02*
X167870000Y-66920000D01*
X167870000Y-58110000D02*
X167180000Y-58110000D01*
X167870000Y-61360000D02*
X167180000Y-61360000D01*
X167870000Y-64660000D02*
X167180000Y-64660000D01*
D14*
X160400000Y-57120000D02*
G75*
G02*
X160340000Y-57120000I-30000J0D01*
G01*
X160340000Y-57120000D02*
G75*
G02*
X160400000Y-57120000I30000J0D01*
G01*
G04 #@! TO.C,R15*
D12*
X163920000Y-69156359D02*
X163920000Y-69463641D01*
X164680000Y-69156359D02*
X164680000Y-69463641D01*
G04 #@! TO.C,D20*
X114510000Y-40690000D02*
X109000000Y-40690000D01*
X114510000Y-43990000D02*
X109000000Y-43990000D01*
X114510000Y-43990000D02*
X114510000Y-40690000D01*
G04 #@! TO.C,Q1*
D13*
X133800000Y-74500000D02*
X133800000Y-66500000D01*
X134020000Y-66500000D02*
X133800000Y-66500000D01*
X136020000Y-66500000D02*
X135580000Y-66500000D01*
X138020000Y-66500000D02*
X137580000Y-66500000D01*
X140020000Y-66500000D02*
X139580000Y-66500000D01*
X141800000Y-66500000D02*
X141580000Y-66500000D01*
X141800000Y-66500000D02*
X141800000Y-74500000D01*
X141800000Y-74500000D02*
X133800000Y-74500000D01*
X141880000Y-65880000D02*
G75*
G02*
X141720000Y-65880000I-80000J0D01*
G01*
X141720000Y-65880000D02*
G75*
G02*
X141880000Y-65880000I80000J0D01*
G01*
D14*
X141880000Y-66490000D02*
G75*
G02*
X141820000Y-66490000I-30000J0D01*
G01*
X141820000Y-66490000D02*
G75*
G02*
X141880000Y-66490000I30000J0D01*
G01*
G04 #@! TO.C,F3*
D13*
X126450000Y-86250000D02*
X126450000Y-101050000D01*
X130400000Y-88450000D02*
X130400000Y-91120000D01*
X130400000Y-91120000D02*
X131250000Y-91120000D01*
X130400000Y-96150000D02*
X130400000Y-98820000D01*
X130400000Y-98820000D02*
X131250000Y-98820000D01*
X130910000Y-88450000D02*
X130400000Y-88450000D01*
X130910000Y-88450000D02*
X131250000Y-88450000D01*
X130910000Y-96150000D02*
X130400000Y-96150000D01*
X130910000Y-96150000D02*
X131250000Y-96150000D01*
X131250000Y-86250000D02*
X126450000Y-86250000D01*
X131250000Y-86250000D02*
X131250000Y-101050000D01*
X131250000Y-101050000D02*
X126450000Y-101050000D01*
D14*
X126480000Y-86250000D02*
G75*
G02*
X126420000Y-86250000I-30000J0D01*
G01*
X126420000Y-86250000D02*
G75*
G02*
X126480000Y-86250000I30000J0D01*
G01*
G04 #@! TO.C,R8*
D11*
X172075000Y-59565000D02*
X173355000Y-59565000D01*
X172075000Y-61405000D02*
X172075000Y-59565000D01*
X173355000Y-61405000D02*
X172075000Y-61405000D01*
X174315000Y-61405000D02*
X175595000Y-61405000D01*
X175595000Y-59565000D02*
X174315000Y-59565000D01*
X175595000Y-61405000D02*
X175595000Y-59565000D01*
D14*
X172865000Y-61125000D02*
G75*
G02*
X172805000Y-61125000I-30000J0D01*
G01*
X172805000Y-61125000D02*
G75*
G02*
X172865000Y-61125000I30000J0D01*
G01*
G04 #@! TO.C,R39*
D11*
X176745000Y-68535000D02*
X178025000Y-68535000D01*
X176745000Y-70375000D02*
X176745000Y-68535000D01*
X178025000Y-70375000D02*
X176745000Y-70375000D01*
X178985000Y-70375000D02*
X180265000Y-70375000D01*
X180265000Y-68535000D02*
X178985000Y-68535000D01*
X180265000Y-70375000D02*
X180265000Y-68535000D01*
D14*
X177535000Y-70095000D02*
G75*
G02*
X177475000Y-70095000I-30000J0D01*
G01*
X177475000Y-70095000D02*
G75*
G02*
X177535000Y-70095000I30000J0D01*
G01*
G04 #@! TO.C,R37*
D12*
X112653641Y-44620000D02*
X112346359Y-44620000D01*
X112653641Y-45380000D02*
X112346359Y-45380000D01*
G04 #@! TO.C,C1*
X199827164Y-74115000D02*
X200042836Y-74115000D01*
X199827164Y-74835000D02*
X200042836Y-74835000D01*
G04 #@! TO.C,D10*
D11*
X155780000Y-48920000D02*
X157230000Y-48920000D01*
X155780000Y-50910000D02*
X155780000Y-49990000D01*
X155780000Y-51980000D02*
X157230000Y-51980000D01*
X157230000Y-48920000D02*
X157230000Y-49960000D01*
X157230000Y-51980000D02*
X157230000Y-50940000D01*
D14*
X155330000Y-49000000D02*
G75*
G02*
X155270000Y-49000000I-30000J0D01*
G01*
X155270000Y-49000000D02*
G75*
G02*
X155330000Y-49000000I30000J0D01*
G01*
G04 #@! TO.C,R3*
D12*
X199801359Y-72115000D02*
X200108641Y-72115000D01*
X199801359Y-72875000D02*
X200108641Y-72875000D01*
G04 #@! TO.C,R29*
X130836359Y-60620000D02*
X131143641Y-60620000D01*
X130836359Y-61380000D02*
X131143641Y-61380000D01*
G04 #@! TO.C,C7*
X199827164Y-76085000D02*
X200042836Y-76085000D01*
X199827164Y-76805000D02*
X200042836Y-76805000D01*
G04 #@! TO.C,R19*
D11*
X172075000Y-62555000D02*
X173355000Y-62555000D01*
X172075000Y-64395000D02*
X172075000Y-62555000D01*
X173355000Y-64395000D02*
X172075000Y-64395000D01*
X174315000Y-64395000D02*
X175595000Y-64395000D01*
X175595000Y-62555000D02*
X174315000Y-62555000D01*
X175595000Y-64395000D02*
X175595000Y-62555000D01*
D14*
X172865000Y-64115000D02*
G75*
G02*
X172805000Y-64115000I-30000J0D01*
G01*
X172805000Y-64115000D02*
G75*
G02*
X172865000Y-64115000I30000J0D01*
G01*
G04 #@! TO.C,C38*
D12*
X182167164Y-58595000D02*
X182382836Y-58595000D01*
X182167164Y-59315000D02*
X182382836Y-59315000D01*
G04 #@! TO.C,CN3*
D13*
X161700000Y-95040000D02*
X164310000Y-95040000D01*
X161700000Y-95960000D02*
X161700000Y-95040000D01*
X161700000Y-99940000D02*
X161700000Y-101020000D01*
X161700000Y-101020000D02*
X164300000Y-101020000D01*
X165960000Y-100020000D02*
X165960000Y-96120000D01*
D14*
X161070000Y-101000000D02*
G75*
G02*
X161010000Y-101000000I-30000J0D01*
G01*
X161010000Y-101000000D02*
G75*
G02*
X161070000Y-101000000I30000J0D01*
G01*
D13*
X162320000Y-100500000D02*
G75*
G02*
X162060000Y-100500000I-130000J0D01*
G01*
X162060000Y-100500000D02*
G75*
G02*
X162320000Y-100500000I130000J0D01*
G01*
G04 #@! TO.C,L8*
X151570000Y-49570000D02*
X151570000Y-49550000D01*
X151570000Y-51250000D02*
X151570000Y-51230000D01*
X153570000Y-49550000D02*
X151570000Y-49550000D01*
X153570000Y-49570000D02*
X153570000Y-49550000D01*
X153570000Y-51250000D02*
X151570000Y-51250000D01*
X153570000Y-51250000D02*
X153570000Y-51230000D01*
D14*
X153620000Y-51000000D02*
G75*
G02*
X153560000Y-51000000I-30000J0D01*
G01*
X153560000Y-51000000D02*
G75*
G02*
X153620000Y-51000000I30000J0D01*
G01*
G04 #@! TO.C,C20*
D11*
X185250000Y-57975000D02*
X185250000Y-59265000D01*
X185250000Y-61935000D02*
X185270000Y-60645000D01*
X186650000Y-56575000D02*
X185250000Y-57975000D01*
X186650000Y-63335000D02*
X185250000Y-61935000D01*
X191990000Y-60695000D02*
X192010000Y-63335000D01*
X192000000Y-59245000D02*
X192010000Y-56575000D01*
X192010000Y-56575000D02*
X186650000Y-56575000D01*
X192010000Y-63335000D02*
X186650000Y-63335000D01*
D14*
X185030000Y-63255000D02*
G75*
G02*
X184970000Y-63255000I-30000J0D01*
G01*
X184970000Y-63255000D02*
G75*
G02*
X185030000Y-63255000I30000J0D01*
G01*
D16*
G36*
X186319997Y-61571989D02*
G01*
X185528000Y-61571989D01*
X185528000Y-61373996D01*
X186319997Y-61373996D01*
X186319997Y-61571989D01*
G37*
G36*
X186022995Y-62132999D02*
G01*
X185825002Y-62132999D01*
X185825002Y-60813012D01*
X186022995Y-60813012D01*
X186022995Y-62132999D01*
G37*
G36*
X191732000Y-61571989D02*
G01*
X190940003Y-61571989D01*
X190940003Y-61373996D01*
X191732000Y-61373996D01*
X191732000Y-61571989D01*
G37*
G04 #@! TO.C,R21*
D11*
X149080000Y-51240000D02*
X149080000Y-52520000D01*
X149080000Y-54760000D02*
X149080000Y-53480000D01*
X150920000Y-51240000D02*
X149080000Y-51240000D01*
X150920000Y-52520000D02*
X150920000Y-51240000D01*
X150920000Y-53480000D02*
X150920000Y-54760000D01*
X150920000Y-54760000D02*
X149080000Y-54760000D01*
D14*
X150670000Y-54000000D02*
G75*
G02*
X150610000Y-54000000I-30000J0D01*
G01*
X150610000Y-54000000D02*
G75*
G02*
X150670000Y-54000000I30000J0D01*
G01*
G04 #@! TO.C,U18*
D12*
X157358323Y-72047922D02*
X157558323Y-72047922D01*
X157358323Y-75267922D02*
X157358323Y-72047922D01*
X157558323Y-75267922D02*
X157358323Y-75267922D01*
X160378323Y-72047922D02*
X160578323Y-72047922D01*
X160578323Y-72047922D02*
X160578323Y-75267922D01*
X160578323Y-75267922D02*
X160378323Y-75267922D01*
X160708323Y-71697922D02*
X160378323Y-71457922D01*
X160708323Y-71217922D01*
X160708323Y-71697922D01*
G36*
X160708323Y-71697922D02*
G01*
X160378323Y-71457922D01*
X160708323Y-71217922D01*
X160708323Y-71697922D01*
G37*
G04 #@! TO.C,U2*
X157358323Y-86547922D02*
X157558323Y-86547922D01*
X157358323Y-89767922D02*
X157358323Y-86547922D01*
X157558323Y-89767922D02*
X157358323Y-89767922D01*
X160378323Y-86547922D02*
X160578323Y-86547922D01*
X160578323Y-86547922D02*
X160578323Y-89767922D01*
X160578323Y-89767922D02*
X160378323Y-89767922D01*
X160708323Y-86197922D02*
X160378323Y-85957922D01*
X160708323Y-85717922D01*
X160708323Y-86197922D01*
G36*
X160708323Y-86197922D02*
G01*
X160378323Y-85957922D01*
X160708323Y-85717922D01*
X160708323Y-86197922D01*
G37*
G04 #@! TO.C,C10*
X156140000Y-89687836D02*
X156140000Y-89472164D01*
X156860000Y-89687836D02*
X156860000Y-89472164D01*
G04 #@! TO.C,D1*
X184270000Y-64535000D02*
X184270000Y-67835000D01*
X184270000Y-64535000D02*
X189780000Y-64535000D01*
X184270000Y-67835000D02*
X189780000Y-67835000D01*
G04 #@! TO.C,R36*
D11*
X176745000Y-65545000D02*
X178025000Y-65545000D01*
X176745000Y-67385000D02*
X176745000Y-65545000D01*
X178025000Y-67385000D02*
X176745000Y-67385000D01*
X178985000Y-67385000D02*
X180265000Y-67385000D01*
X180265000Y-65545000D02*
X178985000Y-65545000D01*
X180265000Y-67385000D02*
X180265000Y-65545000D01*
D14*
X177535000Y-67105000D02*
G75*
G02*
X177475000Y-67105000I-30000J0D01*
G01*
X177475000Y-67105000D02*
G75*
G02*
X177535000Y-67105000I30000J0D01*
G01*
G04 #@! TO.C,R12*
D11*
X189355000Y-77355000D02*
X190065000Y-77355000D01*
X189355000Y-78355000D02*
X189355000Y-77355000D01*
X190065000Y-78355000D02*
X189355000Y-78355000D01*
X190525000Y-78355000D02*
X191235000Y-78355000D01*
X191235000Y-77355000D02*
X190525000Y-77355000D01*
X191235000Y-78355000D02*
X191235000Y-77355000D01*
D14*
X189825000Y-78105000D02*
G75*
G02*
X189765000Y-78105000I-30000J0D01*
G01*
X189765000Y-78105000D02*
G75*
G02*
X189825000Y-78105000I30000J0D01*
G01*
G04 #@! TO.C,C12*
D12*
X160640000Y-84107836D02*
X160640000Y-83892164D01*
X161360000Y-84107836D02*
X161360000Y-83892164D01*
G04 #@! TO.C,C6*
X193707164Y-69395000D02*
X193922836Y-69395000D01*
X193707164Y-70115000D02*
X193922836Y-70115000D01*
G04 #@! TO.C,BUZZER1*
D13*
X114750000Y-39340000D02*
X118750000Y-39340000D01*
X114750000Y-40070000D02*
X114750000Y-39340000D01*
X114750000Y-42610000D02*
X114750000Y-43340000D01*
X114750000Y-43340000D02*
X118750000Y-43340000D01*
X118750000Y-39340000D02*
X118750000Y-40070000D01*
X118750000Y-43340000D02*
X118750000Y-42610000D01*
D14*
X118780000Y-39340000D02*
G75*
G02*
X118720000Y-39340000I-30000J0D01*
G01*
X118720000Y-39340000D02*
G75*
G02*
X118780000Y-39340000I30000J0D01*
G01*
G04 #@! TO.C,JP1*
D13*
X151820000Y-54390000D02*
X151820000Y-51870000D01*
X152310000Y-51870000D02*
X151820000Y-51870000D01*
X152640000Y-54390000D02*
X151820000Y-54390000D01*
X154180000Y-51870000D02*
X153690000Y-51870000D01*
X154180000Y-54390000D02*
X153360000Y-54390000D01*
X154180000Y-54390000D02*
X154180000Y-51870000D01*
D14*
X151850000Y-51860000D02*
G75*
G02*
X151790000Y-51860000I-30000J0D01*
G01*
X151790000Y-51860000D02*
G75*
G02*
X151850000Y-51860000I30000J0D01*
G01*
G04 #@! TO.C,R35*
D11*
X176745000Y-62555000D02*
X178025000Y-62555000D01*
X176745000Y-64395000D02*
X176745000Y-62555000D01*
X178025000Y-64395000D02*
X176745000Y-64395000D01*
X178985000Y-64395000D02*
X180265000Y-64395000D01*
X180265000Y-62555000D02*
X178985000Y-62555000D01*
X180265000Y-64395000D02*
X180265000Y-62555000D01*
D14*
X177535000Y-64115000D02*
G75*
G02*
X177475000Y-64115000I-30000J0D01*
G01*
X177475000Y-64115000D02*
G75*
G02*
X177535000Y-64115000I30000J0D01*
G01*
G04 #@! TO.C,R25*
D12*
X159143641Y-96620000D02*
X158836359Y-96620000D01*
X159143641Y-97380000D02*
X158836359Y-97380000D01*
G04 #@! TO.C,C31*
X156108323Y-76041763D02*
X156108323Y-76257435D01*
X156828323Y-76041763D02*
X156828323Y-76257435D01*
G04 #@! TO.C,D6*
D11*
X101110000Y-79400000D02*
X101700000Y-79400000D01*
X101110000Y-83160000D02*
X104890000Y-83160000D01*
X101110000Y-84880000D02*
X101110000Y-79400000D01*
X104890000Y-79400000D02*
X104300000Y-79400000D01*
X104890000Y-84880000D02*
X104890000Y-79400000D01*
D14*
X104830000Y-84790000D02*
G75*
G02*
X104770000Y-84790000I-30000J0D01*
G01*
X104770000Y-84790000D02*
G75*
G02*
X104830000Y-84790000I30000J0D01*
G01*
G04 #@! TO.C,U14*
D11*
X147150000Y-56120000D02*
X152850000Y-56120000D01*
X147150000Y-60880000D02*
X147150000Y-56120000D01*
X152850000Y-56120000D02*
X152850000Y-60880000D01*
X152850000Y-60880000D02*
X147150000Y-60880000D01*
D13*
X152560000Y-60470000D02*
G75*
G02*
X152320000Y-60470000I-120000J0D01*
G01*
X152320000Y-60470000D02*
G75*
G02*
X152560000Y-60470000I120000J0D01*
G01*
X153680000Y-61040000D02*
G75*
G02*
X153440000Y-61040000I-120000J0D01*
G01*
X153440000Y-61040000D02*
G75*
G02*
X153680000Y-61040000I120000J0D01*
G01*
D14*
X155180000Y-60800000D02*
G75*
G02*
X155120000Y-60800000I-30000J0D01*
G01*
X155120000Y-60800000D02*
G75*
G02*
X155180000Y-60800000I30000J0D01*
G01*
G04 #@! TO.C,R10*
D12*
X117296359Y-74620000D02*
X117603641Y-74620000D01*
X117296359Y-75380000D02*
X117603641Y-75380000D01*
G04 #@! TO.C,L2*
D13*
X102200000Y-86700000D02*
X105520000Y-86700000D01*
X102200000Y-99300000D02*
X102200000Y-86700000D01*
X102200000Y-99300000D02*
X105520000Y-99300000D01*
X111480000Y-86700000D02*
X114800000Y-86700000D01*
X111480000Y-99300000D02*
X114800000Y-99300000D01*
X114800000Y-99300000D02*
X114800000Y-86700000D01*
X105082121Y-88691102D02*
G75*
G02*
X105070000Y-88680000I-642121J-688898D01*
G01*
X105100000Y-97200000D02*
G75*
G02*
X103700000Y-95420000I-700000J890000D01*
G01*
X105350000Y-97340000D02*
G75*
G02*
X105315382Y-88685258I3140000J4340000D01*
G01*
X111650000Y-88670000D02*
G75*
G02*
X111662581Y-97320790I-3160000J-4330000D01*
G01*
X111875210Y-88835927D02*
G75*
G02*
X113250000Y-90530000I604790J-914073D01*
G01*
X113444641Y-95290364D02*
G75*
G02*
X111950000Y-97150000I-834641J-859636D01*
G01*
D14*
X114780000Y-99250000D02*
G75*
G02*
X114720000Y-99250000I-30000J0D01*
G01*
X114720000Y-99250000D02*
G75*
G02*
X114780000Y-99250000I30000J0D01*
G01*
G04 #@! TO.C,D7*
D11*
X113750000Y-81570000D02*
X113750000Y-81770000D01*
X113750000Y-83430000D02*
X113750000Y-83230000D01*
X115850000Y-83380000D02*
X115850000Y-81620000D01*
X116510000Y-81570000D02*
X113750000Y-81570000D01*
X116510000Y-83430000D02*
X113750000Y-83430000D01*
D14*
X117110000Y-81600000D02*
G75*
G02*
X117050000Y-81600000I-30000J0D01*
G01*
X117050000Y-81600000D02*
G75*
G02*
X117110000Y-81600000I30000J0D01*
G01*
G04 #@! TO.C,R5*
D12*
X111620000Y-53663641D02*
X111620000Y-53356359D01*
X112380000Y-53663641D02*
X112380000Y-53356359D01*
G04 #@! TO.C,D9*
D15*
X165050000Y-70150000D02*
X165050000Y-68850000D01*
X165090000Y-69220000D02*
X165940000Y-69220000D01*
X165950000Y-70150000D02*
X165950000Y-68850000D01*
D14*
X165930000Y-70300000D02*
G75*
G02*
X165870000Y-70300000I-30000J0D01*
G01*
X165870000Y-70300000D02*
G75*
G02*
X165930000Y-70300000I30000J0D01*
G01*
G04 #@! TO.C,R4*
D11*
X171240000Y-50080000D02*
X172520000Y-50080000D01*
X171240000Y-51920000D02*
X171240000Y-50080000D01*
X172520000Y-51920000D02*
X171240000Y-51920000D01*
X173480000Y-51920000D02*
X174760000Y-51920000D01*
X174760000Y-50080000D02*
X173480000Y-50080000D01*
X174760000Y-51920000D02*
X174760000Y-50080000D01*
D14*
X172030000Y-51640000D02*
G75*
G02*
X171970000Y-51640000I-30000J0D01*
G01*
X171970000Y-51640000D02*
G75*
G02*
X172030000Y-51640000I30000J0D01*
G01*
G04 #@! TO.C,R18*
D12*
X155611964Y-68749599D02*
X155304682Y-68749599D01*
X155611964Y-69509599D02*
X155304682Y-69509599D01*
G04 #@! TO.C,F1*
D13*
X115950000Y-86250000D02*
X115950000Y-101050000D01*
X119900000Y-88450000D02*
X119900000Y-91120000D01*
X119900000Y-91120000D02*
X120750000Y-91120000D01*
X119900000Y-96150000D02*
X119900000Y-98820000D01*
X119900000Y-98820000D02*
X120750000Y-98820000D01*
X120410000Y-88450000D02*
X119900000Y-88450000D01*
X120410000Y-88450000D02*
X120750000Y-88450000D01*
X120410000Y-96150000D02*
X119900000Y-96150000D01*
X120410000Y-96150000D02*
X120750000Y-96150000D01*
X120750000Y-86250000D02*
X115950000Y-86250000D01*
X120750000Y-86250000D02*
X120750000Y-101050000D01*
X120750000Y-101050000D02*
X115950000Y-101050000D01*
D14*
X115980000Y-86250000D02*
G75*
G02*
X115920000Y-86250000I-30000J0D01*
G01*
X115920000Y-86250000D02*
G75*
G02*
X115980000Y-86250000I30000J0D01*
G01*
G04 #@! TO.C,R30*
D12*
X146620000Y-73336359D02*
X146620000Y-73643641D01*
X147380000Y-73336359D02*
X147380000Y-73643641D01*
G04 #@! TD*
M02*
