M48
; DRILL file KiCad 10.0.1 date 2026-09-30T23:03:46
; FORMAT={-:-/ absolute / metric / decimal}
; #@! TF.CreationDate,2026-09-30T23:03:46-04:00
; #@! TF.GenerationSoftware,Kicad,Pcbnew,10.0.1
; #@! TF.FileFunction,Plated,1,4,PTH
FMAT,2
METRIC
; #@! TA.AperFunction,Plated,PTH,ViaDrill
T1C0.254
; #@! TA.AperFunction,Plated,PTH,ViaDrill
T2C0.300
; #@! TA.AperFunction,Plated,PTH,ComponentDrill
T3C0.300
; #@! TA.AperFunction,Plated,PTH,ViaDrill
T4C0.400
; #@! TA.AperFunction,Plated,PTH,ComponentDrill
T5C0.500
; #@! TA.AperFunction,Plated,PTH,ComponentDrill
T6C0.600
; #@! TA.AperFunction,Plated,PTH,ComponentDrill
T7C0.650
; #@! TA.AperFunction,Plated,PTH,ComponentDrill
T8C1.300
; #@! TA.AperFunction,Plated,PTH,ComponentDrill
T9C1.500
; #@! TA.AperFunction,Plated,PTH,ComponentDrill
T10C1.524
%
G90
G05
T1
X254.442Y-53.524
X254.442Y-54.286
X256.6Y-90.6
X256.6Y-91.6
X261.6Y-55.4
X261.607Y-61.554
X262.0Y-70.0
X262.469Y-55.331
X263.0Y-75.6
X263.083Y-70.0
X263.998Y-76.664
X264.4Y-61.8
X268.983Y-61.052
X269.0Y-60.35
T2
X195.0Y-57.0
X195.0Y-70.8
X196.2Y-71.0
X196.3Y-55.19
X196.31Y-46.79
X196.37Y-46.06
X196.4Y-57.0
X196.47Y-55.9
X197.04Y-45.55
X197.21Y-56.17
X197.6Y-56.8
X197.8Y-71.0
X197.92Y-45.51
X198.34Y-56.19
X198.8Y-71.0
X198.81Y-45.78
X198.92Y-46.69
X199.2Y-48.8
X199.2Y-49.8
X199.2Y-51.6
X199.2Y-52.8
X199.2Y-57.0
X199.2Y-58.0
X200.2Y-56.8
X200.2Y-71.0
X200.35Y-46.62
X200.66Y-56.06
X200.72Y-45.74
X200.75Y-58.0
X200.8Y-67.2
X201.0Y-64.4
X201.25Y-60.0
X201.255Y-52.15
X201.4Y-57.0
X201.4Y-71.0
X201.45Y-56.19
X201.505Y-48.5
X201.505Y-49.65
X201.57Y-53.3
X201.61Y-47.63
X201.63Y-54.15
X201.69Y-45.65
X202.14Y-56.17
X202.56Y-45.61
X202.6Y-56.8
X202.6Y-71.0
X202.97Y-56.06
X203.2Y-56.8
X203.25Y-90.5
X203.29Y-62.01
X203.3Y-55.19
X203.32Y-46.11
X203.41Y-47.66
X203.41Y-54.11
X203.6Y-64.2
X203.8Y-71.0
X203.91Y-50.15
X203.91Y-51.64
X204.0Y-66.75
X204.25Y-55.5
X204.4Y-54.2
X204.6Y-47.6
X204.8Y-56.8
X204.8Y-65.2
X205.2Y-71.2
X205.2Y-86.4
X205.8Y-56.8
X206.4Y-71.2
X206.8Y-56.8
X207.6Y-65.0
X207.75Y-49.0
X207.8Y-56.6
X207.8Y-71.2
X207.93Y-68.43
X208.25Y-60.0
X208.33Y-40.47
X208.46Y-41.12
X208.54Y-41.77
X208.54Y-46.22
X208.89Y-40.17
X208.91Y-42.34
X209.0Y-83.8
X209.2Y-56.6
X209.2Y-71.4
X209.43Y-39.8
X209.46Y-42.68
X210.0Y-65.0
X210.11Y-42.82
X210.14Y-39.71
X210.25Y-90.5
X210.4Y-71.4
X210.6Y-56.4
X210.77Y-39.91
X210.78Y-42.6
X210.8Y-46.6
X211.025Y-60.25
X211.2Y-71.4
X211.27Y-42.14
X211.28Y-40.34
X211.51Y-41.55
X211.52Y-40.92
X211.75Y-69.0
X211.8Y-56.6
X212.0Y-46.6
X212.2Y-53.0
X212.4Y-71.4
X212.5Y-89.5
X212.6Y-47.2
X212.75Y-50.5
X213.2Y-56.6
X213.8Y-71.4
X214.25Y-54.5
X214.6Y-49.0
X214.6Y-88.4
X214.75Y-46.5
X214.8Y-56.4
X214.8Y-86.6
X215.2Y-71.4
X215.8Y-89.0
X216.0Y-99.2
X216.0Y-100.6
X216.0Y-102.0
X216.07Y-102.74
X216.2Y-86.6
X216.24Y-99.99
X216.24Y-101.29
X216.25Y-54.5
X216.25Y-94.5
X216.27Y-51.5
X216.6Y-56.2
X216.6Y-71.4
X216.6Y-99.39
X216.8Y-62.6
X216.8Y-102.8
X217.0Y-65.75
X217.0Y-70.5
X217.2Y-57.8
X217.2Y-99.2
X217.35Y-102.42
X217.4Y-45.2
X217.4Y-46.4
X217.79Y-99.42
X217.8Y-71.4
X218.0Y-102.8
X218.4Y-51.8
X218.4Y-56.4
X218.4Y-89.0
X218.4Y-99.2
X218.53Y-102.42
X218.6Y-71.2
X218.6Y-74.8
X218.6Y-79.6
X218.6Y-81.4
X218.8Y-57.8
X218.8Y-76.0
X218.8Y-77.4
X219.0Y-62.6
X219.06Y-99.28
X219.19Y-99.98
X219.19Y-102.03
X219.2Y-45.2
X219.2Y-46.6
X219.21Y-100.65
X219.21Y-101.32
X219.4Y-47.6
X219.4Y-49.4
X219.4Y-56.4
X219.6Y-72.0
X219.8Y-38.8
X219.8Y-39.6
X219.8Y-40.4
X219.8Y-41.2
X219.8Y-42.0
X219.8Y-42.8
X219.8Y-43.6
X219.8Y-44.4
X220.0Y-45.2
X220.0Y-87.0
X220.0Y-88.2
X220.0Y-92.75
X220.25Y-54.5
X220.25Y-72.71
X220.4Y-100.8
X220.8Y-44.8
X220.8Y-51.8
X220.8Y-99.4
X221.0Y-102.2
X221.2Y-57.8
X221.2Y-61.6
X221.2Y-71.0
X221.36Y-100.21
X221.36Y-101.16
X221.4Y-56.4
X221.6Y-44.8
X221.94Y-99.4
X221.97Y-102.46
X222.0Y-68.25
X222.6Y-44.8
X222.6Y-71.0
X222.8Y-98.8
X222.8Y-103.2
X223.0Y-51.8
X223.0Y-56.4
X223.2Y-61.6
X223.4Y-58.2
X223.41Y-99.36
X223.465Y-90.806
X223.47Y-102.24
X223.48Y-89.68
X223.6Y-44.8
X223.6Y-59.8
X224.0Y-71.2
X224.0Y-95.0
X224.2Y-99.2
X224.24Y-100.1
X224.26Y-101.47
X224.4Y-93.8
X224.6Y-44.8
X224.6Y-102.2
X224.8Y-100.8
X224.92Y-62.1
X225.0Y-99.6
X225.2Y-71.0
X225.6Y-44.8
X225.75Y-60.25
X225.8Y-51.8
X225.8Y-56.4
X226.4Y-44.8
X226.4Y-93.8
X226.6Y-71.0
X226.75Y-63.0
X227.2Y-69.2
X227.4Y-44.8
X227.4Y-80.4
X227.4Y-81.4
X227.8Y-83.0
X228.0Y-56.4
X228.4Y-44.8
X228.4Y-71.2
X228.4Y-79.8
X228.4Y-82.2
X228.6Y-51.8
X229.4Y-44.8
X229.4Y-71.2
X229.4Y-79.8
X229.4Y-82.2
X229.5Y-63.75
X229.8Y-66.4
X229.8Y-68.6
X230.0Y-56.4
X230.4Y-44.8
X230.4Y-79.8
X230.4Y-82.2
X230.75Y-59.5
X230.8Y-71.2
X231.0Y-51.0
X231.0Y-70.0
X231.2Y-44.8
X231.24Y-53.8
X231.4Y-82.2
X231.6Y-84.6
X231.638Y-52.962
X231.8Y-57.0
X231.8Y-59.0
X231.8Y-60.6
X231.8Y-79.8
X232.0Y-45.75
X232.0Y-55.0
X232.0Y-71.0
X232.2Y-44.8
X232.2Y-62.8
X232.4Y-49.4
X232.8Y-44.8
X233.25Y-53.75
X233.4Y-44.8
X233.4Y-94.4
X233.5Y-55.0
X233.6Y-58.8
X233.8Y-56.4
X233.8Y-63.0
X234.0Y-44.8
X234.0Y-57.8
X234.2Y-94.4
X234.5Y-59.75
X234.6Y-44.8
X234.6Y-45.6
X234.65Y-58.21
X234.79Y-46.92
X234.8Y-94.4
X235.36Y-67.98
X236.2Y-44.6
X236.4Y-71.0
X237.2Y-44.8
X237.2Y-45.6
X238.2Y-44.8
X238.2Y-53.8
X238.2Y-55.0
X238.5Y-69.0
X239.2Y-44.8
X239.2Y-79.0
X239.8Y-69.0
X239.88Y-72.71
X240.0Y-78.2
X240.2Y-44.8
X240.4Y-71.0
X240.8Y-79.0
X241.2Y-44.8
X241.24Y-70.16
X241.46Y-67.99
X241.88Y-70.18
X242.2Y-44.8
X242.28Y-82.31
X242.28Y-84.73
X242.32Y-102.19
X242.5Y-101.38
X242.52Y-100.61
X242.54Y-99.85
X242.58Y-66.29
X242.6Y-86.2
X242.6Y-88.6
X242.6Y-90.8
X242.6Y-93.0
X242.78Y-99.04
X242.8Y-95.0
X243.06Y-102.54
X243.2Y-44.8
X243.27Y-69.72
X243.29Y-84.7
X243.35Y-82.36
X243.39Y-99.08
X243.52Y-68.09
X243.54Y-68.88
X243.55Y-70.3
X244.0Y-86.4
X244.0Y-88.6
X244.0Y-90.8
X244.01Y-102.54
X244.05Y-99.07
X244.2Y-44.8
X244.39Y-84.7
X244.4Y-93.0
X244.4Y-95.0
X244.65Y-99.08
X244.82Y-82.36
X244.93Y-102.54
X245.2Y-44.8
X245.24Y-98.97
X245.4Y-86.4
X245.4Y-88.6
X245.8Y-93.0
X245.8Y-95.0
X245.89Y-99.28
X245.95Y-101.27
X245.95Y-102.45
X245.97Y-100.08
X246.075Y-90.75
X246.2Y-44.8
X246.5Y-69.0
X246.515Y-65.085
X247.2Y-44.8
X247.2Y-86.4
X247.2Y-88.8
X247.2Y-93.0
X247.25Y-97.25
X247.25Y-99.75
X247.25Y-104.25
X247.4Y-90.8
X247.4Y-95.0
X247.419Y-71.17
X247.5Y-101.75
X248.0Y-69.0
X248.2Y-44.8
X248.22Y-75.11
X248.25Y-98.5
X248.25Y-103.0
X248.68Y-71.03
X248.8Y-86.4
X248.8Y-88.8
X248.8Y-90.8
X249.0Y-93.0
X249.0Y-95.0
X249.2Y-44.8
X249.25Y-97.25
X249.25Y-104.25
X249.55Y-70.25
X249.57Y-68.14
X249.783Y-68.835
X250.0Y-98.5
X250.0Y-103.0
X250.2Y-44.8
X250.58Y-75.11
X250.75Y-97.25
X250.8Y-53.8
X250.8Y-55.2
X251.0Y-44.8
X251.0Y-104.25
X251.17Y-74.15
X251.5Y-98.5
X251.75Y-100.0
X251.75Y-101.5
X251.75Y-103.0
X251.8Y-44.8
X251.8Y-45.8
X251.84Y-79.94
X251.88Y-82.04
X252.07Y-51.0
X252.07Y-69.12
X252.09Y-71.39
X252.13Y-49.75
X252.25Y-97.25
X252.47Y-79.93
X252.5Y-104.25
X252.56Y-74.36
X252.8Y-44.8
X253.0Y-98.5
X253.07Y-82.01
X253.18Y-79.96
X253.25Y-103.0
X253.4Y-44.6
X253.5Y-66.25
X253.75Y-97.25
X253.86Y-80.6
X253.86Y-81.21
X253.91Y-72.72
X254.0Y-104.25
X254.32Y-87.68
X254.32Y-88.45
X254.4Y-44.8
X254.4Y-64.8
X254.5Y-82.0
X254.5Y-98.5
X254.537Y-86.342
X254.6Y-79.6
X254.75Y-103.0
X254.8Y-52.6
X254.99Y-87.05
X255.0Y-65.8
X255.0Y-90.0
X255.0Y-91.0
X255.0Y-92.0
X255.2Y-45.0
X255.47Y-69.55
X255.48Y-71.26
X255.5Y-97.25
X255.5Y-104.25
X255.75Y-100.25
X255.75Y-101.75
X255.8Y-66.6
X255.82Y-86.35
X255.97Y-76.34
X255.99Y-87.01
X256.0Y-52.8
X256.0Y-59.6
X256.0Y-65.4
X256.0Y-90.0
X256.0Y-91.0
X256.0Y-92.0
X256.2Y-54.8
X256.2Y-78.8
X256.25Y-98.5
X256.25Y-103.0
X256.4Y-44.8
X256.4Y-61.2
X256.61Y-86.4
X256.75Y-66.5
X256.775Y-88.21
X256.775Y-93.29
X256.8Y-48.8
X257.0Y-97.25
X257.0Y-104.25
X257.05Y-87.0
X257.2Y-71.2
X257.2Y-78.8
X257.25Y-82.0
X257.25Y-90.0
X257.25Y-91.0
X257.25Y-92.0
X257.35Y-76.34
X257.6Y-44.8
X257.75Y-61.25
X257.75Y-64.5
X257.75Y-98.5
X257.75Y-103.0
X257.865Y-80.307
X257.9Y-62.47
X258.0Y-54.8
X258.0Y-78.8
X258.2Y-81.8
X258.25Y-51.0
X258.25Y-90.0
X258.25Y-91.0
X258.25Y-92.0
X258.38Y-87.02
X258.4Y-48.8
X258.5Y-49.75
X258.5Y-97.25
X258.5Y-104.25
X258.6Y-76.4
X258.75Y-58.76
X258.75Y-61.69
X258.8Y-44.8
X259.13Y-87.16
X259.15Y-89.22
X259.17Y-88.3
X259.2Y-81.8
X259.4Y-54.8
X259.6Y-71.8
X259.75Y-58.75
X259.75Y-61.43
X259.8Y-76.6
X260.0Y-44.8
X260.0Y-63.8
X260.0Y-65.4
X260.0Y-81.8
X260.2Y-48.8
X260.25Y-68.25
X260.25Y-90.25
X260.25Y-92.25
X260.25Y-95.25
X260.25Y-97.25
X260.4Y-77.6
X260.4Y-79.6
X260.75Y-91.25
X260.75Y-93.75
X260.75Y-96.25
X260.8Y-80.8
X260.8Y-82.4
X260.82Y-83.76
X261.0Y-50.6
X261.0Y-65.4
X261.2Y-44.8
X261.25Y-52.25
X261.25Y-90.25
X261.25Y-92.25
X261.25Y-95.25
X261.25Y-97.25
X261.4Y-46.4
X261.4Y-47.6
X261.4Y-58.8
X261.4Y-67.2
X261.4Y-72.0
X261.5Y-62.25
X261.6Y-48.6
X261.6Y-51.2
X261.6Y-57.0
X261.6Y-58.0
X261.6Y-80.8
X261.75Y-91.25
X261.75Y-93.75
X261.75Y-96.25
X262.25Y-90.25
X262.25Y-92.25
X262.25Y-95.25
X262.25Y-97.25
X262.4Y-44.8
X262.4Y-53.6
X262.6Y-80.8
X262.63Y-50.1
X262.75Y-91.25
X262.75Y-93.75
X262.75Y-96.25
X263.0Y-46.4
X263.0Y-49.0
X263.2Y-57.0
X263.2Y-59.8
X263.2Y-85.6
X263.25Y-90.25
X263.25Y-92.25
X263.25Y-95.25
X263.25Y-97.25
X263.4Y-64.0
X263.4Y-65.8
X263.4Y-68.0
X263.4Y-74.6
X263.6Y-44.8
X263.6Y-81.8
X263.6Y-84.0
X263.75Y-91.25
X263.75Y-93.75
X263.75Y-96.25
X264.0Y-59.8
X264.2Y-50.4
X264.25Y-90.25
X264.25Y-92.25
X264.25Y-95.25
X264.25Y-97.25
X264.4Y-60.4
X264.4Y-68.0
X264.71Y-53.003
X264.75Y-91.25
X264.75Y-93.75
X264.75Y-96.25
X264.77Y-51.73
X264.8Y-46.4
X264.8Y-62.8
X265.0Y-44.8
X265.0Y-49.0
X265.24Y-54.37
X265.25Y-90.25
X265.25Y-92.25
X265.25Y-95.25
X265.25Y-97.25
X265.75Y-69.75
X265.75Y-91.25
X265.75Y-93.75
X265.75Y-96.25
X265.9Y-49.56
X266.2Y-44.8
X266.2Y-65.0
X266.25Y-50.75
X266.25Y-90.25
X266.25Y-92.25
X266.25Y-95.25
X266.25Y-97.25
X266.4Y-59.4
X266.4Y-79.4
X266.5Y-73.52
X266.61Y-62.873
X266.75Y-91.25
X266.75Y-93.75
X266.75Y-96.25
X266.78Y-60.31
X266.8Y-46.6
X266.83Y-61.29
X267.16Y-70.59
X267.25Y-90.25
X267.25Y-92.25
X267.25Y-95.25
X267.25Y-97.25
X267.4Y-44.8
X267.4Y-64.2
X267.5Y-49.75
X267.75Y-91.25
X267.75Y-93.75
X267.75Y-96.25
X267.8Y-45.4
X267.8Y-48.2
X268.0Y-79.6
X268.2Y-59.4
X268.25Y-76.75
X268.25Y-90.25
X268.25Y-92.25
X268.25Y-95.25
X268.25Y-97.25
X268.29Y-75.05
X268.4Y-57.6
X268.4Y-73.0
X268.75Y-49.75
X268.75Y-91.25
X268.75Y-93.75
X268.75Y-96.25
X268.79Y-61.86
X268.8Y-44.8
X268.8Y-46.6
X269.2Y-101.8
X269.25Y-90.25
X269.25Y-92.25
X269.25Y-95.25
X269.25Y-97.25
X269.4Y-38.8
X269.4Y-39.6
X269.4Y-40.6
X269.4Y-41.6
X269.4Y-42.6
X269.4Y-43.8
X269.4Y-71.2
X269.4Y-73.0
X269.6Y-103.6
X269.8Y-46.4
X269.8Y-64.2
X269.8Y-100.2
X269.925Y-68.225
X270.0Y-49.6
X270.0Y-74.0
X270.2Y-79.6
X270.4Y-38.6
X270.4Y-57.4
X270.5Y-75.5
X270.723Y-70.349
X270.8Y-99.2
X271.014Y-76.014
X271.2Y-46.6
X271.2Y-49.6
X271.2Y-64.2
X271.2Y-73.0
X271.2Y-88.6
X271.2Y-97.4
X271.4Y-90.2
X271.4Y-92.2
X271.4Y-93.8
X271.4Y-95.4
X272.0Y-70.8
X272.2Y-57.2
X272.2Y-69.6
X272.49Y-64.87
X272.6Y-49.6
X272.6Y-73.4
X272.6Y-75.8
X272.67Y-80.55
X273.95Y-64.86
X274.0Y-57.2
X274.4Y-49.6
X275.15Y-80.62
X275.32Y-64.7
X275.6Y-57.6
T3
X224.65Y-89.075
X224.65Y-90.175
X224.65Y-91.475
X224.65Y-92.675
X225.85Y-89.075
X225.85Y-90.175
X225.85Y-91.475
X225.85Y-92.675
X241.75Y-50.25
X241.75Y-51.75
X242.5Y-49.5
X242.5Y-51.0
X242.5Y-52.5
X243.25Y-50.25
X243.25Y-51.75
X244.0Y-49.5
X244.0Y-51.0
X244.0Y-52.5
X244.75Y-50.25
X244.75Y-51.75
T4
X205.75Y-82.5
X206.75Y-82.5
X254.07Y-85.75
X255.411Y-78.061
X261.25Y-85.42
X265.75Y-55.75
X267.0Y-68.5
X269.752Y-70.565
T7
X268.0Y-53.73
X268.0Y-55.0
T8
X197.325Y-59.75
X197.325Y-63.25
X197.325Y-66.75
X203.0Y-41.25
X203.05Y-101.6
X206.5Y-41.25
X206.55Y-101.6
X210.0Y-41.25
X210.05Y-101.6
X273.25Y-47.75
X273.25Y-51.25
X273.25Y-54.75
X273.75Y-59.02
X273.75Y-62.52
X274.0Y-67.02
X274.0Y-70.52
X274.0Y-74.52
X274.0Y-78.02
T9
X217.7Y-100.875
X222.78Y-100.875
X244.26Y-100.75
X249.34Y-100.75
T10
X200.3Y-81.8
X200.3Y-94.0
X206.3Y-79.8
X212.3Y-81.8
X212.3Y-94.0
T5
X200.1Y-74.8G85X200.1Y-76.2
G05
X203.8Y-74.8G85X203.8Y-76.2
G05
X208.1Y-74.8G85X208.1Y-76.2
G05
X211.8Y-76.2G85X211.8Y-74.8
G05
X223.22Y-74.47G85X223.22Y-75.87
G05
X226.92Y-74.47G85X226.92Y-75.87
G05
X227.4Y-100.175G85X227.4Y-101.575
G05
X231.1Y-101.575G85X231.1Y-100.175
G05
X231.22Y-74.47G85X231.22Y-75.87
G05
X234.92Y-75.87G85X234.92Y-74.47
G05
X235.4Y-101.575G85X235.4Y-100.175
G05
X239.1Y-101.575G85X239.1Y-100.175
G05
X254.0Y-100.3G85X254.0Y-101.7
G05
X257.7Y-101.7G85X257.7Y-100.3
G05
X262.0Y-101.7G85X262.0Y-100.3
G05
X265.7Y-101.7G85X265.7Y-100.3
G05
T6
X197.98Y-46.58G85X197.38Y-46.58
G05
X197.98Y-55.22G85X197.38Y-55.22
G05
X202.41Y-46.58G85X201.31Y-46.58
G05
X202.41Y-55.22G85X201.31Y-55.22
G05
M30
