%TF.GenerationSoftware,KiCad,Pcbnew,10.0.1*%
%TF.CreationDate,2026-09-28T21:49:43-04:00*%
%TF.ProjectId,MarineBoard,4d617269-6e65-4426-9f61-72642e6b6963,rev?*%
%TF.SameCoordinates,Original*%
%TF.FileFunction,Drillmap*%
%TF.FilePolarity,Positive*%
%FSLAX45Y45*%
G04 Gerber Fmt 4.5, Leading zero omitted, Abs format (unit mm)*
G04 Created by KiCad (PCBNEW 10.0.1) date 2026-09-28 21:49:43*
%MOMM*%
%LPD*%
G01*
G04 APERTURE LIST*
%ADD10C,0.050000*%
%ADD11C,0.200000*%
%ADD12C,0.100000*%
%ADD13C,0.320000*%
G04 APERTURE END LIST*
D10*
X19375000Y-3775000D02*
X27675000Y-3775000D01*
X27675000Y-10525000D01*
X19375000Y-10525000D01*
X19375000Y-3775000D01*
D11*
D12*
X20043000Y-4757500D02*
X20108000Y-4822500D01*
X20108000Y-4757500D02*
X20043000Y-4822500D01*
X20043000Y-5357500D02*
X20108000Y-5422500D01*
X20108000Y-5357500D02*
X20043000Y-5422500D01*
D13*
X19885000Y-4125000D02*
G75*
G02*
X19565000Y-4125000I-160000J0D01*
G01*
X19565000Y-4125000D02*
G75*
G02*
X19885000Y-4125000I160000J0D01*
G01*
X19885000Y-10125000D02*
G75*
G02*
X19565000Y-10125000I-160000J0D01*
G01*
X19565000Y-10125000D02*
G75*
G02*
X19885000Y-10125000I160000J0D01*
G01*
X27385000Y-10125000D02*
G75*
G02*
X27065000Y-10125000I-160000J0D01*
G01*
X27065000Y-10125000D02*
G75*
G02*
X27385000Y-10125000I160000J0D01*
G01*
X27460000Y-4175000D02*
G75*
G02*
X27140000Y-4175000I-160000J0D01*
G01*
X27140000Y-4175000D02*
G75*
G02*
X27460000Y-4175000I160000J0D01*
G01*
D11*
X19633277Y-10838984D02*
X19633277Y-10638984D01*
X19633277Y-10638984D02*
X19680896Y-10638984D01*
X19680896Y-10638984D02*
X19709467Y-10648508D01*
X19709467Y-10648508D02*
X19728515Y-10667555D01*
X19728515Y-10667555D02*
X19738039Y-10686603D01*
X19738039Y-10686603D02*
X19747563Y-10724698D01*
X19747563Y-10724698D02*
X19747563Y-10753270D01*
X19747563Y-10753270D02*
X19738039Y-10791365D01*
X19738039Y-10791365D02*
X19728515Y-10810412D01*
X19728515Y-10810412D02*
X19709467Y-10829460D01*
X19709467Y-10829460D02*
X19680896Y-10838984D01*
X19680896Y-10838984D02*
X19633277Y-10838984D01*
X19833277Y-10838984D02*
X19833277Y-10705650D01*
X19833277Y-10743746D02*
X19842801Y-10724698D01*
X19842801Y-10724698D02*
X19852324Y-10715174D01*
X19852324Y-10715174D02*
X19871372Y-10705650D01*
X19871372Y-10705650D02*
X19890420Y-10705650D01*
X19957086Y-10838984D02*
X19957086Y-10705650D01*
X19957086Y-10638984D02*
X19947563Y-10648508D01*
X19947563Y-10648508D02*
X19957086Y-10658031D01*
X19957086Y-10658031D02*
X19966610Y-10648508D01*
X19966610Y-10648508D02*
X19957086Y-10638984D01*
X19957086Y-10638984D02*
X19957086Y-10658031D01*
X20080896Y-10838984D02*
X20061848Y-10829460D01*
X20061848Y-10829460D02*
X20052324Y-10810412D01*
X20052324Y-10810412D02*
X20052324Y-10638984D01*
X20185658Y-10838984D02*
X20166610Y-10829460D01*
X20166610Y-10829460D02*
X20157086Y-10810412D01*
X20157086Y-10810412D02*
X20157086Y-10638984D01*
X20414229Y-10838984D02*
X20414229Y-10638984D01*
X20414229Y-10638984D02*
X20480896Y-10781841D01*
X20480896Y-10781841D02*
X20547563Y-10638984D01*
X20547563Y-10638984D02*
X20547563Y-10838984D01*
X20728515Y-10838984D02*
X20728515Y-10734222D01*
X20728515Y-10734222D02*
X20718991Y-10715174D01*
X20718991Y-10715174D02*
X20699944Y-10705650D01*
X20699944Y-10705650D02*
X20661848Y-10705650D01*
X20661848Y-10705650D02*
X20642801Y-10715174D01*
X20728515Y-10829460D02*
X20709467Y-10838984D01*
X20709467Y-10838984D02*
X20661848Y-10838984D01*
X20661848Y-10838984D02*
X20642801Y-10829460D01*
X20642801Y-10829460D02*
X20633277Y-10810412D01*
X20633277Y-10810412D02*
X20633277Y-10791365D01*
X20633277Y-10791365D02*
X20642801Y-10772317D01*
X20642801Y-10772317D02*
X20661848Y-10762793D01*
X20661848Y-10762793D02*
X20709467Y-10762793D01*
X20709467Y-10762793D02*
X20728515Y-10753270D01*
X20823753Y-10705650D02*
X20823753Y-10905650D01*
X20823753Y-10715174D02*
X20842801Y-10705650D01*
X20842801Y-10705650D02*
X20880896Y-10705650D01*
X20880896Y-10705650D02*
X20899944Y-10715174D01*
X20899944Y-10715174D02*
X20909467Y-10724698D01*
X20909467Y-10724698D02*
X20918991Y-10743746D01*
X20918991Y-10743746D02*
X20918991Y-10800889D01*
X20918991Y-10800889D02*
X20909467Y-10819936D01*
X20909467Y-10819936D02*
X20899944Y-10829460D01*
X20899944Y-10829460D02*
X20880896Y-10838984D01*
X20880896Y-10838984D02*
X20842801Y-10838984D01*
X20842801Y-10838984D02*
X20823753Y-10829460D01*
X21004705Y-10819936D02*
X21014229Y-10829460D01*
X21014229Y-10829460D02*
X21004705Y-10838984D01*
X21004705Y-10838984D02*
X20995182Y-10829460D01*
X20995182Y-10829460D02*
X21004705Y-10819936D01*
X21004705Y-10819936D02*
X21004705Y-10838984D01*
X21004705Y-10715174D02*
X21014229Y-10724698D01*
X21014229Y-10724698D02*
X21004705Y-10734222D01*
X21004705Y-10734222D02*
X20995182Y-10724698D01*
X20995182Y-10724698D02*
X21004705Y-10715174D01*
X21004705Y-10715174D02*
X21004705Y-10734222D01*
D12*
X19307500Y-11135000D02*
X19372500Y-11200000D01*
X19372500Y-11135000D02*
X19307500Y-11200000D01*
D11*
X19671372Y-11058984D02*
X19690420Y-11058984D01*
X19690420Y-11058984D02*
X19709467Y-11068508D01*
X19709467Y-11068508D02*
X19718991Y-11078031D01*
X19718991Y-11078031D02*
X19728515Y-11097079D01*
X19728515Y-11097079D02*
X19738039Y-11135174D01*
X19738039Y-11135174D02*
X19738039Y-11182793D01*
X19738039Y-11182793D02*
X19728515Y-11220888D01*
X19728515Y-11220888D02*
X19718991Y-11239936D01*
X19718991Y-11239936D02*
X19709467Y-11249460D01*
X19709467Y-11249460D02*
X19690420Y-11258984D01*
X19690420Y-11258984D02*
X19671372Y-11258984D01*
X19671372Y-11258984D02*
X19652324Y-11249460D01*
X19652324Y-11249460D02*
X19642801Y-11239936D01*
X19642801Y-11239936D02*
X19633277Y-11220888D01*
X19633277Y-11220888D02*
X19623753Y-11182793D01*
X19623753Y-11182793D02*
X19623753Y-11135174D01*
X19623753Y-11135174D02*
X19633277Y-11097079D01*
X19633277Y-11097079D02*
X19642801Y-11078031D01*
X19642801Y-11078031D02*
X19652324Y-11068508D01*
X19652324Y-11068508D02*
X19671372Y-11058984D01*
X19823753Y-11239936D02*
X19833277Y-11249460D01*
X19833277Y-11249460D02*
X19823753Y-11258984D01*
X19823753Y-11258984D02*
X19814229Y-11249460D01*
X19814229Y-11249460D02*
X19823753Y-11239936D01*
X19823753Y-11239936D02*
X19823753Y-11258984D01*
X20004705Y-11058984D02*
X19966610Y-11058984D01*
X19966610Y-11058984D02*
X19947563Y-11068508D01*
X19947563Y-11068508D02*
X19938039Y-11078031D01*
X19938039Y-11078031D02*
X19918991Y-11106603D01*
X19918991Y-11106603D02*
X19909467Y-11144698D01*
X19909467Y-11144698D02*
X19909467Y-11220888D01*
X19909467Y-11220888D02*
X19918991Y-11239936D01*
X19918991Y-11239936D02*
X19928515Y-11249460D01*
X19928515Y-11249460D02*
X19947563Y-11258984D01*
X19947563Y-11258984D02*
X19985658Y-11258984D01*
X19985658Y-11258984D02*
X20004705Y-11249460D01*
X20004705Y-11249460D02*
X20014229Y-11239936D01*
X20014229Y-11239936D02*
X20023753Y-11220888D01*
X20023753Y-11220888D02*
X20023753Y-11173270D01*
X20023753Y-11173270D02*
X20014229Y-11154222D01*
X20014229Y-11154222D02*
X20004705Y-11144698D01*
X20004705Y-11144698D02*
X19985658Y-11135174D01*
X19985658Y-11135174D02*
X19947563Y-11135174D01*
X19947563Y-11135174D02*
X19928515Y-11144698D01*
X19928515Y-11144698D02*
X19918991Y-11154222D01*
X19918991Y-11154222D02*
X19909467Y-11173270D01*
X20204705Y-11058984D02*
X20109467Y-11058984D01*
X20109467Y-11058984D02*
X20099944Y-11154222D01*
X20099944Y-11154222D02*
X20109467Y-11144698D01*
X20109467Y-11144698D02*
X20128515Y-11135174D01*
X20128515Y-11135174D02*
X20176134Y-11135174D01*
X20176134Y-11135174D02*
X20195182Y-11144698D01*
X20195182Y-11144698D02*
X20204705Y-11154222D01*
X20204705Y-11154222D02*
X20214229Y-11173270D01*
X20214229Y-11173270D02*
X20214229Y-11220888D01*
X20214229Y-11220888D02*
X20204705Y-11239936D01*
X20204705Y-11239936D02*
X20195182Y-11249460D01*
X20195182Y-11249460D02*
X20176134Y-11258984D01*
X20176134Y-11258984D02*
X20128515Y-11258984D01*
X20128515Y-11258984D02*
X20109467Y-11249460D01*
X20109467Y-11249460D02*
X20099944Y-11239936D01*
X20338039Y-11058984D02*
X20357086Y-11058984D01*
X20357086Y-11058984D02*
X20376134Y-11068508D01*
X20376134Y-11068508D02*
X20385658Y-11078031D01*
X20385658Y-11078031D02*
X20395182Y-11097079D01*
X20395182Y-11097079D02*
X20404705Y-11135174D01*
X20404705Y-11135174D02*
X20404705Y-11182793D01*
X20404705Y-11182793D02*
X20395182Y-11220888D01*
X20395182Y-11220888D02*
X20385658Y-11239936D01*
X20385658Y-11239936D02*
X20376134Y-11249460D01*
X20376134Y-11249460D02*
X20357086Y-11258984D01*
X20357086Y-11258984D02*
X20338039Y-11258984D01*
X20338039Y-11258984D02*
X20318991Y-11249460D01*
X20318991Y-11249460D02*
X20309467Y-11239936D01*
X20309467Y-11239936D02*
X20299944Y-11220888D01*
X20299944Y-11220888D02*
X20290420Y-11182793D01*
X20290420Y-11182793D02*
X20290420Y-11135174D01*
X20290420Y-11135174D02*
X20299944Y-11097079D01*
X20299944Y-11097079D02*
X20309467Y-11078031D01*
X20309467Y-11078031D02*
X20318991Y-11068508D01*
X20318991Y-11068508D02*
X20338039Y-11058984D01*
X20490420Y-11258984D02*
X20490420Y-11125650D01*
X20490420Y-11144698D02*
X20499944Y-11135174D01*
X20499944Y-11135174D02*
X20518991Y-11125650D01*
X20518991Y-11125650D02*
X20547563Y-11125650D01*
X20547563Y-11125650D02*
X20566610Y-11135174D01*
X20566610Y-11135174D02*
X20576134Y-11154222D01*
X20576134Y-11154222D02*
X20576134Y-11258984D01*
X20576134Y-11154222D02*
X20585658Y-11135174D01*
X20585658Y-11135174D02*
X20604705Y-11125650D01*
X20604705Y-11125650D02*
X20633277Y-11125650D01*
X20633277Y-11125650D02*
X20652325Y-11135174D01*
X20652325Y-11135174D02*
X20661848Y-11154222D01*
X20661848Y-11154222D02*
X20661848Y-11258984D01*
X20757086Y-11258984D02*
X20757086Y-11125650D01*
X20757086Y-11144698D02*
X20766610Y-11135174D01*
X20766610Y-11135174D02*
X20785658Y-11125650D01*
X20785658Y-11125650D02*
X20814229Y-11125650D01*
X20814229Y-11125650D02*
X20833277Y-11135174D01*
X20833277Y-11135174D02*
X20842801Y-11154222D01*
X20842801Y-11154222D02*
X20842801Y-11258984D01*
X20842801Y-11154222D02*
X20852325Y-11135174D01*
X20852325Y-11135174D02*
X20871372Y-11125650D01*
X20871372Y-11125650D02*
X20899944Y-11125650D01*
X20899944Y-11125650D02*
X20918991Y-11135174D01*
X20918991Y-11135174D02*
X20928515Y-11154222D01*
X20928515Y-11154222D02*
X20928515Y-11258984D01*
X21318991Y-11049460D02*
X21147563Y-11306603D01*
X21576134Y-11058984D02*
X21595182Y-11058984D01*
X21595182Y-11058984D02*
X21614229Y-11068508D01*
X21614229Y-11068508D02*
X21623753Y-11078031D01*
X21623753Y-11078031D02*
X21633277Y-11097079D01*
X21633277Y-11097079D02*
X21642801Y-11135174D01*
X21642801Y-11135174D02*
X21642801Y-11182793D01*
X21642801Y-11182793D02*
X21633277Y-11220888D01*
X21633277Y-11220888D02*
X21623753Y-11239936D01*
X21623753Y-11239936D02*
X21614229Y-11249460D01*
X21614229Y-11249460D02*
X21595182Y-11258984D01*
X21595182Y-11258984D02*
X21576134Y-11258984D01*
X21576134Y-11258984D02*
X21557087Y-11249460D01*
X21557087Y-11249460D02*
X21547563Y-11239936D01*
X21547563Y-11239936D02*
X21538039Y-11220888D01*
X21538039Y-11220888D02*
X21528515Y-11182793D01*
X21528515Y-11182793D02*
X21528515Y-11135174D01*
X21528515Y-11135174D02*
X21538039Y-11097079D01*
X21538039Y-11097079D02*
X21547563Y-11078031D01*
X21547563Y-11078031D02*
X21557087Y-11068508D01*
X21557087Y-11068508D02*
X21576134Y-11058984D01*
X21728515Y-11239936D02*
X21738039Y-11249460D01*
X21738039Y-11249460D02*
X21728515Y-11258984D01*
X21728515Y-11258984D02*
X21718991Y-11249460D01*
X21718991Y-11249460D02*
X21728515Y-11239936D01*
X21728515Y-11239936D02*
X21728515Y-11258984D01*
X21861848Y-11058984D02*
X21880896Y-11058984D01*
X21880896Y-11058984D02*
X21899944Y-11068508D01*
X21899944Y-11068508D02*
X21909468Y-11078031D01*
X21909468Y-11078031D02*
X21918991Y-11097079D01*
X21918991Y-11097079D02*
X21928515Y-11135174D01*
X21928515Y-11135174D02*
X21928515Y-11182793D01*
X21928515Y-11182793D02*
X21918991Y-11220888D01*
X21918991Y-11220888D02*
X21909468Y-11239936D01*
X21909468Y-11239936D02*
X21899944Y-11249460D01*
X21899944Y-11249460D02*
X21880896Y-11258984D01*
X21880896Y-11258984D02*
X21861848Y-11258984D01*
X21861848Y-11258984D02*
X21842801Y-11249460D01*
X21842801Y-11249460D02*
X21833277Y-11239936D01*
X21833277Y-11239936D02*
X21823753Y-11220888D01*
X21823753Y-11220888D02*
X21814229Y-11182793D01*
X21814229Y-11182793D02*
X21814229Y-11135174D01*
X21814229Y-11135174D02*
X21823753Y-11097079D01*
X21823753Y-11097079D02*
X21833277Y-11078031D01*
X21833277Y-11078031D02*
X21842801Y-11068508D01*
X21842801Y-11068508D02*
X21861848Y-11058984D01*
X22004706Y-11078031D02*
X22014229Y-11068508D01*
X22014229Y-11068508D02*
X22033277Y-11058984D01*
X22033277Y-11058984D02*
X22080896Y-11058984D01*
X22080896Y-11058984D02*
X22099944Y-11068508D01*
X22099944Y-11068508D02*
X22109468Y-11078031D01*
X22109468Y-11078031D02*
X22118991Y-11097079D01*
X22118991Y-11097079D02*
X22118991Y-11116127D01*
X22118991Y-11116127D02*
X22109468Y-11144698D01*
X22109468Y-11144698D02*
X21995182Y-11258984D01*
X21995182Y-11258984D02*
X22118991Y-11258984D01*
X22299944Y-11058984D02*
X22204706Y-11058984D01*
X22204706Y-11058984D02*
X22195182Y-11154222D01*
X22195182Y-11154222D02*
X22204706Y-11144698D01*
X22204706Y-11144698D02*
X22223753Y-11135174D01*
X22223753Y-11135174D02*
X22271372Y-11135174D01*
X22271372Y-11135174D02*
X22290420Y-11144698D01*
X22290420Y-11144698D02*
X22299944Y-11154222D01*
X22299944Y-11154222D02*
X22309468Y-11173270D01*
X22309468Y-11173270D02*
X22309468Y-11220888D01*
X22309468Y-11220888D02*
X22299944Y-11239936D01*
X22299944Y-11239936D02*
X22290420Y-11249460D01*
X22290420Y-11249460D02*
X22271372Y-11258984D01*
X22271372Y-11258984D02*
X22223753Y-11258984D01*
X22223753Y-11258984D02*
X22204706Y-11249460D01*
X22204706Y-11249460D02*
X22195182Y-11239936D01*
X22480896Y-11058984D02*
X22442801Y-11058984D01*
X22442801Y-11058984D02*
X22423753Y-11068508D01*
X22423753Y-11068508D02*
X22414229Y-11078031D01*
X22414229Y-11078031D02*
X22395182Y-11106603D01*
X22395182Y-11106603D02*
X22385658Y-11144698D01*
X22385658Y-11144698D02*
X22385658Y-11220888D01*
X22385658Y-11220888D02*
X22395182Y-11239936D01*
X22395182Y-11239936D02*
X22404706Y-11249460D01*
X22404706Y-11249460D02*
X22423753Y-11258984D01*
X22423753Y-11258984D02*
X22461848Y-11258984D01*
X22461848Y-11258984D02*
X22480896Y-11249460D01*
X22480896Y-11249460D02*
X22490420Y-11239936D01*
X22490420Y-11239936D02*
X22499944Y-11220888D01*
X22499944Y-11220888D02*
X22499944Y-11173270D01*
X22499944Y-11173270D02*
X22490420Y-11154222D01*
X22490420Y-11154222D02*
X22480896Y-11144698D01*
X22480896Y-11144698D02*
X22461848Y-11135174D01*
X22461848Y-11135174D02*
X22423753Y-11135174D01*
X22423753Y-11135174D02*
X22404706Y-11144698D01*
X22404706Y-11144698D02*
X22395182Y-11154222D01*
X22395182Y-11154222D02*
X22385658Y-11173270D01*
X22576134Y-11058984D02*
X22576134Y-11097079D01*
X22652325Y-11058984D02*
X22652325Y-11097079D01*
X22947563Y-11335174D02*
X22938039Y-11325650D01*
X22938039Y-11325650D02*
X22918991Y-11297079D01*
X22918991Y-11297079D02*
X22909468Y-11278031D01*
X22909468Y-11278031D02*
X22899944Y-11249460D01*
X22899944Y-11249460D02*
X22890420Y-11201841D01*
X22890420Y-11201841D02*
X22890420Y-11163746D01*
X22890420Y-11163746D02*
X22899944Y-11116127D01*
X22899944Y-11116127D02*
X22909468Y-11087555D01*
X22909468Y-11087555D02*
X22918991Y-11068508D01*
X22918991Y-11068508D02*
X22938039Y-11039936D01*
X22938039Y-11039936D02*
X22947563Y-11030412D01*
X23014229Y-11078031D02*
X23023753Y-11068508D01*
X23023753Y-11068508D02*
X23042801Y-11058984D01*
X23042801Y-11058984D02*
X23090420Y-11058984D01*
X23090420Y-11058984D02*
X23109468Y-11068508D01*
X23109468Y-11068508D02*
X23118991Y-11078031D01*
X23118991Y-11078031D02*
X23128515Y-11097079D01*
X23128515Y-11097079D02*
X23128515Y-11116127D01*
X23128515Y-11116127D02*
X23118991Y-11144698D01*
X23118991Y-11144698D02*
X23004706Y-11258984D01*
X23004706Y-11258984D02*
X23128515Y-11258984D01*
X23366610Y-11258984D02*
X23366610Y-11058984D01*
X23452325Y-11258984D02*
X23452325Y-11154222D01*
X23452325Y-11154222D02*
X23442801Y-11135174D01*
X23442801Y-11135174D02*
X23423753Y-11125650D01*
X23423753Y-11125650D02*
X23395182Y-11125650D01*
X23395182Y-11125650D02*
X23376134Y-11135174D01*
X23376134Y-11135174D02*
X23366610Y-11144698D01*
X23576134Y-11258984D02*
X23557087Y-11249460D01*
X23557087Y-11249460D02*
X23547563Y-11239936D01*
X23547563Y-11239936D02*
X23538039Y-11220888D01*
X23538039Y-11220888D02*
X23538039Y-11163746D01*
X23538039Y-11163746D02*
X23547563Y-11144698D01*
X23547563Y-11144698D02*
X23557087Y-11135174D01*
X23557087Y-11135174D02*
X23576134Y-11125650D01*
X23576134Y-11125650D02*
X23604706Y-11125650D01*
X23604706Y-11125650D02*
X23623753Y-11135174D01*
X23623753Y-11135174D02*
X23633277Y-11144698D01*
X23633277Y-11144698D02*
X23642801Y-11163746D01*
X23642801Y-11163746D02*
X23642801Y-11220888D01*
X23642801Y-11220888D02*
X23633277Y-11239936D01*
X23633277Y-11239936D02*
X23623753Y-11249460D01*
X23623753Y-11249460D02*
X23604706Y-11258984D01*
X23604706Y-11258984D02*
X23576134Y-11258984D01*
X23757087Y-11258984D02*
X23738039Y-11249460D01*
X23738039Y-11249460D02*
X23728515Y-11230412D01*
X23728515Y-11230412D02*
X23728515Y-11058984D01*
X23909468Y-11249460D02*
X23890420Y-11258984D01*
X23890420Y-11258984D02*
X23852325Y-11258984D01*
X23852325Y-11258984D02*
X23833277Y-11249460D01*
X23833277Y-11249460D02*
X23823753Y-11230412D01*
X23823753Y-11230412D02*
X23823753Y-11154222D01*
X23823753Y-11154222D02*
X23833277Y-11135174D01*
X23833277Y-11135174D02*
X23852325Y-11125650D01*
X23852325Y-11125650D02*
X23890420Y-11125650D01*
X23890420Y-11125650D02*
X23909468Y-11135174D01*
X23909468Y-11135174D02*
X23918991Y-11154222D01*
X23918991Y-11154222D02*
X23918991Y-11173270D01*
X23918991Y-11173270D02*
X23823753Y-11192317D01*
X23995182Y-11249460D02*
X24014230Y-11258984D01*
X24014230Y-11258984D02*
X24052325Y-11258984D01*
X24052325Y-11258984D02*
X24071372Y-11249460D01*
X24071372Y-11249460D02*
X24080896Y-11230412D01*
X24080896Y-11230412D02*
X24080896Y-11220888D01*
X24080896Y-11220888D02*
X24071372Y-11201841D01*
X24071372Y-11201841D02*
X24052325Y-11192317D01*
X24052325Y-11192317D02*
X24023753Y-11192317D01*
X24023753Y-11192317D02*
X24004706Y-11182793D01*
X24004706Y-11182793D02*
X23995182Y-11163746D01*
X23995182Y-11163746D02*
X23995182Y-11154222D01*
X23995182Y-11154222D02*
X24004706Y-11135174D01*
X24004706Y-11135174D02*
X24023753Y-11125650D01*
X24023753Y-11125650D02*
X24052325Y-11125650D01*
X24052325Y-11125650D02*
X24071372Y-11135174D01*
X24147563Y-11335174D02*
X24157087Y-11325650D01*
X24157087Y-11325650D02*
X24176134Y-11297079D01*
X24176134Y-11297079D02*
X24185658Y-11278031D01*
X24185658Y-11278031D02*
X24195182Y-11249460D01*
X24195182Y-11249460D02*
X24204706Y-11201841D01*
X24204706Y-11201841D02*
X24204706Y-11163746D01*
X24204706Y-11163746D02*
X24195182Y-11116127D01*
X24195182Y-11116127D02*
X24185658Y-11087555D01*
X24185658Y-11087555D02*
X24176134Y-11068508D01*
X24176134Y-11068508D02*
X24157087Y-11039936D01*
X24157087Y-11039936D02*
X24147563Y-11030412D01*
X24509468Y-11335174D02*
X24499944Y-11325650D01*
X24499944Y-11325650D02*
X24480896Y-11297079D01*
X24480896Y-11297079D02*
X24471372Y-11278031D01*
X24471372Y-11278031D02*
X24461849Y-11249460D01*
X24461849Y-11249460D02*
X24452325Y-11201841D01*
X24452325Y-11201841D02*
X24452325Y-11163746D01*
X24452325Y-11163746D02*
X24461849Y-11116127D01*
X24461849Y-11116127D02*
X24471372Y-11087555D01*
X24471372Y-11087555D02*
X24480896Y-11068508D01*
X24480896Y-11068508D02*
X24499944Y-11039936D01*
X24499944Y-11039936D02*
X24509468Y-11030412D01*
X24585658Y-11125650D02*
X24585658Y-11258984D01*
X24585658Y-11144698D02*
X24595182Y-11135174D01*
X24595182Y-11135174D02*
X24614230Y-11125650D01*
X24614230Y-11125650D02*
X24642801Y-11125650D01*
X24642801Y-11125650D02*
X24661849Y-11135174D01*
X24661849Y-11135174D02*
X24671372Y-11154222D01*
X24671372Y-11154222D02*
X24671372Y-11258984D01*
X24795182Y-11258984D02*
X24776134Y-11249460D01*
X24776134Y-11249460D02*
X24766611Y-11239936D01*
X24766611Y-11239936D02*
X24757087Y-11220888D01*
X24757087Y-11220888D02*
X24757087Y-11163746D01*
X24757087Y-11163746D02*
X24766611Y-11144698D01*
X24766611Y-11144698D02*
X24776134Y-11135174D01*
X24776134Y-11135174D02*
X24795182Y-11125650D01*
X24795182Y-11125650D02*
X24823753Y-11125650D01*
X24823753Y-11125650D02*
X24842801Y-11135174D01*
X24842801Y-11135174D02*
X24852325Y-11144698D01*
X24852325Y-11144698D02*
X24861849Y-11163746D01*
X24861849Y-11163746D02*
X24861849Y-11220888D01*
X24861849Y-11220888D02*
X24852325Y-11239936D01*
X24852325Y-11239936D02*
X24842801Y-11249460D01*
X24842801Y-11249460D02*
X24823753Y-11258984D01*
X24823753Y-11258984D02*
X24795182Y-11258984D01*
X24918992Y-11125650D02*
X24995182Y-11125650D01*
X24947563Y-11058984D02*
X24947563Y-11230412D01*
X24947563Y-11230412D02*
X24957087Y-11249460D01*
X24957087Y-11249460D02*
X24976134Y-11258984D01*
X24976134Y-11258984D02*
X24995182Y-11258984D01*
X25214230Y-11125650D02*
X25214230Y-11325650D01*
X25214230Y-11135174D02*
X25233277Y-11125650D01*
X25233277Y-11125650D02*
X25271373Y-11125650D01*
X25271373Y-11125650D02*
X25290420Y-11135174D01*
X25290420Y-11135174D02*
X25299944Y-11144698D01*
X25299944Y-11144698D02*
X25309468Y-11163746D01*
X25309468Y-11163746D02*
X25309468Y-11220888D01*
X25309468Y-11220888D02*
X25299944Y-11239936D01*
X25299944Y-11239936D02*
X25290420Y-11249460D01*
X25290420Y-11249460D02*
X25271373Y-11258984D01*
X25271373Y-11258984D02*
X25233277Y-11258984D01*
X25233277Y-11258984D02*
X25214230Y-11249460D01*
X25423753Y-11258984D02*
X25404706Y-11249460D01*
X25404706Y-11249460D02*
X25395182Y-11230412D01*
X25395182Y-11230412D02*
X25395182Y-11058984D01*
X25585658Y-11258984D02*
X25585658Y-11154222D01*
X25585658Y-11154222D02*
X25576134Y-11135174D01*
X25576134Y-11135174D02*
X25557087Y-11125650D01*
X25557087Y-11125650D02*
X25518992Y-11125650D01*
X25518992Y-11125650D02*
X25499944Y-11135174D01*
X25585658Y-11249460D02*
X25566611Y-11258984D01*
X25566611Y-11258984D02*
X25518992Y-11258984D01*
X25518992Y-11258984D02*
X25499944Y-11249460D01*
X25499944Y-11249460D02*
X25490420Y-11230412D01*
X25490420Y-11230412D02*
X25490420Y-11211365D01*
X25490420Y-11211365D02*
X25499944Y-11192317D01*
X25499944Y-11192317D02*
X25518992Y-11182793D01*
X25518992Y-11182793D02*
X25566611Y-11182793D01*
X25566611Y-11182793D02*
X25585658Y-11173270D01*
X25652325Y-11125650D02*
X25728515Y-11125650D01*
X25680896Y-11058984D02*
X25680896Y-11230412D01*
X25680896Y-11230412D02*
X25690420Y-11249460D01*
X25690420Y-11249460D02*
X25709468Y-11258984D01*
X25709468Y-11258984D02*
X25728515Y-11258984D01*
X25871373Y-11249460D02*
X25852325Y-11258984D01*
X25852325Y-11258984D02*
X25814230Y-11258984D01*
X25814230Y-11258984D02*
X25795182Y-11249460D01*
X25795182Y-11249460D02*
X25785658Y-11230412D01*
X25785658Y-11230412D02*
X25785658Y-11154222D01*
X25785658Y-11154222D02*
X25795182Y-11135174D01*
X25795182Y-11135174D02*
X25814230Y-11125650D01*
X25814230Y-11125650D02*
X25852325Y-11125650D01*
X25852325Y-11125650D02*
X25871373Y-11135174D01*
X25871373Y-11135174D02*
X25880896Y-11154222D01*
X25880896Y-11154222D02*
X25880896Y-11173270D01*
X25880896Y-11173270D02*
X25785658Y-11192317D01*
X26052325Y-11258984D02*
X26052325Y-11058984D01*
X26052325Y-11249460D02*
X26033277Y-11258984D01*
X26033277Y-11258984D02*
X25995182Y-11258984D01*
X25995182Y-11258984D02*
X25976134Y-11249460D01*
X25976134Y-11249460D02*
X25966611Y-11239936D01*
X25966611Y-11239936D02*
X25957087Y-11220888D01*
X25957087Y-11220888D02*
X25957087Y-11163746D01*
X25957087Y-11163746D02*
X25966611Y-11144698D01*
X25966611Y-11144698D02*
X25976134Y-11135174D01*
X25976134Y-11135174D02*
X25995182Y-11125650D01*
X25995182Y-11125650D02*
X26033277Y-11125650D01*
X26033277Y-11125650D02*
X26052325Y-11135174D01*
X26128515Y-11335174D02*
X26138039Y-11325650D01*
X26138039Y-11325650D02*
X26157087Y-11297079D01*
X26157087Y-11297079D02*
X26166611Y-11278031D01*
X26166611Y-11278031D02*
X26176134Y-11249460D01*
X26176134Y-11249460D02*
X26185658Y-11201841D01*
X26185658Y-11201841D02*
X26185658Y-11163746D01*
X26185658Y-11163746D02*
X26176134Y-11116127D01*
X26176134Y-11116127D02*
X26166611Y-11087555D01*
X26166611Y-11087555D02*
X26157087Y-11068508D01*
X26157087Y-11068508D02*
X26138039Y-11039936D01*
X26138039Y-11039936D02*
X26128515Y-11030412D01*
X19372500Y-11431500D02*
G75*
G02*
X19172500Y-11431500I-100000J0D01*
G01*
X19172500Y-11431500D02*
G75*
G02*
X19372500Y-11431500I100000J0D01*
G01*
X19614229Y-11322984D02*
X19738039Y-11322984D01*
X19738039Y-11322984D02*
X19671372Y-11399174D01*
X19671372Y-11399174D02*
X19699944Y-11399174D01*
X19699944Y-11399174D02*
X19718991Y-11408698D01*
X19718991Y-11408698D02*
X19728515Y-11418222D01*
X19728515Y-11418222D02*
X19738039Y-11437269D01*
X19738039Y-11437269D02*
X19738039Y-11484888D01*
X19738039Y-11484888D02*
X19728515Y-11503936D01*
X19728515Y-11503936D02*
X19718991Y-11513460D01*
X19718991Y-11513460D02*
X19699944Y-11522984D01*
X19699944Y-11522984D02*
X19642801Y-11522984D01*
X19642801Y-11522984D02*
X19623753Y-11513460D01*
X19623753Y-11513460D02*
X19614229Y-11503936D01*
X19823753Y-11503936D02*
X19833277Y-11513460D01*
X19833277Y-11513460D02*
X19823753Y-11522984D01*
X19823753Y-11522984D02*
X19814229Y-11513460D01*
X19814229Y-11513460D02*
X19823753Y-11503936D01*
X19823753Y-11503936D02*
X19823753Y-11522984D01*
X19909467Y-11342031D02*
X19918991Y-11332508D01*
X19918991Y-11332508D02*
X19938039Y-11322984D01*
X19938039Y-11322984D02*
X19985658Y-11322984D01*
X19985658Y-11322984D02*
X20004705Y-11332508D01*
X20004705Y-11332508D02*
X20014229Y-11342031D01*
X20014229Y-11342031D02*
X20023753Y-11361079D01*
X20023753Y-11361079D02*
X20023753Y-11380127D01*
X20023753Y-11380127D02*
X20014229Y-11408698D01*
X20014229Y-11408698D02*
X19899944Y-11522984D01*
X19899944Y-11522984D02*
X20023753Y-11522984D01*
X20147563Y-11322984D02*
X20166610Y-11322984D01*
X20166610Y-11322984D02*
X20185658Y-11332508D01*
X20185658Y-11332508D02*
X20195182Y-11342031D01*
X20195182Y-11342031D02*
X20204705Y-11361079D01*
X20204705Y-11361079D02*
X20214229Y-11399174D01*
X20214229Y-11399174D02*
X20214229Y-11446793D01*
X20214229Y-11446793D02*
X20204705Y-11484888D01*
X20204705Y-11484888D02*
X20195182Y-11503936D01*
X20195182Y-11503936D02*
X20185658Y-11513460D01*
X20185658Y-11513460D02*
X20166610Y-11522984D01*
X20166610Y-11522984D02*
X20147563Y-11522984D01*
X20147563Y-11522984D02*
X20128515Y-11513460D01*
X20128515Y-11513460D02*
X20118991Y-11503936D01*
X20118991Y-11503936D02*
X20109467Y-11484888D01*
X20109467Y-11484888D02*
X20099944Y-11446793D01*
X20099944Y-11446793D02*
X20099944Y-11399174D01*
X20099944Y-11399174D02*
X20109467Y-11361079D01*
X20109467Y-11361079D02*
X20118991Y-11342031D01*
X20118991Y-11342031D02*
X20128515Y-11332508D01*
X20128515Y-11332508D02*
X20147563Y-11322984D01*
X20338039Y-11322984D02*
X20357086Y-11322984D01*
X20357086Y-11322984D02*
X20376134Y-11332508D01*
X20376134Y-11332508D02*
X20385658Y-11342031D01*
X20385658Y-11342031D02*
X20395182Y-11361079D01*
X20395182Y-11361079D02*
X20404705Y-11399174D01*
X20404705Y-11399174D02*
X20404705Y-11446793D01*
X20404705Y-11446793D02*
X20395182Y-11484888D01*
X20395182Y-11484888D02*
X20385658Y-11503936D01*
X20385658Y-11503936D02*
X20376134Y-11513460D01*
X20376134Y-11513460D02*
X20357086Y-11522984D01*
X20357086Y-11522984D02*
X20338039Y-11522984D01*
X20338039Y-11522984D02*
X20318991Y-11513460D01*
X20318991Y-11513460D02*
X20309467Y-11503936D01*
X20309467Y-11503936D02*
X20299944Y-11484888D01*
X20299944Y-11484888D02*
X20290420Y-11446793D01*
X20290420Y-11446793D02*
X20290420Y-11399174D01*
X20290420Y-11399174D02*
X20299944Y-11361079D01*
X20299944Y-11361079D02*
X20309467Y-11342031D01*
X20309467Y-11342031D02*
X20318991Y-11332508D01*
X20318991Y-11332508D02*
X20338039Y-11322984D01*
X20490420Y-11522984D02*
X20490420Y-11389650D01*
X20490420Y-11408698D02*
X20499944Y-11399174D01*
X20499944Y-11399174D02*
X20518991Y-11389650D01*
X20518991Y-11389650D02*
X20547563Y-11389650D01*
X20547563Y-11389650D02*
X20566610Y-11399174D01*
X20566610Y-11399174D02*
X20576134Y-11418222D01*
X20576134Y-11418222D02*
X20576134Y-11522984D01*
X20576134Y-11418222D02*
X20585658Y-11399174D01*
X20585658Y-11399174D02*
X20604705Y-11389650D01*
X20604705Y-11389650D02*
X20633277Y-11389650D01*
X20633277Y-11389650D02*
X20652325Y-11399174D01*
X20652325Y-11399174D02*
X20661848Y-11418222D01*
X20661848Y-11418222D02*
X20661848Y-11522984D01*
X20757086Y-11522984D02*
X20757086Y-11389650D01*
X20757086Y-11408698D02*
X20766610Y-11399174D01*
X20766610Y-11399174D02*
X20785658Y-11389650D01*
X20785658Y-11389650D02*
X20814229Y-11389650D01*
X20814229Y-11389650D02*
X20833277Y-11399174D01*
X20833277Y-11399174D02*
X20842801Y-11418222D01*
X20842801Y-11418222D02*
X20842801Y-11522984D01*
X20842801Y-11418222D02*
X20852325Y-11399174D01*
X20852325Y-11399174D02*
X20871372Y-11389650D01*
X20871372Y-11389650D02*
X20899944Y-11389650D01*
X20899944Y-11389650D02*
X20918991Y-11399174D01*
X20918991Y-11399174D02*
X20928515Y-11418222D01*
X20928515Y-11418222D02*
X20928515Y-11522984D01*
X21318991Y-11313460D02*
X21147563Y-11570603D01*
X21576134Y-11322984D02*
X21595182Y-11322984D01*
X21595182Y-11322984D02*
X21614229Y-11332508D01*
X21614229Y-11332508D02*
X21623753Y-11342031D01*
X21623753Y-11342031D02*
X21633277Y-11361079D01*
X21633277Y-11361079D02*
X21642801Y-11399174D01*
X21642801Y-11399174D02*
X21642801Y-11446793D01*
X21642801Y-11446793D02*
X21633277Y-11484888D01*
X21633277Y-11484888D02*
X21623753Y-11503936D01*
X21623753Y-11503936D02*
X21614229Y-11513460D01*
X21614229Y-11513460D02*
X21595182Y-11522984D01*
X21595182Y-11522984D02*
X21576134Y-11522984D01*
X21576134Y-11522984D02*
X21557087Y-11513460D01*
X21557087Y-11513460D02*
X21547563Y-11503936D01*
X21547563Y-11503936D02*
X21538039Y-11484888D01*
X21538039Y-11484888D02*
X21528515Y-11446793D01*
X21528515Y-11446793D02*
X21528515Y-11399174D01*
X21528515Y-11399174D02*
X21538039Y-11361079D01*
X21538039Y-11361079D02*
X21547563Y-11342031D01*
X21547563Y-11342031D02*
X21557087Y-11332508D01*
X21557087Y-11332508D02*
X21576134Y-11322984D01*
X21728515Y-11503936D02*
X21738039Y-11513460D01*
X21738039Y-11513460D02*
X21728515Y-11522984D01*
X21728515Y-11522984D02*
X21718991Y-11513460D01*
X21718991Y-11513460D02*
X21728515Y-11503936D01*
X21728515Y-11503936D02*
X21728515Y-11522984D01*
X21928515Y-11522984D02*
X21814229Y-11522984D01*
X21871372Y-11522984D02*
X21871372Y-11322984D01*
X21871372Y-11322984D02*
X21852325Y-11351555D01*
X21852325Y-11351555D02*
X21833277Y-11370603D01*
X21833277Y-11370603D02*
X21814229Y-11380127D01*
X22004706Y-11342031D02*
X22014229Y-11332508D01*
X22014229Y-11332508D02*
X22033277Y-11322984D01*
X22033277Y-11322984D02*
X22080896Y-11322984D01*
X22080896Y-11322984D02*
X22099944Y-11332508D01*
X22099944Y-11332508D02*
X22109468Y-11342031D01*
X22109468Y-11342031D02*
X22118991Y-11361079D01*
X22118991Y-11361079D02*
X22118991Y-11380127D01*
X22118991Y-11380127D02*
X22109468Y-11408698D01*
X22109468Y-11408698D02*
X21995182Y-11522984D01*
X21995182Y-11522984D02*
X22118991Y-11522984D01*
X22290420Y-11322984D02*
X22252325Y-11322984D01*
X22252325Y-11322984D02*
X22233277Y-11332508D01*
X22233277Y-11332508D02*
X22223753Y-11342031D01*
X22223753Y-11342031D02*
X22204706Y-11370603D01*
X22204706Y-11370603D02*
X22195182Y-11408698D01*
X22195182Y-11408698D02*
X22195182Y-11484888D01*
X22195182Y-11484888D02*
X22204706Y-11503936D01*
X22204706Y-11503936D02*
X22214229Y-11513460D01*
X22214229Y-11513460D02*
X22233277Y-11522984D01*
X22233277Y-11522984D02*
X22271372Y-11522984D01*
X22271372Y-11522984D02*
X22290420Y-11513460D01*
X22290420Y-11513460D02*
X22299944Y-11503936D01*
X22299944Y-11503936D02*
X22309468Y-11484888D01*
X22309468Y-11484888D02*
X22309468Y-11437269D01*
X22309468Y-11437269D02*
X22299944Y-11418222D01*
X22299944Y-11418222D02*
X22290420Y-11408698D01*
X22290420Y-11408698D02*
X22271372Y-11399174D01*
X22271372Y-11399174D02*
X22233277Y-11399174D01*
X22233277Y-11399174D02*
X22214229Y-11408698D01*
X22214229Y-11408698D02*
X22204706Y-11418222D01*
X22204706Y-11418222D02*
X22195182Y-11437269D01*
X22433277Y-11322984D02*
X22452325Y-11322984D01*
X22452325Y-11322984D02*
X22471372Y-11332508D01*
X22471372Y-11332508D02*
X22480896Y-11342031D01*
X22480896Y-11342031D02*
X22490420Y-11361079D01*
X22490420Y-11361079D02*
X22499944Y-11399174D01*
X22499944Y-11399174D02*
X22499944Y-11446793D01*
X22499944Y-11446793D02*
X22490420Y-11484888D01*
X22490420Y-11484888D02*
X22480896Y-11503936D01*
X22480896Y-11503936D02*
X22471372Y-11513460D01*
X22471372Y-11513460D02*
X22452325Y-11522984D01*
X22452325Y-11522984D02*
X22433277Y-11522984D01*
X22433277Y-11522984D02*
X22414229Y-11513460D01*
X22414229Y-11513460D02*
X22404706Y-11503936D01*
X22404706Y-11503936D02*
X22395182Y-11484888D01*
X22395182Y-11484888D02*
X22385658Y-11446793D01*
X22385658Y-11446793D02*
X22385658Y-11399174D01*
X22385658Y-11399174D02*
X22395182Y-11361079D01*
X22395182Y-11361079D02*
X22404706Y-11342031D01*
X22404706Y-11342031D02*
X22414229Y-11332508D01*
X22414229Y-11332508D02*
X22433277Y-11322984D01*
X22576134Y-11322984D02*
X22576134Y-11361079D01*
X22652325Y-11322984D02*
X22652325Y-11361079D01*
X22947563Y-11599174D02*
X22938039Y-11589650D01*
X22938039Y-11589650D02*
X22918991Y-11561079D01*
X22918991Y-11561079D02*
X22909468Y-11542031D01*
X22909468Y-11542031D02*
X22899944Y-11513460D01*
X22899944Y-11513460D02*
X22890420Y-11465841D01*
X22890420Y-11465841D02*
X22890420Y-11427746D01*
X22890420Y-11427746D02*
X22899944Y-11380127D01*
X22899944Y-11380127D02*
X22909468Y-11351555D01*
X22909468Y-11351555D02*
X22918991Y-11332508D01*
X22918991Y-11332508D02*
X22938039Y-11303936D01*
X22938039Y-11303936D02*
X22947563Y-11294412D01*
X23109468Y-11389650D02*
X23109468Y-11522984D01*
X23061848Y-11313460D02*
X23014229Y-11456317D01*
X23014229Y-11456317D02*
X23138039Y-11456317D01*
X23366610Y-11522984D02*
X23366610Y-11322984D01*
X23452325Y-11522984D02*
X23452325Y-11418222D01*
X23452325Y-11418222D02*
X23442801Y-11399174D01*
X23442801Y-11399174D02*
X23423753Y-11389650D01*
X23423753Y-11389650D02*
X23395182Y-11389650D01*
X23395182Y-11389650D02*
X23376134Y-11399174D01*
X23376134Y-11399174D02*
X23366610Y-11408698D01*
X23576134Y-11522984D02*
X23557087Y-11513460D01*
X23557087Y-11513460D02*
X23547563Y-11503936D01*
X23547563Y-11503936D02*
X23538039Y-11484888D01*
X23538039Y-11484888D02*
X23538039Y-11427746D01*
X23538039Y-11427746D02*
X23547563Y-11408698D01*
X23547563Y-11408698D02*
X23557087Y-11399174D01*
X23557087Y-11399174D02*
X23576134Y-11389650D01*
X23576134Y-11389650D02*
X23604706Y-11389650D01*
X23604706Y-11389650D02*
X23623753Y-11399174D01*
X23623753Y-11399174D02*
X23633277Y-11408698D01*
X23633277Y-11408698D02*
X23642801Y-11427746D01*
X23642801Y-11427746D02*
X23642801Y-11484888D01*
X23642801Y-11484888D02*
X23633277Y-11503936D01*
X23633277Y-11503936D02*
X23623753Y-11513460D01*
X23623753Y-11513460D02*
X23604706Y-11522984D01*
X23604706Y-11522984D02*
X23576134Y-11522984D01*
X23757087Y-11522984D02*
X23738039Y-11513460D01*
X23738039Y-11513460D02*
X23728515Y-11494412D01*
X23728515Y-11494412D02*
X23728515Y-11322984D01*
X23909468Y-11513460D02*
X23890420Y-11522984D01*
X23890420Y-11522984D02*
X23852325Y-11522984D01*
X23852325Y-11522984D02*
X23833277Y-11513460D01*
X23833277Y-11513460D02*
X23823753Y-11494412D01*
X23823753Y-11494412D02*
X23823753Y-11418222D01*
X23823753Y-11418222D02*
X23833277Y-11399174D01*
X23833277Y-11399174D02*
X23852325Y-11389650D01*
X23852325Y-11389650D02*
X23890420Y-11389650D01*
X23890420Y-11389650D02*
X23909468Y-11399174D01*
X23909468Y-11399174D02*
X23918991Y-11418222D01*
X23918991Y-11418222D02*
X23918991Y-11437269D01*
X23918991Y-11437269D02*
X23823753Y-11456317D01*
X23995182Y-11513460D02*
X24014230Y-11522984D01*
X24014230Y-11522984D02*
X24052325Y-11522984D01*
X24052325Y-11522984D02*
X24071372Y-11513460D01*
X24071372Y-11513460D02*
X24080896Y-11494412D01*
X24080896Y-11494412D02*
X24080896Y-11484888D01*
X24080896Y-11484888D02*
X24071372Y-11465841D01*
X24071372Y-11465841D02*
X24052325Y-11456317D01*
X24052325Y-11456317D02*
X24023753Y-11456317D01*
X24023753Y-11456317D02*
X24004706Y-11446793D01*
X24004706Y-11446793D02*
X23995182Y-11427746D01*
X23995182Y-11427746D02*
X23995182Y-11418222D01*
X23995182Y-11418222D02*
X24004706Y-11399174D01*
X24004706Y-11399174D02*
X24023753Y-11389650D01*
X24023753Y-11389650D02*
X24052325Y-11389650D01*
X24052325Y-11389650D02*
X24071372Y-11399174D01*
X24147563Y-11599174D02*
X24157087Y-11589650D01*
X24157087Y-11589650D02*
X24176134Y-11561079D01*
X24176134Y-11561079D02*
X24185658Y-11542031D01*
X24185658Y-11542031D02*
X24195182Y-11513460D01*
X24195182Y-11513460D02*
X24204706Y-11465841D01*
X24204706Y-11465841D02*
X24204706Y-11427746D01*
X24204706Y-11427746D02*
X24195182Y-11380127D01*
X24195182Y-11380127D02*
X24185658Y-11351555D01*
X24185658Y-11351555D02*
X24176134Y-11332508D01*
X24176134Y-11332508D02*
X24157087Y-11303936D01*
X24157087Y-11303936D02*
X24147563Y-11294412D01*
X24509468Y-11599174D02*
X24499944Y-11589650D01*
X24499944Y-11589650D02*
X24480896Y-11561079D01*
X24480896Y-11561079D02*
X24471372Y-11542031D01*
X24471372Y-11542031D02*
X24461849Y-11513460D01*
X24461849Y-11513460D02*
X24452325Y-11465841D01*
X24452325Y-11465841D02*
X24452325Y-11427746D01*
X24452325Y-11427746D02*
X24461849Y-11380127D01*
X24461849Y-11380127D02*
X24471372Y-11351555D01*
X24471372Y-11351555D02*
X24480896Y-11332508D01*
X24480896Y-11332508D02*
X24499944Y-11303936D01*
X24499944Y-11303936D02*
X24509468Y-11294412D01*
X24585658Y-11389650D02*
X24585658Y-11522984D01*
X24585658Y-11408698D02*
X24595182Y-11399174D01*
X24595182Y-11399174D02*
X24614230Y-11389650D01*
X24614230Y-11389650D02*
X24642801Y-11389650D01*
X24642801Y-11389650D02*
X24661849Y-11399174D01*
X24661849Y-11399174D02*
X24671372Y-11418222D01*
X24671372Y-11418222D02*
X24671372Y-11522984D01*
X24795182Y-11522984D02*
X24776134Y-11513460D01*
X24776134Y-11513460D02*
X24766611Y-11503936D01*
X24766611Y-11503936D02*
X24757087Y-11484888D01*
X24757087Y-11484888D02*
X24757087Y-11427746D01*
X24757087Y-11427746D02*
X24766611Y-11408698D01*
X24766611Y-11408698D02*
X24776134Y-11399174D01*
X24776134Y-11399174D02*
X24795182Y-11389650D01*
X24795182Y-11389650D02*
X24823753Y-11389650D01*
X24823753Y-11389650D02*
X24842801Y-11399174D01*
X24842801Y-11399174D02*
X24852325Y-11408698D01*
X24852325Y-11408698D02*
X24861849Y-11427746D01*
X24861849Y-11427746D02*
X24861849Y-11484888D01*
X24861849Y-11484888D02*
X24852325Y-11503936D01*
X24852325Y-11503936D02*
X24842801Y-11513460D01*
X24842801Y-11513460D02*
X24823753Y-11522984D01*
X24823753Y-11522984D02*
X24795182Y-11522984D01*
X24918992Y-11389650D02*
X24995182Y-11389650D01*
X24947563Y-11322984D02*
X24947563Y-11494412D01*
X24947563Y-11494412D02*
X24957087Y-11513460D01*
X24957087Y-11513460D02*
X24976134Y-11522984D01*
X24976134Y-11522984D02*
X24995182Y-11522984D01*
X25214230Y-11389650D02*
X25214230Y-11589650D01*
X25214230Y-11399174D02*
X25233277Y-11389650D01*
X25233277Y-11389650D02*
X25271373Y-11389650D01*
X25271373Y-11389650D02*
X25290420Y-11399174D01*
X25290420Y-11399174D02*
X25299944Y-11408698D01*
X25299944Y-11408698D02*
X25309468Y-11427746D01*
X25309468Y-11427746D02*
X25309468Y-11484888D01*
X25309468Y-11484888D02*
X25299944Y-11503936D01*
X25299944Y-11503936D02*
X25290420Y-11513460D01*
X25290420Y-11513460D02*
X25271373Y-11522984D01*
X25271373Y-11522984D02*
X25233277Y-11522984D01*
X25233277Y-11522984D02*
X25214230Y-11513460D01*
X25423753Y-11522984D02*
X25404706Y-11513460D01*
X25404706Y-11513460D02*
X25395182Y-11494412D01*
X25395182Y-11494412D02*
X25395182Y-11322984D01*
X25585658Y-11522984D02*
X25585658Y-11418222D01*
X25585658Y-11418222D02*
X25576134Y-11399174D01*
X25576134Y-11399174D02*
X25557087Y-11389650D01*
X25557087Y-11389650D02*
X25518992Y-11389650D01*
X25518992Y-11389650D02*
X25499944Y-11399174D01*
X25585658Y-11513460D02*
X25566611Y-11522984D01*
X25566611Y-11522984D02*
X25518992Y-11522984D01*
X25518992Y-11522984D02*
X25499944Y-11513460D01*
X25499944Y-11513460D02*
X25490420Y-11494412D01*
X25490420Y-11494412D02*
X25490420Y-11475365D01*
X25490420Y-11475365D02*
X25499944Y-11456317D01*
X25499944Y-11456317D02*
X25518992Y-11446793D01*
X25518992Y-11446793D02*
X25566611Y-11446793D01*
X25566611Y-11446793D02*
X25585658Y-11437269D01*
X25652325Y-11389650D02*
X25728515Y-11389650D01*
X25680896Y-11322984D02*
X25680896Y-11494412D01*
X25680896Y-11494412D02*
X25690420Y-11513460D01*
X25690420Y-11513460D02*
X25709468Y-11522984D01*
X25709468Y-11522984D02*
X25728515Y-11522984D01*
X25871373Y-11513460D02*
X25852325Y-11522984D01*
X25852325Y-11522984D02*
X25814230Y-11522984D01*
X25814230Y-11522984D02*
X25795182Y-11513460D01*
X25795182Y-11513460D02*
X25785658Y-11494412D01*
X25785658Y-11494412D02*
X25785658Y-11418222D01*
X25785658Y-11418222D02*
X25795182Y-11399174D01*
X25795182Y-11399174D02*
X25814230Y-11389650D01*
X25814230Y-11389650D02*
X25852325Y-11389650D01*
X25852325Y-11389650D02*
X25871373Y-11399174D01*
X25871373Y-11399174D02*
X25880896Y-11418222D01*
X25880896Y-11418222D02*
X25880896Y-11437269D01*
X25880896Y-11437269D02*
X25785658Y-11456317D01*
X26052325Y-11522984D02*
X26052325Y-11322984D01*
X26052325Y-11513460D02*
X26033277Y-11522984D01*
X26033277Y-11522984D02*
X25995182Y-11522984D01*
X25995182Y-11522984D02*
X25976134Y-11513460D01*
X25976134Y-11513460D02*
X25966611Y-11503936D01*
X25966611Y-11503936D02*
X25957087Y-11484888D01*
X25957087Y-11484888D02*
X25957087Y-11427746D01*
X25957087Y-11427746D02*
X25966611Y-11408698D01*
X25966611Y-11408698D02*
X25976134Y-11399174D01*
X25976134Y-11399174D02*
X25995182Y-11389650D01*
X25995182Y-11389650D02*
X26033277Y-11389650D01*
X26033277Y-11389650D02*
X26052325Y-11399174D01*
X26128515Y-11599174D02*
X26138039Y-11589650D01*
X26138039Y-11589650D02*
X26157087Y-11561079D01*
X26157087Y-11561079D02*
X26166611Y-11542031D01*
X26166611Y-11542031D02*
X26176134Y-11513460D01*
X26176134Y-11513460D02*
X26185658Y-11465841D01*
X26185658Y-11465841D02*
X26185658Y-11427746D01*
X26185658Y-11427746D02*
X26176134Y-11380127D01*
X26176134Y-11380127D02*
X26166611Y-11351555D01*
X26166611Y-11351555D02*
X26157087Y-11332508D01*
X26157087Y-11332508D02*
X26138039Y-11303936D01*
X26138039Y-11303936D02*
X26128515Y-11294412D01*
M02*
