M48
; DRILL file KiCad 10.0.1 date 2026-05-17T11:52:43
; FORMAT={-:-/ absolute / metric / decimal}
; #@! TF.CreationDate,2026-05-17T11:52:43-04:00
; #@! TF.GenerationSoftware,Kicad,Pcbnew,10.0.1
; #@! TF.FileFunction,Plated,1,2,PTH
FMAT,2
METRIC
; #@! TA.AperFunction,Plated,PTH,ViaDrill
T1C0.300
; #@! TA.AperFunction,Plated,PTH,ComponentDrill
T2C0.300
; #@! TA.AperFunction,Plated,PTH,ComponentDrill
T3C0.500
; #@! TA.AperFunction,Plated,PTH,ViaDrill
T4C0.600
; #@! TA.AperFunction,Plated,PTH,ComponentDrill
T5C0.600
; #@! TA.AperFunction,Plated,PTH,ComponentDrill
T6C0.750
; #@! TA.AperFunction,Plated,PTH,ComponentDrill
T7C0.800
; #@! TA.AperFunction,Plated,PTH,ComponentDrill
T8C1.300
; #@! TA.AperFunction,Plated,PTH,ViaDrill
T9C1.500
; #@! TA.AperFunction,Plated,PTH,ComponentDrill
T10C1.500
; #@! TA.AperFunction,Plated,PTH,ComponentDrill
T11C1.524
%
G90
G05
T1
X106.119Y-54.959
X108.0Y-44.5
X108.436Y-53.34
X108.5Y-93.0
X108.636Y-56.586
X108.668Y-57.338
X108.934Y-59.406
X109.029Y-54.984
X109.325Y-54.066
X109.5Y-57.84
X109.5Y-58.84
X109.5Y-69.5
X110.063Y-55.447
X110.216Y-57.483
X110.5Y-59.84
X111.0Y-43.69
X111.0Y-53.84
X111.0Y-56.84
X111.489Y-52.319
X112.0Y-59.84
X113.0Y-56.84
X113.0Y-58.84
X113.5Y-54.34
X113.5Y-55.34
X113.5Y-59.34
X113.9Y-80.305
X114.319Y-52.346
X114.5Y-58.34
X114.5Y-60.34
X115.5Y-60.0
X116.0Y-52.34
X116.0Y-72.0
X116.0Y-85.0
X116.47Y-54.284
X116.5Y-52.84
X116.698Y-51.642
X116.76Y-82.5
X117.0Y-58.34
X117.02Y-60.34
X117.302Y-51.038
X118.0Y-57.34
X118.5Y-54.34
X119.0Y-55.0
X119.04Y-57.34
X119.5Y-55.84
X119.5Y-60.34
X120.0Y-97.5
X120.5Y-42.84
X120.5Y-69.5
X121.667Y-38.73
X121.903Y-44.34
X121.903Y-61.5
X122.269Y-42.124
X122.5Y-41.34
X122.5Y-42.84
X123.0Y-38.84
X123.09Y-55.438
X123.09Y-56.292
X124.0Y-38.84
X124.0Y-89.5
X124.0Y-97.5
X124.5Y-59.85
X124.5Y-66.5
X125.327Y-46.302
X125.5Y-39.776
X125.931Y-45.698
X129.5Y-60.5
X130.5Y-68.5
X131.0Y-64.0
X139.0Y-82.0
X140.0Y-39.84
X140.0Y-41.34
X141.5Y-38.84
X142.5Y-60.5
X143.0Y-68.5
X143.0Y-95.5
X147.246Y-82.246
X148.0Y-50.5
X148.0Y-56.5
X149.0Y-88.5
X150.0Y-50.5
X150.5Y-45.5
X151.5Y-56.5
X151.5Y-68.5
X153.0Y-45.5
X154.0Y-80.0
X157.0Y-72.5
X157.884Y-73.581
X157.968Y-81.032
X157.968Y-88.032
X158.5Y-73.15
X158.5Y-80.5
X158.5Y-87.5
X159.484Y-72.514
X159.5Y-60.5
X160.5Y-78.5
X161.198Y-47.802
X161.675Y-73.154
X161.675Y-80.5
X161.675Y-87.5
X161.802Y-47.198
X162.323Y-73.566
X162.323Y-81.0
X162.323Y-88.017
X162.869Y-72.504
X162.974Y-78.5
X163.0Y-60.5
X164.0Y-74.0
X164.5Y-78.0
T2
X116.0Y-76.6
X116.0Y-77.7
X116.0Y-79.0
X116.0Y-80.2
X117.2Y-76.6
X117.2Y-77.7
X117.2Y-79.0
X117.2Y-80.2
T4
X122.879Y-74.5
X127.27Y-74.43
T6
X153.0Y-52.5
X153.0Y-53.76
X168.5Y-44.5
X169.76Y-44.5
T7
X145.19Y-62.19
X145.19Y-69.81
X147.73Y-62.19
X147.73Y-69.81
X150.27Y-62.19
X150.27Y-69.81
X152.81Y-62.19
X152.81Y-69.81
T8
X134.0Y-106.0
X137.5Y-106.0
X141.0Y-106.0
X145.5Y-106.0
X149.0Y-106.0
X152.5Y-106.0
X164.468Y-72.458
X164.468Y-75.958
X164.468Y-79.958
X164.468Y-83.458
X164.5Y-47.5
X164.5Y-51.0
X164.5Y-54.5
X164.5Y-59.0
X164.5Y-62.5
X164.5Y-66.0
X164.5Y-87.75
X164.5Y-91.25
T9
X111.5Y-80.0
X112.546Y-85.481
X124.5Y-82.0
X124.75Y-85.851
X129.5Y-82.0
X130.35Y-73.0
X153.5Y-86.5
T10
X110.46Y-106.0
X115.54Y-106.0
X123.46Y-106.0
X128.54Y-106.0
T11
X133.5Y-86.3
X133.5Y-98.5
X139.5Y-84.3
X145.5Y-86.3
X145.5Y-98.5
T3
X118.7Y-87.8G85X117.3Y-87.8
G05
X118.7Y-91.5G85X117.3Y-91.5
G05
X118.7Y-95.8G85X117.3Y-95.8
G05
X117.3Y-99.5G85X118.7Y-99.5
G05
X124.7Y-87.8G85X123.3Y-87.8
G05
X123.3Y-91.5G85X124.7Y-91.5
G05
X123.3Y-95.8G85X124.7Y-95.8
G05
X123.3Y-99.5G85X124.7Y-99.5
G05
X129.2Y-87.8G85X127.8Y-87.8
G05
X129.2Y-91.5G85X127.8Y-91.5
G05
X129.2Y-95.8G85X127.8Y-95.8
G05
X127.8Y-99.5G85X129.2Y-99.5
G05
T5
X102.725Y-53.02G85X102.125Y-53.02
G05
X102.725Y-61.66G85X102.125Y-61.66
G05
X107.155Y-53.02G85X106.055Y-53.02
G05
X107.155Y-61.66G85X106.055Y-61.66
G05
M30
