%TF.GenerationSoftware,KiCad,Pcbnew,10.0.1*%
%TF.CreationDate,2026-09-28T21:49:42-04:00*%
%TF.ProjectId,MarineBoard,4d617269-6e65-4426-9f61-72642e6b6963,rev?*%
%TF.SameCoordinates,Original*%
%TF.FileFunction,Paste,Top*%
%TF.FilePolarity,Positive*%
%FSLAX46Y46*%
G04 Gerber Fmt 4.6, Leading zero omitted, Abs format (unit mm)*
G04 Created by KiCad (PCBNEW 10.0.1) date 2026-09-28 21:49:42*
%MOMM*%
%LPD*%
G01*
G04 APERTURE LIST*
G04 Aperture macros list*
%AMRoundRect*
0 Rectangle with rounded corners*
0 $1 Rounding radius*
0 $2 $3 $4 $5 $6 $7 $8 $9 X,Y pos of 4 corners*
0 Add a 4 corners polygon primitive as box body*
4,1,4,$2,$3,$4,$5,$6,$7,$8,$9,$2,$3,0*
0 Add four circle primitives for the rounded corners*
1,1,$1+$1,$2,$3*
1,1,$1+$1,$4,$5*
1,1,$1+$1,$6,$7*
1,1,$1+$1,$8,$9*
0 Add four rect primitives between the rounded corners*
20,1,$1+$1,$2,$3,$4,$5,0*
20,1,$1+$1,$4,$5,$6,$7,0*
20,1,$1+$1,$6,$7,$8,$9,0*
20,1,$1+$1,$8,$9,$2,$3,0*%
G04 Aperture macros list end*
%ADD10RoundRect,0.135000X0.135000X0.185000X-0.135000X0.185000X-0.135000X-0.185000X0.135000X-0.185000X0*%
%ADD11RoundRect,0.150000X0.150000X-0.587500X0.150000X0.587500X-0.150000X0.587500X-0.150000X-0.587500X0*%
%ADD12RoundRect,0.250000X0.900000X-1.000000X0.900000X1.000000X-0.900000X1.000000X-0.900000X-1.000000X0*%
%ADD13RoundRect,0.140000X-0.170000X0.140000X-0.170000X-0.140000X0.170000X-0.140000X0.170000X0.140000X0*%
%ADD14RoundRect,0.250000X-0.650000X0.325000X-0.650000X-0.325000X0.650000X-0.325000X0.650000X0.325000X0*%
%ADD15RoundRect,0.135000X-0.135000X-0.185000X0.135000X-0.185000X0.135000X0.185000X-0.135000X0.185000X0*%
%ADD16RoundRect,0.075000X-0.650000X-0.075000X0.650000X-0.075000X0.650000X0.075000X-0.650000X0.075000X0*%
%ADD17RoundRect,0.250000X0.262500X0.450000X-0.262500X0.450000X-0.262500X-0.450000X0.262500X-0.450000X0*%
%ADD18RoundRect,0.250000X-0.375000X-0.850000X0.375000X-0.850000X0.375000X0.850000X-0.375000X0.850000X0*%
%ADD19RoundRect,0.250000X1.000000X0.650000X-1.000000X0.650000X-1.000000X-0.650000X1.000000X-0.650000X0*%
%ADD20RoundRect,0.250000X-0.300000X-0.300000X0.300000X-0.300000X0.300000X0.300000X-0.300000X0.300000X0*%
%ADD21R,1.000000X0.750000*%
%ADD22RoundRect,0.250000X0.362500X1.425000X-0.362500X1.425000X-0.362500X-1.425000X0.362500X-1.425000X0*%
%ADD23RoundRect,0.140000X0.140000X0.170000X-0.140000X0.170000X-0.140000X-0.170000X0.140000X-0.170000X0*%
%ADD24RoundRect,0.150000X-0.825000X-0.150000X0.825000X-0.150000X0.825000X0.150000X-0.825000X0.150000X0*%
%ADD25RoundRect,0.218750X0.381250X-0.218750X0.381250X0.218750X-0.381250X0.218750X-0.381250X-0.218750X0*%
%ADD26RoundRect,0.140000X-0.140000X-0.170000X0.140000X-0.170000X0.140000X0.170000X-0.140000X0.170000X0*%
%ADD27R,1.000000X1.800000*%
%ADD28RoundRect,0.250000X0.650000X-1.000000X0.650000X1.000000X-0.650000X1.000000X-0.650000X-1.000000X0*%
%ADD29RoundRect,0.140000X0.170000X-0.140000X0.170000X0.140000X-0.170000X0.140000X-0.170000X-0.140000X0*%
%ADD30RoundRect,0.150000X0.512500X0.150000X-0.512500X0.150000X-0.512500X-0.150000X0.512500X-0.150000X0*%
%ADD31RoundRect,0.218750X0.218750X0.256250X-0.218750X0.256250X-0.218750X-0.256250X0.218750X-0.256250X0*%
%ADD32R,2.600000X1.420000*%
%ADD33R,1.550000X0.600000*%
%ADD34R,2.600000X3.100000*%
%ADD35RoundRect,0.218750X-0.218750X-0.256250X0.218750X-0.256250X0.218750X0.256250X-0.218750X0.256250X0*%
%ADD36RoundRect,0.150000X0.150000X0.200000X-0.150000X0.200000X-0.150000X-0.200000X0.150000X-0.200000X0*%
%ADD37R,4.000000X1.700000*%
%ADD38R,8.500000X10.400000*%
%ADD39R,0.450000X1.100000*%
%ADD40R,4.000000X2.300000*%
%ADD41RoundRect,0.150000X-0.500000X0.150000X-0.500000X-0.150000X0.500000X-0.150000X0.500000X0.150000X0*%
%ADD42RoundRect,0.075000X-0.575000X0.075000X-0.575000X-0.075000X0.575000X-0.075000X0.575000X0.075000X0*%
%ADD43RoundRect,0.250000X0.650000X-0.325000X0.650000X0.325000X-0.650000X0.325000X-0.650000X-0.325000X0*%
%ADD44R,3.500000X1.200000*%
%ADD45RoundRect,0.250000X-0.262500X-0.450000X0.262500X-0.450000X0.262500X0.450000X-0.262500X0.450000X0*%
%ADD46RoundRect,0.135000X-0.185000X0.135000X-0.185000X-0.135000X0.185000X-0.135000X0.185000X0.135000X0*%
%ADD47R,3.320000X2.120000*%
%ADD48R,1.800000X3.700000*%
%ADD49R,10.608000X8.400000*%
%ADD50R,0.600000X1.550000*%
%ADD51R,1.200000X1.800000*%
%ADD52R,1.420000X2.600000*%
%ADD53R,1.500000X0.900000*%
%ADD54R,0.900000X1.500000*%
%ADD55R,1.000000X1.000000*%
%ADD56RoundRect,0.200000X0.200000X0.275000X-0.200000X0.275000X-0.200000X-0.275000X0.200000X-0.275000X0*%
G04 APERTURE END LIST*
D10*
%TO.C,R34*%
X254095000Y-68250000D03*
X253075000Y-68250000D03*
%TD*%
D11*
%TO.C,D10*%
X266850000Y-48750000D03*
X268750000Y-48750000D03*
X267800000Y-46875000D03*
%TD*%
D12*
%TO.C,D22*%
X221825000Y-64150000D03*
X221825000Y-59850000D03*
%TD*%
D13*
%TO.C,C24*%
X234000000Y-45540000D03*
X234000000Y-46500000D03*
%TD*%
%TO.C,C8*%
X210000000Y-46750000D03*
X210000000Y-47710000D03*
%TD*%
D14*
%TO.C,C16*%
X216000000Y-87925000D03*
X216000000Y-90875000D03*
%TD*%
D15*
%TO.C,R12*%
X226500000Y-87375000D03*
X227520000Y-87375000D03*
%TD*%
D16*
%TO.C,U18*%
X264100000Y-68520000D03*
X264100000Y-69020000D03*
X264100000Y-69520000D03*
X264100000Y-70020000D03*
X264100000Y-70520000D03*
X268500000Y-70520000D03*
X268500000Y-70020000D03*
X268500000Y-69520000D03*
X268500000Y-69020000D03*
X268500000Y-68520000D03*
%TD*%
D17*
%TO.C,R50*%
X252550000Y-78500000D03*
X250725000Y-78500000D03*
%TD*%
D15*
%TO.C,R33*%
X251055000Y-68250000D03*
X252075000Y-68250000D03*
%TD*%
D18*
%TO.C,L1*%
X215750000Y-48500000D03*
X217900000Y-48500000D03*
%TD*%
D19*
%TO.C,D1*%
X212500000Y-54750000D03*
X208500000Y-54750000D03*
%TD*%
D10*
%TO.C,R32*%
X249225000Y-79000000D03*
X248205000Y-79000000D03*
%TD*%
D20*
%TO.C,D7*%
X222450000Y-95240000D03*
X225250000Y-95240000D03*
%TD*%
D21*
%TO.C,Reset1*%
X241365819Y-71034688D03*
X235365819Y-71034688D03*
X241365819Y-67284688D03*
X235365819Y-67284688D03*
%TD*%
D22*
%TO.C,R46*%
X216750000Y-60250000D03*
X210825000Y-60250000D03*
%TD*%
D23*
%TO.C,C6*%
X208750000Y-49750000D03*
X207790000Y-49750000D03*
%TD*%
D24*
%TO.C,U11*%
X259800000Y-49920000D03*
X259800000Y-51190000D03*
X259800000Y-52460000D03*
X259800000Y-53730000D03*
X264750000Y-53730000D03*
X264750000Y-52460000D03*
X264750000Y-51190000D03*
X264750000Y-49920000D03*
%TD*%
D25*
%TO.C,L6*%
X237950000Y-80000000D03*
X237950000Y-77875000D03*
%TD*%
D26*
%TO.C,C4*%
X212750000Y-46500000D03*
X213710000Y-46500000D03*
%TD*%
D27*
%TO.C,BUZZER1*%
X259437500Y-68200000D03*
X255937500Y-68200000D03*
%TD*%
D28*
%TO.C,D4*%
X223000000Y-86375000D03*
X223000000Y-82375000D03*
%TD*%
D29*
%TO.C,C33*%
X254800000Y-85750000D03*
X254800000Y-84790000D03*
%TD*%
D30*
%TO.C,U1*%
X213775000Y-49750000D03*
X213775000Y-48800000D03*
X213775000Y-47850000D03*
X211500000Y-47850000D03*
X211500000Y-49750000D03*
%TD*%
D31*
%TO.C,D17*%
X253612500Y-69500000D03*
X252037500Y-69500000D03*
%TD*%
D15*
%TO.C,R10*%
X228500000Y-87375000D03*
X229520000Y-87375000D03*
%TD*%
D32*
%TO.C,U16*%
X252250000Y-83520000D03*
X252250000Y-80980000D03*
X243350000Y-80980000D03*
X243350000Y-83520000D03*
%TD*%
D33*
%TO.C,U3*%
X227950000Y-92780000D03*
X227950000Y-91510000D03*
X227950000Y-90240000D03*
X227950000Y-88970000D03*
X222550000Y-88970000D03*
X222550000Y-90240000D03*
X222550000Y-91510000D03*
X222550000Y-92780000D03*
D34*
X225250000Y-90875000D03*
%TD*%
D22*
%TO.C,R16*%
X208287500Y-62000000D03*
X202362500Y-62000000D03*
%TD*%
D35*
%TO.C,D16*%
X252000000Y-67000000D03*
X253575000Y-67000000D03*
%TD*%
D17*
%TO.C,R8*%
X212575000Y-51750000D03*
X210750000Y-51750000D03*
%TD*%
D36*
%TO.C,D12*%
X201825000Y-67230000D03*
X203225000Y-67230000D03*
%TD*%
D10*
%TO.C,R26*%
X209345000Y-64980000D03*
X208325000Y-64980000D03*
%TD*%
D37*
%TO.C,D8*%
X256775000Y-93290000D03*
D38*
X246075000Y-90750000D03*
D37*
X256775000Y-88210000D03*
%TD*%
D17*
%TO.C,R23*%
X208825000Y-67480000D03*
X207000000Y-67480000D03*
%TD*%
D39*
%TO.C,U23*%
X255965000Y-83107500D03*
X257235000Y-83107500D03*
X258505000Y-83107500D03*
X259775000Y-83107500D03*
X259775000Y-77507500D03*
X258505000Y-77507500D03*
X257235000Y-77507500D03*
X255965000Y-77507500D03*
D40*
X257865000Y-80307500D03*
%TD*%
D41*
%TO.C,J1*%
X202500000Y-47700000D03*
X202500000Y-48500000D03*
D42*
X202500000Y-49650000D03*
X202500000Y-50650000D03*
X202500000Y-51150000D03*
X202500000Y-52150000D03*
D41*
X202500000Y-53300000D03*
X202500000Y-54100000D03*
X202500000Y-54100000D03*
X202500000Y-53300000D03*
D42*
X202500000Y-52650000D03*
X202500000Y-51650000D03*
X202500000Y-50150000D03*
X202500000Y-49150000D03*
D41*
X202500000Y-48500000D03*
X202500000Y-47700000D03*
%TD*%
D43*
%TO.C,C17*%
X218500000Y-90875000D03*
X218500000Y-87925000D03*
%TD*%
D29*
%TO.C,C25*%
X233000000Y-46500000D03*
X233000000Y-45540000D03*
%TD*%
D44*
%TO.C,C20*%
X235090000Y-80875000D03*
X229750000Y-80875000D03*
%TD*%
D45*
%TO.C,R14*%
X202075000Y-59000000D03*
X203900000Y-59000000D03*
%TD*%
D46*
%TO.C,R48*%
X230075000Y-57990000D03*
X230075000Y-59010000D03*
%TD*%
D47*
%TO.C,L5*%
X235200000Y-97250000D03*
X235200000Y-87490000D03*
%TD*%
D29*
%TO.C,C18*%
X228200000Y-96375000D03*
X228200000Y-95415000D03*
%TD*%
D15*
%TO.C,R22*%
X201825000Y-65980000D03*
X202845000Y-65980000D03*
%TD*%
D29*
%TO.C,C3*%
X218250000Y-46500000D03*
X218250000Y-45540000D03*
%TD*%
D26*
%TO.C,C23*%
X226520000Y-86125000D03*
X227480000Y-86125000D03*
%TD*%
D15*
%TO.C,R29*%
X248205000Y-78000000D03*
X249225000Y-78000000D03*
%TD*%
D17*
%TO.C,R21*%
X264825000Y-47750000D03*
X263000000Y-47750000D03*
%TD*%
D10*
%TO.C,R40*%
X265250000Y-81750000D03*
X264230000Y-81750000D03*
%TD*%
%TO.C,R3*%
X216270000Y-50500000D03*
X215250000Y-50500000D03*
%TD*%
D48*
%TO.C,Q4*%
X267290000Y-83110000D03*
D49*
X264750000Y-93750000D03*
D48*
X262210000Y-83110000D03*
%TD*%
D21*
%TO.C,Flash1*%
X249500000Y-71125000D03*
X243500000Y-71125000D03*
X249500000Y-67375000D03*
X243500000Y-67375000D03*
%TD*%
D50*
%TO.C,CN3*%
X256750000Y-60070000D03*
X257750000Y-60070000D03*
X258750000Y-60070000D03*
X259750000Y-60070000D03*
D51*
X261050000Y-63950000D03*
X255450000Y-63950000D03*
%TD*%
D13*
%TO.C,C36*%
X259550000Y-84790000D03*
X259550000Y-85750000D03*
%TD*%
D52*
%TO.C,U21*%
X225805000Y-67200000D03*
X228345000Y-67200000D03*
X228345000Y-58300000D03*
X225805000Y-58300000D03*
%TD*%
D53*
%TO.C,U8*%
X235860000Y-45650000D03*
X235860000Y-46920000D03*
X235860000Y-48190000D03*
X235860000Y-49460000D03*
X235860000Y-50730000D03*
X235860000Y-52000000D03*
X235860000Y-53270000D03*
X235860000Y-54540000D03*
X235860000Y-55810000D03*
X235860000Y-57080000D03*
X235860000Y-58350000D03*
X235860000Y-59620000D03*
X235860000Y-60890000D03*
X235860000Y-62160000D03*
D54*
X237625000Y-63410000D03*
X238895000Y-63410000D03*
X240165000Y-63410000D03*
X241435000Y-63410000D03*
X242705000Y-63410000D03*
X243975000Y-63410000D03*
X245245000Y-63410000D03*
X246515000Y-63410000D03*
X247785000Y-63410000D03*
X249055000Y-63410000D03*
X250325000Y-63410000D03*
X251595000Y-63410000D03*
D53*
X253360000Y-62160000D03*
X253360000Y-60890000D03*
X253360000Y-59620000D03*
X253360000Y-58350000D03*
X253360000Y-57080000D03*
X253360000Y-55810000D03*
X253360000Y-54540000D03*
X253360000Y-53270000D03*
X253360000Y-52000000D03*
X253360000Y-50730000D03*
X253360000Y-49460000D03*
X253360000Y-48190000D03*
X253360000Y-46920000D03*
X253360000Y-45650000D03*
D55*
X241750000Y-49500000D03*
X241750000Y-51000000D03*
X241750000Y-52500000D03*
X243250000Y-49500000D03*
X243250000Y-51000000D03*
X243250000Y-52500000D03*
X244750000Y-49500000D03*
X244750000Y-51000000D03*
X244750000Y-52500000D03*
%TD*%
D16*
%TO.C,U2*%
X263350000Y-60290000D03*
X263350000Y-60790000D03*
X263350000Y-61290000D03*
X263350000Y-61790000D03*
X263350000Y-62290000D03*
X267750000Y-62290000D03*
X267750000Y-61790000D03*
X267750000Y-61290000D03*
X267750000Y-60790000D03*
X267750000Y-60290000D03*
%TD*%
D17*
%TO.C,R4*%
X209075000Y-51750000D03*
X207250000Y-51750000D03*
%TD*%
D56*
%TO.C,R13*%
X230400000Y-86125000D03*
X228750000Y-86125000D03*
%TD*%
D16*
%TO.C,U19*%
X265050000Y-74520000D03*
X265050000Y-75020000D03*
X265050000Y-75520000D03*
X265050000Y-76020000D03*
X265050000Y-76520000D03*
X269450000Y-76520000D03*
X269450000Y-76020000D03*
X269450000Y-75520000D03*
X269450000Y-75020000D03*
X269450000Y-74520000D03*
%TD*%
D17*
%TO.C,R31*%
X258050000Y-85250000D03*
X256225000Y-85250000D03*
%TD*%
D26*
%TO.C,C22*%
X227540000Y-84875000D03*
X228500000Y-84875000D03*
%TD*%
D29*
%TO.C,C5*%
X209000000Y-47710000D03*
X209000000Y-46750000D03*
%TD*%
D26*
%TO.C,C21*%
X227500000Y-83875000D03*
X228460000Y-83875000D03*
%TD*%
M02*
