#VRML V2.0 utf8
# 3D model generated by easyeda2kicad.py (https://github.com/uPesy/easyeda2kicad.py)

Shape{
    appearance Appearance {
        material  Material 	{
            diffuseColor 0.6039215686274509 0.8 0.6039215686274509
            specularColor 0.7529411764705882 1.0 0.7529411764705882
            ambientIntensity 0.2
            transparency 0
            shininess 0.5
        }
    }
    geometry IndexedFaceSet {
        ccw TRUE
        solid FALSE
        coord DEF co Coordinate {
            point [
                -2.0669 0.1931 -2.6614, -2.0669 0.2153 -2.6639, -2.0669 0.1443 -2.8307, -2.0669 1.4567 -1.1839, -2.0669 0.0963 -2.6394, -2.0669 1.1811 -1.1839, -2.0669 -0.0193 -2.6394, -2.0669 0.9843 0.0, -2.0669 -0.0193 -2.6641, -2.0669 0.066 -2.6641, -2.0669 0.066 -2.7384, -2.0669 -0.0138 -2.7384, -2.0669 -0.0138 -2.7632, -2.0669 -0.0468 -2.8663, -2.0669 0.27 -2.8459, -2.0669 0.2865 -2.8286, -2.0669 0.3273 -2.8649, -2.0669 0.2156 -2.8663, -2.0669 0.4429 -2.8649, -2.0669 0.1657 -2.6649, -2.0669 0.1403 -2.8285, -2.0669 0.1403 -2.6758, -2.0669 -0.0468 0.0, -2.0669 0.4429 -2.6394, -2.0669 0.4126 -2.6394, -2.0669 0.2962 -2.6987, -2.0669 0.2827 -2.6774, -2.0669 0.2622 -2.6578, -2.0669 0.2408 -2.6456, -2.0669 0.3273 -2.8402, -2.0669 0.2986 -2.8075, -2.0669 0.4126 -2.8402, -2.0669 0.2156 -2.6384, -2.0669 0.1934 -2.6366, -2.0669 0.1664 -2.6385, -2.0669 0.1403 -2.6456, -2.0669 0.0963 -2.8649, -2.0669 0.1403 -2.8532, -2.0669 0.2301 -2.8648, -2.0669 0.2519 -2.8573, -2.0669 0.2322 -2.67, -2.0669 0.2478 -2.6804, -2.0669 0.2614 -2.6955, -2.0669 0.2778 -2.7546, -2.0669 0.2755 -2.779, -2.0669 0.2694 -2.7984, -2.0669 0.2192 -2.8406, -2.0669 0.1982 -2.8429, -2.0669 0.2357 -2.8345, -2.0669 0.2495 -2.8252, -2.0669 0.2601 -2.814, -2.0669 0.1682 -2.8396, -2.0669 0.3058 -2.7834, -2.0669 0.3081 -2.7564, -2.0669 0.3048 -2.7243, -2.0669 0.2707 -2.7129, -2.0669 0.2767 -2.737, -2.0669 0.066 -2.7632, -2.0669 0.066 -2.8402, -2.0669 -0.0248 -2.8402, -2.0669 -0.0248 -2.8649, -2.0669 -0.9843 0.0, -2.0669 -1.3242 -1.3133, -2.0669 -0.3521 -2.6394, -2.0669 -1.4567 -2.8663, -2.0669 -1.4567 -1.3133, -2.0669 -0.4704 -2.8649, -2.0669 -0.4374 -2.8649, -2.0669 -0.1301 -2.8649, -2.0669 -0.0688 -2.8649, -2.0669 -0.0688 -2.6394, -2.0669 -0.1324 -2.6394, -2.0669 -0.165 -2.6429, -2.0669 -0.1914 -2.6521, -2.0669 -0.216 -2.6686, -2.0669 -0.2668 -2.8649, -2.0669 -0.1846 -2.8545, -2.0669 -0.1587 -2.8624, -2.0669 -0.2391 -2.803, -2.0669 -0.2264 -2.8229, -2.0669 -0.208 -2.8407, -2.0669 -0.2998 -2.8649, -2.0669 -0.3214 -2.8017, -2.0669 -0.4145 -2.8017, -2.0669 -0.2162 -2.6688, -2.0669 -0.2322 -2.6865, -2.0669 -0.2427 -2.7062, -2.0669 -0.2488 -2.7286, -2.0669 -0.2503 -2.7493, -2.0669 -0.2472 -2.7795, -2.0669 0.1643 -2.8631, -2.0669 0.1871 -2.8663, -2.0669 -0.0468 -3.3465, -2.0669 0.1962 -2.8676, -2.0669 0.2023 -2.8677, -2.0669 1.4567 -2.8663, -2.0669 1.4567 -3.3465, -2.0669 -1.4567 -3.3465, -2.0669 -0.3823 -2.6394, -2.0669 -0.3823 -2.6394
            ]
        }
        coordIndex [
            0,1,2,-1,3,4,5,-1,5,4,6,-1,5,6,7,-1,8,9,10,-1,11,12,13,-1,14,15,16,-1,17,16,18,-1,0,2,19,-1,19,2,20,-1,19,20,21,-1,10,11,8,-1,8,11,13,-1,8,13,6,-1,6,13,22,-1,6,22,7,-1,3,23,24,-1,25,26,24,-1,24,26,27,-1,24,27,28,-1,16,15,29,-1,29,15,30,-1,29,30,31,-1,28,32,24,-1,24,32,33,-1,24,33,3,-1,3,33,34,-1,3,34,4,-1,34,35,4,-1,4,35,21,-1,4,21,36,-1,36,21,20,-1,36,20,37,-1,17,38,16,-1,16,38,39,-1,16,39,14,-1,1,40,2,-1,2,40,41,-1,2,41,42,-1,43,44,2,-1,2,44,45,-1,46,47,48,-1,48,47,49,-1,45,50,2,-1,2,50,49,-1,2,49,51,-1,51,49,47,-1,30,52,31,-1,31,52,53,-1,31,53,24,-1,24,53,54,-1,24,54,25,-1,42,55,2,-1,2,55,56,-1,2,56,43,-1,57,58,12,-1,12,58,59,-1,12,59,13,-1,13,59,60,-1,13,60,36,-1,61,22,62,-1,62,22,63,-1,64,65,62,-1,66,67,13,-1,68,69,13,-1,13,69,70,-1,13,70,22,-1,22,70,71,-1,71,72,22,-1,22,72,73,-1,22,73,63,-1,63,73,74,-1,75,76,77,-1,78,79,75,-1,75,79,80,-1,75,80,76,-1,77,68,75,-1,75,68,13,-1,75,13,81,-1,81,13,67,-1,81,67,82,-1,82,67,83,-1,74,84,63,-1,63,84,85,-1,63,85,86,-1,86,87,63,-1,63,87,88,-1,63,88,75,-1,75,88,89,-1,75,89,78,-1,37,90,36,-1,36,90,91,-1,36,91,13,-1,13,91,92,-1,91,93,92,-1,92,93,94,-1,92,94,17,-1,23,3,18,-1,18,3,95,-1,18,95,17,-1,17,95,96,-1,17,96,92,-1,92,97,13,-1,13,97,64,-1,13,64,66,-1,66,64,62,-1,66,62,98,-1,98,62,63,-1,
        ]
    }
}
Shape{
    appearance Appearance {
        material  Material 	{
            diffuseColor 0.8 0.8 0.8
            specularColor 1.0 1.0 1.0
            ambientIntensity 0.2
            transparency 0
            shininess 0.5
        }
    }
    geometry IndexedFaceSet {
        ccw TRUE
        solid FALSE
        coord DEF co Coordinate {
            point [
                1.866 -0.2561 -1.378, 1.9131 -0.1319 -1.378, 1.8662 -0.0617 -1.378, 1.9291 -0.0 -1.378, 1.8662 0.0617 -1.378, 1.9131 0.1319 -1.378, 1.8355 0.1812 -1.378, 1.866 0.2561 -1.378, 1.7761 0.2893 -1.378, 1.7905 0.3655 -1.378, 1.6916 0.3792 -1.378, 1.6911 0.4536 -1.378, 1.5875 0.4453 -1.378, 1.5734 0.5154 -1.378, 1.4702 0.4834 -1.378, 1.4444 0.5472 -1.378, 1.3471 0.4912 -1.378, 1.3115 0.5472 -1.378, 1.2259 0.468 -1.378, 1.1825 0.5154 -1.378, 1.1143 0.4155 -1.378, 1.0648 0.4536 -1.378, 1.0192 0.3369 -1.378, 0.9654 0.3655 -1.378, 0.9467 0.2371 -1.378, 0.8899 0.2561 -1.378, 0.9013 0.1224 -1.378, 0.8428 0.1319 -1.378, 0.8858 0.0 -1.378, 0.8268 0.0 -1.378, 0.9013 -0.1224 -1.378, 0.8428 -0.1319 -1.378, 0.9467 -0.2371 -1.378, 0.8899 -0.2561 -1.378, 1.0192 -0.3369 -1.378, 0.9654 -0.3655 -1.378, 1.1143 -0.4155 -1.378, 1.0648 -0.4536 -1.378, 1.2259 -0.468 -1.378, 1.1825 -0.5154 -1.378, 1.3471 -0.4912 -1.378, 1.3115 -0.5472 -1.378, 1.4702 -0.4834 -1.378, 1.4444 -0.5472 -1.378, 1.5875 -0.4453 -1.378, 1.5734 -0.5154 -1.378, 1.6916 -0.3792 -1.378, 1.6911 -0.4536 -1.378, 1.7761 -0.2893 -1.378, 1.7905 -0.3655 -1.378, 1.8355 -0.1812 -1.378, 0.4576 0.1812 -1.378, 0.4882 0.0617 -1.378, 0.488 0.2561 -1.378, 0.4882 -0.0617 -1.378, 0.5512 -0.0 -1.378, 0.5352 0.1319 -1.378, 0.3981 0.2893 -1.378, 0.4126 0.3655 -1.378, 0.3137 0.3792 -1.378, 0.3131 0.4536 -1.378, 0.2095 0.4453 -1.378, 0.1955 0.5154 -1.378, 0.0922 0.4834 -1.378, 0.0664 0.5472 -1.378, -0.0309 0.4912 -1.378, -0.0664 0.5472 -1.378, -0.1521 0.468 -1.378, -0.1955 0.5154 -1.378, -0.2637 0.4155 -1.378, -0.3131 0.4536 -1.378, -0.3587 0.3369 -1.378, -0.4126 0.3655 -1.378, -0.4313 0.2371 -1.378, -0.488 0.2561 -1.378, -0.4767 0.1224 -1.378, -0.5352 0.1319 -1.378, -0.4921 0.0 -1.378, -0.5512 0.0 -1.378, -0.4767 -0.1224 -1.378, -0.5352 -0.1319 -1.378, -0.4313 -0.2371 -1.378, -0.488 -0.2561 -1.378, -0.3587 -0.3369 -1.378, -0.4126 -0.3655 -1.378, -0.2637 -0.4155 -1.378, -0.3131 -0.4536 -1.378, -0.1521 -0.468 -1.378, -0.1955 -0.5154 -1.378, -0.0309 -0.4912 -1.378, -0.0664 -0.5472 -1.378, 0.0922 -0.4834 -1.378, 0.0664 -0.5472 -1.378, 0.2095 -0.4453 -1.378, 0.1955 -0.5154 -1.378, 0.3137 -0.3792 -1.378, 0.3131 -0.4536 -1.378, 0.3981 -0.2893 -1.378, 0.4126 -0.3655 -1.378, 0.4576 -0.1812 -1.378, 0.488 -0.2561 -1.378, 0.5352 -0.1319 -1.378, -0.8899 -0.2561 -1.378, -0.8428 -0.1319 -1.378, -0.8897 -0.0617 -1.378, -0.8268 -0.0 -1.378, -0.8897 0.0617 -1.378, -0.8428 0.1319 -1.378, -0.9204 0.1812 -1.378, -0.8899 0.2561 -1.378, -0.9798 0.2893 -1.378, -0.9654 0.3655 -1.378, -1.0643 0.3792 -1.378, -1.0648 0.4536 -1.378, -1.1684 0.4453 -1.378, -1.1825 0.5154 -1.378, -1.2857 0.4834 -1.378, -1.3115 0.5472 -1.378, -1.4089 0.4912 -1.378, -1.4444 0.5472 -1.378, -1.53 0.468 -1.378, -1.5734 0.5154 -1.378, -1.6416 0.4155 -1.378, -1.6911 0.4536 -1.378, -1.7367 0.3369 -1.378, -1.7905 0.3655 -1.378, -1.8092 0.2371 -1.378, -1.866 0.2561 -1.378, -1.8546 0.1224 -1.378, -1.9131 0.1319 -1.378, -1.8701 0.0 -1.378, -1.9291 0.0 -1.378, -1.8546 -0.1224 -1.378, -1.9131 -0.1319 -1.378, -1.8092 -0.2371 -1.378, -1.866 -0.2561 -1.378, -1.7367 -0.3369 -1.378, -1.7905 -0.3655 -1.378, -1.6416 -0.4155 -1.378, -1.6911 -0.4536 -1.378, -1.53 -0.468 -1.378, -1.5734 -0.5154 -1.378, -1.4089 -0.4912 -1.378, -1.4444 -0.5472 -1.378, -1.2857 -0.4834 -1.378, -1.3115 -0.5472 -1.378, -1.1684 -0.4453 -1.378, -1.1825 -0.5154 -1.378, -1.0643 -0.3792 -1.378, -1.0648 -0.4536 -1.378, -0.9798 -0.2893 -1.378, -0.9654 -0.3655 -1.378, -0.9204 -0.1812 -1.378, -1.1417 0.9449 -2.3622, -1.6142 0.9449 -2.3622, -1.1417 0.9449 -2.6767, -1.6142 0.9449 -2.6767, 0.2362 0.9449 -2.3622, -0.2362 0.9449 -2.3622, 0.2362 0.9449 -2.6767, -0.2362 0.9449 -2.6767, -1.9685 0.9449 -2.3622, -1.6142 0.9449 -1.8106, -1.9685 0.9449 -1.378, -1.1417 0.9449 -1.8106, -0.7874 0.9449 -1.378, -0.7874 0.9449 -2.3622, -0.5906 0.9449 -2.3622, -0.2362 0.9449 -1.8106, -0.5906 0.9449 -1.378, 0.2362 0.9449 -1.8106, 0.5906 0.9449 -1.378, 0.5906 0.9449 -2.3622, 0.5906 0.9449 -2.3622
            ]
        }
        coordIndex [
            0,1,2,-1,2,1,3,-1,2,3,4,-1,4,3,5,-1,4,5,6,-1,6,5,7,-1,6,7,8,-1,8,7,9,-1,8,9,10,-1,10,9,11,-1,10,11,12,-1,12,11,13,-1,12,13,14,-1,14,13,15,-1,14,15,16,-1,16,15,17,-1,16,17,18,-1,18,17,19,-1,18,19,20,-1,20,19,21,-1,20,21,22,-1,22,21,23,-1,22,23,24,-1,24,23,25,-1,24,25,26,-1,26,25,27,-1,26,27,28,-1,28,27,29,-1,28,29,30,-1,30,29,31,-1,30,31,32,-1,32,31,33,-1,32,33,34,-1,34,33,35,-1,34,35,36,-1,36,35,37,-1,36,37,38,-1,38,37,39,-1,38,39,40,-1,40,39,41,-1,40,41,42,-1,42,41,43,-1,42,43,44,-1,44,43,45,-1,44,45,46,-1,46,45,47,-1,46,47,48,-1,48,47,49,-1,48,49,50,-1,50,49,0,-1,50,0,2,-1,51,52,53,-1,54,55,52,-1,52,55,56,-1,52,56,53,-1,51,53,57,-1,57,53,58,-1,57,58,59,-1,59,58,60,-1,59,60,61,-1,61,60,62,-1,61,62,63,-1,63,62,64,-1,63,64,65,-1,65,64,66,-1,65,66,67,-1,67,66,68,-1,67,68,69,-1,69,68,70,-1,69,70,71,-1,71,70,72,-1,71,72,73,-1,73,72,74,-1,73,74,75,-1,75,74,76,-1,75,76,77,-1,77,76,78,-1,77,78,79,-1,79,78,80,-1,79,80,81,-1,81,80,82,-1,81,82,83,-1,83,82,84,-1,83,84,85,-1,85,84,86,-1,85,86,87,-1,87,86,88,-1,87,88,89,-1,89,88,90,-1,89,90,91,-1,91,90,92,-1,91,92,93,-1,93,92,94,-1,93,94,95,-1,95,94,96,-1,95,96,97,-1,97,96,98,-1,97,98,99,-1,99,98,100,-1,99,100,54,-1,54,100,101,-1,54,101,55,-1,102,103,104,-1,104,103,105,-1,104,105,106,-1,106,105,107,-1,106,107,108,-1,108,107,109,-1,108,109,110,-1,110,109,111,-1,110,111,112,-1,112,111,113,-1,112,113,114,-1,114,113,115,-1,114,115,116,-1,116,115,117,-1,116,117,118,-1,118,117,119,-1,118,119,120,-1,120,119,121,-1,120,121,122,-1,122,121,123,-1,122,123,124,-1,124,123,125,-1,124,125,126,-1,126,125,127,-1,126,127,128,-1,128,127,129,-1,128,129,130,-1,130,129,131,-1,130,131,132,-1,132,131,133,-1,132,133,134,-1,134,133,135,-1,134,135,136,-1,136,135,137,-1,136,137,138,-1,138,137,139,-1,138,139,140,-1,140,139,141,-1,140,141,142,-1,142,141,143,-1,142,143,144,-1,144,143,145,-1,144,145,146,-1,146,145,147,-1,146,147,148,-1,148,147,149,-1,148,149,150,-1,150,149,151,-1,150,151,152,-1,152,151,102,-1,152,102,104,-1,153,154,155,-1,155,154,156,-1,157,158,159,-1,159,158,160,-1,154,161,162,-1,162,161,163,-1,162,163,164,-1,164,163,165,-1,164,165,153,-1,153,165,166,-1,158,167,168,-1,168,167,169,-1,168,169,170,-1,170,169,171,-1,170,171,157,-1,157,171,172,-1,
        ]
    }
}
Shape{
    appearance Appearance {
        material  Material 	{
            diffuseColor 0.6039215686274509 0.8 0.6039215686274509
            specularColor 0.7529411764705882 1.0 0.7529411764705882
            ambientIntensity 0.2
            transparency 0
            shininess 0.5
        }
    }
    geometry IndexedFaceSet {
        ccw TRUE
        solid FALSE
        coord DEF co Coordinate {
            point [
                -0.7874 -1.0236 -1.378, -0.7874 -1.3189 -1.378, -1.9685 -1.0236 -1.378, -1.9685 -1.3189 -1.378, -1.0827 1.2402 -1.378, -0.7874 1.2402 -1.378, -1.0827 1.1811 -1.378, -0.7874 0.9449 -1.378, -1.6732 1.1811 -1.378, -1.9685 0.9449 -1.378, -1.6732 1.2402 -1.378, -1.9685 1.2402 -1.378, -0.7874 -1.0236 -2.3622, -0.7874 0.9449 -2.3622, -0.7874 1.2402 -3.3465, -0.7874 -1.3189 -3.3465, -1.9685 0.9449 -2.3622, -1.9685 -1.0236 -2.3622, -1.9685 -1.3189 -3.3465, -1.9685 1.2402 -3.3465, 0.5906 -1.0236 -1.378, 0.5906 -1.3189 -1.378, -0.5906 -1.0236 -1.378, -0.5906 -1.3189 -1.378, 0.2953 1.2402 -1.378, 0.5906 1.2402 -1.378, 0.2953 1.1811 -1.378, 0.5906 0.9449 -1.378, -0.2953 1.1811 -1.378, -0.5906 0.9449 -1.378, -0.2953 1.2402 -1.378, -0.5906 1.2402 -1.378, 0.5906 -1.0236 -2.3622, 0.5906 0.9449 -2.3622, 0.5906 1.2402 -3.3465, 0.5906 -1.3189 -3.3465, -0.5906 0.9449 -2.3622, -0.5906 -1.0236 -2.3622, -0.5906 -1.3189 -3.3465, -0.5906 1.2402 -3.3465, -0.5906 1.2402 -3.3465
            ]
        }
        coordIndex [
            0,1,2,-1,2,1,3,-1,4,5,6,-1,6,5,7,-1,6,7,8,-1,8,7,9,-1,8,9,10,-1,10,9,11,-1,1,0,12,-1,7,5,13,-1,13,5,14,-1,13,14,12,-1,12,14,15,-1,12,15,1,-1,11,9,16,-1,2,3,17,-1,17,3,18,-1,17,18,16,-1,16,18,19,-1,16,19,11,-1,20,21,22,-1,22,21,23,-1,24,25,26,-1,26,25,27,-1,26,27,28,-1,28,27,29,-1,28,29,30,-1,30,29,31,-1,21,20,32,-1,27,25,33,-1,33,25,34,-1,33,34,32,-1,32,34,35,-1,32,35,21,-1,31,29,36,-1,22,23,37,-1,37,23,38,-1,37,38,36,-1,36,38,39,-1,36,39,31,-1,
        ]
    }
}
Shape{
    appearance Appearance {
        material  Material 	{
            diffuseColor 0.8 0.8 0.8
            specularColor 1.0 1.0 1.0
            ambientIntensity 0.2
            transparency 0
            shininess 0.5
        }
    }
    geometry IndexedFaceSet {
        ccw TRUE
        solid FALSE
        coord DEF co Coordinate {
            point [
                1.6142 0.9449 -2.3622, 1.1417 0.9449 -2.3622, 1.6142 0.9449 -2.6767, 1.1417 0.9449 -2.6767, 0.7874 0.9449 -2.3622, 1.1417 0.9449 -1.8106, 0.7874 0.9449 -1.378, 1.6142 0.9449 -1.8106, 1.9685 0.9449 -1.378, 1.9685 0.9449 -2.3622, 1.9685 0.9449 -2.3622
            ]
        }
        coordIndex [
            0,1,2,-1,2,1,3,-1,1,4,5,-1,5,4,6,-1,5,6,7,-1,7,6,8,-1,7,8,0,-1,0,8,9,-1,
        ]
    }
}
Shape{
    appearance Appearance {
        material  Material 	{
            diffuseColor 0.6039215686274509 0.8 0.6039215686274509
            specularColor 0.7529411764705882 1.0 0.7529411764705882
            ambientIntensity 0.2
            transparency 0
            shininess 0.5
        }
    }
    geometry IndexedFaceSet {
        ccw TRUE
        solid FALSE
        coord DEF co Coordinate {
            point [
                1.9685 -1.0236 -1.378, 1.9685 -1.3189 -1.378, 0.7874 -1.0236 -1.378, 0.7874 -1.3189 -1.378, 1.6732 1.2402 -1.378, 1.9685 1.2402 -1.378, 1.6732 1.1811 -1.378, 1.9685 0.9449 -1.378, 1.0827 1.1811 -1.378, 0.7874 0.9449 -1.378, 1.0827 1.2402 -1.378, 0.7874 1.2402 -1.378, 1.9685 -1.0236 -2.3622, 1.9685 0.9449 -2.3622, 1.9685 1.2402 -3.3465, 1.9685 -1.3189 -3.3465, 0.7874 0.9449 -2.3622, 0.7874 -1.0236 -2.3622, 0.7874 -1.3189 -3.3465, 0.7874 1.2402 -3.3465, 1.0827 1.4567 -1.1839, 0.2953 1.4567 -1.1839, 1.0827 1.1811 -1.1839, 0.2953 1.1811 -1.1839, -0.2953 1.4567 -1.1839, -1.0827 1.4567 -1.1839, -0.2953 1.1811 -1.1839, -1.0827 1.1811 -1.1839, -1.6732 1.4567 -1.1839, -2.0669 1.4567 -1.1839, -1.6732 1.1811 -1.1839, -2.0669 1.1811 -1.1839, -0.8428 -0.1319 -1.378, -0.8268 -0.0 0.0, -0.8268 -0.0 -1.378, -0.8428 0.1319 0.0, -0.8428 0.1319 -1.378, -0.8899 0.2561 0.0, -0.8899 0.2561 -1.378, -0.9654 0.3655 0.0, -0.9654 0.3655 -1.378, -1.0648 0.4536 0.0, -1.0648 0.4536 -1.378, -1.1825 0.5154 0.0, -1.1825 0.5154 -1.378, -1.3115 0.5472 0.0, -1.3115 0.5472 -1.378, -1.4444 0.5472 0.0, -1.4444 0.5472 -1.378, -1.5734 0.5154 0.0, -1.5734 0.5154 -1.378, -1.6911 0.4536 0.0, -1.6911 0.4536 -1.378, -1.7905 0.3655 0.0, -1.7905 0.3655 -1.378, -1.866 0.2561 0.0, -1.866 0.2561 -1.378, -1.9131 0.1319 0.0, -1.9131 0.1319 -1.378, -1.9291 0.0 0.0, -1.9291 0.0 -1.378, -1.9131 -0.1319 0.0, -1.9131 -0.1319 -1.378, -1.866 -0.2561 0.0, -1.866 -0.2561 -1.378, -1.7905 -0.3655 0.0, -1.7905 -0.3655 -1.378, -1.6911 -0.4536 0.0, -1.6911 -0.4536 -1.378, -1.5734 -0.5154 0.0, -1.5734 -0.5154 -1.378, -1.4444 -0.5472 0.0, -1.4444 -0.5472 -1.378, -1.3115 -0.5472 0.0, -1.3115 -0.5472 -1.378, -1.1825 -0.5154 0.0, -1.1825 -0.5154 -1.378, -1.0648 -0.4536 0.0, -1.0648 -0.4536 -1.378, -0.9654 -0.3655 0.0, -0.9654 -0.3655 -1.378, -0.8899 -0.2561 0.0, -0.8899 -0.2561 -1.378, -0.8428 -0.1319 0.0, 0.5352 -0.1319 -1.378, 0.5512 -0.0 0.0, 0.5512 -0.0 -1.378, 0.5352 0.1319 0.0, 0.5352 0.1319 -1.378, 0.488 0.2561 0.0, 0.488 0.2561 -1.378, 0.4126 0.3655 0.0, 0.4126 0.3655 -1.378, 0.3131 0.4536 0.0, 0.3131 0.4536 -1.378, 0.1955 0.5154 0.0, 0.1955 0.5154 -1.378, 0.0664 0.5472 0.0, 0.0664 0.5472 -1.378, -0.0664 0.5472 0.0, -0.0664 0.5472 -1.378, -0.1955 0.5154 0.0, -0.1955 0.5154 -1.378, -0.3131 0.4536 0.0, -0.3131 0.4536 -1.378, -0.4126 0.3655 0.0, -0.4126 0.3655 -1.378, -0.488 0.2561 0.0, -0.488 0.2561 -1.378, -0.5352 0.1319 0.0, -0.5352 0.1319 -1.378, -0.5512 0.0 0.0, -0.5512 0.0 -1.378, -0.5352 -0.1319 0.0, -0.5352 -0.1319 -1.378, -0.488 -0.2561 0.0, -0.488 -0.2561 -1.378, -0.4126 -0.3655 0.0, -0.4126 -0.3655 -1.378, -0.3131 -0.4536 0.0, -0.3131 -0.4536 -1.378, -0.1955 -0.5154 0.0, -0.1955 -0.5154 -1.378, -0.0664 -0.5472 0.0, -0.0664 -0.5472 -1.378, 0.0664 -0.5472 0.0, 0.0664 -0.5472 -1.378, 0.1955 -0.5154 0.0, 0.1955 -0.5154 -1.378, 0.3131 -0.4536 0.0, 0.3131 -0.4536 -1.378, 0.4126 -0.3655 0.0, 0.4126 -0.3655 -1.378, 0.488 -0.2561 0.0, 0.488 -0.2561 -1.378, 0.5352 -0.1319 0.0, 1.9131 -0.1319 -1.378, 1.9291 -0.0 0.0, 1.9291 -0.0 -1.378, 1.9131 0.1319 0.0, 1.9131 0.1319 -1.378, 1.866 0.2561 0.0, 1.866 0.2561 -1.378, 1.7905 0.3655 0.0, 1.7905 0.3655 -1.378, 1.6911 0.4536 0.0, 1.6911 0.4536 -1.378, 1.5734 0.5154 0.0, 1.5734 0.5154 -1.378, 1.4444 0.5472 0.0, 1.4444 0.5472 -1.378, 1.3115 0.5472 0.0, 1.3115 0.5472 -1.378, 1.1825 0.5154 0.0, 1.1825 0.5154 -1.378, 1.0648 0.4536 0.0, 1.0648 0.4536 -1.378, 0.9654 0.3655 0.0, 0.9654 0.3655 -1.378, 0.8899 0.2561 0.0, 0.8899 0.2561 -1.378, 0.8428 0.1319 0.0, 0.8428 0.1319 -1.378, 0.8268 0.0 0.0, 0.8268 0.0 -1.378, 0.8428 -0.1319 0.0, 0.8428 -0.1319 -1.378, 0.8899 -0.2561 0.0, 0.8899 -0.2561 -1.378, 0.9654 -0.3655 0.0, 0.9654 -0.3655 -1.378, 1.0648 -0.4536 0.0, 1.0648 -0.4536 -1.378, 1.1825 -0.5154 0.0, 1.1825 -0.5154 -1.378, 1.3115 -0.5472 0.0, 1.3115 -0.5472 -1.378, 1.4444 -0.5472 0.0, 1.4444 -0.5472 -1.378, 1.5734 -0.5154 0.0, 1.5734 -0.5154 -1.378, 1.6911 -0.4536 0.0, 1.6911 -0.4536 -1.378, 1.7905 -0.3655 0.0, 1.7905 -0.3655 -1.378, 1.866 -0.2561 0.0, 1.866 -0.2561 -1.378, 1.9131 -0.1319 0.0, -1.0827 1.4567 -2.5591, -2.0669 1.4567 -3.3465, 0.2953 1.4567 -2.5591, 1.0827 1.4567 -2.5591, -0.2953 1.4567 -2.5591, -1.6732 1.4567 -2.5591, 1.6732 1.4567 -1.1839, 2.0669 1.4567 -1.1839, 1.6732 1.4567 -2.5591, 2.0669 1.4567 -3.3465, 2.0669 -1.3242 -1.3133, 2.0669 -1.4567 -1.3133, 2.0669 -1.4567 -3.3465, 2.0669 1.1811 -1.1839, 2.0669 0.9843 0.0, 2.0669 -0.9843 0.0, 1.752 -1.4567 -1.4961, -2.0669 -1.4567 -1.3133, 1.0039 -1.4567 -1.4961, 1.752 -1.4567 -2.6378, 1.0039 -1.4567 -2.6378, -1.0039 -1.4567 -2.6378, -1.752 -1.4567 -2.6378, -2.0669 -1.4567 -3.3465, -0.374 -1.4567 -2.6378, 0.374 -1.4567 -2.6378, 0.374 -1.4567 -1.4961, -1.752 -1.4567 -1.4961, -1.0039 -1.4567 -1.4961, -0.374 -1.4567 -1.4961, -0.7874 -1.3189 -3.3465, 0.5906 -1.3189 -3.3465, -0.5906 -1.3189 -3.3465, -0.5906 1.2402 -3.3465, -0.7874 1.2402 -3.3465, -1.9685 1.2402 -3.3465, -1.9685 -1.3189 -3.3465, 0.5906 1.2402 -3.3465, -2.0669 0.9843 0.0, -2.0669 -0.9843 0.0, 1.6732 1.1811 -1.1839, -2.0669 -1.3242 -1.3133, 1.0827 1.2402 -2.5591, 1.6732 1.2402 -2.5591, 1.0827 -1.3189 -1.5748, 1.0827 -1.3189 -2.5591, 1.6732 -1.3189 -2.5591, 1.6732 -1.3189 -1.5748, -0.2953 1.2402 -1.378, -0.5906 1.2402 -1.378, -0.2953 1.2402 -2.5591, 0.2953 1.2402 -2.5591, 0.2953 1.2402 -1.378, 0.5906 1.2402 -1.378, 0.2953 -1.3189 -2.5591, -0.2953 -1.3189 -2.5591, -0.2953 -1.3189 -1.5748, -0.5906 -1.3189 -1.378, 0.2953 -1.3189 -1.5748, 0.5906 -1.3189 -1.378, -1.6732 1.2402 -1.378, -1.9685 1.2402 -1.378, -1.6732 1.2402 -2.5591, -1.0827 1.2402 -2.5591, -1.0827 1.2402 -1.378, -0.7874 1.2402 -1.378, -1.0827 -1.3189 -2.5591, -1.6732 -1.3189 -2.5591, -1.6732 -1.3189 -1.5748, -1.9685 -1.3189 -1.378, -1.0827 -1.3189 -1.5748, -0.7874 -1.3189 -1.378, -1.6732 -1.4356 -2.5591, -1.6732 -1.4356 -1.5748, -1.0827 -1.4356 -1.5748, -1.0827 -1.4356 -2.5591, -0.2953 -1.4356 -2.5591, -0.2953 -1.4356 -1.5748, 0.2953 -1.4356 -1.5748, 0.2953 -1.4356 -2.5591, 1.0827 -1.4356 -2.5591, 1.0827 -1.4356 -1.5748, 1.6732 -1.4356 -1.5748, 1.6732 -1.4356 -2.5591, -1.0827 1.1811 -1.378, -1.6732 1.1811 -1.378, 0.2953 1.1811 -1.378, -0.2953 1.1811 -1.378, -0.2953 1.1811 -1.378
            ]
        }
        coordIndex [
            0,1,2,-1,2,1,3,-1,4,5,6,-1,6,5,7,-1,6,7,8,-1,8,7,9,-1,8,9,10,-1,10,9,11,-1,1,0,12,-1,7,5,13,-1,13,5,14,-1,13,14,12,-1,12,14,15,-1,12,15,1,-1,11,9,16,-1,2,3,17,-1,17,3,18,-1,17,18,16,-1,16,18,19,-1,16,19,11,-1,20,21,22,-1,22,21,23,-1,24,25,26,-1,26,25,27,-1,28,29,30,-1,30,29,31,-1,32,33,34,-1,34,33,35,-1,34,35,36,-1,36,35,37,-1,36,37,38,-1,38,37,39,-1,38,39,40,-1,40,39,41,-1,40,41,42,-1,42,41,43,-1,42,43,44,-1,44,43,45,-1,44,45,46,-1,46,45,47,-1,46,47,48,-1,48,47,49,-1,48,49,50,-1,50,49,51,-1,50,51,52,-1,52,51,53,-1,52,53,54,-1,54,53,55,-1,54,55,56,-1,56,55,57,-1,56,57,58,-1,58,57,59,-1,58,59,60,-1,60,59,61,-1,60,61,62,-1,62,61,63,-1,62,63,64,-1,64,63,65,-1,64,65,66,-1,66,65,67,-1,66,67,68,-1,68,67,69,-1,68,69,70,-1,70,69,71,-1,70,71,72,-1,72,71,73,-1,72,73,74,-1,74,73,75,-1,74,75,76,-1,76,75,77,-1,76,77,78,-1,78,77,79,-1,78,79,80,-1,80,79,81,-1,80,81,82,-1,82,81,83,-1,82,83,32,-1,32,83,33,-1,84,85,86,-1,86,85,87,-1,86,87,88,-1,88,87,89,-1,88,89,90,-1,90,89,91,-1,90,91,92,-1,92,91,93,-1,92,93,94,-1,94,93,95,-1,94,95,96,-1,96,95,97,-1,96,97,98,-1,98,97,99,-1,98,99,100,-1,100,99,101,-1,100,101,102,-1,102,101,103,-1,102,103,104,-1,104,103,105,-1,104,105,106,-1,106,105,107,-1,106,107,108,-1,108,107,109,-1,108,109,110,-1,110,109,111,-1,110,111,112,-1,112,111,113,-1,112,113,114,-1,114,113,115,-1,114,115,116,-1,116,115,117,-1,116,117,118,-1,118,117,119,-1,118,119,120,-1,120,119,121,-1,120,121,122,-1,122,121,123,-1,122,123,124,-1,124,123,125,-1,124,125,126,-1,126,125,127,-1,126,127,128,-1,128,127,129,-1,128,129,130,-1,130,129,131,-1,130,131,132,-1,132,131,133,-1,132,133,134,-1,134,133,135,-1,134,135,84,-1,84,135,85,-1,136,137,138,-1,138,137,139,-1,138,139,140,-1,140,139,141,-1,140,141,142,-1,142,141,143,-1,142,143,144,-1,144,143,145,-1,144,145,146,-1,146,145,147,-1,146,147,148,-1,148,147,149,-1,148,149,150,-1,150,149,151,-1,150,151,152,-1,152,151,153,-1,152,153,154,-1,154,153,155,-1,154,155,156,-1,156,155,157,-1,156,157,158,-1,158,157,159,-1,158,159,160,-1,160,159,161,-1,160,161,162,-1,162,161,163,-1,162,163,164,-1,164,163,165,-1,164,165,166,-1,166,165,167,-1,166,167,168,-1,168,167,169,-1,168,169,170,-1,170,169,171,-1,170,171,172,-1,172,171,173,-1,172,173,174,-1,174,173,175,-1,174,175,176,-1,176,175,177,-1,176,177,178,-1,178,177,179,-1,178,179,180,-1,180,179,181,-1,180,181,182,-1,182,181,183,-1,182,183,184,-1,184,183,185,-1,184,185,186,-1,186,185,187,-1,186,187,136,-1,136,187,137,-1,188,25,24,-1,189,29,28,-1,21,20,190,-1,190,20,191,-1,24,192,188,-1,188,192,189,-1,188,189,193,-1,193,189,28,-1,194,195,196,-1,196,195,197,-1,196,197,191,-1,191,197,189,-1,191,189,190,-1,190,189,192,-1,198,199,200,-1,197,195,200,-1,200,195,201,-1,200,201,198,-1,198,201,202,-1,198,202,203,-1,204,199,205,-1,204,205,206,-1,199,204,200,-1,200,204,207,-1,200,207,208,-1,209,210,211,-1,212,200,213,-1,213,200,208,-1,213,208,214,-1,211,210,205,-1,205,210,215,-1,205,215,216,-1,211,200,209,-1,209,200,212,-1,209,212,216,-1,216,212,217,-1,216,217,205,-1,205,217,214,-1,205,214,206,-1,206,214,208,-1,218,200,211,-1,219,200,220,-1,220,200,218,-1,220,218,221,-1,197,222,189,-1,189,222,223,-1,189,223,211,-1,211,223,224,-1,211,224,218,-1,218,222,221,-1,221,222,197,-1,221,197,225,-1,225,197,19,-1,225,19,219,-1,219,19,18,-1,219,18,200,-1,200,18,15,-1,200,15,197,-1,197,15,14,-1,197,14,19,-1,202,137,203,-1,203,137,187,-1,203,187,185,-1,185,183,203,-1,203,183,181,-1,203,181,179,-1,55,53,226,-1,226,53,51,-1,226,51,49,-1,63,61,227,-1,227,61,59,-1,227,59,226,-1,226,59,57,-1,226,57,55,-1,129,127,203,-1,69,67,227,-1,227,67,65,-1,227,65,63,-1,179,177,203,-1,203,177,175,-1,203,175,173,-1,167,85,169,-1,169,85,135,-1,169,135,133,-1,203,79,77,-1,226,157,155,-1,155,153,226,-1,226,153,151,-1,226,151,202,-1,202,151,149,-1,91,89,159,-1,159,89,87,-1,149,147,202,-1,202,147,145,-1,202,145,143,-1,129,203,131,-1,131,203,173,-1,131,173,133,-1,133,173,171,-1,133,171,169,-1,115,33,117,-1,117,33,83,-1,117,83,81,-1,41,105,43,-1,43,105,103,-1,115,113,33,-1,33,113,111,-1,33,111,35,-1,143,141,202,-1,202,141,139,-1,202,139,137,-1,167,165,85,-1,85,165,163,-1,85,163,87,-1,87,163,161,-1,87,161,159,-1,41,39,105,-1,105,39,37,-1,105,37,107,-1,107,37,35,-1,107,35,109,-1,109,35,111,-1,127,125,203,-1,203,125,123,-1,203,123,79,-1,79,123,121,-1,79,121,81,-1,81,121,119,-1,81,119,117,-1,77,75,203,-1,203,75,73,-1,203,73,227,-1,227,73,71,-1,227,71,69,-1,49,47,226,-1,226,47,45,-1,226,45,43,-1,103,101,43,-1,43,101,99,-1,43,99,226,-1,226,99,97,-1,226,97,157,-1,157,97,95,-1,157,95,159,-1,159,95,93,-1,159,93,91,-1,202,201,228,-1,228,22,202,-1,202,22,23,-1,202,23,226,-1,226,23,26,-1,26,27,226,-1,226,27,30,-1,226,30,31,-1,228,201,194,-1,194,201,195,-1,199,198,205,-1,205,198,229,-1,198,203,229,-1,229,203,227,-1,10,11,230,-1,230,11,19,-1,230,19,231,-1,231,19,14,-1,231,14,4,-1,4,14,5,-1,232,3,1,-1,3,232,18,-1,18,232,233,-1,18,233,15,-1,15,233,234,-1,15,234,1,-1,1,234,235,-1,1,235,232,-1,236,237,238,-1,238,237,221,-1,238,221,239,-1,239,221,225,-1,239,225,240,-1,240,225,241,-1,242,219,243,-1,243,219,220,-1,243,220,244,-1,244,220,245,-1,244,245,246,-1,246,245,247,-1,246,247,242,-1,242,247,219,-1,248,249,250,-1,250,249,223,-1,250,223,251,-1,251,223,222,-1,251,222,252,-1,252,222,253,-1,254,218,255,-1,255,218,224,-1,255,224,256,-1,256,224,257,-1,256,257,258,-1,258,257,259,-1,258,259,254,-1,254,259,218,-1,260,255,261,-1,261,255,256,-1,261,256,262,-1,262,256,258,-1,262,258,263,-1,263,258,254,-1,263,254,260,-1,260,254,255,-1,215,261,216,-1,216,261,262,-1,210,260,215,-1,215,260,261,-1,263,209,262,-1,262,209,216,-1,209,263,210,-1,210,263,260,-1,264,243,265,-1,265,243,244,-1,265,244,266,-1,266,244,246,-1,266,246,267,-1,267,246,242,-1,267,242,264,-1,264,242,243,-1,268,233,269,-1,269,233,232,-1,269,232,270,-1,270,232,235,-1,270,235,271,-1,271,235,234,-1,271,234,268,-1,268,234,233,-1,217,265,214,-1,214,265,266,-1,212,264,217,-1,217,264,265,-1,267,213,266,-1,266,213,214,-1,213,267,212,-1,212,267,264,-1,206,269,204,-1,204,269,270,-1,208,268,206,-1,206,268,269,-1,271,207,270,-1,270,207,204,-1,207,271,208,-1,208,271,268,-1,272,273,27,-1,27,273,30,-1,250,193,248,-1,248,193,28,-1,248,28,273,-1,273,28,30,-1,193,250,188,-1,188,250,251,-1,272,27,252,-1,252,27,25,-1,252,25,251,-1,251,25,188,-1,274,275,23,-1,23,275,26,-1,238,192,236,-1,236,192,24,-1,236,24,275,-1,275,24,26,-1,192,238,190,-1,190,238,239,-1,274,23,240,-1,240,23,21,-1,240,21,239,-1,239,21,190,-1,6,8,228,-1,228,8,22,-1,230,191,10,-1,10,191,20,-1,10,20,8,-1,8,20,22,-1,191,230,196,-1,196,230,231,-1,6,228,4,-1,4,228,194,-1,4,194,231,-1,231,194,196,-1,
        ]
    }
}
Shape{
    appearance Appearance {
        material  Material 	{
            diffuseColor 0.8 0.8 0.8
            specularColor 1.0 1.0 1.0
            ambientIntensity 0.2
            transparency 0
            shininess 0.5
        }
    }
    geometry IndexedFaceSet {
        ccw TRUE
        solid FALSE
        coord DEF co Coordinate {
            point [
                1.9685 0.9449 -2.3622, 1.9685 -1.0236 -2.3622, 1.6142 0.9449 -2.3622, 0.7874 -1.0236 -2.3622, 1.1417 0.9449 -2.3622, 0.7874 0.9449 -2.3622, 0.7874 -1.0236 -1.378, 1.9685 -1.0236 -1.378, 1.1417 1.1811 -2.913, 1.1417 -0.0197 -2.913, 1.1417 -0.0197 -2.6767, 1.1417 0.9449 -1.8106, 1.1417 1.1811 -1.8106, 1.1417 0.9449 -2.6767, 1.6142 1.1811 -1.8106, 1.6142 0.9449 -1.8106, 1.6142 1.1811 -2.913, 1.6142 -0.0197 -2.6767, 1.6142 -0.0197 -2.913, 1.6142 0.9449 -2.6767, 1.5551 -0.0197 -2.913, 1.5551 0.2165 -2.913, 1.2008 -0.0197 -2.913, 1.2008 0.2165 -2.913, 1.5551 -0.0197 -3.9366, 1.2008 -0.0197 -3.9366, 1.4496 -0.0197 -4.3303, 1.3063 -0.0197 -4.3303, 1.5551 0.2165 -3.9366, 1.2008 0.2165 -3.9366, 1.4496 0.2165 -4.3303, 1.3063 0.2165 -4.3303, 0.5906 0.9449 -2.3622, 0.5906 -1.0236 -2.3622, 0.2362 0.9449 -2.3622, -0.5906 -1.0236 -2.3622, -0.2362 0.9449 -2.3622, -0.5906 0.9449 -2.3622, -0.5906 -1.0236 -1.378, 0.5906 -1.0236 -1.378, -0.7874 0.9449 -2.3622, -0.7874 -1.0236 -2.3622, -1.1417 0.9449 -2.3622, -1.9685 -1.0236 -2.3622, -1.6142 0.9449 -2.3622, -1.9685 0.9449 -2.3622, -1.9685 -1.0236 -1.378, -0.7874 -1.0236 -1.378, -0.2362 1.1811 -2.913, -0.2362 -0.0197 -2.913, -0.2362 -0.0197 -2.6767, -0.2362 0.9449 -1.8106, -0.2362 1.1811 -1.8106, -0.2362 0.9449 -2.6767, 0.2362 1.1811 -1.8106, 0.2362 0.9449 -1.8106, 0.2362 1.1811 -2.913, 0.2362 -0.0197 -2.6767, 0.2362 -0.0197 -2.913, 0.2362 0.9449 -2.6767, -1.6142 1.1811 -2.913, -1.6142 -0.0197 -2.913, -1.6142 -0.0197 -2.6767, -1.6142 0.9449 -1.8106, -1.6142 1.1811 -1.8106, -1.6142 0.9449 -2.6767, -1.1417 1.1811 -1.8106, -1.1417 0.9449 -1.8106, -1.1417 1.1811 -2.913, -1.1417 -0.0197 -2.6767, -1.1417 -0.0197 -2.913, -1.1417 0.9449 -2.6767, 0.1772 -0.0197 -2.913, 0.1772 0.2165 -2.913, -0.1772 -0.0197 -2.913, -0.1772 0.2165 -2.913, -1.2008 -0.0197 -2.913, -1.2008 0.2165 -2.913, -1.5551 -0.0197 -2.913, -1.5551 0.2165 -2.913, 0.1772 -0.0197 -3.9366, -0.1772 -0.0197 -3.9366, 0.0717 -0.0197 -4.3303, -0.0717 -0.0197 -4.3303, -1.2008 -0.0197 -3.9366, -1.5551 -0.0197 -3.9366, -1.3063 -0.0197 -4.3303, -1.4496 -0.0197 -4.3303, 0.1772 0.2165 -3.9366, -0.1772 0.2165 -3.9366, 0.0717 0.2165 -4.3303, -0.0717 0.2165 -4.3303, -1.2008 0.2165 -3.9366, -1.5551 0.2165 -3.9366, -1.3063 0.2165 -4.3303, -1.4496 0.2165 -4.3303, -0.8858 0.0 -0.5906, -0.8897 -0.0617 -0.5906, -0.8897 -0.0617 -1.378, -0.9204 -0.1812 -0.5906, -0.9204 -0.1812 -1.378, -0.9798 -0.2893 -0.5906, -0.9798 -0.2893 -1.378, -1.0643 -0.3792 -0.5906, -1.0643 -0.3792 -1.378, -1.1684 -0.4453 -0.5906, -1.1684 -0.4453 -1.378, -1.2857 -0.4834 -0.5906, -1.2857 -0.4834 -1.378, -1.4089 -0.4912 -0.5906, -1.4089 -0.4912 -1.378, -1.53 -0.468 -0.5906, -1.53 -0.468 -1.378, -1.6416 -0.4155 -0.5906, -1.6416 -0.4155 -1.378, -1.7367 -0.3369 -0.5906, -1.7367 -0.3369 -1.378, -1.8092 -0.2371 -0.5906, -1.8092 -0.2371 -1.378, -1.8546 -0.1224 -0.5906, -1.8546 -0.1224 -1.378, -1.8701 0.0 -0.5906, -1.8701 0.0 -1.378, -1.8546 0.1224 -0.5906, -1.8546 0.1224 -1.378, -1.8092 0.2371 -0.5906, -1.8092 0.2371 -1.378, -1.7367 0.3369 -0.5906, -1.7367 0.3369 -1.378, -1.6416 0.4155 -0.5906, -1.6416 0.4155 -1.378, -1.53 0.468 -0.5906, -1.53 0.468 -1.378, -1.4089 0.4912 -0.5906, -1.4089 0.4912 -1.378, -1.2857 0.4834 -0.5906, -1.2857 0.4834 -1.378, -1.1684 0.4453 -0.5906, -1.1684 0.4453 -1.378, -1.0643 0.3792 -0.5906, -1.0643 0.3792 -1.378, -0.9798 0.2893 -0.5906, -0.9798 0.2893 -1.378, -0.9204 0.1812 -0.5906, -0.9204 0.1812 -1.378, -0.8897 0.0617 -0.5906, -0.8897 0.0617 -1.378, -1.0827 0.0492 -0.5906, -1.3287 0.0492 -0.5906, -1.0827 -0.0492 -0.5906, -1.3287 -0.0492 -0.5906, -1.3287 -0.2953 -0.5906, -1.4272 0.2953 -0.5906, -1.3287 0.2953 -0.5906, -1.4272 -0.0492 -0.5906, -1.6732 -0.0492 -0.5906, -1.4272 -0.2953 -0.5906, -1.6732 0.0492 -0.5906, -1.4272 0.0492 -0.5906, -1.4272 0.0492 -0.7874, -1.4272 0.2953 -0.7874, -1.3287 0.2953 -0.7874, -1.3287 0.0492 -0.7874, -1.0827 0.0492 -0.7874, -1.0827 -0.0492 -0.7874, -1.3287 -0.0492 -0.7874, -1.3287 -0.2953 -0.7874, -1.4272 -0.2953 -0.7874, -1.4272 -0.0492 -0.7874, -1.6732 -0.0492 -0.7874, -1.6732 0.0492 -0.7874, 0.4921 0.0 -0.5906, 0.4882 -0.0617 -0.5906, 0.4882 -0.0617 -1.378, 0.4576 -0.1812 -0.5906, 0.4576 -0.1812 -1.378, 0.3981 -0.2893 -0.5906, 0.3981 -0.2893 -1.378, 0.3137 -0.3792 -0.5906, 0.3137 -0.3792 -1.378, 0.2095 -0.4453 -0.5906, 0.2095 -0.4453 -1.378, 0.0922 -0.4834 -0.5906, 0.0922 -0.4834 -1.378, -0.0309 -0.4912 -0.5906, -0.0309 -0.4912 -1.378, -0.1521 -0.468 -0.5906, -0.1521 -0.468 -1.378, -0.2637 -0.4155 -0.5906, -0.2637 -0.4155 -1.378, -0.3587 -0.3369 -0.5906, -0.3587 -0.3369 -1.378, -0.4313 -0.2371 -0.5906, -0.4313 -0.2371 -1.378, -0.4767 -0.1224 -0.5906, -0.4767 -0.1224 -1.378, -0.4921 0.0 -0.5906, -0.4921 0.0 -1.378, -0.4767 0.1224 -0.5906, -0.4767 0.1224 -1.378, -0.4313 0.2371 -0.5906, -0.4313 0.2371 -1.378, -0.3587 0.3369 -0.5906, -0.3587 0.3369 -1.378, -0.2637 0.4155 -0.5906, -0.2637 0.4155 -1.378, -0.1521 0.468 -0.5906, -0.1521 0.468 -1.378, -0.0309 0.4912 -0.5906, -0.0309 0.4912 -1.378, 0.0922 0.4834 -0.5906, 0.0922 0.4834 -1.378, 0.2095 0.4453 -0.5906, 0.2095 0.4453 -1.378, 0.3137 0.3792 -0.5906, 0.3137 0.3792 -1.378, 0.3981 0.2893 -0.5906, 0.3981 0.2893 -1.378, 0.4576 0.1812 -0.5906, 0.4576 0.1812 -1.378, 0.4882 0.0617 -0.5906, 0.4882 0.0617 -1.378, 0.2953 0.0492 -0.5906, 0.0492 0.0492 -0.5906, 0.2953 -0.0492 -0.5906, 0.0492 -0.0492 -0.5906, 0.0492 0.2953 -0.5906, 0.0492 -0.2953 -0.5906, -0.0492 -0.2953 -0.5906, -0.0492 -0.0492 -0.5906, -0.2953 -0.0492 -0.5906, -0.0492 0.2953 -0.5906, -0.0492 0.0492 -0.5906, -0.2953 0.0492 -0.5906, 1.8701 0.0 -0.5906, 1.8662 -0.0617 -0.5906, 1.8662 -0.0617 -1.378, 1.8355 -0.1812 -0.5906, 1.8355 -0.1812 -1.378, 1.7761 -0.2893 -0.5906, 1.7761 -0.2893 -1.378, 1.6916 -0.3792 -0.5906, 1.6916 -0.3792 -1.378, 1.5875 -0.4453 -0.5906, 1.5875 -0.4453 -1.378, 1.4702 -0.4834 -0.5906, 1.4702 -0.4834 -1.378, 1.3471 -0.4912 -0.5906, 1.3471 -0.4912 -1.378, 1.2259 -0.468 -0.5906, 1.2259 -0.468 -1.378, 1.1143 -0.4155 -0.5906, 1.1143 -0.4155 -1.378, 1.0192 -0.3369 -0.5906, 1.0192 -0.3369 -1.378, 0.9467 -0.2371 -0.5906, 0.9467 -0.2371 -1.378, 0.9013 -0.1224 -0.5906, 0.9013 -0.1224 -1.378, 0.8858 0.0 -0.5906, 0.8858 0.0 -1.378, 0.9013 0.1224 -0.5906, 0.9013 0.1224 -1.378, 0.9467 0.2371 -0.5906, 0.9467 0.2371 -1.378, 1.0192 0.3369 -0.5906, 1.0192 0.3369 -1.378, 1.1143 0.4155 -0.5906, 1.1143 0.4155 -1.378, 1.2259 0.468 -0.5906, 1.2259 0.468 -1.378, 1.3471 0.4912 -0.5906, 1.3471 0.4912 -1.378, 1.4702 0.4834 -0.5906, 1.4702 0.4834 -1.378, 1.5875 0.4453 -0.5906, 1.5875 0.4453 -1.378, 1.6916 0.3792 -0.5906, 1.6916 0.3792 -1.378, 1.7761 0.2893 -0.5906, 1.7761 0.2893 -1.378, 1.8355 0.1812 -0.5906, 1.8355 0.1812 -1.378, 1.8662 0.0617 -0.5906, 1.8662 0.0617 -1.378, 1.4272 -0.0492 -0.5906, 1.4272 -0.2953 -0.5906, 1.4272 0.2953 -0.5906, 1.4272 0.0492 -0.5906, 1.6732 0.0492 -0.5906, 1.6732 -0.0492 -0.5906, 1.3287 -0.0492 -0.5906, 1.0827 -0.0492 -0.5906, 1.3287 -0.2953 -0.5906, 1.0827 0.0492 -0.5906, 1.3287 0.0492 -0.5906, 1.3287 0.2953 -0.5906, -0.0492 0.0492 -0.7874, -0.0492 0.2953 -0.7874, 0.0492 0.2953 -0.7874, 0.0492 0.0492 -0.7874, 0.2953 0.0492 -0.7874, 0.2953 -0.0492 -0.7874, 0.0492 -0.0492 -0.7874, 0.0492 -0.2953 -0.7874, -0.0492 -0.2953 -0.7874, -0.0492 -0.0492 -0.7874, -0.2953 -0.0492 -0.7874, -0.2953 0.0492 -0.7874, 1.3287 0.0492 -0.7874, 1.3287 0.2953 -0.7874, 1.4272 0.2953 -0.7874, 1.4272 0.0492 -0.7874, 1.6732 0.0492 -0.7874, 1.6732 -0.0492 -0.7874, 1.4272 -0.0492 -0.7874, 1.4272 -0.2953 -0.7874, 1.3287 -0.2953 -0.7874, 1.3287 -0.0492 -0.7874, 1.0827 -0.0492 -0.7874, 1.0827 0.0492 -0.7874, 1.0827 0.0492 -0.7874
            ]
        }
        coordIndex [
            0,1,2,-1,2,1,3,-1,2,3,4,-1,4,3,5,-1,3,1,6,-1,6,1,7,-1,8,9,10,-1,11,12,4,-1,4,12,8,-1,4,8,13,-1,13,8,10,-1,14,12,15,-1,15,12,11,-1,16,14,15,-1,17,18,19,-1,19,18,16,-1,19,16,2,-1,2,16,15,-1,14,16,12,-1,12,16,8,-1,18,20,21,-1,22,9,23,-1,23,9,8,-1,23,8,21,-1,21,8,16,-1,21,16,18,-1,10,17,13,-1,13,17,19,-1,20,18,17,-1,10,9,22,-1,17,10,20,-1,20,10,22,-1,20,22,24,-1,24,22,25,-1,24,25,26,-1,26,25,27,-1,28,21,24,-1,24,21,20,-1,25,22,29,-1,29,22,23,-1,30,31,28,-1,28,31,29,-1,28,29,21,-1,21,29,23,-1,26,27,30,-1,30,27,31,-1,24,26,28,-1,28,26,30,-1,29,31,25,-1,25,31,27,-1,32,33,34,-1,34,33,35,-1,34,35,36,-1,36,35,37,-1,35,33,38,-1,38,33,39,-1,40,41,42,-1,42,41,43,-1,42,43,44,-1,44,43,45,-1,43,41,46,-1,46,41,47,-1,48,49,50,-1,51,52,36,-1,36,52,48,-1,36,48,53,-1,53,48,50,-1,54,52,55,-1,55,52,51,-1,56,54,55,-1,57,58,59,-1,59,58,56,-1,59,56,34,-1,34,56,55,-1,54,56,52,-1,52,56,48,-1,60,61,62,-1,63,64,44,-1,44,64,60,-1,44,60,65,-1,65,60,62,-1,66,64,67,-1,67,64,63,-1,68,66,67,-1,69,70,71,-1,71,70,68,-1,71,68,42,-1,42,68,67,-1,66,68,64,-1,64,68,60,-1,58,72,73,-1,74,49,75,-1,75,49,48,-1,75,48,73,-1,73,48,56,-1,73,56,58,-1,70,76,77,-1,78,61,79,-1,79,61,60,-1,79,60,77,-1,77,60,68,-1,77,68,70,-1,50,57,53,-1,53,57,59,-1,72,58,57,-1,50,49,74,-1,57,50,72,-1,72,50,74,-1,72,74,80,-1,80,74,81,-1,80,81,82,-1,82,81,83,-1,62,69,65,-1,65,69,71,-1,76,70,69,-1,62,61,78,-1,69,62,76,-1,76,62,78,-1,76,78,84,-1,84,78,85,-1,84,85,86,-1,86,85,87,-1,88,73,80,-1,80,73,72,-1,81,74,89,-1,89,74,75,-1,90,91,88,-1,88,91,89,-1,88,89,73,-1,73,89,75,-1,82,83,90,-1,90,83,91,-1,92,77,84,-1,84,77,76,-1,85,78,93,-1,93,78,79,-1,94,95,92,-1,92,95,93,-1,92,93,77,-1,77,93,79,-1,86,87,94,-1,94,87,95,-1,80,82,88,-1,88,82,90,-1,89,91,81,-1,81,91,83,-1,84,86,92,-1,92,86,94,-1,93,95,85,-1,85,95,87,-1,96,97,98,-1,98,97,99,-1,98,99,100,-1,100,99,101,-1,100,101,102,-1,102,101,103,-1,102,103,104,-1,104,103,105,-1,104,105,106,-1,106,105,107,-1,106,107,108,-1,108,107,109,-1,108,109,110,-1,110,109,111,-1,110,111,112,-1,112,111,113,-1,112,113,114,-1,114,113,115,-1,114,115,116,-1,116,115,117,-1,116,117,118,-1,118,117,119,-1,118,119,120,-1,120,119,121,-1,120,121,122,-1,122,121,123,-1,122,123,124,-1,124,123,125,-1,124,125,126,-1,126,125,127,-1,126,127,128,-1,128,127,129,-1,128,129,130,-1,130,129,131,-1,130,131,132,-1,132,131,133,-1,132,133,134,-1,134,133,135,-1,134,135,136,-1,136,135,137,-1,136,137,138,-1,138,137,139,-1,138,139,140,-1,140,139,141,-1,140,141,142,-1,142,141,143,-1,142,143,144,-1,144,143,145,-1,144,145,146,-1,146,145,96,-1,146,96,98,-1,145,143,147,-1,147,143,148,-1,149,97,147,-1,147,97,96,-1,147,96,145,-1,150,151,105,-1,152,153,135,-1,143,141,148,-1,148,141,139,-1,148,139,153,-1,153,139,137,-1,153,137,135,-1,105,103,150,-1,150,103,101,-1,150,101,149,-1,149,101,99,-1,149,99,97,-1,154,155,117,-1,156,109,151,-1,151,109,107,-1,151,107,105,-1,117,115,154,-1,154,115,113,-1,154,113,156,-1,156,113,111,-1,156,111,109,-1,125,157,127,-1,127,157,158,-1,125,123,157,-1,157,123,121,-1,157,121,155,-1,155,121,119,-1,155,119,117,-1,135,133,152,-1,152,133,131,-1,152,131,158,-1,158,131,129,-1,158,129,127,-1,159,160,158,-1,158,160,152,-1,160,161,152,-1,152,161,153,-1,161,162,153,-1,153,162,148,-1,162,163,148,-1,148,163,147,-1,163,164,147,-1,147,164,149,-1,164,165,149,-1,149,165,150,-1,165,166,150,-1,150,166,151,-1,166,167,151,-1,151,167,156,-1,167,168,156,-1,156,168,154,-1,168,169,154,-1,154,169,155,-1,169,170,155,-1,155,170,157,-1,170,159,157,-1,157,159,158,-1,163,162,164,-1,164,162,165,-1,170,169,159,-1,159,169,168,-1,167,166,168,-1,168,166,165,-1,168,165,159,-1,159,165,162,-1,159,162,160,-1,160,162,161,-1,171,172,173,-1,173,172,174,-1,173,174,175,-1,175,174,176,-1,175,176,177,-1,177,176,178,-1,177,178,179,-1,179,178,180,-1,179,180,181,-1,181,180,182,-1,181,182,183,-1,183,182,184,-1,183,184,185,-1,185,184,186,-1,185,186,187,-1,187,186,188,-1,187,188,189,-1,189,188,190,-1,189,190,191,-1,191,190,192,-1,191,192,193,-1,193,192,194,-1,193,194,195,-1,195,194,196,-1,195,196,197,-1,197,196,198,-1,197,198,199,-1,199,198,200,-1,199,200,201,-1,201,200,202,-1,201,202,203,-1,203,202,204,-1,203,204,205,-1,205,204,206,-1,205,206,207,-1,207,206,208,-1,207,208,209,-1,209,208,210,-1,209,210,211,-1,211,210,212,-1,211,212,213,-1,213,212,214,-1,213,214,215,-1,215,214,216,-1,215,216,217,-1,217,216,218,-1,217,218,219,-1,219,218,220,-1,219,220,221,-1,221,220,171,-1,221,171,173,-1,171,220,222,-1,222,220,218,-1,222,218,223,-1,171,222,172,-1,172,222,224,-1,172,224,174,-1,174,224,176,-1,176,224,225,-1,176,225,178,-1,212,226,214,-1,214,226,223,-1,214,223,216,-1,216,223,218,-1,178,225,180,-1,180,225,227,-1,180,227,182,-1,182,227,228,-1,182,228,184,-1,229,230,192,-1,192,230,194,-1,212,210,226,-1,226,210,208,-1,226,208,231,-1,231,208,206,-1,231,206,232,-1,192,190,229,-1,229,190,188,-1,229,188,228,-1,228,188,186,-1,228,186,184,-1,194,230,196,-1,196,230,233,-1,196,233,198,-1,206,204,232,-1,232,204,202,-1,232,202,233,-1,233,202,200,-1,233,200,198,-1,234,235,236,-1,236,235,237,-1,236,237,238,-1,238,237,239,-1,238,239,240,-1,240,239,241,-1,240,241,242,-1,242,241,243,-1,242,243,244,-1,244,243,245,-1,244,245,246,-1,246,245,247,-1,246,247,248,-1,248,247,249,-1,248,249,250,-1,250,249,251,-1,250,251,252,-1,252,251,253,-1,252,253,254,-1,254,253,255,-1,254,255,256,-1,256,255,257,-1,256,257,258,-1,258,257,259,-1,258,259,260,-1,260,259,261,-1,260,261,262,-1,262,261,263,-1,262,263,264,-1,264,263,265,-1,264,265,266,-1,266,265,267,-1,266,267,268,-1,268,267,269,-1,268,269,270,-1,270,269,271,-1,270,271,272,-1,272,271,273,-1,272,273,274,-1,274,273,275,-1,274,275,276,-1,276,275,277,-1,276,277,278,-1,278,277,279,-1,278,279,280,-1,280,279,281,-1,280,281,282,-1,282,281,283,-1,282,283,284,-1,284,283,234,-1,284,234,236,-1,285,286,243,-1,275,287,277,-1,277,287,288,-1,234,289,235,-1,235,289,290,-1,234,283,289,-1,289,283,281,-1,289,281,288,-1,288,281,279,-1,288,279,277,-1,243,241,285,-1,285,241,239,-1,285,239,290,-1,290,239,237,-1,290,237,235,-1,291,292,255,-1,293,247,286,-1,286,247,245,-1,286,245,243,-1,255,253,291,-1,291,253,251,-1,291,251,293,-1,293,251,249,-1,293,249,247,-1,263,294,265,-1,265,294,295,-1,263,261,294,-1,294,261,259,-1,294,259,292,-1,292,259,257,-1,292,257,255,-1,275,273,287,-1,287,273,271,-1,287,271,296,-1,296,271,269,-1,296,269,295,-1,295,269,267,-1,295,267,265,-1,297,298,232,-1,232,298,231,-1,298,299,231,-1,231,299,226,-1,299,300,226,-1,226,300,223,-1,300,301,223,-1,223,301,222,-1,301,302,222,-1,222,302,224,-1,302,303,224,-1,224,303,225,-1,303,304,225,-1,225,304,227,-1,304,305,227,-1,227,305,228,-1,305,306,228,-1,228,306,229,-1,306,307,229,-1,229,307,230,-1,307,308,230,-1,230,308,233,-1,308,297,233,-1,233,297,232,-1,301,300,302,-1,302,300,303,-1,308,307,297,-1,297,307,306,-1,305,304,306,-1,306,304,303,-1,306,303,297,-1,297,303,300,-1,297,300,298,-1,298,300,299,-1,309,310,295,-1,295,310,296,-1,310,311,296,-1,296,311,287,-1,311,312,287,-1,287,312,288,-1,312,313,288,-1,288,313,289,-1,313,314,289,-1,289,314,290,-1,314,315,290,-1,290,315,285,-1,315,316,285,-1,285,316,286,-1,316,317,286,-1,286,317,293,-1,317,318,293,-1,293,318,291,-1,318,319,291,-1,291,319,292,-1,319,320,292,-1,292,320,294,-1,320,309,294,-1,294,309,295,-1,313,312,314,-1,314,312,315,-1,320,319,309,-1,309,319,318,-1,317,316,318,-1,318,316,315,-1,318,315,309,-1,309,315,312,-1,309,312,310,-1,310,312,311,-1,
        ]
    }
}
Shape{
    appearance Appearance {
        material  Material 	{
            diffuseColor 0.792156862745098 0.8196078431372549 0.9333333333333333
            specularColor 0.396078431372549 0.4117647058823529 0.4666666666666667
            ambientIntensity 0.2
            transparency 0
            shininess 0.5
        }
    }
    geometry IndexedFaceSet {
        ccw TRUE
        solid FALSE
        coord DEF co Coordinate {
            point [
                -2.0276 0.3273 -2.8402, -2.0276 0.3273 -2.8649, -2.0669 0.3273 -2.8402, -2.0669 0.3273 -2.8649, -2.0276 0.4429 -2.8649, -2.0669 0.4429 -2.8649, -2.0276 0.4429 -2.6394, -2.0669 0.4429 -2.6394, -2.0276 0.4126 -2.6394, -2.0669 0.4126 -2.6394, -2.0276 0.4126 -2.8402, -2.0669 0.4126 -2.8402, -2.0276 0.1403 -2.8285, -2.0276 0.1403 -2.8532, -2.0669 0.1403 -2.8285, -2.0669 0.1403 -2.8532, -2.0276 0.1643 -2.8631, -2.0276 0.2023 -2.8677, -2.0669 0.2023 -2.8677, -2.0669 0.1962 -2.8676, -2.0276 0.1962 -2.8676, -2.0669 0.1871 -2.8663, -2.0669 0.1643 -2.8631, -2.0669 0.2156 -2.8663, -2.0276 0.2301 -2.8648, -2.0669 0.2301 -2.8648, -2.0276 0.2519 -2.8573, -2.0669 0.2519 -2.8573, -2.0276 0.27 -2.8459, -2.0669 0.27 -2.8459, -2.0276 0.2865 -2.8286, -2.0669 0.2865 -2.8286, -2.0276 0.2986 -2.8075, -2.0669 0.2986 -2.8075, -2.0276 0.3058 -2.7834, -2.0669 0.3058 -2.7834, -2.0276 0.3081 -2.7564, -2.0669 0.3081 -2.7564, -2.0276 0.1934 -2.6366, -2.0669 0.1934 -2.6366, -2.0669 0.2156 -2.6384, -2.0276 0.2156 -2.6384, -2.0669 0.2408 -2.6456, -2.0276 0.2408 -2.6456, -2.0669 0.2622 -2.6578, -2.0276 0.2622 -2.6578, -2.0669 0.2827 -2.6774, -2.0276 0.2827 -2.6774, -2.0669 0.2962 -2.6987, -2.0276 0.2962 -2.6987, -2.0669 0.3048 -2.7243, -2.0276 0.3048 -2.7243, -2.0276 0.1403 -2.6456, -2.0669 0.1403 -2.6456, -2.0669 0.1664 -2.6385, -2.0276 0.1664 -2.6385, -2.0276 0.1403 -2.6758, -2.0669 0.1403 -2.6758, -2.0276 0.1931 -2.6614, -2.0669 0.1931 -2.6614, -2.0669 0.1657 -2.6649, -2.0276 0.1657 -2.6649, -2.0276 0.2778 -2.7546, -2.0669 0.2778 -2.7546, -2.0669 0.2767 -2.737, -2.0276 0.2767 -2.737, -2.0669 0.2707 -2.7129, -2.0276 0.2707 -2.7129, -2.0669 0.2614 -2.6955, -2.0276 0.2614 -2.6955, -2.0669 0.2478 -2.6804, -2.0276 0.2478 -2.6804, -2.0669 0.2322 -2.67, -2.0276 0.2322 -2.67, -2.0669 0.2153 -2.6639, -2.0276 0.2153 -2.6639, -2.0276 0.1982 -2.8429, -2.0669 0.1982 -2.8429, -2.0669 0.2192 -2.8406, -2.0276 0.2192 -2.8406, -2.0669 0.2357 -2.8345, -2.0276 0.2357 -2.8345, -2.0669 0.2495 -2.8252, -2.0276 0.2495 -2.8252, -2.0669 0.2601 -2.814, -2.0276 0.2601 -2.814, -2.0669 0.2694 -2.7984, -2.0276 0.2694 -2.7984, -2.0669 0.2755 -2.779, -2.0276 0.2755 -2.779, -2.0669 0.1443 -2.8307, -2.0276 0.1443 -2.8307, -2.0669 0.1682 -2.8396, -2.0276 0.1682 -2.8396, -2.0276 -0.0248 -2.8402, -2.0276 -0.0248 -2.8649, -2.0669 -0.0248 -2.8402, -2.0669 -0.0248 -2.8649, -2.0276 0.0963 -2.8649, -2.0669 0.0963 -2.8649, -2.0276 0.0963 -2.6394, -2.0669 0.0963 -2.6394, -2.0276 -0.0193 -2.6394, -2.0669 -0.0193 -2.6394, -2.0276 -0.0193 -2.6641, -2.0669 -0.0193 -2.6641, -2.0276 0.066 -2.6641, -2.0669 0.066 -2.6641, -2.0276 0.066 -2.7384, -2.0669 0.066 -2.7384, -2.0276 -0.0138 -2.7384, -2.0669 -0.0138 -2.7384, -2.0276 -0.0138 -2.7632, -2.0669 -0.0138 -2.7632, -2.0276 0.066 -2.7632, -2.0669 0.066 -2.7632, -2.0276 0.066 -2.8402, -2.0669 0.066 -2.8402, -2.0276 -0.1301 -2.8649, -2.0276 -0.0688 -2.8649, -2.0669 -0.1301 -2.8649, -2.0669 -0.0688 -2.8649, -2.0276 -0.0688 -2.6394, -2.0669 -0.0688 -2.6394, -2.0276 -0.1324 -2.6394, -2.0669 -0.1324 -2.6394, -2.0276 -0.2503 -2.7493, -2.0669 -0.2503 -2.7493, -2.0669 -0.2488 -2.7286, -2.0276 -0.2488 -2.7286, -2.0669 -0.2427 -2.7062, -2.0276 -0.2427 -2.7062, -2.0669 -0.2322 -2.6865, -2.0276 -0.2322 -2.6865, -2.0669 -0.2162 -2.6688, -2.0276 -0.2162 -2.6688, -2.0669 -0.216 -2.6686, -2.0276 -0.216 -2.6686, -2.0669 -0.1914 -2.6521, -2.0276 -0.1914 -2.6521, -2.0669 -0.165 -2.6429, -2.0276 -0.165 -2.6429, -2.0669 -0.1587 -2.8624, -2.0276 -0.1587 -2.8624, -2.0669 -0.1846 -2.8545, -2.0276 -0.1846 -2.8545, -2.0669 -0.208 -2.8407, -2.0276 -0.208 -2.8407, -2.0669 -0.2264 -2.8229, -2.0276 -0.2264 -2.8229, -2.0669 -0.2391 -2.803, -2.0276 -0.2391 -2.803, -2.0669 -0.2472 -2.7795, -2.0276 -0.2472 -2.7795, -2.0276 -0.099 -2.8402, -2.0276 -0.099 -2.6641, -2.0276 -0.2051 -2.6957, -2.0276 -0.1941 -2.6841, -2.0276 -0.1776 -2.6735, -2.0276 -0.159 -2.667, -2.0276 -0.1323 -2.6641, -2.0276 -0.131 -2.8402, -2.0276 -0.1549 -2.838, -2.0276 -0.1739 -2.832, -2.0276 -0.1893 -2.8228, -2.0276 -0.202 -2.8102, -2.0276 -0.2114 -2.7949, -2.0276 -0.2173 -2.7769, -2.0276 -0.2201 -2.75, -2.0276 -0.2181 -2.7275, -2.0276 -0.2129 -2.7097, -2.0669 -0.1323 -2.6641, -2.0669 -0.099 -2.6641, -2.0669 -0.159 -2.667, -2.0669 -0.1776 -2.6735, -2.0669 -0.1941 -2.6841, -2.0669 -0.2051 -2.6957, -2.0669 -0.2129 -2.7097, -2.0669 -0.2181 -2.7275, -2.0669 -0.2201 -2.75, -2.0669 -0.2173 -2.7769, -2.0669 -0.2114 -2.7949, -2.0669 -0.202 -2.8102, -2.0669 -0.1893 -2.8228, -2.0669 -0.1739 -2.832, -2.0669 -0.1549 -2.838, -2.0669 -0.131 -2.8402, -2.0669 -0.099 -2.8402, -2.0669 -0.099 -2.8402
            ]
        }
        coordIndex [
            0,1,2,-1,2,1,3,-1,1,4,3,-1,3,4,5,-1,4,6,5,-1,5,6,7,-1,6,8,7,-1,7,8,9,-1,8,10,9,-1,9,10,11,-1,10,0,11,-1,11,0,2,-1,8,6,10,-1,10,6,4,-1,10,4,0,-1,0,4,1,-1,12,13,14,-1,14,13,15,-1,15,13,16,-1,17,18,19,-1,17,19,20,-1,20,19,21,-1,20,21,16,-1,16,21,22,-1,16,22,15,-1,18,17,23,-1,23,17,24,-1,23,24,25,-1,25,24,26,-1,25,26,27,-1,27,26,28,-1,27,28,29,-1,29,28,30,-1,29,30,31,-1,31,30,32,-1,31,32,33,-1,33,32,34,-1,33,34,35,-1,35,34,36,-1,35,36,37,-1,38,39,40,-1,38,40,41,-1,41,40,42,-1,41,42,43,-1,43,42,44,-1,43,44,45,-1,45,44,46,-1,45,46,47,-1,47,46,48,-1,47,48,49,-1,49,48,50,-1,49,50,51,-1,51,50,37,-1,51,37,36,-1,52,53,54,-1,52,54,55,-1,55,54,39,-1,55,39,38,-1,52,56,53,-1,53,56,57,-1,58,59,60,-1,58,60,61,-1,61,60,57,-1,61,57,56,-1,62,63,64,-1,62,64,65,-1,65,64,66,-1,65,66,67,-1,67,66,68,-1,67,68,69,-1,69,68,70,-1,69,70,71,-1,71,70,72,-1,71,72,73,-1,73,72,74,-1,73,74,75,-1,75,74,59,-1,75,59,58,-1,76,77,78,-1,76,78,79,-1,79,78,80,-1,79,80,81,-1,81,80,82,-1,81,82,83,-1,83,82,84,-1,83,84,85,-1,85,84,86,-1,85,86,87,-1,87,86,88,-1,87,88,89,-1,89,88,63,-1,89,63,62,-1,12,14,90,-1,12,90,91,-1,91,90,92,-1,91,92,93,-1,93,92,77,-1,93,77,76,-1,79,17,76,-1,76,17,20,-1,76,20,93,-1,93,20,16,-1,93,16,91,-1,91,16,13,-1,91,13,12,-1,56,52,61,-1,61,52,55,-1,61,55,58,-1,58,55,38,-1,58,38,75,-1,75,38,41,-1,75,41,73,-1,73,41,43,-1,73,43,71,-1,71,43,45,-1,71,45,69,-1,69,45,47,-1,69,47,67,-1,67,47,49,-1,67,49,65,-1,65,49,51,-1,65,51,62,-1,62,51,36,-1,62,36,89,-1,89,36,34,-1,89,34,87,-1,87,34,32,-1,87,32,85,-1,85,32,30,-1,85,30,83,-1,83,30,28,-1,83,28,81,-1,81,28,26,-1,81,26,79,-1,79,26,24,-1,79,24,17,-1,94,95,96,-1,96,95,97,-1,95,98,97,-1,97,98,99,-1,98,100,99,-1,99,100,101,-1,100,102,101,-1,101,102,103,-1,102,104,103,-1,103,104,105,-1,104,106,105,-1,105,106,107,-1,106,108,107,-1,107,108,109,-1,108,110,109,-1,109,110,111,-1,110,112,111,-1,111,112,113,-1,112,114,113,-1,113,114,115,-1,114,116,115,-1,115,116,117,-1,116,94,117,-1,117,94,96,-1,98,95,94,-1,94,116,98,-1,98,116,114,-1,98,114,100,-1,104,102,106,-1,106,102,100,-1,106,100,108,-1,108,100,114,-1,108,114,110,-1,110,114,112,-1,118,119,120,-1,120,119,121,-1,119,122,121,-1,121,122,123,-1,122,124,123,-1,123,124,125,-1,126,127,128,-1,126,128,129,-1,129,128,130,-1,129,130,131,-1,131,130,132,-1,131,132,133,-1,133,132,134,-1,133,134,135,-1,135,134,136,-1,135,136,137,-1,137,136,138,-1,137,138,139,-1,139,138,140,-1,139,140,141,-1,141,140,125,-1,141,125,124,-1,118,120,142,-1,118,142,143,-1,143,142,144,-1,143,144,145,-1,145,144,146,-1,145,146,147,-1,147,146,148,-1,147,148,149,-1,149,148,150,-1,149,150,151,-1,151,150,152,-1,151,152,153,-1,153,152,127,-1,153,127,126,-1,154,155,119,-1,156,135,157,-1,157,135,137,-1,157,137,158,-1,158,137,139,-1,158,139,159,-1,159,139,141,-1,159,141,160,-1,160,141,124,-1,160,124,155,-1,155,124,122,-1,155,122,119,-1,154,119,161,-1,161,119,118,-1,161,118,162,-1,162,118,143,-1,162,143,163,-1,163,143,145,-1,163,145,164,-1,164,145,147,-1,164,147,165,-1,165,147,149,-1,165,149,166,-1,166,149,151,-1,166,151,167,-1,167,151,153,-1,167,153,168,-1,168,153,126,-1,168,126,169,-1,169,126,129,-1,169,129,170,-1,170,129,131,-1,170,131,156,-1,156,131,133,-1,156,133,135,-1,160,155,171,-1,171,155,172,-1,160,171,173,-1,160,173,159,-1,159,173,174,-1,159,174,158,-1,158,174,175,-1,158,175,157,-1,157,175,176,-1,157,176,156,-1,156,176,177,-1,156,177,170,-1,170,177,178,-1,170,178,169,-1,169,178,179,-1,169,179,168,-1,168,179,180,-1,168,180,167,-1,167,180,181,-1,167,181,166,-1,166,181,182,-1,166,182,165,-1,165,182,183,-1,165,183,164,-1,164,183,184,-1,164,184,163,-1,163,184,185,-1,163,185,162,-1,162,185,186,-1,162,186,161,-1,154,161,187,-1,187,161,186,-1,155,154,172,-1,172,154,187,-1,
        ]
    }
}
Shape{
    appearance Appearance {
        material  Material 	{
            diffuseColor 0.6039215686274509 0.8 0.6039215686274509
            specularColor 0.7529411764705882 1.0 0.7529411764705882
            ambientIntensity 0.2
            transparency 0
            shininess 0.5
        }
    }
    geometry IndexedFaceSet {
        ccw TRUE
        solid FALSE
        coord DEF co Coordinate {
            point [
                -2.0669 -0.099 -2.6641, -2.0669 -0.099 -2.8402, -2.0669 -0.1323 -2.6641, -2.0669 -0.131 -2.8402, -2.0669 -0.2173 -2.7769, -2.0669 -0.2201 -2.75, -2.0669 -0.2181 -2.7275, -2.0669 -0.2129 -2.7097, -2.0669 -0.159 -2.667, -2.0669 -0.1549 -2.838, -2.0669 -0.1739 -2.832, -2.0669 -0.1893 -2.8228, -2.0669 -0.2051 -2.6957, -2.0669 -0.1941 -2.6841, -2.0669 -0.1776 -2.6735, -2.0669 -0.202 -2.8102, -2.0669 -0.2114 -2.7949, -2.0669 -0.2114 -2.7949
            ]
        }
        coordIndex [
            0,1,2,-1,2,1,3,-1,4,5,2,-1,5,6,2,-1,2,6,7,-1,2,7,8,-1,3,9,2,-1,2,9,10,-1,2,10,11,-1,12,13,7,-1,7,13,14,-1,7,14,8,-1,11,15,2,-1,2,15,16,-1,2,16,4,-1,
        ]
    }
}
Shape{
    appearance Appearance {
        material  Material 	{
            diffuseColor 0.792156862745098 0.8196078431372549 0.9333333333333333
            specularColor 0.396078431372549 0.4117647058823529 0.4666666666666667
            ambientIntensity 0.2
            transparency 0
            shininess 0.5
        }
    }
    geometry IndexedFaceSet {
        ccw TRUE
        solid FALSE
        coord DEF co Coordinate {
            point [
                -2.0276 -0.3823 -2.6394, -2.0276 -0.4704 -2.8649, -2.0669 -0.3823 -2.6394, -2.0669 -0.4704 -2.8649, -2.0276 -0.4374 -2.8649, -2.0669 -0.4374 -2.8649, -2.0276 -0.4145 -2.8017, -2.0669 -0.4145 -2.8017, -2.0276 -0.3214 -2.8017, -2.0669 -0.3214 -2.8017, -2.0276 -0.2998 -2.8649, -2.0669 -0.2998 -2.8649, -2.0276 -0.2668 -2.8649, -2.0669 -0.2668 -2.8649, -2.0276 -0.3521 -2.6394, -2.0669 -0.3521 -2.6394, -2.0276 -0.329 -2.7769, -2.0276 -0.3626 -2.6827, -2.0276 -0.3648 -2.6749, -2.0276 -0.3662 -2.6669, -2.0276 -0.367 -2.6669, -2.0276 -0.3684 -2.6749, -2.0276 -0.3704 -2.6827, -2.0276 -0.4044 -2.7769, -2.0669 -0.329 -2.7769, -2.0669 -0.4044 -2.7769, -2.0669 -0.3626 -2.6827, -2.0669 -0.3648 -2.6749, -2.0669 -0.3662 -2.6669, -2.0669 -0.367 -2.6669, -2.0669 -0.3684 -2.6749, -2.0669 -0.3704 -2.6827, -2.0669 -0.3704 -2.6827
            ]
        }
        coordIndex [
            0,1,2,-1,2,1,3,-1,1,4,3,-1,3,4,5,-1,4,6,5,-1,5,6,7,-1,6,8,7,-1,7,8,9,-1,8,10,9,-1,9,10,11,-1,10,12,11,-1,11,12,13,-1,12,14,13,-1,13,14,15,-1,14,0,15,-1,15,0,2,-1,16,17,14,-1,12,10,8,-1,17,18,14,-1,14,18,19,-1,14,19,0,-1,0,19,20,-1,0,20,21,-1,21,22,0,-1,0,22,23,-1,0,23,1,-1,4,1,6,-1,6,1,23,-1,6,23,8,-1,8,23,16,-1,8,16,12,-1,12,16,14,-1,16,23,24,-1,24,23,25,-1,17,16,26,-1,26,16,24,-1,17,26,27,-1,17,27,18,-1,18,27,28,-1,18,28,19,-1,20,19,29,-1,29,19,28,-1,20,29,30,-1,20,30,21,-1,21,30,31,-1,21,31,22,-1,23,22,25,-1,25,22,31,-1,
        ]
    }
}
Shape{
    appearance Appearance {
        material  Material 	{
            diffuseColor 0.6039215686274509 0.8 0.6039215686274509
            specularColor 0.7529411764705882 1.0 0.7529411764705882
            ambientIntensity 0.2
            transparency 0
            shininess 0.5
        }
    }
    geometry IndexedFaceSet {
        ccw TRUE
        solid FALSE
        coord DEF co Coordinate {
            point [
                -2.0669 -0.329 -2.7769, -2.0669 -0.4044 -2.7769, -2.0669 -0.3626 -2.6827, -2.0669 -0.3704 -2.6827, -2.0669 -0.3648 -2.6749, -2.0669 -0.3684 -2.6749, -2.0669 -0.3662 -2.6669, -2.0669 -0.367 -2.6669, -2.0669 -0.367 -2.6669
            ]
        }
        coordIndex [
            0,1,2,-1,2,1,3,-1,2,3,4,-1,4,3,5,-1,4,5,6,-1,6,5,7,-1,
        ]
    }
}