#VRML V2.0 utf8
# 3D model generated by easyeda2kicad.py (https://github.com/uPesy/easyeda2kicad.py)

Shape{
    appearance Appearance {
        material  Material 	{
            diffuseColor 0.8117647058823529 0.8117647058823529 0.8117647058823529
            specularColor 0.7529411764705882 0.7529411764705882 0.7529411764705882
            ambientIntensity 1.0
            transparency 1.0
            shininess 0.5
        }
    }
    geometry IndexedFaceSet {
        ccw TRUE
        solid FALSE
        coord DEF co Coordinate {
            point [
                -0.7894 0.228 0.3643, -0.7894 -0.812 0.3412, -0.7894 -0.7563 0.3643, -0.7894 -0.829 0.3156, -0.7894 -0.7864 0.3583, -0.7894 0.228 0.2052, -0.7894 -0.835 0.2855, -0.7894 -0.835 0.2052, -0.7894 -0.829 0.7718, -0.7894 0.228 0.7232, -0.7894 -0.812 0.7463, -0.7894 -0.7563 0.7232, -0.7894 -0.7864 0.7292, -0.7894 0.228 0.8872, -0.7894 -0.835 0.8019, -0.7894 -0.835 0.8872, -0.7894 0.8972 0.1212, -0.7894 0.8791 0.1526, -0.7894 0.8924 0.1394, -0.7894 0.5429 0.7178, -0.7894 0.3618 0.7978, -0.7894 0.5118 0.7978, -0.7894 0.8919 0.0198, -0.7894 0.8774 0.0053, -0.7894 0.8972 0.0396, -0.7894 0.861 0.1575, -0.7894 0.8576 0.0, -0.7894 0.5486 0.2383, -0.7894 0.5653 0.2057, -0.7894 0.5036 0.0, -0.7894 0.6599 0.1575, -0.7894 0.6238 0.1632, -0.7894 0.5911 0.1798, -0.7894 0.3961 0.2839, -0.7894 0.5429 0.2745, -0.7894 0.3618 0.2839, -0.4857 -0.4009 0.0394, -0.4857 -0.4009 0.0315, -0.4857 -0.5998 0.0315, -0.4857 -0.5998 0.0394, -0.4608 -0.5998 0.0315, -0.4608 -0.5998 0.0394, -0.4608 -0.4263 0.0315, -0.4608 -0.4263 0.0394, -0.3365 -0.4263 0.0315, -0.3365 -0.4263 0.0394, -0.3365 -0.4009 0.0315, -0.3365 -0.4009 0.0394, -0.2661 -0.5617 0.0315, -0.291 -0.5701 0.0315, -0.2744 -0.549 0.0315, -0.1418 -0.549 0.0315, -0.146 -0.5701 0.0315, -0.1667 -0.549 0.0315, -0.2578 -0.4051 0.0315, -0.2371 -0.4263 0.0315, -0.2537 -0.4305 0.0315, -0.1998 -0.4263 0.0315, -0.1791 -0.4051 0.0315, -0.1832 -0.4305 0.0315, -0.1625 -0.4136 0.0315, -0.1708 -0.439 0.0315, -0.1998 -0.4009 0.0315, -0.2371 -0.4009 0.0315, -0.2661 -0.439 0.0315, -0.2744 -0.4136 0.0315, -0.2744 -0.4517 0.0315, -0.291 -0.4305 0.0315, -0.2992 -0.4474 0.0315, -0.2785 -0.4686 0.0315, -0.2992 -0.5532 0.0315, -0.2785 -0.5321 0.0315, -0.3034 -0.5321 0.0315, -0.3034 -0.4686 0.0315, -0.2537 -0.5701 0.0315, -0.2744 -0.5871 0.0315, -0.2578 -0.5955 0.0315, -0.2371 -0.5744 0.0315, -0.1998 -0.5998 0.0315, -0.2371 -0.5998 0.0315, -0.1998 -0.5744 0.0315, -0.1832 -0.5701 0.0315, -0.1791 -0.5955 0.0315, -0.1708 -0.5617 0.0315, -0.1625 -0.5871 0.0315, -0.146 -0.4305 0.0315, -0.1667 -0.4517 0.0315, -0.1418 -0.4517 0.0315, -0.1087 -0.4009 0.0315, -0.0838 -0.494 0.0315, -0.1087 -0.5998 0.0315, -0.0838 -0.5194 0.0315, 0.0405 -0.4009 0.0315, -0.0838 -0.4263 0.0315, 0.0239 -0.494 0.0315, 0.0239 -0.5194 0.0315, -0.0838 -0.5744 0.0315, 0.0405 -0.5744 0.0315, 0.0405 -0.5998 0.0315, 0.0405 -0.4263 0.0315, 0.2352 -0.4474 0.0315, 0.2145 -0.4686 0.0315, 0.2103 -0.4517 0.0315, 0.2393 -0.4686 0.0315, 0.2145 -0.5321 0.0315, 0.2393 -0.5321 0.0315, 0.2269 -0.5701 0.0315, 0.202 -0.5617 0.0315, 0.2103 -0.549 0.0315, 0.1896 -0.5701 0.0315, 0.2103 -0.5871 0.0315, 0.1938 -0.5955 0.0315, 0.173 -0.5744 0.0315, 0.173 -0.5998 0.0315, 0.2352 -0.5532 0.0315, 0.0985 -0.5744 0.0315, 0.0736 -0.5998 0.0315, 0.0985 -0.4263 0.0315, 0.0736 -0.4009 0.0315, 0.173 -0.4263 0.0315, 0.1938 -0.4051 0.0315, 0.1896 -0.4305 0.0315, 0.202 -0.439 0.0315, 0.2103 -0.4136 0.0315, 0.2269 -0.4305 0.0315, 0.173 -0.4009 0.0315, 0.4382 -0.4009 0.0315, 0.3719 -0.5998 0.0315, 0.3926 -0.4686 0.0315, 0.3139 -0.4517 0.0315, 0.2725 -0.4009 0.0315, 0.2973 -0.4009 0.0315, 0.3181 -0.4686 0.0315, 0.4133 -0.4009 0.0315, 0.3968 -0.4517 0.0315, 0.3388 -0.5998 0.0315, 0.3553 -0.5828 0.0315, -0.1667 -0.4517 0.0394, -0.1418 -0.4517 0.0394, -0.146 -0.4305 0.0394, -0.1625 -0.4136 0.0394, -0.1791 -0.4051 0.0394, -0.1998 -0.4009 0.0394, -0.2371 -0.4009 0.0394, -0.2578 -0.4051 0.0394, -0.2744 -0.4136 0.0394, -0.291 -0.4305 0.0394, -0.2992 -0.4474 0.0394, -0.3034 -0.4686 0.0394, -0.3034 -0.5321 0.0394, -0.2992 -0.5532 0.0394, -0.291 -0.5701 0.0394, -0.2744 -0.5871 0.0394, -0.2578 -0.5955 0.0394, -0.2371 -0.5998 0.0394, -0.1998 -0.5998 0.0394, -0.1791 -0.5955 0.0394, -0.1625 -0.5871 0.0394, -0.146 -0.5701 0.0394, -0.1418 -0.549 0.0394, -0.1667 -0.549 0.0394, -0.1708 -0.5617 0.0394, -0.1832 -0.5701 0.0394, -0.1998 -0.5744 0.0394, -0.2371 -0.5744 0.0394, -0.2537 -0.5701 0.0394, -0.2661 -0.5617 0.0394, -0.2744 -0.549 0.0394, -0.2785 -0.5321 0.0394, -0.2785 -0.4686 0.0394, -0.2744 -0.4517 0.0394, -0.2661 -0.439 0.0394, -0.2537 -0.4305 0.0394, -0.2371 -0.4263 0.0394, -0.1998 -0.4263 0.0394, -0.1832 -0.4305 0.0394, -0.1708 -0.439 0.0394, -0.0838 -0.4263 0.0394, 0.0405 -0.4263 0.0394, 0.0405 -0.4009 0.0394, -0.1087 -0.4009 0.0394, -0.1087 -0.5998 0.0394, 0.0405 -0.5998 0.0394, 0.0405 -0.5744 0.0394, -0.0838 -0.5744 0.0394, -0.0838 -0.5194 0.0394, 0.0239 -0.5194 0.0394, 0.0239 -0.494 0.0394, -0.0838 -0.494 0.0394, 0.0736 -0.5998 0.0394, 0.173 -0.5998 0.0394, 0.1938 -0.5955 0.0394, 0.2103 -0.5871 0.0394, 0.2269 -0.5701 0.0394, 0.2352 -0.5532 0.0394, 0.2393 -0.5321 0.0394, 0.2393 -0.4686 0.0394, 0.2352 -0.4474 0.0394, 0.2269 -0.4305 0.0394, 0.2103 -0.4136 0.0394, 0.1938 -0.4051 0.0394, 0.173 -0.4009 0.0394, 0.0736 -0.4009 0.0394, 0.173 -0.5744 0.0394, 0.0985 -0.5744 0.0394, 0.0985 -0.4263 0.0394, 0.173 -0.4263 0.0394, 0.1896 -0.4305 0.0394, 0.202 -0.439 0.0394, 0.2103 -0.4517 0.0394, 0.2145 -0.4686 0.0394, 0.2145 -0.5321 0.0394, 0.2103 -0.549 0.0394, 0.202 -0.5617 0.0394, 0.1896 -0.5701 0.0394, 0.3388 -0.5998 0.0394, 0.3719 -0.5998 0.0394, 0.4382 -0.4009 0.0394, 0.4133 -0.4009 0.0394, 0.3968 -0.4517 0.0394, 0.3139 -0.4517 0.0394, 0.2973 -0.4009 0.0394, 0.2725 -0.4009 0.0394, 0.3926 -0.4686 0.0394, 0.3553 -0.5828 0.0394, 0.3181 -0.4686 0.0394, 2.1634 0.228 0.3643, 2.1634 -0.812 0.3412, 2.1634 -0.7563 0.3643, 2.1634 -0.829 0.3156, 2.1634 -0.7864 0.3583, 2.1634 0.228 0.2052, 2.1634 -0.835 0.2855, 2.1634 -0.835 0.2052, 2.1634 -0.829 0.7718, 2.1634 0.228 0.7232, 2.1634 -0.812 0.7463, 2.1634 -0.7563 0.7232, 2.1634 -0.7864 0.7292, 2.1634 0.228 0.8872, 2.1634 -0.835 0.8019, 2.1634 -0.835 0.8872, 2.1634 0.8972 0.1212, 2.1634 0.8791 0.1526, 2.1634 0.8924 0.1394, 2.1634 0.5429 0.7178, 2.1634 0.3618 0.7978, 2.1634 0.5118 0.7978, 2.1634 0.8919 0.0198, 2.1634 0.8774 0.0053, 2.1634 0.8972 0.0396, 2.1634 0.861 0.1575, 2.1634 0.8576 0.0, 2.1634 0.5486 0.2383, 2.1634 0.5653 0.2057, 2.1634 0.5036 0.0, 2.1634 0.6599 0.1575, 2.1634 0.6238 0.1632, 2.1634 0.5911 0.1798, 2.1634 0.3961 0.2839, 2.1634 0.5429 0.2745, 2.1634 0.3618 0.2839, 2.2421 0.228 0.3643, 2.2421 -0.7563 0.3643, 2.2421 -0.7864 0.3583, 2.2421 -0.812 0.3412, 2.2421 -0.829 0.3156, 2.2421 -0.835 0.2855, 2.2421 -0.835 0.2052, 2.2421 0.228 0.2052, 2.2421 0.228 0.8872, 2.2421 -0.835 0.8872, 2.2421 -0.835 0.8019, 2.2421 -0.829 0.7718, 2.2421 0.228 0.7232, 2.2421 -0.812 0.7463, 2.2421 -0.7864 0.7292, 2.2421 -0.7563 0.7232, 2.2421 0.3618 0.7978, 2.2421 0.3961 0.2839, 2.2421 0.5429 0.7178, 2.2421 0.5118 0.7978, 2.2421 0.8972 0.1212, 2.2421 0.8924 0.1394, 2.2421 0.8791 0.1526, 2.2421 0.8919 0.0198, 2.2421 0.8972 0.0396, 2.2421 0.8774 0.0053, 2.2421 0.861 0.1575, 2.2421 0.8576 0.0, 2.2421 0.5486 0.2383, 2.2421 0.5036 0.0, 2.2421 0.5653 0.2057, 2.2421 0.6599 0.1575, 2.2421 0.6238 0.1632, 2.2421 0.5911 0.1798, 2.2421 0.5429 0.2745, 2.2421 0.3618 0.2839, 1.6713 0.228 0.3643, 1.6713 -0.812 0.3412, 1.6713 -0.7563 0.3643, 1.6713 -0.829 0.3156, 1.6713 -0.7864 0.3583, 1.6713 0.228 0.2052, 1.6713 -0.835 0.2855, 1.6713 -0.835 0.2052, 1.6713 -0.829 0.7718, 1.6713 0.228 0.7232, 1.6713 -0.812 0.7463, 1.6713 -0.7563 0.7232, 1.6713 -0.7864 0.7292, 1.6713 0.228 0.8872, 1.6713 -0.835 0.8019, 1.6713 -0.835 0.8872, 1.6713 0.8972 0.1212, 1.6713 0.8791 0.1526, 1.6713 0.8924 0.1394, 1.6713 0.5429 0.7178, 1.6713 0.3618 0.7978, 1.6713 0.5118 0.7978, 1.6713 0.8919 0.0198, 1.6713 0.8774 0.0053, 1.6713 0.8972 0.0396, 1.6713 0.861 0.1575, 1.6713 0.8576 0.0, 1.6713 0.5486 0.2383, 1.6713 0.5653 0.2057, 1.6713 0.5036 0.0, 1.6713 0.6599 0.1575, 1.6713 0.6238 0.1632, 1.6713 0.5911 0.1798, 1.6713 0.3961 0.2839, 1.6713 0.5429 0.2745, 1.6713 0.3618 0.2839, 1.75 0.228 0.3643, 1.75 -0.7563 0.3643, 1.75 -0.7864 0.3583, 1.75 -0.812 0.3412, 1.75 -0.829 0.3156, 1.75 -0.835 0.2855, 1.75 -0.835 0.2052, 1.75 0.228 0.2052, 1.75 0.228 0.8872, 1.75 -0.835 0.8872, 1.75 -0.835 0.8019, 1.75 -0.829 0.7718, 1.75 0.228 0.7232, 1.75 -0.812 0.7463, 1.75 -0.7864 0.7292, 1.75 -0.7563 0.7232, 1.75 0.3618 0.7978, 1.75 0.3961 0.2839, 1.75 0.5429 0.7178, 1.75 0.5118 0.7978, 1.75 0.8972 0.1212, 1.75 0.8924 0.1394, 1.75 0.8791 0.1526, 1.75 0.8919 0.0198, 1.75 0.8972 0.0396, 1.75 0.8774 0.0053, 1.75 0.861 0.1575, 1.75 0.8576 0.0, 1.75 0.5486 0.2383, 1.75 0.5036 0.0, 1.75 0.5653 0.2057, 1.75 0.6599 0.1575, 1.75 0.6238 0.1632, 1.75 0.5911 0.1798, 1.75 0.5429 0.2745, 1.75 0.3618 0.2839, 1.1791 0.228 0.3643, 1.1791 -0.812 0.3412, 1.1791 -0.7563 0.3643, 1.1791 -0.829 0.3156, 1.1791 -0.7864 0.3583, 1.1791 0.228 0.2052, 1.1791 -0.835 0.2855, 1.1791 -0.835 0.2052, 1.1791 -0.829 0.7718, 1.1791 0.228 0.7232, 1.1791 -0.812 0.7463, 1.1791 -0.7563 0.7232, 1.1791 -0.7864 0.7292, 1.1791 0.228 0.8872, 1.1791 -0.835 0.8019, 1.1791 -0.835 0.8872, 1.1791 0.8972 0.1212, 1.1791 0.8791 0.1526, 1.1791 0.8924 0.1394, 1.1791 0.5429 0.7178, 1.1791 0.3618 0.7978, 1.1791 0.5118 0.7978, 1.1791 0.8919 0.0198, 1.1791 0.8774 0.0053, 1.1791 0.8972 0.0396, 1.1791 0.861 0.1575, 1.1791 0.8576 0.0, 1.1791 0.5486 0.2383, 1.1791 0.5653 0.2057, 1.1791 0.5036 0.0, 1.1791 0.6599 0.1575, 1.1791 0.6238 0.1632, 1.1791 0.5911 0.1798, 1.1791 0.3961 0.2839, 1.1791 0.5429 0.2745, 1.1791 0.3618 0.2839, 1.2579 0.228 0.3643, 1.2579 -0.7563 0.3643, 1.2579 -0.7864 0.3583, 1.2579 -0.812 0.3412, 1.2579 -0.829 0.3156, 1.2579 -0.835 0.2855, 1.2579 -0.835 0.2052, 1.2579 0.228 0.2052, 1.2579 0.228 0.8872, 1.2579 -0.835 0.8872, 1.2579 -0.835 0.8019, 1.2579 -0.829 0.7718, 1.2579 0.228 0.7232, 1.2579 -0.812 0.7463, 1.2579 -0.7864 0.7292, 1.2579 -0.7563 0.7232, 1.2579 0.3618 0.7978, 1.2579 0.3961 0.2839, 1.2579 0.5429 0.7178, 1.2579 0.5118 0.7978, 1.2579 0.8972 0.1212, 1.2579 0.8924 0.1394, 1.2579 0.8791 0.1526, 1.2579 0.8919 0.0198, 1.2579 0.8972 0.0396, 1.2579 0.8774 0.0053, 1.2579 0.861 0.1575, 1.2579 0.8576 0.0, 1.2579 0.5486 0.2383, 1.2579 0.5036 0.0, 1.2579 0.5653 0.2057, 1.2579 0.6599 0.1575, 1.2579 0.6238 0.1632, 1.2579 0.5911 0.1798, 1.2579 0.5429 0.2745, 1.2579 0.3618 0.2839, 0.687 0.228 0.3643, 0.687 -0.812 0.3412, 0.687 -0.7563 0.3643, 0.687 -0.829 0.3156, 0.687 -0.7864 0.3583, 0.687 0.228 0.2052, 0.687 -0.835 0.2855, 0.687 -0.835 0.2052, 0.687 -0.829 0.7718, 0.687 0.228 0.7232, 0.687 -0.812 0.7463, 0.687 -0.7563 0.7232, 0.687 -0.7864 0.7292, 0.687 0.228 0.8872, 0.687 -0.835 0.8019, 0.687 -0.835 0.8872, 0.687 0.8972 0.1212, 0.687 0.8791 0.1526, 0.687 0.8924 0.1394, 0.687 0.5429 0.7178, 0.687 0.3618 0.7978, 0.687 0.5118 0.7978, 0.687 0.8919 0.0198, 0.687 0.8774 0.0053, 0.687 0.8972 0.0396, 0.687 0.861 0.1575, 0.687 0.8576 0.0, 0.687 0.5486 0.2383, 0.687 0.5653 0.2057, 0.687 0.5036 0.0, 0.687 0.6599 0.1575, 0.687 0.6238 0.1632, 0.687 0.5911 0.1798, 0.687 0.3961 0.2839, 0.687 0.5429 0.2745, 0.687 0.3618 0.2839, 0.7657 0.228 0.3643, 0.7657 -0.7563 0.3643, 0.7657 -0.7864 0.3583, 0.7657 -0.812 0.3412, 0.7657 -0.829 0.3156, 0.7657 -0.835 0.2855, 0.7657 -0.835 0.2052, 0.7657 0.228 0.2052, 0.7657 0.228 0.8872, 0.7657 -0.835 0.8872, 0.7657 -0.835 0.8019, 0.7657 -0.829 0.7718, 0.7657 0.228 0.7232, 0.7657 -0.812 0.7463, 0.7657 -0.7864 0.7292, 0.7657 -0.7563 0.7232, 0.7657 0.3618 0.7978, 0.7657 0.3961 0.2839, 0.7657 0.5429 0.7178, 0.7657 0.5118 0.7978, 0.7657 0.8972 0.1212, 0.7657 0.8924 0.1394, 0.7657 0.8791 0.1526, 0.7657 0.8919 0.0198, 0.7657 0.8972 0.0396, 0.7657 0.8774 0.0053, 0.7657 0.861 0.1575, 0.7657 0.8576 0.0, 0.7657 0.5486 0.2383, 0.7657 0.5036 0.0, 0.7657 0.5653 0.2057, 0.7657 0.6599 0.1575, 0.7657 0.6238 0.1632, 0.7657 0.5911 0.1798, 0.7657 0.5429 0.2745, 0.7657 0.3618 0.2839, 0.1949 0.228 0.3643, 0.1949 -0.812 0.3412, 0.1949 -0.7563 0.3643, 0.1949 -0.829 0.3156, 0.1949 -0.7864 0.3583, 0.1949 0.228 0.2052, 0.1949 -0.835 0.2855, 0.1949 -0.835 0.2052, 0.1949 -0.829 0.7718, 0.1949 0.228 0.7232, 0.1949 -0.812 0.7463, 0.1949 -0.7563 0.7232, 0.1949 -0.7864 0.7292, 0.1949 0.228 0.8872, 0.1949 -0.835 0.8019, 0.1949 -0.835 0.8872, 0.1949 0.8972 0.1212, 0.1949 0.8791 0.1526, 0.1949 0.8924 0.1394, 0.1949 0.5429 0.7178, 0.1949 0.3618 0.7978, 0.1949 0.5118 0.7978, 0.1949 0.8919 0.0198, 0.1949 0.8774 0.0053, 0.1949 0.8972 0.0396, 0.1949 0.861 0.1575, 0.1949 0.8576 0.0, 0.1949 0.5486 0.2383, 0.1949 0.5653 0.2057, 0.1949 0.5036 0.0, 0.1949 0.6599 0.1575, 0.1949 0.6238 0.1632, 0.1949 0.5911 0.1798, 0.1949 0.3961 0.2839, 0.1949 0.5429 0.2745, 0.1949 0.3618 0.2839, 0.2736 0.228 0.3643, 0.2736 -0.7563 0.3643, 0.2736 -0.7864 0.3583, 0.2736 -0.812 0.3412, 0.2736 -0.829 0.3156, 0.2736 -0.835 0.2855, 0.2736 -0.835 0.2052, 0.2736 0.228 0.2052, 0.2736 0.228 0.8872, 0.2736 -0.835 0.8872, 0.2736 -0.835 0.8019, 0.2736 -0.829 0.7718, 0.2736 0.228 0.7232, 0.2736 -0.812 0.7463, 0.2736 -0.7864 0.7292, 0.2736 -0.7563 0.7232, 0.2736 0.3618 0.7978, 0.2736 0.3961 0.2839, 0.2736 0.5429 0.7178, 0.2736 0.5118 0.7978, 0.2736 0.8972 0.1212, 0.2736 0.8924 0.1394, 0.2736 0.8791 0.1526, 0.2736 0.8919 0.0198, 0.2736 0.8972 0.0396, 0.2736 0.8774 0.0053, 0.2736 0.861 0.1575, 0.2736 0.8576 0.0, 0.2736 0.5486 0.2383, 0.2736 0.5036 0.0, 0.2736 0.5653 0.2057, 0.2736 0.6599 0.1575, 0.2736 0.6238 0.1632, 0.2736 0.5911 0.1798, 0.2736 0.5429 0.2745, 0.2736 0.3618 0.2839, -0.2972 0.228 0.3643, -0.2972 -0.812 0.3412, -0.2972 -0.7563 0.3643, -0.2972 -0.829 0.3156, -0.2972 -0.7864 0.3583, -0.2972 0.228 0.2052, -0.2972 -0.835 0.2855, -0.2972 -0.835 0.2052, -0.2972 -0.829 0.7718, -0.2972 0.228 0.7232, -0.2972 -0.812 0.7463, -0.2972 -0.7563 0.7232, -0.2972 -0.7864 0.7292, -0.2972 0.228 0.8872, -0.2972 -0.835 0.8019, -0.2972 -0.835 0.8872, -0.2972 0.8972 0.1212, -0.2972 0.8791 0.1526, -0.2972 0.8924 0.1394, -0.2972 0.5429 0.7178, -0.2972 0.3618 0.7978, -0.2972 0.5118 0.7978, -0.2972 0.8919 0.0198, -0.2972 0.8774 0.0053, -0.2972 0.8972 0.0396, -0.2972 0.861 0.1575, -0.2972 0.8576 0.0, -0.2972 0.5486 0.2383, -0.2972 0.5653 0.2057, -0.2972 0.5036 0.0, -0.2972 0.6599 0.1575, -0.2972 0.6238 0.1632, -0.2972 0.5911 0.1798, -0.2972 0.3961 0.2839, -0.2972 0.5429 0.2745, -0.2972 0.3618 0.2839, -0.2185 0.228 0.3643, -0.2185 -0.7563 0.3643, -0.2185 -0.7864 0.3583, -0.2185 -0.812 0.3412, -0.2185 -0.829 0.3156, -0.2185 -0.835 0.2855, -0.2185 -0.835 0.2052, -0.2185 0.228 0.2052, -0.2185 0.228 0.8872, -0.2185 -0.835 0.8872, -0.2185 -0.835 0.8019, -0.2185 -0.829 0.7718, -0.2185 0.228 0.7232, -0.2185 -0.812 0.7463, -0.2185 -0.7864 0.7292, -0.2185 -0.7563 0.7232, -0.2185 0.3618 0.7978, -0.2185 0.3961 0.2839, -0.2185 0.5429 0.7178, -0.2185 0.5118 0.7978, -0.2185 0.8972 0.1212, -0.2185 0.8924 0.1394, -0.2185 0.8791 0.1526, -0.2185 0.8919 0.0198, -0.2185 0.8972 0.0396, -0.2185 0.8774 0.0053, -0.2185 0.861 0.1575, -0.2185 0.8576 0.0, -0.2185 0.5486 0.2383, -0.2185 0.5036 0.0, -0.2185 0.5653 0.2057, -0.2185 0.6599 0.1575, -0.2185 0.6238 0.1632, -0.2185 0.5911 0.1798, -0.2185 0.5429 0.2745, -0.2185 0.3618 0.2839, -0.7106 0.5118 0.7978, -0.7106 0.3618 0.7978, -0.7106 0.5429 0.7178, -0.7106 0.5429 0.2745, -0.7106 0.5911 0.1798, -0.7106 0.6238 0.1632, -0.7106 0.6599 0.1575, -0.7106 0.5486 0.2383, -0.7106 0.5653 0.2057, -0.7106 0.861 0.1575, -0.7106 0.8791 0.1526, -0.7106 0.8924 0.1394, -0.7106 0.8972 0.1212, -0.7106 0.8972 0.0396, -0.7106 0.8919 0.0198, -0.7106 0.8774 0.0053, -0.7106 0.8576 0.0, -0.7106 0.5036 0.0, -0.7106 0.3961 0.2839, -0.7106 0.3618 0.2839, -0.7106 -0.7563 0.3643, -0.7106 -0.7864 0.3583, -0.7106 -0.812 0.3412, -0.7106 0.228 0.3643, -0.7106 -0.829 0.3156, -0.7106 -0.835 0.2855, -0.7106 -0.835 0.2052, -0.7106 0.228 0.2052, -0.7106 0.228 0.8872, -0.7106 -0.835 0.8872, -0.7106 -0.835 0.8019, -0.7106 -0.829 0.7718, -0.7106 0.228 0.7232, -0.7106 -0.812 0.7463, -0.7106 -0.7864 0.7292, -0.7106 -0.7563 0.7232, -1.2815 0.228 0.3643, -1.2815 -0.812 0.3412, -1.2815 -0.7563 0.3643, -1.2815 -0.829 0.3156, -1.2815 -0.7864 0.3583, -1.2815 0.228 0.2052, -1.2815 -0.835 0.2855, -1.2815 -0.835 0.2052, -1.2815 -0.829 0.7718, -1.2815 0.228 0.7232, -1.2815 -0.812 0.7463, -1.2815 -0.7563 0.7232, -1.2815 -0.7864 0.7292, -1.2815 0.228 0.8872, -1.2815 -0.835 0.8019, -1.2815 -0.835 0.8872, -1.2815 0.8972 0.1212, -1.2815 0.8791 0.1526, -1.2815 0.8924 0.1394, -1.2815 0.5429 0.7178, -1.2815 0.3618 0.7978, -1.2815 0.5118 0.7978, -1.2815 0.8919 0.0198, -1.2815 0.8774 0.0053, -1.2815 0.8972 0.0396, -1.2815 0.861 0.1575, -1.2815 0.8576 0.0, -1.2815 0.5486 0.2383, -1.2815 0.5653 0.2057, -1.2815 0.5036 0.0, -1.2815 0.6599 0.1575, -1.2815 0.6238 0.1632, -1.2815 0.5911 0.1798, -1.2815 0.3961 0.2839, -1.2815 0.5429 0.2745, -1.2815 0.3618 0.2839, -1.2028 0.228 0.3643, -1.2028 -0.7563 0.3643, -1.2028 -0.7864 0.3583, -1.2028 -0.812 0.3412, -1.2028 -0.829 0.3156, -1.2028 -0.835 0.2855, -1.2028 -0.835 0.2052, -1.2028 0.228 0.2052, -1.2028 0.228 0.8872, -1.2028 -0.835 0.8872, -1.2028 -0.835 0.8019, -1.2028 -0.829 0.7718, -1.2028 0.228 0.7232, -1.2028 -0.812 0.7463, -1.2028 -0.7864 0.7292, -1.2028 -0.7563 0.7232, -1.2028 0.3618 0.7978, -1.2028 0.3961 0.2839, -1.2028 0.5429 0.7178, -1.2028 0.5118 0.7978, -1.2028 0.8972 0.1212, -1.2028 0.8924 0.1394, -1.2028 0.8791 0.1526, -1.2028 0.8919 0.0198, -1.2028 0.8972 0.0396, -1.2028 0.8774 0.0053, -1.2028 0.861 0.1575, -1.2028 0.8576 0.0, -1.2028 0.5486 0.2383, -1.2028 0.5036 0.0, -1.2028 0.5653 0.2057, -1.2028 0.6599 0.1575, -1.2028 0.6238 0.1632, -1.2028 0.5911 0.1798, -1.2028 0.5429 0.2745, -1.2028 0.3618 0.2839, -1.7736 0.228 0.3643, -1.7736 -0.812 0.3412, -1.7736 -0.7563 0.3643, -1.7736 -0.829 0.3156, -1.7736 -0.7864 0.3583, -1.7736 0.228 0.2052, -1.7736 -0.835 0.2855, -1.7736 -0.835 0.2052, -1.7736 -0.829 0.7718, -1.7736 0.228 0.7232, -1.7736 -0.812 0.7463, -1.7736 -0.7563 0.7232, -1.7736 -0.7864 0.7292, -1.7736 0.228 0.8872, -1.7736 -0.835 0.8019, -1.7736 -0.835 0.8872, -1.7736 0.8972 0.1212, -1.7736 0.8791 0.1526, -1.7736 0.8924 0.1394, -1.7736 0.5429 0.7178, -1.7736 0.3618 0.7978, -1.7736 0.5118 0.7978, -1.7736 0.8919 0.0198, -1.7736 0.8774 0.0053, -1.7736 0.8972 0.0396, -1.7736 0.861 0.1575, -1.7736 0.8576 0.0, -1.7736 0.5486 0.2383, -1.7736 0.5653 0.2057, -1.7736 0.5036 0.0, -1.7736 0.6599 0.1575, -1.7736 0.6238 0.1632, -1.7736 0.5911 0.1798, -1.7736 0.3961 0.2839, -1.7736 0.5429 0.2745, -1.7736 0.3618 0.2839, -1.6949 0.228 0.3643, -1.6949 -0.7563 0.3643, -1.6949 -0.7864 0.3583, -1.6949 -0.812 0.3412, -1.6949 -0.829 0.3156, -1.6949 -0.835 0.2855, -1.6949 -0.835 0.2052, -1.6949 0.228 0.2052, -1.6949 0.228 0.8872, -1.6949 -0.835 0.8872, -1.6949 -0.835 0.8019, -1.6949 -0.829 0.7718, -1.6949 0.228 0.7232, -1.6949 -0.812 0.7463, -1.6949 -0.7864 0.7292, -1.6949 -0.7563 0.7232, -1.6949 0.3618 0.7978, -1.6949 0.3961 0.2839, -1.6949 0.5429 0.7178, -1.6949 0.5118 0.7978, -1.6949 0.8972 0.1212, -1.6949 0.8924 0.1394, -1.6949 0.8791 0.1526, -1.6949 0.8919 0.0198, -1.6949 0.8972 0.0396, -1.6949 0.8774 0.0053, -1.6949 0.861 0.1575, -1.6949 0.8576 0.0, -1.6949 0.5486 0.2383, -1.6949 0.5036 0.0, -1.6949 0.5653 0.2057, -1.6949 0.6599 0.1575, -1.6949 0.6238 0.1632, -1.6949 0.5911 0.1798, -1.6949 0.5429 0.2745, -1.6949 0.3618 0.2839, -2.2657 0.228 0.3643, -2.2657 -0.812 0.3412, -2.2657 -0.7563 0.3643, -2.2657 -0.829 0.3156, -2.2657 -0.7864 0.3583, -2.2657 0.228 0.2052, -2.2657 -0.835 0.2855, -2.2657 -0.835 0.2052, -2.2657 -0.829 0.7718, -2.2657 0.228 0.7232, -2.2657 -0.812 0.7463, -2.2657 -0.7563 0.7232, -2.2657 -0.7864 0.7292, -2.2657 0.228 0.8872, -2.2657 -0.835 0.8019, -2.2657 -0.835 0.8872, -2.2657 0.8972 0.1212, -2.2657 0.8791 0.1526, -2.2657 0.8924 0.1394, -2.2657 0.5429 0.7178, -2.2657 0.3618 0.7978, -2.2657 0.5118 0.7978, -2.2657 0.8919 0.0198, -2.2657 0.8774 0.0053, -2.2657 0.8972 0.0396, -2.2657 0.861 0.1575, -2.2657 0.8576 0.0, -2.2657 0.5486 0.2383, -2.2657 0.5653 0.2057, -2.2657 0.5036 0.0, -2.2657 0.6599 0.1575, -2.2657 0.6238 0.1632, -2.2657 0.5911 0.1798, -2.2657 0.3961 0.2839, -2.2657 0.5429 0.2745, -2.2657 0.3618 0.2839, -2.187 0.228 0.3643, -2.187 -0.7563 0.3643, -2.187 -0.7864 0.3583, -2.187 -0.812 0.3412, -2.187 -0.829 0.3156, -2.187 -0.835 0.2855, -2.187 -0.835 0.2052, -2.187 0.228 0.2052, -2.187 0.228 0.8872, -2.187 -0.835 0.8872, -2.187 -0.835 0.8019, -2.187 -0.829 0.7718, -2.187 0.228 0.7232, -2.187 -0.812 0.7463, -2.187 -0.7864 0.7292, -2.187 -0.7563 0.7232, -2.187 0.3618 0.7978, -2.187 0.3961 0.2839, -2.187 0.5429 0.7178, -2.187 0.5118 0.7978, -2.187 0.8972 0.1212, -2.187 0.8924 0.1394, -2.187 0.8791 0.1526, -2.187 0.8919 0.0198, -2.187 0.8972 0.0396, -2.187 0.8774 0.0053, -2.187 0.861 0.1575, -2.187 0.8576 0.0, -2.187 0.5486 0.2383, -2.187 0.5036 0.0, -2.187 0.5653 0.2057, -2.187 0.6599 0.1575, -2.187 0.6238 0.1632, -2.187 0.5911 0.1798, -2.187 0.5429 0.2745, -2.187 0.3618 0.2839, 2.872 -0.2728 0.0394, 2.9902 -0.3122 0.0, 2.872 -0.3122 0.0, 2.9902 -0.2728 0.0394, 2.872 -1.0097 0.2904, 2.872 -0.9932 0.4848, 2.872 -1.0035 0.272, 2.872 -1.0094 0.5461, 2.872 -1.0319 0.5522, 2.872 -1.0319 0.6453, 2.872 -0.9531 0.7241, 2.872 -0.9833 0.7181, 2.872 -1.0088 0.701, 2.872 -1.0259 0.6754, 2.872 -0.993 0.5297, 2.872 -0.9871 0.5072, 2.872 -0.2728 0.7241, 2.872 -1.0097 0.4685, 2.872 -1.0057 0.2528, 2.872 -1.0158 0.2363, 2.872 -1.0319 0.0394, 2.872 -1.0319 0.2255, 2.872 -0.9925 0.0, 2.9902 -1.0319 0.0394, 2.9902 -0.9925 0.0, 2.9902 -1.0319 0.2255, 2.9902 -1.0057 0.2528, 2.9902 -1.0035 0.272, 2.9902 -1.0097 0.2904, 2.9902 -1.0158 0.2363, 2.9902 -1.0097 0.4685, 2.9902 -0.993 0.5297, 2.9902 -1.0094 0.5461, 2.9902 -1.0319 0.5522, 2.9902 -0.9932 0.4848, 2.9902 -0.9871 0.5072, 2.9902 -1.0319 0.6453, 2.9902 -1.0088 0.701, 2.9902 -1.0259 0.6754, 2.9902 -0.9833 0.7181, 2.9902 -0.9531 0.7241, 2.9902 -0.2728 0.7241, -3.0138 -0.2728 0.0394, -2.8957 -0.3122 0.0, -3.0138 -0.3122 0.0, -2.8957 -0.2728 0.0394, -3.0138 -1.0097 0.2904, -3.0138 -0.9932 0.4848, -3.0138 -1.0035 0.272, -3.0138 -1.0094 0.5461, -3.0138 -1.0319 0.5522, -3.0138 -1.0319 0.6453, -3.0138 -0.9531 0.7241, -3.0138 -0.9833 0.7181, -3.0138 -1.0088 0.701, -3.0138 -1.0259 0.6754, -3.0138 -0.993 0.5297, -3.0138 -0.9871 0.5072, -3.0138 -0.2728 0.7241, -3.0138 -1.0097 0.4685, -3.0138 -1.0057 0.2528, -3.0138 -1.0158 0.2363, -3.0138 -1.0319 0.0394, -3.0138 -1.0319 0.2255, -3.0138 -0.9925 0.0, -2.8957 -1.0319 0.0394, -2.8957 -0.9925 0.0, -2.8957 -1.0319 0.2255, -2.8957 -1.0035 0.272, -2.8957 -1.0158 0.2363, -2.8957 -1.0057 0.2528, -2.8957 -1.0097 0.2904, -2.8957 -1.0094 0.5461, -2.8957 -1.0319 0.6453, -2.8957 -1.0319 0.5522, -2.8957 -0.993 0.5297, -2.8957 -0.9531 0.7241, -2.8957 -0.9833 0.7181, -2.8957 -1.0088 0.701, -2.8957 -1.0259 0.6754, -2.8957 -0.2728 0.7241, -2.8957 -0.9871 0.5072, -2.8957 -0.9932 0.4848, -2.8957 -1.0097 0.4685
            ]
        }
        coordIndex [
            0,1,2,-1,1,0,3,-1,2,1,4,-1,5,6,0,-1,7,6,5,-1,3,0,6,-1,8,9,10,-1,10,9,11,-1,10,11,12,-1,13,9,14,-1,9,8,14,-1,13,14,15,-1,16,17,18,-1,19,20,21,-1,22,23,24,-1,16,24,25,-1,26,24,23,-1,25,17,16,-1,24,26,25,-1,27,28,29,-1,25,26,30,-1,31,30,29,-1,26,29,30,-1,29,28,32,-1,29,32,31,-1,29,33,27,-1,33,19,34,-1,34,27,33,-1,20,19,33,-1,33,35,20,-1,36,37,38,-1,36,38,39,-1,39,38,40,-1,39,40,41,-1,41,40,42,-1,41,42,43,-1,43,42,44,-1,43,44,45,-1,45,44,46,-1,45,46,47,-1,47,46,37,-1,47,37,36,-1,42,46,44,-1,42,38,37,-1,42,40,38,-1,46,42,37,-1,48,49,50,-1,51,52,53,-1,54,55,56,-1,57,58,59,-1,59,60,61,-1,62,55,63,-1,64,65,56,-1,66,67,64,-1,68,67,66,-1,66,69,68,-1,50,70,71,-1,69,72,73,-1,74,75,48,-1,76,75,74,-1,77,76,74,-1,78,79,80,-1,81,82,80,-1,83,84,81,-1,53,52,83,-1,61,85,86,-1,52,84,83,-1,84,82,81,-1,82,78,80,-1,79,77,80,-1,79,76,77,-1,48,75,49,-1,49,70,50,-1,70,72,71,-1,71,72,69,-1,73,68,69,-1,64,67,65,-1,56,65,54,-1,54,63,55,-1,62,57,55,-1,62,58,57,-1,58,60,59,-1,60,85,61,-1,85,87,86,-1,88,89,90,-1,89,91,90,-1,88,92,93,-1,91,94,95,-1,96,97,98,-1,98,90,96,-1,96,90,91,-1,94,91,89,-1,89,88,93,-1,92,99,93,-1,100,101,102,-1,103,101,100,-1,103,104,101,-1,103,105,104,-1,106,107,108,-1,109,107,110,-1,111,109,110,-1,111,112,109,-1,112,111,113,-1,104,114,108,-1,115,113,116,-1,117,116,118,-1,119,120,121,-1,115,112,113,-1,122,121,123,-1,110,107,106,-1,106,108,114,-1,114,104,105,-1,122,124,102,-1,124,100,102,-1,124,122,123,-1,123,121,120,-1,125,119,117,-1,120,119,125,-1,116,117,115,-1,125,117,118,-1,126,127,128,-1,129,130,131,-1,129,132,130,-1,133,126,134,-1,128,132,134,-1,128,134,126,-1,127,135,136,-1,132,129,134,-1,127,136,128,-1,136,135,132,-1,130,132,135,-1,137,86,87,-1,137,87,138,-1,138,87,85,-1,138,85,139,-1,139,85,60,-1,139,60,140,-1,140,60,58,-1,140,58,141,-1,141,58,62,-1,141,62,142,-1,142,62,63,-1,142,63,143,-1,143,63,54,-1,143,54,144,-1,144,54,65,-1,144,65,145,-1,145,65,67,-1,145,67,146,-1,146,67,68,-1,146,68,147,-1,147,68,73,-1,147,73,148,-1,148,73,72,-1,148,72,149,-1,149,72,70,-1,149,70,150,-1,150,70,49,-1,150,49,151,-1,151,49,75,-1,151,75,152,-1,152,75,76,-1,152,76,153,-1,153,76,79,-1,153,79,154,-1,154,79,78,-1,154,78,155,-1,155,78,82,-1,155,82,156,-1,156,82,84,-1,156,84,157,-1,157,84,52,-1,157,52,158,-1,158,52,51,-1,158,51,159,-1,159,51,53,-1,159,53,160,-1,160,53,83,-1,160,83,161,-1,161,83,81,-1,161,81,162,-1,162,81,80,-1,162,80,163,-1,163,80,77,-1,163,77,164,-1,164,77,74,-1,164,74,165,-1,165,74,48,-1,165,48,166,-1,166,48,50,-1,166,50,167,-1,167,50,71,-1,167,71,168,-1,168,71,69,-1,168,69,169,-1,169,69,66,-1,169,66,170,-1,170,66,64,-1,170,64,171,-1,171,64,56,-1,171,56,172,-1,172,56,55,-1,172,55,173,-1,173,55,57,-1,173,57,174,-1,174,57,59,-1,174,59,175,-1,175,59,61,-1,175,61,176,-1,176,61,86,-1,176,86,137,-1,177,93,99,-1,177,99,178,-1,178,99,92,-1,178,92,179,-1,179,92,88,-1,179,88,180,-1,180,88,90,-1,180,90,181,-1,181,90,98,-1,181,98,182,-1,182,98,97,-1,182,97,183,-1,183,97,96,-1,183,96,184,-1,184,96,91,-1,184,91,185,-1,185,91,95,-1,185,95,186,-1,186,95,94,-1,186,94,187,-1,187,94,89,-1,187,89,188,-1,188,89,93,-1,188,93,177,-1,189,116,113,-1,189,113,190,-1,190,113,111,-1,190,111,191,-1,191,111,110,-1,191,110,192,-1,192,110,106,-1,192,106,193,-1,193,106,114,-1,193,114,194,-1,194,114,105,-1,194,105,195,-1,195,105,103,-1,195,103,196,-1,196,103,100,-1,196,100,197,-1,197,100,124,-1,197,124,198,-1,198,124,123,-1,198,123,199,-1,199,123,120,-1,199,120,200,-1,200,120,125,-1,200,125,201,-1,201,125,118,-1,201,118,202,-1,202,118,116,-1,202,116,189,-1,203,112,115,-1,203,115,204,-1,204,115,117,-1,204,117,205,-1,205,117,119,-1,205,119,206,-1,206,119,121,-1,206,121,207,-1,207,121,122,-1,207,122,208,-1,208,122,102,-1,208,102,209,-1,209,102,101,-1,209,101,210,-1,210,101,104,-1,210,104,211,-1,211,104,108,-1,211,108,212,-1,212,108,107,-1,212,107,213,-1,213,107,109,-1,213,109,214,-1,214,109,112,-1,214,112,203,-1,215,135,127,-1,215,127,216,-1,216,127,126,-1,216,126,217,-1,217,126,133,-1,217,133,218,-1,218,133,134,-1,218,134,219,-1,219,134,129,-1,219,129,220,-1,220,129,131,-1,220,131,221,-1,221,131,130,-1,221,130,222,-1,222,130,135,-1,222,135,215,-1,223,128,136,-1,223,136,224,-1,224,136,132,-1,224,132,225,-1,225,132,128,-1,225,128,223,-1,226,227,228,-1,227,226,229,-1,228,227,230,-1,231,232,226,-1,233,232,231,-1,229,226,232,-1,234,235,236,-1,236,235,237,-1,236,237,238,-1,239,235,240,-1,235,234,240,-1,239,240,241,-1,242,243,244,-1,245,246,247,-1,248,249,250,-1,242,250,251,-1,252,250,249,-1,251,243,242,-1,250,252,251,-1,253,254,255,-1,251,252,256,-1,257,256,255,-1,252,255,256,-1,255,254,258,-1,255,258,257,-1,255,259,253,-1,259,245,260,-1,260,253,259,-1,246,245,259,-1,259,261,246,-1,262,228,263,-1,228,262,226,-1,263,264,265,-1,262,265,266,-1,265,262,263,-1,266,267,262,-1,268,269,267,-1,267,269,262,-1,270,271,272,-1,273,274,272,-1,275,276,277,-1,277,274,275,-1,275,274,273,-1,274,270,272,-1,278,279,280,-1,280,281,278,-1,282,283,284,-1,285,286,287,-1,282,288,286,-1,289,287,286,-1,288,282,284,-1,286,288,289,-1,290,291,292,-1,288,293,289,-1,294,291,293,-1,289,293,291,-1,291,295,292,-1,291,294,295,-1,291,290,279,-1,279,296,280,-1,296,279,290,-1,297,279,278,-1,268,233,231,-1,268,231,269,-1,233,268,267,-1,233,267,232,-1,229,265,227,-1,229,232,266,-1,266,265,229,-1,232,267,266,-1,264,227,265,-1,230,264,263,-1,264,230,227,-1,230,263,228,-1,277,237,235,-1,277,235,274,-1,238,275,236,-1,238,237,276,-1,276,275,238,-1,237,277,276,-1,273,236,275,-1,234,273,272,-1,273,234,236,-1,234,272,240,-1,240,272,271,-1,240,271,241,-1,270,241,271,-1,241,270,239,-1,281,247,246,-1,281,246,278,-1,247,281,280,-1,247,280,245,-1,245,280,296,-1,245,296,260,-1,295,257,258,-1,256,294,293,-1,253,296,290,-1,290,292,254,-1,254,292,258,-1,253,260,296,-1,253,290,254,-1,295,294,257,-1,292,295,258,-1,256,257,294,-1,256,293,288,-1,256,288,251,-1,243,284,283,-1,251,284,243,-1,251,288,284,-1,243,283,244,-1,283,282,244,-1,244,282,242,-1,242,282,286,-1,242,286,250,-1,248,285,287,-1,250,285,248,-1,250,286,285,-1,248,287,249,-1,287,289,249,-1,249,289,252,-1,252,289,291,-1,252,291,255,-1,255,291,279,-1,255,279,259,-1,297,259,279,-1,259,297,261,-1,298,299,300,-1,299,298,301,-1,300,299,302,-1,303,304,298,-1,305,304,303,-1,301,298,304,-1,306,307,308,-1,308,307,309,-1,308,309,310,-1,311,307,312,-1,307,306,312,-1,311,312,313,-1,314,315,316,-1,317,318,319,-1,320,321,322,-1,314,322,323,-1,324,322,321,-1,323,315,314,-1,322,324,323,-1,325,326,327,-1,323,324,328,-1,329,328,327,-1,324,327,328,-1,327,326,330,-1,327,330,329,-1,327,331,325,-1,331,317,332,-1,332,325,331,-1,318,317,331,-1,331,333,318,-1,334,300,335,-1,300,334,298,-1,335,336,337,-1,334,337,338,-1,337,334,335,-1,338,339,334,-1,340,341,339,-1,339,341,334,-1,342,343,344,-1,345,346,344,-1,347,348,349,-1,349,346,347,-1,347,346,345,-1,346,342,344,-1,350,351,352,-1,352,353,350,-1,354,355,356,-1,357,358,359,-1,354,360,358,-1,361,359,358,-1,360,354,356,-1,358,360,361,-1,362,363,364,-1,360,365,361,-1,366,363,365,-1,361,365,363,-1,363,367,364,-1,363,366,367,-1,363,362,351,-1,351,368,352,-1,368,351,362,-1,369,351,350,-1,340,305,303,-1,340,303,341,-1,305,340,339,-1,305,339,304,-1,301,337,299,-1,301,304,338,-1,338,337,301,-1,304,339,338,-1,336,299,337,-1,302,336,335,-1,336,302,299,-1,302,335,300,-1,349,309,307,-1,349,307,346,-1,310,347,308,-1,310,309,348,-1,348,347,310,-1,309,349,348,-1,345,308,347,-1,306,345,344,-1,345,306,308,-1,306,344,312,-1,312,344,343,-1,312,343,313,-1,342,313,343,-1,313,342,311,-1,353,319,318,-1,353,318,350,-1,319,353,352,-1,319,352,317,-1,317,352,368,-1,317,368,332,-1,367,329,330,-1,328,366,365,-1,325,368,362,-1,362,364,326,-1,326,364,330,-1,325,332,368,-1,325,362,326,-1,367,366,329,-1,364,367,330,-1,328,329,366,-1,328,365,360,-1,328,360,323,-1,315,356,355,-1,323,356,315,-1,323,360,356,-1,315,355,316,-1,355,354,316,-1,316,354,314,-1,314,354,358,-1,314,358,322,-1,320,357,359,-1,322,357,320,-1,322,358,357,-1,320,359,321,-1,359,361,321,-1,321,361,324,-1,324,361,363,-1,324,363,327,-1,327,363,351,-1,327,351,331,-1,369,331,351,-1,331,369,333,-1,370,371,372,-1,371,370,373,-1,372,371,374,-1,375,376,370,-1,377,376,375,-1,373,370,376,-1,378,379,380,-1,380,379,381,-1,380,381,382,-1,383,379,384,-1,379,378,384,-1,383,384,385,-1,386,387,388,-1,389,390,391,-1,392,393,394,-1,386,394,395,-1,396,394,393,-1,395,387,386,-1,394,396,395,-1,397,398,399,-1,395,396,400,-1,401,400,399,-1,396,399,400,-1,399,398,402,-1,399,402,401,-1,399,403,397,-1,403,389,404,-1,404,397,403,-1,390,389,403,-1,403,405,390,-1,406,372,407,-1,372,406,370,-1,407,408,409,-1,406,409,410,-1,409,406,407,-1,410,411,406,-1,412,413,411,-1,411,413,406,-1,414,415,416,-1,417,418,416,-1,419,420,421,-1,421,418,419,-1,419,418,417,-1,418,414,416,-1,422,423,424,-1,424,425,422,-1,426,427,428,-1,429,430,431,-1,426,432,430,-1,433,431,430,-1,432,426,428,-1,430,432,433,-1,434,435,436,-1,432,437,433,-1,438,435,437,-1,433,437,435,-1,435,439,436,-1,435,438,439,-1,435,434,423,-1,423,440,424,-1,440,423,434,-1,441,423,422,-1,412,377,375,-1,412,375,413,-1,377,412,411,-1,377,411,376,-1,373,409,371,-1,373,376,410,-1,410,409,373,-1,376,411,410,-1,408,371,409,-1,374,408,407,-1,408,374,371,-1,374,407,372,-1,421,381,379,-1,421,379,418,-1,382,419,380,-1,382,381,420,-1,420,419,382,-1,381,421,420,-1,417,380,419,-1,378,417,416,-1,417,378,380,-1,378,416,384,-1,384,416,415,-1,384,415,385,-1,414,385,415,-1,385,414,383,-1,425,391,390,-1,425,390,422,-1,391,425,424,-1,391,424,389,-1,389,424,440,-1,389,440,404,-1,439,401,402,-1,400,438,437,-1,397,440,434,-1,434,436,398,-1,398,436,402,-1,397,404,440,-1,397,434,398,-1,439,438,401,-1,436,439,402,-1,400,401,438,-1,400,437,432,-1,400,432,395,-1,387,428,427,-1,395,428,387,-1,395,432,428,-1,387,427,388,-1,427,426,388,-1,388,426,386,-1,386,426,430,-1,386,430,394,-1,392,429,431,-1,394,429,392,-1,394,430,429,-1,392,431,393,-1,431,433,393,-1,393,433,396,-1,396,433,435,-1,396,435,399,-1,399,435,423,-1,399,423,403,-1,441,403,423,-1,403,441,405,-1,442,443,444,-1,443,442,445,-1,444,443,446,-1,447,448,442,-1,449,448,447,-1,445,442,448,-1,450,451,452,-1,452,451,453,-1,452,453,454,-1,455,451,456,-1,451,450,456,-1,455,456,457,-1,458,459,460,-1,461,462,463,-1,464,465,466,-1,458,466,467,-1,468,466,465,-1,467,459,458,-1,466,468,467,-1,469,470,471,-1,467,468,472,-1,473,472,471,-1,468,471,472,-1,471,470,474,-1,471,474,473,-1,471,475,469,-1,475,461,476,-1,476,469,475,-1,462,461,475,-1,475,477,462,-1,478,444,479,-1,444,478,442,-1,479,480,481,-1,478,481,482,-1,481,478,479,-1,482,483,478,-1,484,485,483,-1,483,485,478,-1,486,487,488,-1,489,490,488,-1,491,492,493,-1,493,490,491,-1,491,490,489,-1,490,486,488,-1,494,495,496,-1,496,497,494,-1,498,499,500,-1,501,502,503,-1,498,504,502,-1,505,503,502,-1,504,498,500,-1,502,504,505,-1,506,507,508,-1,504,509,505,-1,510,507,509,-1,505,509,507,-1,507,511,508,-1,507,510,511,-1,507,506,495,-1,495,512,496,-1,512,495,506,-1,513,495,494,-1,484,449,447,-1,484,447,485,-1,449,484,483,-1,449,483,448,-1,445,481,443,-1,445,448,482,-1,482,481,445,-1,448,483,482,-1,480,443,481,-1,446,480,479,-1,480,446,443,-1,446,479,444,-1,493,453,451,-1,493,451,490,-1,454,491,452,-1,454,453,492,-1,492,491,454,-1,453,493,492,-1,489,452,491,-1,450,489,488,-1,489,450,452,-1,450,488,456,-1,456,488,487,-1,456,487,457,-1,486,457,487,-1,457,486,455,-1,497,463,462,-1,497,462,494,-1,463,497,496,-1,463,496,461,-1,461,496,512,-1,461,512,476,-1,511,473,474,-1,472,510,509,-1,469,512,506,-1,506,508,470,-1,470,508,474,-1,469,476,512,-1,469,506,470,-1,511,510,473,-1,508,511,474,-1,472,473,510,-1,472,509,504,-1,472,504,467,-1,459,500,499,-1,467,500,459,-1,467,504,500,-1,459,499,460,-1,499,498,460,-1,460,498,458,-1,458,498,502,-1,458,502,466,-1,464,501,503,-1,466,501,464,-1,466,502,501,-1,464,503,465,-1,503,505,465,-1,465,505,468,-1,468,505,507,-1,468,507,471,-1,471,507,495,-1,471,495,475,-1,513,475,495,-1,475,513,477,-1,514,515,516,-1,515,514,517,-1,516,515,518,-1,519,520,514,-1,521,520,519,-1,517,514,520,-1,522,523,524,-1,524,523,525,-1,524,525,526,-1,527,523,528,-1,523,522,528,-1,527,528,529,-1,530,531,532,-1,533,534,535,-1,536,537,538,-1,530,538,539,-1,540,538,537,-1,539,531,530,-1,538,540,539,-1,541,542,543,-1,539,540,544,-1,545,544,543,-1,540,543,544,-1,543,542,546,-1,543,546,545,-1,543,547,541,-1,547,533,548,-1,548,541,547,-1,534,533,547,-1,547,549,534,-1,550,516,551,-1,516,550,514,-1,551,552,553,-1,550,553,554,-1,553,550,551,-1,554,555,550,-1,556,557,555,-1,555,557,550,-1,558,559,560,-1,561,562,560,-1,563,564,565,-1,565,562,563,-1,563,562,561,-1,562,558,560,-1,566,567,568,-1,568,569,566,-1,570,571,572,-1,573,574,575,-1,570,576,574,-1,577,575,574,-1,576,570,572,-1,574,576,577,-1,578,579,580,-1,576,581,577,-1,582,579,581,-1,577,581,579,-1,579,583,580,-1,579,582,583,-1,579,578,567,-1,567,584,568,-1,584,567,578,-1,585,567,566,-1,556,521,519,-1,556,519,557,-1,521,556,555,-1,521,555,520,-1,517,553,515,-1,517,520,554,-1,554,553,517,-1,520,555,554,-1,552,515,553,-1,518,552,551,-1,552,518,515,-1,518,551,516,-1,565,525,523,-1,565,523,562,-1,526,563,524,-1,526,525,564,-1,564,563,526,-1,525,565,564,-1,561,524,563,-1,522,561,560,-1,561,522,524,-1,522,560,528,-1,528,560,559,-1,528,559,529,-1,558,529,559,-1,529,558,527,-1,569,535,534,-1,569,534,566,-1,535,569,568,-1,535,568,533,-1,533,568,584,-1,533,584,548,-1,583,545,546,-1,544,582,581,-1,541,584,578,-1,578,580,542,-1,542,580,546,-1,541,548,584,-1,541,578,542,-1,583,582,545,-1,580,583,546,-1,544,545,582,-1,544,581,576,-1,544,576,539,-1,531,572,571,-1,539,572,531,-1,539,576,572,-1,531,571,532,-1,571,570,532,-1,532,570,530,-1,530,570,574,-1,530,574,538,-1,536,573,575,-1,538,573,536,-1,538,574,573,-1,536,575,537,-1,575,577,537,-1,537,577,540,-1,540,577,579,-1,540,579,543,-1,543,579,567,-1,543,567,547,-1,585,547,567,-1,547,585,549,-1,586,587,588,-1,587,586,589,-1,588,587,590,-1,591,592,586,-1,593,592,591,-1,589,586,592,-1,594,595,596,-1,596,595,597,-1,596,597,598,-1,599,595,600,-1,595,594,600,-1,599,600,601,-1,602,603,604,-1,605,606,607,-1,608,609,610,-1,602,610,611,-1,612,610,609,-1,611,603,602,-1,610,612,611,-1,613,614,615,-1,611,612,616,-1,617,616,615,-1,612,615,616,-1,615,614,618,-1,615,618,617,-1,615,619,613,-1,619,605,620,-1,620,613,619,-1,606,605,619,-1,619,621,606,-1,622,588,623,-1,588,622,586,-1,623,624,625,-1,622,625,626,-1,625,622,623,-1,626,627,622,-1,628,629,627,-1,627,629,622,-1,630,631,632,-1,633,634,632,-1,635,636,637,-1,637,634,635,-1,635,634,633,-1,634,630,632,-1,638,639,640,-1,640,641,638,-1,642,643,644,-1,645,646,647,-1,642,648,646,-1,649,647,646,-1,648,642,644,-1,646,648,649,-1,650,651,652,-1,648,653,649,-1,654,651,653,-1,649,653,651,-1,651,655,652,-1,651,654,655,-1,651,650,639,-1,639,656,640,-1,656,639,650,-1,657,639,638,-1,628,593,591,-1,628,591,629,-1,593,628,627,-1,593,627,592,-1,589,625,587,-1,589,592,626,-1,626,625,589,-1,592,627,626,-1,624,587,625,-1,590,624,623,-1,624,590,587,-1,590,623,588,-1,637,597,595,-1,637,595,634,-1,598,635,596,-1,598,597,636,-1,636,635,598,-1,597,637,636,-1,633,596,635,-1,594,633,632,-1,633,594,596,-1,594,632,600,-1,600,632,631,-1,600,631,601,-1,630,601,631,-1,601,630,599,-1,641,607,606,-1,641,606,638,-1,607,641,640,-1,607,640,605,-1,605,640,656,-1,605,656,620,-1,655,617,618,-1,616,654,653,-1,613,656,650,-1,650,652,614,-1,614,652,618,-1,613,620,656,-1,613,650,614,-1,655,654,617,-1,652,655,618,-1,616,617,654,-1,616,653,648,-1,616,648,611,-1,603,644,643,-1,611,644,603,-1,611,648,644,-1,603,643,604,-1,643,642,604,-1,604,642,602,-1,602,642,646,-1,602,646,610,-1,608,645,647,-1,610,645,608,-1,610,646,645,-1,608,647,609,-1,647,649,609,-1,609,649,612,-1,612,649,651,-1,612,651,615,-1,615,651,639,-1,615,639,619,-1,657,619,639,-1,619,657,621,-1,658,21,20,-1,658,20,659,-1,21,658,660,-1,21,660,19,-1,19,660,661,-1,19,661,34,-1,662,31,32,-1,30,663,664,-1,27,661,665,-1,665,666,28,-1,28,666,32,-1,27,34,661,-1,27,665,28,-1,662,663,31,-1,666,662,32,-1,30,31,663,-1,30,664,667,-1,30,667,25,-1,17,668,669,-1,25,668,17,-1,25,667,668,-1,17,669,18,-1,669,670,18,-1,18,670,16,-1,16,670,671,-1,16,671,24,-1,22,672,673,-1,24,672,22,-1,24,671,672,-1,22,673,23,-1,673,674,23,-1,23,674,26,-1,26,674,675,-1,26,675,29,-1,29,675,676,-1,29,676,33,-1,677,33,676,-1,33,677,35,-1,678,679,680,-1,681,680,682,-1,680,681,678,-1,682,683,681,-1,684,685,683,-1,683,685,681,-1,686,687,688,-1,689,690,688,-1,691,692,693,-1,693,690,691,-1,691,690,689,-1,690,686,688,-1,659,676,660,-1,660,658,659,-1,670,669,668,-1,672,671,673,-1,670,667,671,-1,674,673,671,-1,667,670,668,-1,671,667,674,-1,665,675,666,-1,667,664,674,-1,663,675,664,-1,674,664,675,-1,675,662,666,-1,675,663,662,-1,675,665,676,-1,676,661,660,-1,661,676,665,-1,677,676,659,-1,684,7,5,-1,684,5,685,-1,7,684,683,-1,7,683,6,-1,3,680,1,-1,3,6,682,-1,682,680,3,-1,6,683,682,-1,679,1,680,-1,4,679,678,-1,679,4,1,-1,4,678,2,-1,681,2,678,-1,2,681,0,-1,693,11,9,-1,693,9,690,-1,12,691,10,-1,12,11,692,-1,692,691,12,-1,11,693,692,-1,689,10,691,-1,8,689,688,-1,689,8,10,-1,8,688,14,-1,14,688,687,-1,14,687,15,-1,686,15,687,-1,15,686,13,-1,694,695,696,-1,695,694,697,-1,696,695,698,-1,699,700,694,-1,701,700,699,-1,697,694,700,-1,702,703,704,-1,704,703,705,-1,704,705,706,-1,707,703,708,-1,703,702,708,-1,707,708,709,-1,710,711,712,-1,713,714,715,-1,716,717,718,-1,710,718,719,-1,720,718,717,-1,719,711,710,-1,718,720,719,-1,721,722,723,-1,719,720,724,-1,725,724,723,-1,720,723,724,-1,723,722,726,-1,723,726,725,-1,723,727,721,-1,727,713,728,-1,728,721,727,-1,714,713,727,-1,727,729,714,-1,730,696,731,-1,696,730,694,-1,731,732,733,-1,730,733,734,-1,733,730,731,-1,734,735,730,-1,736,737,735,-1,735,737,730,-1,738,739,740,-1,741,742,740,-1,743,744,745,-1,745,742,743,-1,743,742,741,-1,742,738,740,-1,746,747,748,-1,748,749,746,-1,750,751,752,-1,753,754,755,-1,750,756,754,-1,757,755,754,-1,756,750,752,-1,754,756,757,-1,758,759,760,-1,756,761,757,-1,762,759,761,-1,757,761,759,-1,759,763,760,-1,759,762,763,-1,759,758,747,-1,747,764,748,-1,764,747,758,-1,765,747,746,-1,736,701,699,-1,736,699,737,-1,701,736,735,-1,701,735,700,-1,697,733,695,-1,697,700,734,-1,734,733,697,-1,700,735,734,-1,732,695,733,-1,698,732,731,-1,732,698,695,-1,698,731,696,-1,745,705,703,-1,745,703,742,-1,706,743,704,-1,706,705,744,-1,744,743,706,-1,705,745,744,-1,741,704,743,-1,702,741,740,-1,741,702,704,-1,702,740,708,-1,708,740,739,-1,708,739,709,-1,738,709,739,-1,709,738,707,-1,749,715,714,-1,749,714,746,-1,715,749,748,-1,715,748,713,-1,713,748,764,-1,713,764,728,-1,763,725,726,-1,724,762,761,-1,721,764,758,-1,758,760,722,-1,722,760,726,-1,721,728,764,-1,721,758,722,-1,763,762,725,-1,760,763,726,-1,724,725,762,-1,724,761,756,-1,724,756,719,-1,711,752,751,-1,719,752,711,-1,719,756,752,-1,711,751,712,-1,751,750,712,-1,712,750,710,-1,710,750,754,-1,710,754,718,-1,716,753,755,-1,718,753,716,-1,718,754,753,-1,716,755,717,-1,755,757,717,-1,717,757,720,-1,720,757,759,-1,720,759,723,-1,723,759,747,-1,723,747,727,-1,765,727,747,-1,727,765,729,-1,766,767,768,-1,767,766,769,-1,768,767,770,-1,771,772,766,-1,773,772,771,-1,769,766,772,-1,774,775,776,-1,776,775,777,-1,776,777,778,-1,779,775,780,-1,775,774,780,-1,779,780,781,-1,782,783,784,-1,785,786,787,-1,788,789,790,-1,782,790,791,-1,792,790,789,-1,791,783,782,-1,790,792,791,-1,793,794,795,-1,791,792,796,-1,797,796,795,-1,792,795,796,-1,795,794,798,-1,795,798,797,-1,795,799,793,-1,799,785,800,-1,800,793,799,-1,786,785,799,-1,799,801,786,-1,802,768,803,-1,768,802,766,-1,803,804,805,-1,802,805,806,-1,805,802,803,-1,806,807,802,-1,808,809,807,-1,807,809,802,-1,810,811,812,-1,813,814,812,-1,815,816,817,-1,817,814,815,-1,815,814,813,-1,814,810,812,-1,818,819,820,-1,820,821,818,-1,822,823,824,-1,825,826,827,-1,822,828,826,-1,829,827,826,-1,828,822,824,-1,826,828,829,-1,830,831,832,-1,828,833,829,-1,834,831,833,-1,829,833,831,-1,831,835,832,-1,831,834,835,-1,831,830,819,-1,819,836,820,-1,836,819,830,-1,837,819,818,-1,808,773,771,-1,808,771,809,-1,773,808,807,-1,773,807,772,-1,769,805,767,-1,769,772,806,-1,806,805,769,-1,772,807,806,-1,804,767,805,-1,770,804,803,-1,804,770,767,-1,770,803,768,-1,817,777,775,-1,817,775,814,-1,778,815,776,-1,778,777,816,-1,816,815,778,-1,777,817,816,-1,813,776,815,-1,774,813,812,-1,813,774,776,-1,774,812,780,-1,780,812,811,-1,780,811,781,-1,810,781,811,-1,781,810,779,-1,821,787,786,-1,821,786,818,-1,787,821,820,-1,787,820,785,-1,785,820,836,-1,785,836,800,-1,835,797,798,-1,796,834,833,-1,793,836,830,-1,830,832,794,-1,794,832,798,-1,793,800,836,-1,793,830,794,-1,835,834,797,-1,832,835,798,-1,796,797,834,-1,796,833,828,-1,796,828,791,-1,783,824,823,-1,791,824,783,-1,791,828,824,-1,783,823,784,-1,823,822,784,-1,784,822,782,-1,782,822,826,-1,782,826,790,-1,788,825,827,-1,790,825,788,-1,790,826,825,-1,788,827,789,-1,827,829,789,-1,789,829,792,-1,792,829,831,-1,792,831,795,-1,795,831,819,-1,795,819,799,-1,837,799,819,-1,799,837,801,-1,838,839,840,-1,839,838,841,-1,840,839,842,-1,843,844,838,-1,845,844,843,-1,841,838,844,-1,846,847,848,-1,848,847,849,-1,848,849,850,-1,851,847,852,-1,847,846,852,-1,851,852,853,-1,854,855,856,-1,857,858,859,-1,860,861,862,-1,854,862,863,-1,864,862,861,-1,863,855,854,-1,862,864,863,-1,865,866,867,-1,863,864,868,-1,869,868,867,-1,864,867,868,-1,867,866,870,-1,867,870,869,-1,867,871,865,-1,871,857,872,-1,872,865,871,-1,858,857,871,-1,871,873,858,-1,874,840,875,-1,840,874,838,-1,875,876,877,-1,874,877,878,-1,877,874,875,-1,878,879,874,-1,880,881,879,-1,879,881,874,-1,882,883,884,-1,885,886,884,-1,887,888,889,-1,889,886,887,-1,887,886,885,-1,886,882,884,-1,890,891,892,-1,892,893,890,-1,894,895,896,-1,897,898,899,-1,894,900,898,-1,901,899,898,-1,900,894,896,-1,898,900,901,-1,902,903,904,-1,900,905,901,-1,906,903,905,-1,901,905,903,-1,903,907,904,-1,903,906,907,-1,903,902,891,-1,891,908,892,-1,908,891,902,-1,909,891,890,-1,880,845,843,-1,880,843,881,-1,845,880,879,-1,845,879,844,-1,841,877,839,-1,841,844,878,-1,878,877,841,-1,844,879,878,-1,876,839,877,-1,842,876,875,-1,876,842,839,-1,842,875,840,-1,889,849,847,-1,889,847,886,-1,850,887,848,-1,850,849,888,-1,888,887,850,-1,849,889,888,-1,885,848,887,-1,846,885,884,-1,885,846,848,-1,846,884,852,-1,852,884,883,-1,852,883,853,-1,882,853,883,-1,853,882,851,-1,893,859,858,-1,893,858,890,-1,859,893,892,-1,859,892,857,-1,857,892,908,-1,857,908,872,-1,907,869,870,-1,868,906,905,-1,865,908,902,-1,902,904,866,-1,866,904,870,-1,865,872,908,-1,865,902,866,-1,907,906,869,-1,904,907,870,-1,868,869,906,-1,868,905,900,-1,868,900,863,-1,855,896,895,-1,863,896,855,-1,863,900,896,-1,855,895,856,-1,895,894,856,-1,856,894,854,-1,854,894,898,-1,854,898,862,-1,860,897,899,-1,862,897,860,-1,862,898,897,-1,860,899,861,-1,899,901,861,-1,861,901,864,-1,864,901,903,-1,864,903,867,-1,867,903,891,-1,867,891,871,-1,909,871,891,-1,871,909,873,-1,910,911,912,-1,911,910,913,-1,914,915,916,-1,917,918,919,-1,919,920,917,-1,921,920,922,-1,923,922,920,-1,923,920,919,-1,917,920,924,-1,925,910,915,-1,920,926,925,-1,925,926,910,-1,924,920,925,-1,927,915,914,-1,915,910,916,-1,916,910,912,-1,916,912,928,-1,929,930,931,-1,930,929,932,-1,929,928,932,-1,932,928,912,-1,932,933,930,-1,933,932,934,-1,935,931,930,-1,935,930,933,-1,936,916,928,-1,914,937,938,-1,931,935,929,-1,935,939,929,-1,939,936,928,-1,929,939,928,-1,937,914,916,-1,936,937,916,-1,914,938,940,-1,914,940,927,-1,941,917,924,-1,918,942,943,-1,915,940,944,-1,944,945,925,-1,925,945,924,-1,915,927,940,-1,915,944,925,-1,941,942,917,-1,945,941,924,-1,918,917,942,-1,946,918,943,-1,918,946,919,-1,947,922,923,-1,919,948,923,-1,947,923,948,-1,946,948,919,-1,949,922,947,-1,921,949,950,-1,949,921,922,-1,921,950,920,-1,951,926,920,-1,951,920,950,-1,913,926,951,-1,926,913,910,-1,942,946,943,-1,941,950,942,-1,942,950,946,-1,949,947,950,-1,948,950,947,-1,948,946,950,-1,951,950,945,-1,936,939,934,-1,913,951,945,-1,941,945,950,-1,938,937,944,-1,945,944,913,-1,913,944,937,-1,944,940,938,-1,937,911,913,-1,934,911,936,-1,911,937,936,-1,939,935,933,-1,939,933,934,-1,934,912,911,-1,912,934,932,-1,952,953,954,-1,953,952,955,-1,956,957,958,-1,959,960,961,-1,961,962,959,-1,963,962,964,-1,965,964,962,-1,965,962,961,-1,959,962,966,-1,967,952,957,-1,962,968,967,-1,967,968,952,-1,966,962,967,-1,969,957,956,-1,957,952,958,-1,958,952,954,-1,958,954,970,-1,971,972,973,-1,972,971,974,-1,971,970,974,-1,974,970,954,-1,974,975,972,-1,975,974,976,-1,973,972,975,-1,975,977,973,-1,971,973,977,-1,956,958,978,-1,970,979,980,-1,981,956,978,-1,970,980,958,-1,978,958,980,-1,971,977,979,-1,970,971,979,-1,982,983,984,-1,985,986,982,-1,982,986,983,-1,987,988,986,-1,989,986,988,-1,989,983,986,-1,990,986,991,-1,980,979,976,-1,955,990,991,-1,985,991,986,-1,981,978,992,-1,991,992,955,-1,955,992,978,-1,992,993,981,-1,978,953,955,-1,976,953,980,-1,953,978,980,-1,979,977,975,-1,979,975,976,-1,969,981,993,-1,969,956,981,-1,957,969,993,-1,959,966,985,-1,967,992,991,-1,960,982,984,-1,982,960,959,-1,985,966,991,-1,982,959,985,-1,967,957,992,-1,966,967,991,-1,993,992,957,-1,984,961,960,-1,984,983,961,-1,988,964,965,-1,961,989,965,-1,988,965,989,-1,983,989,961,-1,987,964,988,-1,963,987,986,-1,987,963,964,-1,963,986,962,-1,968,962,986,-1,986,990,968,-1,990,952,968,-1,990,955,952,-1,953,974,954,-1,953,976,974,-1,
        ]
    }
}
Shape{
    appearance Appearance {
        material  Material 	{
            diffuseColor 0.8470588235294118 0.803921568627451 0.7372549019607844
            specularColor 0.7529411764705882 0.7529411764705882 0.7529411764705882
            ambientIntensity 1.0
            transparency 1.0
            shininess 0.5
        }
    }
    geometry IndexedFaceSet {
        ccw TRUE
        solid FALSE
        coord DEF co Coordinate {
            point [
                0.1949 0.228 0.7232, -0.1004 0.228 0.748, -0.2185 0.228 0.7232, 2.1634 0.228 0.7232, 2.2421 0.228 0.3643, 2.2421 0.228 0.7232, 1.7697 0.228 0.748, 1.7697 0.228 0.9055, 1.75 0.228 0.8872, 1.75 0.228 0.7232, 1.6713 0.228 0.7232, 1.75 0.228 0.3643, -1.6752 0.228 0.2559, -1.6949 0.228 0.2052, -1.6752 0.228 0.1969, 1.6516 0.228 0.748, 1.6713 0.228 0.8872, 1.5532 0.228 0.748, 1.5532 0.228 0.9055, 1.376 0.228 0.9055, -0.7106 0.228 0.3643, -0.7106 0.228 0.7232, -0.7894 0.228 0.7232, 1.8681 0.228 1.2042, 1.9837 0.228 0.9055, 1.9837 0.228 1.2042, 0.1949 0.228 0.3643, 0.1752 0.228 0.2559, 0.1949 0.228 0.2052, 1.376 0.228 0.748, 1.2776 0.228 0.748, 1.2776 0.228 0.9055, 1.2579 0.228 0.8872, -0.2185 0.228 0.3643, -0.1988 0.228 0.2559, -0.5925 0.228 0.748, -0.2972 0.228 0.7232, 1.1594 0.228 0.748, 1.1791 0.228 0.7232, 1.1791 0.228 0.8872, 1.061 0.228 0.748, 1.061 0.228 0.9055, 0.8839 0.228 0.9055, -2.187 0.228 0.2052, -2.1673 0.228 0.1969, -2.1673 0.228 0.2559, -0.6909 0.228 0.748, 0.8839 0.228 0.748, 0.7854 0.228 0.748, 0.7854 0.228 0.9055, 0.7657 0.228 0.8872, -0.3169 0.228 0.2559, -0.2972 0.228 0.2052, -0.2972 0.228 0.3643, 0.6673 0.228 0.748, 0.687 0.228 0.7232, 0.687 0.228 0.8872, 0.5689 0.228 0.748, 0.5689 0.228 0.9055, 0.3917 0.228 0.9055, -1.0846 0.228 0.748, -1.2028 0.228 0.7232, -1.2815 0.228 0.7232, -1.2028 0.228 0.3643, 0.3917 0.228 0.748, 0.2933 0.228 0.748, 0.2933 0.228 0.9055, 0.2736 0.228 0.8872, -1.1831 0.228 0.748, -0.6909 0.228 0.2559, 0.1752 0.228 0.748, 0.1949 0.228 0.8872, 0.0768 0.228 0.748, 0.0768 0.228 0.9055, -0.1004 0.228 0.9055, -0.8091 0.228 0.2559, -0.7894 0.228 0.2052, -0.7894 0.228 0.3643, -0.1988 0.228 0.748, -0.1988 0.228 0.9055, -0.2185 0.228 0.8872, -1.5768 0.228 0.748, -1.6949 0.228 0.7232, -1.7736 0.228 0.7232, -1.6949 0.228 0.3643, -0.3169 0.228 0.748, -0.2972 0.228 0.8872, -0.4154 0.228 0.748, -0.4154 0.228 0.9055, -0.5925 0.228 0.9055, -1.6752 0.228 0.748, -1.1831 0.228 0.2559, -0.6909 0.228 0.9055, -0.7106 0.228 0.8872, -1.2815 0.228 0.2052, -1.2815 0.228 0.3643, -1.3012 0.228 0.2559, -1.6949 0.228 0.8872, -0.8091 0.228 0.748, -0.7894 0.228 0.8872, -0.9075 0.228 0.748, -0.9075 0.228 0.9055, -1.0846 0.228 0.9055, -1.8917 0.228 0.748, -2.0689 0.228 0.748, -2.2657 0.228 0.7232, -2.187 0.228 0.3643, -2.187 0.228 0.7232, -1.1831 0.228 0.9055, -1.2028 0.228 0.8872, -1.7933 0.228 0.748, -1.3012 0.228 0.748, -1.2815 0.228 0.8872, -1.3996 0.228 0.748, -1.3996 0.228 0.9055, -1.5768 0.228 0.9055, -2.1673 0.228 0.748, -1.6752 0.228 0.9055, -1.7933 0.228 0.2559, -1.7736 0.228 0.2052, -1.7736 0.228 0.3643, -2.187 0.228 0.8872, -1.7736 0.228 0.8872, -1.8917 0.228 1.2042, -2.0073 0.228 1.2042, -2.0073 0.228 0.9055, -2.3839 0.228 0.748, -2.7185 0.228 0.2559, -2.2657 0.228 0.3643, -2.0689 0.228 0.9055, -2.1673 0.228 0.9055, -2.502 0.228 0.9055, -2.2854 0.228 0.2559, -2.2854 0.228 0.748, -2.2657 0.228 0.8872, -2.3839 0.228 0.9055, -2.502 0.228 1.1417, -2.7185 0.228 1.1417, 0.6673 0.228 0.2559, 0.687 0.228 0.2052, 0.687 0.228 0.3643, 0.2736 0.228 0.3643, 0.2933 0.228 0.2559, -1.1831 0.228 0.1969, -1.2028 0.228 0.2052, 1.1594 0.228 0.2559, 0.7657 0.228 0.3643, 0.7854 0.228 0.2559, 0.2736 0.228 0.7232, -0.7106 0.228 0.2052, -0.6909 0.228 0.1969, 1.1791 0.228 0.2052, 1.1791 0.228 0.3643, -0.2185 0.228 0.2052, -0.1988 0.228 0.1969, 0.7657 0.228 0.7232, 1.6516 0.228 0.2559, 1.2579 0.228 0.3643, 1.2776 0.228 0.2559, 0.2736 0.228 0.2052, 0.2933 0.228 0.1969, 0.7657 0.228 0.2052, 0.7854 0.228 0.1969, 1.6713 0.228 0.2052, 1.6713 0.228 0.3643, 1.2579 0.228 0.7232, 1.2579 0.228 0.2052, 1.2776 0.228 0.1969, 2.1437 0.228 0.2559, 1.7697 0.228 0.2559, 1.75 0.228 0.2052, 1.7697 0.228 0.1969, 2.1634 0.228 0.3643, 2.1634 0.228 0.2052, 2.2421 0.228 0.2052, 2.2618 0.228 0.1969, 2.2618 0.228 0.2559, 2.6949 0.228 1.1417, 2.4783 0.228 0.9055, 2.6949 0.228 0.2559, 2.4783 0.228 1.1417, 2.3602 0.228 0.748, 2.2618 0.228 0.9055, 2.2421 0.228 0.8872, 2.2618 0.228 0.748, 2.3602 0.228 0.9055, 1.8681 0.228 0.748, 2.1437 0.228 0.748, 2.1634 0.228 0.8872, 2.0453 0.228 0.9055, 2.0453 0.228 0.748, -2.2854 0.228 0.9055, -2.2854 0.228 0.1969, -2.2657 0.228 0.2052, -1.7933 0.228 0.9055, -1.7933 0.228 0.1969, -1.3012 0.228 0.9055, -1.3012 0.228 0.1969, -0.8091 0.228 0.9055, -0.8091 0.228 0.1969, -0.3169 0.228 0.9055, -0.3169 0.228 0.1969, 0.1752 0.228 0.9055, 0.1752 0.228 0.1969, 0.6673 0.228 0.9055, 0.6673 0.228 0.1969, 1.1594 0.228 0.9055, 1.1594 0.228 0.1969, 1.6516 0.228 0.9055, 1.6516 0.228 0.1969, 2.1437 0.228 0.9055, 2.1437 0.228 0.1969, 1.8681 -1.0319 0.748, 1.8681 -1.0319 1.2042, -3.0728 -1.0319 0.9055, -3.1122 -1.0319 0.9055, -3.1122 -1.0319 0.748, 3.0886 -1.0319 1.7323, 1.6909 -1.0319 1.5748, 1.8287 -1.0319 1.5748, -2.876 -1.0319 0.748, 2.7736 -1.0319 0.1772, -2.7972 -1.0319 0.1772, 2.8524 -1.0319 0.0394, -1.7933 -1.0319 0.9055, -1.8917 -1.0319 1.2042, -1.8917 -1.0319 0.748, 3.0886 -1.0319 0.9055, 3.0492 -1.0319 0.9055, 3.0886 -1.0319 0.748, 2.8524 -1.0319 0.748, -1.6752 -1.0319 0.9055, -1.5768 -1.0319 0.9055, -1.7146 -1.0319 1.1024, -0.6909 -1.0319 0.9055, -0.5925 -1.0319 0.9055, -3.1122 -1.0319 1.2992, -2.8957 -1.0319 1.3386, -2.8957 -1.0319 1.5748, 2.872 -1.0319 1.5748, 2.3602 -1.0319 1.5748, -2.7972 -1.0319 1.2205, -3.0728 -1.0319 1.2992, 2.2224 -1.0319 1.5748, 2.3602 -1.0319 1.3386, -2.876 -1.0319 0.0394, -1.7933 -1.0319 0.748, 2.7736 -1.0319 1.2205, -1.6752 -1.0319 0.748, -1.5768 -1.0319 0.748, -1.3996 -1.0319 0.9055, -1.3996 -1.0319 0.748, -1.3012 -1.0319 0.748, -1.3012 -1.0319 0.9055, -1.0846 -1.0319 0.9055, -1.1831 -1.0319 0.9055, -0.9075 -1.0319 0.9055, -1.1831 -1.0319 0.748, -1.0846 -1.0319 0.748, -0.8091 -1.0319 0.9055, -0.9075 -1.0319 0.748, -0.8091 -1.0319 0.748, -0.4154 -1.0319 0.9055, -0.3169 -1.0319 0.9055, -0.6909 -1.0319 0.748, -0.5925 -1.0319 0.748, -0.1988 -1.0319 0.9055, -0.1004 -1.0319 0.9055, 0.0768 -1.0319 0.9055, -0.4154 -1.0319 0.748, -0.3169 -1.0319 0.748, 1.6909 -1.0319 1.1024, 0.1752 -1.0319 0.9055, -0.1988 -1.0319 0.748, -0.1004 -1.0319 0.748, 0.3917 -1.0319 0.9055, 0.2933 -1.0319 0.9055, 0.0768 -1.0319 0.748, 0.1752 -1.0319 0.748, 0.5689 -1.0319 0.9055, 0.2933 -1.0319 0.748, 0.3917 -1.0319 0.748, 0.6673 -1.0319 0.9055, 1.8287 -1.0319 1.3386, 1.7106 -1.0319 1.5551, 1.7106 -1.0319 1.122, 0.5689 -1.0319 0.748, 0.6673 -1.0319 0.748, 0.7854 -1.0319 0.9055, 0.8839 -1.0319 0.9055, 0.7854 -1.0319 0.748, 0.8839 -1.0319 0.748, -2.3839 -1.0319 1.5748, -3.1122 -1.0319 1.7323, 1.061 -1.0319 0.9055, 1.1594 -1.0319 0.9055, 1.061 -1.0319 0.748, 1.1594 -1.0319 0.748, 1.2776 -1.0319 0.9055, 1.2776 -1.0319 0.748, 1.376 -1.0319 0.748, 1.376 -1.0319 0.9055, 1.6516 -1.0319 0.9055, 1.7697 -1.0319 0.9055, 1.5532 -1.0319 0.9055, 1.5532 -1.0319 0.748, 1.6516 -1.0319 0.748, 1.7697 -1.0319 0.748, 3.0492 -1.0319 1.2992, 2.872 -1.0319 1.3386, 2.1437 -1.0319 0.9055, 2.0256 -1.0319 1.1024, 2.0453 -1.0319 0.9055, 2.0453 -1.0319 0.748, 2.1437 -1.0319 0.748, 2.2224 -1.0319 1.1024, 2.2618 -1.0319 0.9055, 2.2618 -1.0319 0.748, 2.3602 -1.0319 0.748, 2.3602 -1.0319 0.9055, 2.3996 -1.0319 0.9055, 2.3996 -1.0319 1.2205, 1.9837 -1.0319 1.2042, 1.9837 -1.0319 0.9055, -2.3839 -1.0319 0.9055, -2.2461 -1.0319 1.1024, -2.4232 -1.0319 0.9055, -2.4232 -1.0319 1.2205, -2.3839 -1.0319 1.3386, -2.2461 -1.0319 1.5748, -2.2854 -1.0319 0.9055, -2.0492 -1.0319 1.1024, -2.1673 -1.0319 0.9055, -2.0689 -1.0319 0.9055, -2.3839 -1.0319 0.748, -2.2854 -1.0319 0.748, -2.0073 -1.0319 1.2042, -2.0492 -1.0319 1.3386, -2.1673 -1.0319 0.748, -2.0689 -1.0319 0.748, -2.0073 -1.0319 0.9055, -1.7146 -1.0319 1.5748, 2.0256 -1.0319 1.3386, -1.8524 -1.0319 1.3386, -1.8524 -1.0319 1.5748, -1.7343 -1.0319 1.122, -1.7343 -1.0319 1.5551, 3.0886 -1.0319 1.2992, -2.8957 -0.2051 1.3386, -2.8957 -0.2051 1.5748, -2.3839 -0.2051 1.5748, -2.3839 -0.2051 1.3386, 2.3602 -0.2051 1.5748, 2.872 -0.2051 1.3386, 2.872 -0.2051 1.5748, 2.3602 -0.2051 1.3386, -1.7146 0.5823 1.5748, 1.6909 0.5823 1.5748, -1.7343 0.5823 1.5551, -1.7343 0.5823 1.122, -1.7146 0.5823 1.1024, -1.2421 -0.2839 1.1024, 1.6909 0.5823 1.1024, 1.2185 -0.2839 1.1024, 1.2185 -0.8744 1.1024, -1.2421 -0.8744 1.1024, -2.2461 0.5823 1.1024, -2.0492 0.5823 1.1024, -2.1476 0.5823 0.9055, -2.3051 0.5823 0.9055, 2.0256 0.5823 1.1024, 2.124 0.5823 0.9055, 1.7894 0.5823 0.9055, 3.0886 0.5823 1.0236, 3.0886 0.5823 0.4173, 2.2815 0.5823 0.9055, 1.6319 0.5823 0.9055, 2.8524 0.5823 1.0236, 2.2815 0.5823 0.4173, 1.2972 0.5823 0.9055, 1.7106 0.5823 1.122, 2.124 0.5823 0.4173, 1.7894 0.5823 0.4173, 0.8051 0.5823 0.9055, 1.1398 0.5823 0.9055, 0.6476 0.5823 0.9055, 1.6319 0.5823 0.4173, 1.2972 0.5823 0.4173, 0.313 0.5823 0.9055, 0.1555 0.5823 0.9055, 1.1398 0.5823 0.4173, 0.8051 0.5823 0.4173, -0.1791 0.5823 0.9055, 0.6476 0.5823 0.4173, 0.313 0.5823 0.4173, 2.8524 0.5823 1.7323, -0.3366 0.5823 0.9055, -0.6713 0.5823 0.9055, 0.1555 0.5823 0.4173, -0.1791 0.5823 0.4173, -0.8287 0.5823 0.9055, -1.1634 0.5823 0.9055, -0.3366 0.5823 0.4173, -0.6713 0.5823 0.4173, -1.3209 0.5823 0.9055, -0.8287 0.5823 0.4173, -1.1634 0.5823 0.4173, -1.8524 0.5823 1.5748, -2.2461 0.5823 1.5748, -2.876 0.5823 1.7323, -1.3209 0.5823 0.4173, -1.6555 0.5823 0.4173, -1.6555 0.5823 0.9055, -3.1122 0.5823 0.4173, -2.3051 0.5823 0.4173, -2.876 0.5823 1.0236, -1.813 0.5823 0.9055, -1.813 0.5823 0.4173, -2.1476 0.5823 0.4173, -3.1122 0.5823 1.0236, 2.2224 0.5823 1.5748, -1.8524 0.5823 1.3386, 2.2224 0.5823 1.1024, 1.8287 0.5823 1.5748, 2.0256 0.5823 1.3386, 1.8287 0.5823 1.3386, 1.7106 0.5823 1.5551, -2.0492 0.5823 1.3386, -2.3051 0.3618 0.9055, -2.3051 0.3618 0.4173, 2.2815 0.3618 0.4173, 2.2421 0.3618 0.2839, 2.2421 0.3618 0.7978, -2.187 0.3618 0.2839, -3.1122 0.3618 0.0394, -2.2657 0.3618 0.2839, 1.7894 0.3618 0.4173, 2.124 0.3618 0.4173, 1.75 0.3618 0.2839, 1.2579 0.3618 0.7978, 1.2972 0.3618 0.4173, 1.2579 0.3618 0.2839, 1.6319 0.3618 0.4173, 1.6713 0.3618 0.2839, 0.7657 0.3618 0.2839, 1.1791 0.3618 0.2839, 3.0886 0.3618 0.0394, 2.2815 0.3618 0.9055, 0.2736 0.3618 0.2839, 0.313 0.3618 0.4173, 0.6476 0.3618 0.4173, 1.75 0.3618 0.7978, 1.7894 0.3618 0.9055, 0.7657 0.3618 0.7978, 0.8051 0.3618 0.4173, 0.1949 0.3618 0.2839, -0.2185 0.3618 0.2839, 0.1555 0.3618 0.4173, -0.1791 0.3618 0.4173, 1.2972 0.3618 0.9055, -1.6949 0.3618 0.2839, -1.7736 0.3618 0.2839, 0.8051 0.3618 0.9055, -0.7106 0.3618 0.2839, -0.3366 0.3618 0.4173, -0.2972 0.3618 0.2839, -0.7894 0.3618 0.2839, -1.2028 0.3618 0.2839, -0.8287 0.3618 0.4173, 0.2736 0.3618 0.7978, 0.313 0.3618 0.9055, -0.7106 0.3618 0.7978, -0.6713 0.3618 0.4173, -1.1634 0.3618 0.4173, -1.2028 0.3618 0.7978, -0.2185 0.3618 0.7978, -0.1791 0.3618 0.9055, -1.3209 0.3618 0.4173, -1.6555 0.3618 0.4173, -0.6713 0.3618 0.9055, -1.2815 0.3618 0.2839, -1.6949 0.3618 0.7978, -1.1634 0.3618 0.9055, -3.1122 0.3618 0.4173, -1.6555 0.3618 0.9055, -2.187 0.3618 0.7978, -2.1476 0.3618 0.4173, -2.1476 0.3618 0.9055, -2.2657 0.3618 0.7978, -1.813 0.3618 0.4173, -1.7736 0.3618 0.7978, -1.813 0.3618 0.9055, -1.2815 0.3618 0.7978, -1.3209 0.3618 0.9055, -0.7894 0.3618 0.7978, -0.8287 0.3618 0.9055, -0.2972 0.3618 0.7978, -0.3366 0.3618 0.9055, 0.687 0.3618 0.2839, 0.1949 0.3618 0.7978, 0.1555 0.3618 0.9055, 1.1398 0.3618 0.4173, 0.687 0.3618 0.7978, 0.6476 0.3618 0.9055, 1.1791 0.3618 0.7978, 1.1398 0.3618 0.9055, 1.6713 0.3618 0.7978, 1.6319 0.3618 0.9055, 2.1634 0.3618 0.2839, 2.1634 0.3618 0.7978, 2.124 0.3618 0.9055, 3.0886 0.3618 0.4173, 3.0886 -0.2248 0.9055, 3.0886 -0.7878 0.748, 3.0886 -0.2445 0.2835, 3.0886 0.3382 1.0236, 3.0886 -0.2445 0.0394, 3.0886 -0.7878 0.2835, 3.0886 -0.1264 1.4882, 3.0886 -0.1264 1.7323, 3.0886 -0.2248 1.2992, 3.0886 0.3382 1.4882, 3.0492 -0.2248 0.9055, 3.0492 -0.2248 1.2992, -2.876 -0.1264 1.7323, -3.1122 -0.1264 1.7323, 2.8524 -0.1264 1.7323, -2.876 -0.2445 0.748, -2.876 -0.2445 0.0394, -2.876 0.1006 1.4882, -2.876 0.3382 1.4882, -2.876 -0.1264 1.0945, -2.876 0.3382 1.0236, -2.876 0.1006 1.0945, -3.1122 -0.2445 0.0394, -3.0335 -0.2445 0.2835, -3.0335 -0.2445 0.748, -3.1122 -0.2445 0.2835, -3.0335 -0.7878 0.2835, -3.1122 -0.7878 0.2835, -3.0335 -0.7878 0.748, -3.1122 -0.7878 0.748, -3.1122 -0.2248 1.2992, -3.1122 -0.1264 1.4882, -3.1122 -0.2248 0.9055, -3.1122 0.3382 1.0236, -3.1122 0.3382 1.4882, -3.0728 -0.2248 0.9055, -3.0728 -0.2248 1.2992, 0.0736 -0.5998 0.0394, 0.173 -0.5998 0.0394, 2.8524 -0.2445 0.0394, 0.0405 -0.5998 0.0394, 0.3388 -0.5998 0.0394, 0.3719 -0.5998 0.0394, 0.2973 -0.4009 0.0394, 0.2725 -0.4009 0.0394, 0.0405 -0.4009 0.0394, 0.4133 -0.4009 0.0394, 0.3968 -0.4517 0.0394, 0.3139 -0.4517 0.0394, 0.4382 -0.4009 0.0394, 0.0736 -0.4009 0.0394, 0.173 -0.4009 0.0394, -0.1087 -0.5998 0.0394, -0.1998 -0.5998 0.0394, 0.1938 -0.4051 0.0394, 0.2103 -0.4136 0.0394, 0.2352 -0.4474 0.0394, 0.2269 -0.4305 0.0394, 0.2393 -0.4686 0.0394, 0.2393 -0.5321 0.0394, 0.2352 -0.5532 0.0394, 0.2269 -0.5701 0.0394, 0.2103 -0.5871 0.0394, 0.1938 -0.5955 0.0394, -0.0838 -0.4263 0.0394, 0.0239 -0.494 0.0394, -0.0838 -0.494 0.0394, -0.2661 -0.439 0.0394, -0.2537 -0.4305 0.0394, -0.1708 -0.439 0.0394, 0.0405 -0.4263 0.0394, 0.0239 -0.5194 0.0394, -0.0838 -0.5194 0.0394, -0.0838 -0.5744 0.0394, 0.0405 -0.5744 0.0394, -0.1087 -0.4009 0.0394, -0.1418 -0.549 0.0394, -0.1418 -0.4517 0.0394, -0.2371 -0.4263 0.0394, -0.1998 -0.4263 0.0394, -0.1832 -0.4305 0.0394, -0.1667 -0.4517 0.0394, -0.2785 -0.4686 0.0394, -0.2578 -0.5955 0.0394, -0.4608 -0.5998 0.0394, -0.2744 -0.5871 0.0394, -0.2744 -0.4517 0.0394, -0.1667 -0.549 0.0394, -0.2785 -0.5321 0.0394, -0.2661 -0.5617 0.0394, -0.1708 -0.5617 0.0394, -0.4608 -0.4263 0.0394, -0.3034 -0.4686 0.0394, -0.3034 -0.5321 0.0394, -0.1832 -0.5701 0.0394, -0.2992 -0.5532 0.0394, -0.1998 -0.5744 0.0394, -0.2537 -0.5701 0.0394, -0.291 -0.5701 0.0394, -0.2371 -0.5744 0.0394, -0.2371 -0.5998 0.0394, -0.2744 -0.549 0.0394, -0.146 -0.5701 0.0394, -0.1625 -0.5871 0.0394, -0.1791 -0.5955 0.0394, -0.2992 -0.4474 0.0394, -0.3365 -0.4263 0.0394, -0.3365 -0.4009 0.0394, -0.4857 -0.4009 0.0394, -0.1998 -0.4009 0.0394, -0.2371 -0.4009 0.0394, -0.1791 -0.4051 0.0394, -0.1625 -0.4136 0.0394, -0.146 -0.4305 0.0394, -0.2744 -0.4136 0.0394, -0.2578 -0.4051 0.0394, -0.291 -0.4305 0.0394, -0.4857 -0.5998 0.0394, 0.2145 -0.5321 0.0394, 0.2103 -0.549 0.0394, 0.202 -0.5617 0.0394, 0.2145 -0.4686 0.0394, 0.173 -0.4263 0.0394, 0.1896 -0.4305 0.0394, 0.1896 -0.5701 0.0394, 0.202 -0.439 0.0394, 0.2103 -0.4517 0.0394, 0.173 -0.5744 0.0394, 0.0985 -0.5744 0.0394, 0.0985 -0.4263 0.0394, 0.3181 -0.4686 0.0394, 0.3926 -0.4686 0.0394, 0.3553 -0.5828 0.0394, 2.8524 -0.2445 0.748, 2.8524 0.3382 1.4882, 2.8524 -0.1264 1.0945, 2.8524 0.1006 1.0945, 2.8524 0.1006 1.4882, 2.8524 0.3382 1.0236, 3.0098 -0.7878 0.748, 3.0098 -0.2445 0.748, 3.0098 -0.7878 0.2835, 3.0098 -0.2445 0.2835, 3.0098 0.1006 1.4882, 3.0098 -0.1264 1.4882, 3.0098 0.1006 1.0945, 3.0098 -0.1264 1.0945, -3.0335 0.1006 1.4882, -3.0335 -0.1264 1.4882, -3.0335 0.1006 1.0945, -3.0335 -0.1264 1.0945, 1.2185 -0.5988 1.2992, -1.2421 -0.5988 1.2992, 1.2185 -0.2839 1.2992, -1.2421 -0.2839 1.2992, 2.4783 -0.9531 0.9055, -2.502 -0.9531 0.9055, 2.4783 -0.9531 1.1417, 2.6949 -0.9531 1.1417, 2.6949 -0.9531 0.2559, 2.2618 -0.9531 0.2559, 1.7697 -0.9531 0.2559, 2.1437 -0.9531 0.2559, 1.2776 -0.9531 0.2559, 1.6516 -0.9531 0.2559, 0.7854 -0.9531 0.2559, 1.1594 -0.9531 0.2559, 0.2933 -0.9531 0.2559, 0.6673 -0.9531 0.2559, -0.1988 -0.9531 0.2559, 0.1752 -0.9531 0.2559, -0.6909 -0.9531 0.2559, -0.3169 -0.9531 0.2559, -1.1831 -0.9531 0.2559, -0.8091 -0.9531 0.2559, -1.6752 -0.9531 0.2559, -1.3012 -0.9531 0.2559, -2.1673 -0.9531 0.2559, -1.7933 -0.9531 0.2559, -2.7185 -0.9531 0.2559, -2.2854 -0.9531 0.2559, 2.2618 -1.0122 0.1969, -2.2854 -1.0122 0.1969, 2.1437 -1.0122 0.1969, 1.7697 -1.0122 0.1969, 1.2776 -1.0122 0.1969, 1.6516 -1.0122 0.1969, 0.7854 -1.0122 0.1969, 1.1594 -1.0122 0.1969, 0.2933 -1.0122 0.1969, 0.6673 -1.0122 0.1969, 0.1752 -1.0122 0.1969, -0.1988 -1.0122 0.1969, -0.6909 -1.0122 0.1969, -0.3169 -1.0122 0.1969, -1.1831 -1.0122 0.1969, -0.8091 -1.0122 0.1969, -1.6752 -1.0122 0.1969, -1.3012 -1.0122 0.1969, -2.1673 -1.0122 0.1969, -1.7933 -1.0122 0.1969, -2.7185 -0.9531 1.1417, -2.502 -0.9531 1.1417
            ]
        }
        coordIndex [
            0,1,2,-1,3,4,5,-1,6,7,8,-1,9,10,11,-1,12,13,14,-1,15,10,16,-1,17,18,19,-1,20,21,22,-1,23,24,25,-1,26,27,28,-1,17,19,29,-1,30,31,32,-1,27,33,34,-1,35,21,36,-1,37,38,39,-1,40,41,42,-1,43,44,45,-1,35,46,21,-1,40,42,47,-1,48,49,50,-1,51,52,53,-1,54,55,56,-1,57,58,59,-1,60,61,22,-1,62,63,61,-1,57,59,64,-1,65,66,67,-1,61,60,68,-1,20,69,51,-1,70,0,71,-1,72,73,74,-1,75,76,77,-1,72,74,1,-1,78,79,80,-1,81,82,62,-1,83,84,82,-1,85,36,86,-1,87,88,89,-1,82,81,90,-1,63,91,75,-1,87,89,35,-1,46,92,93,-1,94,95,96,-1,97,82,90,-1,98,22,99,-1,100,101,102,-1,103,104,83,-1,105,106,107,-1,100,102,60,-1,68,108,109,-1,107,83,104,-1,83,110,103,-1,111,62,112,-1,113,114,115,-1,12,96,84,-1,104,116,107,-1,113,115,81,-1,90,117,97,-1,118,119,120,-1,107,116,121,-1,110,83,122,-1,123,124,125,-1,126,127,128,-1,125,129,104,-1,123,125,103,-1,118,106,45,-1,125,104,103,-1,116,130,121,-1,127,126,131,-1,128,127,132,-1,133,105,134,-1,126,135,131,-1,136,137,131,-1,137,127,131,-1,36,33,2,-1,138,139,140,-1,109,61,68,-1,138,141,142,-1,2,1,78,-1,143,91,144,-1,93,21,46,-1,145,146,147,-1,148,64,65,-1,55,64,148,-1,0,141,148,-1,80,2,78,-1,149,150,69,-1,151,152,145,-1,67,148,65,-1,153,154,34,-1,48,155,47,-1,156,157,158,-1,50,155,48,-1,159,160,142,-1,38,47,155,-1,146,155,55,-1,161,162,147,-1,156,163,164,-1,165,30,32,-1,166,167,158,-1,165,29,30,-1,168,11,169,-1,170,171,169,-1,165,10,29,-1,38,157,165,-1,172,168,173,-1,174,175,176,-1,177,178,179,-1,178,177,180,-1,181,179,178,-1,182,183,184,-1,185,181,178,-1,3,186,9,-1,176,179,4,-1,187,3,188,-1,189,24,190,-1,9,186,6,-1,9,6,8,-1,190,24,186,-1,186,24,23,-1,105,133,126,-1,191,134,121,-1,133,134,191,-1,191,121,130,-1,128,106,105,-1,111,113,62,-1,132,192,193,-1,192,44,193,-1,128,105,126,-1,193,128,132,-1,81,62,113,-1,106,43,45,-1,193,44,43,-1,106,120,107,-1,194,122,97,-1,110,122,194,-1,194,97,117,-1,120,83,107,-1,120,84,83,-1,118,195,119,-1,195,14,119,-1,98,100,22,-1,106,118,120,-1,60,22,100,-1,84,13,12,-1,119,14,13,-1,84,95,82,-1,196,112,109,-1,111,112,196,-1,196,109,108,-1,95,62,82,-1,95,63,62,-1,96,197,94,-1,197,143,94,-1,85,87,36,-1,84,96,95,-1,35,36,87,-1,63,144,91,-1,94,143,144,-1,63,77,61,-1,198,99,93,-1,98,99,198,-1,198,93,92,-1,77,22,61,-1,77,20,22,-1,75,199,76,-1,199,150,76,-1,70,72,0,-1,63,75,77,-1,1,0,72,-1,20,149,69,-1,76,150,149,-1,20,53,21,-1,200,86,80,-1,85,86,200,-1,200,80,79,-1,53,36,21,-1,53,33,36,-1,51,201,52,-1,201,154,52,-1,54,57,55,-1,20,51,53,-1,64,55,57,-1,33,153,34,-1,52,154,153,-1,33,26,2,-1,202,71,67,-1,70,71,202,-1,202,67,66,-1,26,0,2,-1,26,141,0,-1,27,203,28,-1,203,160,28,-1,37,40,38,-1,33,27,26,-1,47,38,40,-1,141,159,142,-1,28,160,159,-1,141,140,148,-1,204,56,50,-1,54,56,204,-1,204,50,49,-1,140,55,148,-1,140,146,55,-1,138,205,139,-1,205,162,139,-1,15,17,10,-1,141,138,140,-1,29,10,17,-1,146,161,147,-1,139,162,161,-1,146,152,155,-1,206,39,32,-1,37,39,206,-1,206,32,31,-1,152,38,155,-1,152,157,38,-1,145,207,151,-1,207,167,151,-1,187,190,3,-1,146,145,152,-1,186,3,190,-1,157,166,158,-1,151,167,166,-1,157,164,165,-1,208,16,8,-1,15,16,208,-1,208,8,7,-1,164,10,165,-1,164,11,10,-1,156,209,163,-1,209,171,163,-1,181,4,179,-1,157,156,164,-1,184,183,5,-1,11,170,169,-1,163,171,170,-1,11,172,9,-1,210,188,183,-1,187,188,210,-1,210,183,182,-1,184,5,181,-1,3,9,172,-1,168,211,173,-1,211,175,173,-1,172,4,3,-1,172,11,168,-1,5,4,181,-1,4,174,176,-1,173,175,174,-1,212,23,213,-1,23,212,186,-1,214,215,216,-1,217,218,219,-1,214,216,220,-1,221,222,223,-1,224,225,226,-1,227,228,229,-1,228,230,229,-1,231,232,233,-1,234,235,233,-1,236,237,238,-1,239,217,240,-1,241,220,222,-1,236,242,237,-1,241,242,214,-1,243,244,240,-1,245,222,220,-1,226,246,224,-1,228,247,230,-1,224,231,233,-1,231,248,249,-1,249,232,231,-1,250,233,232,-1,224,233,225,-1,250,251,252,-1,252,253,250,-1,254,233,255,-1,256,233,254,-1,255,257,258,-1,258,254,255,-1,259,233,256,-1,234,233,259,-1,256,260,261,-1,261,259,256,-1,233,235,262,-1,263,233,262,-1,234,264,265,-1,265,235,234,-1,266,233,263,-1,233,267,268,-1,262,269,270,-1,270,263,262,-1,268,271,233,-1,271,268,272,-1,266,273,274,-1,274,267,266,-1,275,271,276,-1,268,277,278,-1,278,272,268,-1,271,272,276,-1,279,271,275,-1,276,280,281,-1,281,275,276,-1,282,271,279,-1,283,284,285,-1,279,286,287,-1,287,282,279,-1,282,288,271,-1,288,289,271,-1,288,290,291,-1,291,289,288,-1,292,293,238,-1,271,294,295,-1,294,296,297,-1,297,295,294,-1,271,295,298,-1,283,285,213,-1,298,299,300,-1,300,301,298,-1,271,302,303,-1,271,303,213,-1,304,305,306,-1,306,302,304,-1,213,285,271,-1,212,213,303,-1,303,307,212,-1,289,294,271,-1,219,243,217,-1,247,308,309,-1,310,311,312,-1,312,313,314,-1,314,310,312,-1,310,315,311,-1,310,316,315,-1,316,317,318,-1,318,319,316,-1,320,315,319,-1,320,321,315,-1,311,322,323,-1,228,308,247,-1,223,230,221,-1,247,221,230,-1,222,245,223,-1,324,325,326,-1,241,214,220,-1,241,327,328,-1,328,325,329,-1,325,324,330,-1,331,332,333,-1,324,334,335,-1,335,330,324,-1,238,293,236,-1,331,336,337,-1,332,338,339,-1,339,333,332,-1,327,326,325,-1,333,340,331,-1,241,237,242,-1,328,237,241,-1,341,218,293,-1,325,328,327,-1,283,322,342,-1,240,217,243,-1,319,315,316,-1,315,321,244,-1,312,311,323,-1,342,322,311,-1,283,213,322,-1,332,325,330,-1,337,225,343,-1,328,329,292,-1,293,292,329,-1,293,329,344,-1,233,345,225,-1,266,267,233,-1,225,337,336,-1,331,325,332,-1,340,336,331,-1,343,346,344,-1,293,344,341,-1,293,218,217,-1,283,219,284,-1,219,218,284,-1,301,271,298,-1,301,304,271,-1,302,271,304,-1,250,253,233,-1,255,233,253,-1,343,225,345,-1,346,343,345,-1,341,344,346,-1,243,315,244,-1,309,347,239,-1,347,217,239,-1,309,244,247,-1,309,308,347,-1,247,244,321,-1,238,237,348,-1,348,349,238,-1,292,238,349,-1,349,350,292,-1,328,292,350,-1,350,351,328,-1,237,328,351,-1,351,348,237,-1,349,351,350,-1,351,349,348,-1,352,353,354,-1,353,352,355,-1,239,240,352,-1,352,354,239,-1,309,239,354,-1,354,353,309,-1,244,309,353,-1,353,355,244,-1,240,244,355,-1,355,352,240,-1,218,341,356,-1,356,357,218,-1,356,341,346,-1,356,346,358,-1,346,345,359,-1,359,358,346,-1,359,345,233,-1,359,233,360,-1,360,361,362,-1,361,363,362,-1,271,363,364,-1,271,364,233,-1,271,362,363,-1,233,361,360,-1,364,365,233,-1,233,365,361,-1,366,367,368,-1,366,368,369,-1,370,371,372,-1,370,372,362,-1,373,374,375,-1,362,372,376,-1,375,377,373,-1,374,378,375,-1,376,379,362,-1,370,362,380,-1,371,381,382,-1,382,372,371,-1,383,362,384,-1,385,362,383,-1,376,386,387,-1,387,379,376,-1,362,385,388,-1,362,388,389,-1,384,390,391,-1,391,383,384,-1,392,362,389,-1,392,360,362,-1,385,393,394,-1,394,388,385,-1,356,395,357,-1,360,396,397,-1,389,398,399,-1,399,392,389,-1,360,397,400,-1,360,400,401,-1,396,402,403,-1,403,397,396,-1,360,401,404,-1,400,405,406,-1,406,401,400,-1,407,408,409,-1,404,410,411,-1,411,412,404,-1,413,369,414,-1,415,366,369,-1,416,417,418,-1,368,416,418,-1,415,369,419,-1,413,419,369,-1,420,395,377,-1,392,396,360,-1,416,368,367,-1,359,421,358,-1,404,412,360,-1,416,360,412,-1,422,371,370,-1,384,362,379,-1,420,377,422,-1,395,423,357,-1,395,356,409,-1,407,358,421,-1,424,380,425,-1,357,423,426,-1,395,420,423,-1,380,426,425,-1,423,425,426,-1,375,371,422,-1,380,424,370,-1,375,422,377,-1,359,367,427,-1,415,409,408,-1,415,408,366,-1,416,367,360,-1,359,360,367,-1,359,427,421,-1,356,358,407,-1,409,356,407,-1,426,284,218,-1,426,218,357,-1,426,285,284,-1,426,380,285,-1,362,271,285,-1,362,285,380,-1,329,366,408,-1,329,325,366,-1,325,331,367,-1,367,366,325,-1,331,337,427,-1,427,367,331,-1,337,343,421,-1,421,427,337,-1,343,344,407,-1,407,421,343,-1,344,329,408,-1,408,407,344,-1,243,219,423,-1,423,420,243,-1,315,420,422,-1,315,243,420,-1,311,315,422,-1,422,370,311,-1,342,311,370,-1,370,424,342,-1,283,342,424,-1,424,425,283,-1,219,283,425,-1,425,423,219,-1,414,428,429,-1,414,369,428,-1,430,431,432,-1,433,434,435,-1,436,437,438,-1,439,440,441,-1,441,442,443,-1,444,445,446,-1,432,447,430,-1,448,449,450,-1,436,451,452,-1,453,454,444,-1,455,456,457,-1,458,457,456,-1,439,459,440,-1,460,434,461,-1,454,453,462,-1,463,464,465,-1,466,467,468,-1,449,469,470,-1,471,472,463,-1,468,467,473,-1,474,473,467,-1,475,476,458,-1,477,460,478,-1,472,471,479,-1,434,460,480,-1,478,460,481,-1,455,446,434,-1,474,482,473,-1,435,483,429,-1,478,481,484,-1,485,486,433,-1,485,487,486,-1,487,488,428,-1,428,488,429,-1,487,485,488,-1,488,435,429,-1,433,461,434,-1,486,489,433,-1,483,435,434,-1,484,490,491,-1,491,490,489,-1,484,481,490,-1,490,461,489,-1,434,480,467,-1,464,463,472,-1,489,461,433,-1,482,492,493,-1,493,492,477,-1,482,474,492,-1,492,480,477,-1,434,466,463,-1,475,458,456,-1,477,480,460,-1,479,494,495,-1,495,494,468,-1,479,471,494,-1,494,466,468,-1,465,456,434,-1,469,449,448,-1,467,466,434,-1,476,496,497,-1,497,496,464,-1,476,475,496,-1,496,465,464,-1,456,455,434,-1,498,446,448,-1,463,465,434,-1,470,499,500,-1,500,499,457,-1,470,469,499,-1,499,455,457,-1,446,498,444,-1,444,454,501,-1,446,455,448,-1,462,502,503,-1,503,502,450,-1,462,453,502,-1,502,498,450,-1,445,441,446,-1,441,440,442,-1,450,498,448,-1,459,504,505,-1,505,504,501,-1,459,439,504,-1,504,445,501,-1,443,446,441,-1,436,438,451,-1,501,445,444,-1,452,506,507,-1,507,506,442,-1,452,451,506,-1,506,443,442,-1,508,446,438,-1,508,438,437,-1,446,443,438,-1,447,509,510,-1,510,509,437,-1,447,432,509,-1,509,508,437,-1,446,431,511,-1,430,511,431,-1,446,508,431,-1,374,430,378,-1,374,511,430,-1,381,436,382,-1,381,437,436,-1,386,440,387,-1,386,442,440,-1,390,454,391,-1,390,501,454,-1,393,449,394,-1,393,450,449,-1,398,458,399,-1,398,457,458,-1,402,472,403,-1,402,464,472,-1,405,473,406,-1,405,468,473,-1,410,478,411,-1,410,477,478,-1,414,429,483,-1,483,413,414,-1,417,486,418,-1,417,489,486,-1,375,378,430,-1,430,447,375,-1,371,375,447,-1,447,510,371,-1,381,371,510,-1,510,437,381,-1,512,227,513,-1,513,227,229,-1,514,446,511,-1,373,515,511,-1,514,516,446,-1,513,517,514,-1,512,511,515,-1,374,373,511,-1,518,519,520,-1,521,518,515,-1,519,217,520,-1,347,520,217,-1,512,513,514,-1,515,518,520,-1,511,512,514,-1,515,520,512,-1,522,227,512,-1,522,228,227,-1,308,522,523,-1,522,308,228,-1,520,347,308,-1,308,523,520,-1,512,520,523,-1,523,522,512,-1,524,525,293,-1,217,524,293,-1,524,526,409,-1,526,217,519,-1,524,217,526,-1,526,395,409,-1,220,527,528,-1,528,245,220,-1,529,524,530,-1,529,531,524,-1,524,409,530,-1,530,409,415,-1,530,415,532,-1,529,533,531,-1,534,528,535,-1,527,536,535,-1,534,535,537,-1,527,535,528,-1,538,539,537,-1,538,537,535,-1,540,538,535,-1,540,535,536,-1,540,541,539,-1,540,539,538,-1,525,542,293,-1,542,525,543,-1,483,544,545,-1,293,542,236,-1,544,541,215,-1,545,542,543,-1,546,545,543,-1,419,413,483,-1,542,545,544,-1,483,545,419,-1,483,434,537,-1,534,537,434,-1,537,539,541,-1,483,537,544,-1,537,541,544,-1,541,216,215,-1,547,544,215,-1,547,215,214,-1,242,547,214,-1,242,548,547,-1,544,548,542,-1,548,544,547,-1,242,236,542,-1,242,542,548,-1,540,527,220,-1,216,541,540,-1,540,536,527,-1,216,540,220,-1,223,549,550,-1,528,534,434,-1,446,516,551,-1,552,549,223,-1,223,553,554,-1,446,555,556,-1,557,434,446,-1,555,446,558,-1,555,559,560,-1,558,446,561,-1,555,558,559,-1,446,551,561,-1,223,554,551,-1,554,561,551,-1,223,245,552,-1,562,446,563,-1,564,245,565,-1,556,563,446,-1,556,566,563,-1,556,567,566,-1,556,568,569,-1,556,569,567,-1,568,556,570,-1,556,553,570,-1,553,571,570,-1,553,572,571,-1,553,573,572,-1,553,574,573,-1,553,575,574,-1,553,550,575,-1,223,550,553,-1,576,577,578,-1,579,580,581,-1,549,577,562,-1,582,562,577,-1,549,583,577,-1,584,583,585,-1,549,586,583,-1,583,586,585,-1,586,549,552,-1,564,552,245,-1,434,557,587,-1,446,562,557,-1,557,562,582,-1,576,582,577,-1,588,589,564,-1,590,591,592,-1,593,589,594,-1,580,590,592,-1,595,596,597,-1,580,592,581,-1,579,581,593,-1,579,593,598,-1,598,593,594,-1,599,600,588,-1,601,599,602,-1,603,604,605,-1,606,601,602,-1,596,605,607,-1,608,609,606,-1,596,610,597,-1,609,608,611,-1,612,596,595,-1,565,245,612,-1,606,609,601,-1,613,599,601,-1,599,613,600,-1,594,588,600,-1,589,587,564,-1,588,594,589,-1,564,614,588,-1,614,564,615,-1,615,564,616,-1,564,565,616,-1,596,612,245,-1,603,617,604,-1,618,617,603,-1,434,619,620,-1,621,622,434,-1,620,528,434,-1,587,621,434,-1,587,623,621,-1,587,624,623,-1,624,587,625,-1,587,589,625,-1,619,626,618,-1,619,627,626,-1,622,619,434,-1,627,619,622,-1,617,618,628,-1,618,626,628,-1,603,605,596,-1,528,620,629,-1,607,610,596,-1,629,596,245,-1,528,629,245,-1,630,631,632,-1,633,634,635,-1,630,632,636,-1,633,637,638,-1,635,637,633,-1,633,630,634,-1,639,634,630,-1,640,641,639,-1,630,636,639,-1,639,641,634,-1,642,643,644,-1,230,551,645,-1,551,230,223,-1,395,526,646,-1,646,377,395,-1,647,648,649,-1,377,646,650,-1,647,649,526,-1,646,526,649,-1,651,230,645,-1,229,651,513,-1,229,230,651,-1,645,652,651,-1,517,651,653,-1,517,513,651,-1,651,654,653,-1,651,652,654,-1,514,653,654,-1,514,517,653,-1,654,645,551,-1,654,516,514,-1,654,551,516,-1,654,652,645,-1,655,521,646,-1,518,655,656,-1,518,521,655,-1,646,649,655,-1,656,655,657,-1,657,658,656,-1,656,647,526,-1,656,519,518,-1,656,526,519,-1,656,658,647,-1,647,657,648,-1,657,647,658,-1,655,649,648,-1,648,657,655,-1,521,515,650,-1,650,646,521,-1,515,373,377,-1,377,650,515,-1,415,419,545,-1,415,545,532,-1,546,532,545,-1,532,546,530,-1,546,543,659,-1,659,530,546,-1,659,543,660,-1,530,659,529,-1,660,661,659,-1,661,660,662,-1,525,524,660,-1,531,662,660,-1,525,660,543,-1,531,660,524,-1,661,531,533,-1,661,662,531,-1,659,533,529,-1,533,659,661,-1,372,436,452,-1,372,382,436,-1,452,376,372,-1,452,507,376,-1,386,507,442,-1,386,376,507,-1,379,440,459,-1,379,387,440,-1,459,384,379,-1,459,505,384,-1,390,505,501,-1,390,384,505,-1,383,454,462,-1,383,391,454,-1,462,385,383,-1,462,503,385,-1,393,503,450,-1,393,385,503,-1,388,449,470,-1,388,394,449,-1,470,389,388,-1,470,500,389,-1,398,500,457,-1,398,389,500,-1,392,458,476,-1,392,399,458,-1,476,396,392,-1,476,497,396,-1,402,497,464,-1,402,396,497,-1,397,472,479,-1,397,403,472,-1,479,400,397,-1,479,495,400,-1,405,495,468,-1,405,400,495,-1,401,473,482,-1,401,406,473,-1,482,404,401,-1,482,493,404,-1,410,493,477,-1,410,404,493,-1,412,478,484,-1,412,411,478,-1,484,416,412,-1,484,491,416,-1,417,491,489,-1,417,416,491,-1,368,486,487,-1,368,418,486,-1,487,369,368,-1,487,428,369,-1,663,365,364,-1,365,663,664,-1,663,363,665,-1,363,663,364,-1,663,665,666,-1,663,666,664,-1,664,666,361,-1,664,361,365,-1,361,666,665,-1,361,665,363,-1,103,226,225,-1,103,225,123,-1,225,336,124,-1,124,123,225,-1,336,340,125,-1,125,124,336,-1,316,310,210,-1,210,182,316,-1,320,178,667,-1,320,319,185,-1,320,185,178,-1,303,302,208,-1,208,7,303,-1,298,295,206,-1,206,31,298,-1,304,301,19,-1,19,18,304,-1,288,282,204,-1,204,49,288,-1,294,289,42,-1,42,41,294,-1,276,272,202,-1,202,66,276,-1,279,275,59,-1,59,58,279,-1,266,263,200,-1,200,79,266,-1,268,267,74,-1,74,73,268,-1,234,259,198,-1,198,92,234,-1,262,235,89,-1,89,88,262,-1,255,253,196,-1,196,108,255,-1,256,254,102,-1,102,101,256,-1,231,224,194,-1,194,117,231,-1,250,232,115,-1,115,114,250,-1,131,326,668,-1,324,326,135,-1,326,131,135,-1,332,330,191,-1,191,130,332,-1,129,340,333,-1,129,125,340,-1,312,323,24,-1,24,189,312,-1,210,310,314,-1,210,314,187,-1,187,314,313,-1,187,313,190,-1,190,313,312,-1,190,312,189,-1,184,317,316,-1,184,316,182,-1,181,318,317,-1,181,317,184,-1,185,319,318,-1,185,318,181,-1,669,321,320,-1,669,320,667,-1,247,669,670,-1,669,247,321,-1,221,247,670,-1,221,670,671,-1,671,670,177,-1,177,179,671,-1,179,672,671,-1,179,176,672,-1,168,673,674,-1,168,169,673,-1,156,675,676,-1,156,158,675,-1,145,677,678,-1,145,147,677,-1,138,679,680,-1,138,142,679,-1,27,681,682,-1,27,34,681,-1,51,683,684,-1,51,69,683,-1,75,685,686,-1,75,91,685,-1,96,687,688,-1,96,12,687,-1,118,689,690,-1,118,45,689,-1,691,692,132,-1,132,127,691,-1,175,693,672,-1,672,176,175,-1,671,672,693,-1,691,694,692,-1,222,694,691,-1,221,693,695,-1,671,693,221,-1,696,674,673,-1,695,674,696,-1,695,696,221,-1,675,697,676,-1,698,697,221,-1,696,698,221,-1,676,697,698,-1,677,699,678,-1,700,699,221,-1,697,700,221,-1,678,699,700,-1,679,701,680,-1,699,702,221,-1,701,703,221,-1,702,701,221,-1,701,702,680,-1,704,682,681,-1,703,682,704,-1,221,703,222,-1,683,705,684,-1,222,704,706,-1,222,703,704,-1,684,705,706,-1,685,707,686,-1,222,705,708,-1,222,706,705,-1,686,707,708,-1,687,709,688,-1,222,708,707,-1,222,710,709,-1,222,707,710,-1,689,711,690,-1,688,709,710,-1,712,690,711,-1,222,709,712,-1,694,222,711,-1,222,712,711,-1,44,694,711,-1,44,192,694,-1,692,192,132,-1,692,694,192,-1,689,44,711,-1,689,45,44,-1,690,195,118,-1,690,712,195,-1,14,712,709,-1,14,195,712,-1,687,14,709,-1,687,12,14,-1,688,197,96,-1,688,710,197,-1,143,710,707,-1,143,197,710,-1,685,143,707,-1,685,91,143,-1,686,199,75,-1,686,708,199,-1,150,708,705,-1,150,199,708,-1,683,150,705,-1,683,69,150,-1,684,201,51,-1,684,706,201,-1,154,706,704,-1,154,201,706,-1,681,154,704,-1,681,34,154,-1,682,203,27,-1,682,703,203,-1,160,703,701,-1,160,203,703,-1,679,160,701,-1,679,142,160,-1,680,205,138,-1,680,702,205,-1,162,702,699,-1,162,205,702,-1,677,162,699,-1,677,147,162,-1,678,207,145,-1,678,700,207,-1,167,700,697,-1,167,207,700,-1,675,167,697,-1,675,158,167,-1,676,209,156,-1,676,698,209,-1,171,698,696,-1,171,209,698,-1,673,171,696,-1,673,169,171,-1,211,674,695,-1,211,168,674,-1,695,693,175,-1,175,211,695,-1,241,691,713,-1,691,241,222,-1,327,713,714,-1,713,327,241,-1,714,326,327,-1,326,714,668,-1,668,714,136,-1,136,131,668,-1,714,713,137,-1,137,136,714,-1,713,691,127,-1,127,137,713,-1,670,669,180,-1,180,177,670,-1,669,667,178,-1,178,180,669,-1,306,208,302,-1,208,306,15,-1,305,15,306,-1,15,305,17,-1,304,17,305,-1,17,304,18,-1,303,6,307,-1,6,303,7,-1,307,186,212,-1,186,307,6,-1,297,206,295,-1,206,297,37,-1,296,37,297,-1,37,296,40,-1,294,40,296,-1,40,294,41,-1,298,30,299,-1,30,298,31,-1,299,29,300,-1,29,299,30,-1,300,19,301,-1,19,300,29,-1,287,204,282,-1,204,287,54,-1,286,54,287,-1,54,286,57,-1,279,57,286,-1,57,279,58,-1,288,48,290,-1,48,288,49,-1,290,47,291,-1,47,290,48,-1,291,42,289,-1,42,291,47,-1,278,202,272,-1,202,278,70,-1,277,70,278,-1,70,277,72,-1,268,72,277,-1,72,268,73,-1,276,65,280,-1,65,276,66,-1,280,64,281,-1,64,280,65,-1,281,59,275,-1,59,281,64,-1,270,200,263,-1,200,270,85,-1,269,85,270,-1,85,269,87,-1,262,87,269,-1,87,262,88,-1,266,78,273,-1,78,266,79,-1,273,1,274,-1,1,273,78,-1,274,74,267,-1,74,274,1,-1,261,198,259,-1,198,261,98,-1,260,98,261,-1,98,260,100,-1,256,100,260,-1,100,256,101,-1,234,46,264,-1,46,234,92,-1,264,35,265,-1,35,264,46,-1,265,89,235,-1,89,265,35,-1,252,196,253,-1,196,252,111,-1,251,111,252,-1,111,251,113,-1,250,113,251,-1,113,250,114,-1,255,68,257,-1,68,255,108,-1,257,60,258,-1,60,257,68,-1,258,102,254,-1,102,258,60,-1,246,194,224,-1,194,246,110,-1,226,110,246,-1,110,226,103,-1,231,90,248,-1,90,231,117,-1,248,81,249,-1,81,248,90,-1,249,115,232,-1,115,249,81,-1,324,126,334,-1,126,324,135,-1,334,133,335,-1,133,334,126,-1,335,191,330,-1,191,335,133,-1,332,116,338,-1,116,332,130,-1,338,104,339,-1,104,338,116,-1,339,129,333,-1,129,339,104,-1,323,322,25,-1,25,24,323,-1,322,213,23,-1,23,25,322,-1,
        ]
    }
}