#VRML V2.0 utf8
# 3D model generated by easyeda2kicad.py (https://github.com/uPesy/easyeda2kicad.py)

Shape{
    appearance Appearance {
        material  Material 	{
            diffuseColor 0.7764705882352941 0.7568627450980392 0.7372549019607844
            specularColor 0.38823529411764707 0.3764705882352941 0.3686274509803922
            ambientIntensity 0.7605
            transparency 0.0
            shininess 0.5
        }
    }
    geometry IndexedFaceSet {
        ccw TRUE
        solid FALSE
        coord DEF co Coordinate {
            point [
                2.7177 -1.9685 0.5992, 2.7177 -1.9685 0.05, 2.7177 -0.1968 0.5992, 2.7177 -0.1968 0.05, 2.7177 0.1969 0.05, 2.7177 1.9685 0.05, 2.7177 0.1969 0.5992, 2.7177 1.9685 0.5992, 2.4815 -1.9685 0.05, 2.4815 -1.6437 0.05, 2.4815 1.9685 0.05, 2.7167 0.2045 0.05, 2.6626 0.2116 0.05, 2.6597 0.2045 0.05, 0.4421 1.6437 0.05, 2.7167 -0.2045 0.05, 2.7138 -0.2116 0.05, 2.7091 -0.2177 0.05, 2.6587 -0.1968 0.05, 2.6597 -0.2045 0.05, 0.4421 -1.6437 0.05, 2.4815 1.6437 0.05, 2.7138 0.2116 0.05, 2.7091 0.2177 0.05, 2.6587 0.1969 0.05, 2.6626 -0.2116 0.05, 2.6673 -0.2177 0.05, 2.6805 0.2254 0.05, 2.6734 0.2224 0.05, 2.6673 0.2177 0.05, 2.6734 -0.2224 0.05, 2.6805 -0.2254 0.05, 2.6882 -0.2264 0.05, 2.703 0.2224 0.05, 2.6958 0.2254 0.05, 2.6882 0.2264 0.05, 2.6958 -0.2254 0.05, 2.703 -0.2224 0.05, 2.4815 1.9685 0.5992, 2.4815 1.6437 0.5992, 2.7167 0.2045 0.5992, 2.4815 -1.9685 0.5992, 2.7167 -0.2045 0.5992, 2.7091 -0.2177 0.5992, 2.703 -0.2224 0.5992, 2.4815 -1.6437 0.5992, 2.6587 0.1969 0.5992, 2.6597 0.2045 0.5992, 0.4421 1.6437 0.5992, 2.7138 -0.2116 0.5992, 2.6673 -0.2177 0.5992, 0.4421 -1.6437 0.5992, 2.6734 -0.2224 0.5992, 2.6805 -0.2254 0.5992, 2.6805 0.2254 0.5992, 2.6882 0.2264 0.5992, 2.6958 0.2254 0.5992, 2.703 0.2224 0.5992, 2.7091 0.2177 0.5992, 2.7138 0.2116 0.5992, 2.6958 -0.2254 0.5992, 2.6882 -0.2264 0.5992, 2.6626 -0.2116 0.5992, 2.6597 -0.2045 0.5992, 2.6587 -0.1968 0.5992, 2.6626 0.2116 0.5992, 2.6673 0.2177 0.5992, 2.6734 0.2224 0.5992
            ]
        }
        coordIndex [
            0,1,2,-1,2,1,3,-1,4,5,6,-1,6,5,7,-1,1,8,9,-1,10,5,11,-1,11,5,4,-1,12,13,14,-1,3,1,15,-1,15,1,9,-1,15,9,16,-1,16,9,17,-1,18,19,20,-1,10,11,21,-1,21,11,22,-1,21,22,23,-1,14,13,20,-1,20,13,24,-1,20,24,18,-1,19,25,20,-1,20,25,26,-1,20,26,9,-1,27,28,14,-1,14,28,29,-1,14,29,12,-1,26,30,9,-1,9,30,31,-1,9,31,32,-1,23,33,21,-1,21,33,34,-1,21,34,14,-1,14,34,35,-1,14,35,27,-1,32,36,9,-1,9,36,37,-1,9,37,17,-1,38,39,7,-1,7,39,40,-1,7,40,6,-1,41,0,42,-1,42,0,2,-1,43,44,45,-1,46,47,48,-1,41,42,45,-1,45,42,49,-1,45,49,43,-1,50,51,52,-1,52,51,45,-1,52,45,53,-1,54,55,39,-1,39,55,56,-1,39,56,57,-1,57,58,39,-1,39,58,59,-1,39,59,40,-1,44,60,45,-1,45,60,61,-1,45,61,53,-1,50,62,51,-1,51,62,63,-1,51,63,48,-1,48,63,64,-1,48,64,46,-1,47,65,48,-1,48,65,66,-1,48,66,39,-1,39,66,67,-1,39,67,54,-1,2,3,42,-1,42,3,15,-1,42,15,49,-1,49,15,16,-1,49,16,43,-1,43,16,17,-1,43,17,44,-1,44,17,37,-1,44,37,60,-1,60,37,36,-1,60,36,61,-1,61,36,32,-1,61,32,53,-1,53,32,31,-1,53,31,52,-1,52,31,30,-1,52,30,50,-1,50,30,26,-1,50,26,62,-1,62,26,25,-1,62,25,63,-1,63,25,19,-1,63,19,64,-1,64,19,18,-1,46,64,24,-1,24,64,18,-1,46,24,47,-1,47,24,13,-1,47,13,65,-1,65,13,12,-1,65,12,66,-1,66,12,29,-1,66,29,67,-1,67,29,28,-1,67,28,54,-1,54,28,27,-1,54,27,55,-1,55,27,35,-1,55,35,56,-1,56,35,34,-1,56,34,57,-1,57,34,33,-1,57,33,58,-1,58,33,23,-1,58,23,59,-1,59,23,22,-1,59,22,40,-1,40,22,11,-1,40,11,6,-1,6,11,4,-1,21,39,10,-1,10,39,38,-1,48,39,14,-1,14,39,21,-1,51,48,20,-1,20,48,14,-1,9,45,20,-1,20,45,51,-1,8,41,9,-1,9,41,45,-1,
        ]
    }
}
Shape{
    appearance Appearance {
        material  Material 	{
            diffuseColor 0.10980392156862745 0.10980392156862745 0.10980392156862745
            specularColor 0.0784313725490196 0.0784313725490196 0.0784313725490196
            ambientIntensity 0.1098
            transparency 0.0
            shininess 0.5
        }
    }
    geometry IndexedFaceSet {
        ccw TRUE
        solid FALSE
        coord DEF co Coordinate {
            point [
                2.7177 1.9685 0.5992, 2.7177 1.9685 0.05, 2.4815 1.9685 0.5992, 2.4815 1.9685 0.05, 2.4815 -1.9685 0.05, 2.7177 -1.9685 0.05, 2.4815 -1.9685 0.5992, 2.7177 -1.9685 0.5992
            ]
        }
        coordIndex [
            0,1,2,-1,2,1,3,-1,4,5,6,-1,6,5,7,-1,
        ]
    }
}
Shape{
    appearance Appearance {
        material  Material 	{
            diffuseColor 0.7764705882352941 0.7568627450980392 0.7372549019607844
            specularColor 0.38823529411764707 0.3764705882352941 0.3686274509803922
            ambientIntensity 0.7605
            transparency 0.0
            shininess 0.5
        }
    }
    geometry IndexedFaceSet {
        ccw TRUE
        solid FALSE
        coord DEF co Coordinate {
            point [
                -2.8846 0.8524 0.2205, -2.8846 1.1476 0.2205, -2.8846 0.8524 0.0, -2.8846 1.1476 0.0, -1.3989 1.2874 1.2678, -1.1969 1.2874 1.1793, -1.7751 1.2874 0.4101, -1.6336 1.2874 0.1837, -1.7751 1.2874 0.2458, -1.3989 0.7126 1.2678, -1.7751 0.7126 0.4101, -1.8355 0.773 0.2723, -1.8355 1.227 0.2723, -1.6625 1.2874 0.1321, -1.7007 1.2874 0.087, -1.7469 1.2874 0.05, -1.7751 1.2874 0.0336, -1.9148 0.8524 0.0, -1.9148 1.1476 0.0, -1.8853 0.8228 0.0014, -1.8853 1.1772 0.0014, -1.856 0.7935 0.0057, -1.856 1.2065 0.0057, -1.8272 0.7647 0.0128, -1.8272 1.2353 0.0128, -1.7993 0.7368 0.0226, -1.7993 1.2632 0.0226, -1.7751 0.7126 0.0336, -1.7469 0.7126 0.05, -1.7007 0.7126 0.087, -1.6625 0.7126 0.1321, -1.6336 0.7126 0.1837, -1.8456 1.2169 0.255, -1.8456 0.7831 0.255, -1.8594 1.2031 0.2405, -1.8594 0.7969 0.2405, -1.8761 1.1863 0.2296, -1.8761 0.8137 0.2296, -1.895 1.1675 0.2228, -1.895 0.8325 0.2228, -1.9148 1.1476 0.2205, -1.9148 0.8524 0.2205, -0.8256 1.2874 1.2311, -0.8256 1.2874 1.4516, -0.8256 0.7126 1.2311, -0.8256 0.7126 1.4516, -1.1176 1.2874 1.4516, -1.1176 1.2874 1.2311, -1.1176 0.7126 1.2311, -1.1176 0.7126 1.4516, -1.1869 1.2874 1.1965, -1.37 1.2874 1.3195, -1.1731 1.2874 1.211, -1.1765 1.2874 1.4459, -1.1375 1.2874 1.2288, -1.2332 1.2874 1.429, -1.1563 1.2874 1.222, -1.2856 1.2874 1.4016, -1.3318 1.2874 1.3646, -1.1375 0.7126 1.2288, -1.1563 0.7126 1.222, -1.1731 0.7126 1.211, -1.1869 0.7126 1.1965, -1.1969 0.7126 1.1793, -1.37 0.7126 1.3195, -1.3318 0.7126 1.3646, -1.2856 0.7126 1.4016, -1.1765 0.7126 1.4459, -1.2332 0.7126 1.429, -1.7751 0.7126 0.2458
            ]
        }
        coordIndex [
            0,1,2,-1,2,1,3,-1,4,5,6,-1,6,5,7,-1,6,7,8,-1,9,4,10,-1,10,4,6,-1,10,6,11,-1,11,6,12,-1,8,7,13,-1,13,14,8,-1,8,14,15,-1,8,15,16,-1,17,18,19,-1,19,18,20,-1,19,20,21,-1,21,20,22,-1,21,22,23,-1,23,22,24,-1,23,24,25,-1,25,24,26,-1,25,26,27,-1,26,16,27,-1,27,16,15,-1,27,15,28,-1,28,15,14,-1,28,14,29,-1,29,14,13,-1,29,13,30,-1,30,13,7,-1,30,7,31,-1,11,12,32,-1,11,32,33,-1,33,32,34,-1,33,34,35,-1,35,34,36,-1,35,36,37,-1,37,36,38,-1,37,38,39,-1,39,38,40,-1,39,40,41,-1,2,3,17,-1,17,3,18,-1,41,40,0,-1,0,40,1,-1,42,43,44,-1,44,43,45,-1,46,43,47,-1,47,43,42,-1,47,42,48,-1,48,42,44,-1,48,44,49,-1,49,44,45,-1,45,43,49,-1,49,43,46,-1,5,4,50,-1,50,4,51,-1,50,51,52,-1,46,47,53,-1,53,47,54,-1,53,54,55,-1,55,54,56,-1,55,56,57,-1,57,56,52,-1,57,52,58,-1,58,52,51,-1,47,48,54,-1,54,48,59,-1,54,59,56,-1,56,59,60,-1,56,60,52,-1,52,60,61,-1,52,61,50,-1,50,61,62,-1,50,62,5,-1,5,62,63,-1,9,63,64,-1,64,63,62,-1,64,62,65,-1,65,62,61,-1,65,61,66,-1,66,61,60,-1,48,49,59,-1,59,49,67,-1,59,67,60,-1,60,67,68,-1,60,68,66,-1,4,9,64,-1,4,64,51,-1,51,64,65,-1,51,65,58,-1,58,65,66,-1,58,66,57,-1,57,66,68,-1,57,68,55,-1,55,68,67,-1,55,67,53,-1,53,67,49,-1,53,49,46,-1,7,5,31,-1,31,5,63,-1,63,9,31,-1,31,9,10,-1,31,10,69,-1,69,27,28,-1,28,29,69,-1,69,29,30,-1,69,30,31,-1,18,3,40,-1,40,3,1,-1,38,36,24,-1,24,36,26,-1,26,36,34,-1,26,34,16,-1,16,34,32,-1,16,32,8,-1,8,32,12,-1,8,12,6,-1,18,40,20,-1,20,40,38,-1,20,38,22,-1,22,38,24,-1,69,10,11,-1,69,11,27,-1,11,33,27,-1,27,33,35,-1,27,35,25,-1,25,35,37,-1,25,37,23,-1,23,37,21,-1,21,37,39,-1,21,39,19,-1,19,39,41,-1,19,41,17,-1,17,41,2,-1,2,41,0,-1,
        ]
    }
}
Shape{
    appearance Appearance {
        material  Material 	{
            diffuseColor 0.10980392156862745 0.10980392156862745 0.10980392156862745
            specularColor 0.0784313725490196 0.0784313725490196 0.0784313725490196
            ambientIntensity 0.1098
            transparency 0.0
            shininess 0.5
        }
    }
    geometry IndexedFaceSet {
        ccw TRUE
        solid FALSE
        coord DEF co Coordinate {
            point [
                -0.0883 0.0332 0.05, -0.1013 0.0332 0.05, -0.1553 0.0504 0.05, -0.1485 -0.0475 0.05, -0.1546 -0.0245 0.05, -0.1355 -0.0475 0.05, -0.0365 -0.0245 0.05, -0.0495 0.036 0.05, -0.0495 -0.0086 0.05, -0.0883 -0.0086 0.05, -0.1013 -0.0086 0.05, -0.1416 -0.0086 0.05, -0.1416 0.0389 0.05, -0.1546 0.0389 0.05, 2.4815 -1.6437 0.05, 2.4815 -1.9685 0.05, 0.4421 -1.6437 0.05, -0.1553 -1.9685 0.05, -0.1553 -0.087 0.05, -0.1546 -0.1455 0.05, -0.1546 -0.2059 0.05, -0.0493 -0.0868 0.05, -0.0525 -0.0956 0.05, -0.1367 -0.0496 0.05, -0.058 -0.1038 0.05, -0.0659 -0.1109 0.05, -0.0968 -0.1195 0.05, -0.1096 -0.1183 0.05, -0.1198 -0.1151 0.05, -0.1418 -0.0888 0.05, -0.1431 -0.0778 0.05, -0.1387 -0.0974 0.05, -0.1338 -0.1047 0.05, -0.1279 -0.1102 0.05, -0.1413 -0.0621 0.05, -0.0365 0.036 0.05, 0.4421 0.0504 0.05, -0.075 -0.1158 0.05, -0.0876 -0.119 0.05, -0.0676 -0.1291 0.05, -0.0566 -0.1222 0.05, -0.0365 -0.1901 0.05, -0.124 -0.1307 0.05, -0.1416 -0.1455 0.05, -0.1352 -0.1244 0.05, -0.1445 -0.1155 0.05, -0.1545 -0.0946 0.05, -0.1506 -0.106 0.05, -0.1416 -0.1901 0.05, -0.1115 -0.1342 0.05, -0.0978 -0.1354 0.05, -0.081 -0.1337 0.05, -0.0463 -0.1116 0.05, -0.0398 -0.1003 0.05, -0.036 -0.0872 0.05, -0.0351 -0.0753 0.05, -0.036 -0.0612 0.05, -0.0397 -0.0475 0.05, -0.0556 -0.0475 0.05, -0.0499 -0.0608 0.05, -0.048 -0.0752 0.05, 2.4815 1.9685 0.05, 2.4815 1.6437 0.05, -0.1553 1.9685 0.05, 0.4421 1.6437 0.05, -0.1099 0.1554 0.05, -0.1222 0.1511 0.05, -0.1546 0.1657 0.05, -0.1328 0.1444 0.05, -0.1421 0.1346 0.05, -0.1493 0.1223 0.05, -0.1533 0.1087 0.05, -0.0519 0.1392 0.05, -0.0612 0.1475 0.05, -0.0365 0.2103 0.05, -0.1546 0.255 0.05, -0.1546 0.2723 0.05, -0.0365 0.2262 0.05, -0.1546 0.0941 0.05, -0.1546 0.062 0.05, -0.0365 0.062 0.05, -0.0365 0.0953 0.05, -0.1546 0.183 0.05, -0.1215 0.1942 0.05, -0.1215 0.243 0.05, -0.0383 0.1124 0.05, -0.0432 0.1262 0.05, -0.0518 0.139 0.05, -0.0713 0.153 0.05, -0.0829 0.1562 0.05, -0.0941 0.157 0.05, -0.1553 -0.072 0.05, -0.156 -0.0768 0.05, -0.7468 0.0504 0.05, -0.156 -0.08 0.05, -0.0365 -0.2059 0.05, -0.7468 -1.9685 0.05, -0.7468 1.9685 0.05, -0.1536 -0.0601 0.05
            ]
        }
        coordIndex [
            0,1,2,-1,3,4,5,-1,5,4,6,-1,7,8,9,-1,10,11,1,-1,1,11,12,-1,1,12,2,-1,2,12,13,-1,2,13,4,-1,14,15,16,-1,16,15,17,-1,18,19,20,-1,21,22,23,-1,23,22,24,-1,23,24,25,-1,26,27,23,-1,23,27,28,-1,29,30,31,-1,31,30,32,-1,28,33,23,-1,23,33,32,-1,23,32,34,-1,34,32,30,-1,9,0,7,-1,7,0,2,-1,7,2,35,-1,35,2,36,-1,35,36,6,-1,25,37,23,-1,23,37,38,-1,23,38,26,-1,39,40,41,-1,42,43,44,-1,44,43,19,-1,44,19,45,-1,18,46,19,-1,19,46,47,-1,19,47,45,-1,41,48,43,-1,42,49,43,-1,43,49,50,-1,43,50,41,-1,41,50,51,-1,41,51,39,-1,52,53,36,-1,36,53,54,-1,36,54,55,-1,55,56,36,-1,36,56,57,-1,36,57,6,-1,6,57,58,-1,6,58,5,-1,5,58,59,-1,5,59,23,-1,23,59,60,-1,23,60,21,-1,61,62,63,-1,63,62,64,-1,65,66,67,-1,67,66,68,-1,68,69,67,-1,67,69,70,-1,67,70,71,-1,72,73,74,-1,75,2,76,-1,76,2,63,-1,76,63,77,-1,77,63,64,-1,77,64,74,-1,74,64,36,-1,78,79,2,-1,2,79,80,-1,2,80,36,-1,36,80,81,-1,71,78,67,-1,67,78,2,-1,67,2,82,-1,82,2,75,-1,82,75,83,-1,83,75,84,-1,81,85,36,-1,36,85,86,-1,36,86,74,-1,74,86,87,-1,74,87,72,-1,73,88,74,-1,74,88,89,-1,74,89,67,-1,67,89,90,-1,67,90,65,-1,91,92,93,-1,93,92,94,-1,93,94,18,-1,40,52,41,-1,41,52,36,-1,41,36,95,-1,95,36,16,-1,95,16,20,-1,20,16,17,-1,20,17,18,-1,18,17,96,-1,18,96,93,-1,97,63,93,-1,93,63,2,-1,93,2,91,-1,91,2,4,-1,91,4,98,-1,98,4,3,-1,
        ]
    }
}
Shape{
    appearance Appearance {
        material  Material 	{
            diffuseColor 0.7764705882352941 0.7568627450980392 0.7372549019607844
            specularColor 0.38823529411764707 0.3764705882352941 0.3686274509803922
            ambientIntensity 0.7605
            transparency 0.0
            shininess 0.5
        }
    }
    geometry IndexedFaceSet {
        ccw TRUE
        solid FALSE
        coord DEF co Coordinate {
            point [
                -2.8846 -1.1476 0.2205, -2.8846 -0.8524 0.2205, -2.8846 -1.1476 0.0, -2.8846 -0.8524 0.0, -1.3989 -0.7126 1.2678, -1.1969 -0.7126 1.1793, -1.7751 -0.7126 0.4101, -1.6336 -0.7126 0.1837, -1.7751 -0.7126 0.2458, -1.8355 -0.773 0.2723, -1.8355 -1.227 0.2723, -1.7751 -1.2874 0.4101, -1.3989 -1.2874 1.2678, -1.6694 -0.7126 0.1225, -1.7183 -0.7126 0.0711, -1.7751 -0.7126 0.0336, -1.7751 -1.2874 0.0336, -1.7778 -1.2847 0.0326, -1.7778 -0.7153 0.0326, -1.8444 -1.2181 0.0082, -1.8444 -0.7819 0.0082, -1.9148 -1.1476 0.0, -1.9148 -0.8524 0.0, -1.7183 -1.2874 0.0711, -1.6694 -1.2874 0.1225, -1.6336 -1.2874 0.1837, -1.8456 -0.7831 0.255, -1.8456 -1.2169 0.255, -1.8594 -0.7969 0.2405, -1.8594 -1.2031 0.2405, -1.8761 -0.8137 0.2296, -1.8761 -1.1863 0.2296, -1.895 -0.8325 0.2228, -1.895 -1.1675 0.2228, -1.9148 -0.8524 0.2205, -1.9148 -1.1476 0.2205
            ]
        }
        coordIndex [
            0,1,2,-1,2,1,3,-1,4,5,6,-1,6,5,7,-1,6,7,8,-1,9,10,6,-1,6,10,11,-1,6,11,4,-1,4,11,12,-1,7,13,8,-1,8,13,14,-1,8,14,15,-1,16,17,18,-1,18,17,19,-1,18,19,20,-1,20,19,21,-1,20,21,22,-1,18,15,16,-1,16,15,14,-1,16,14,23,-1,23,14,13,-1,23,13,24,-1,24,13,7,-1,24,7,25,-1,10,9,26,-1,10,26,27,-1,27,26,28,-1,27,28,29,-1,29,28,30,-1,29,30,31,-1,31,30,32,-1,31,32,33,-1,33,32,34,-1,33,34,35,-1,2,3,21,-1,21,3,22,-1,35,34,0,-1,0,34,1,-1,
        ]
    }
}
Shape{
    appearance Appearance {
        material  Material 	{
            diffuseColor 0.10980392156862745 0.10980392156862745 0.10980392156862745
            specularColor 0.0784313725490196 0.0784313725490196 0.0784313725490196
            ambientIntensity 0.1098
            transparency 0.0
            shininess 0.5
        }
    }
    geometry IndexedFaceSet {
        ccw TRUE
        solid FALSE
        coord DEF co Coordinate {
            point [
                -0.8256 -0.2874 1.4516, -0.8256 -0.2874 1.2311, -0.8256 -0.7126 1.2311, -0.8256 -1.2874 1.4516, -0.8256 -1.2874 1.2311, -0.8256 -1.9685 1.2311, -0.8256 1.8701 1.75, -0.8256 1.8956 1.7466, -0.8256 1.9685 1.6516, -0.8256 -0.7126 1.4516, -0.8256 -1.8701 1.75, -0.8256 -1.8956 1.7466, -0.8256 1.9193 1.7368, -0.8256 1.9397 1.7212, -0.8256 1.9652 1.677, -0.8256 1.9553 1.7008, -0.8256 1.9685 1.2311, -0.8256 0.2874 1.2311, -0.8256 0.2874 1.4516, -0.8256 -1.9685 1.6516, -0.8256 -1.9651 1.677, -0.8256 -1.9553 1.7008, -0.8256 -1.9397 1.7212, -0.8256 -1.9193 1.7368
            ]
        }
        coordIndex [
            0,1,2,-1,3,4,5,-1,6,7,8,-1,6,9,10,-1,10,9,3,-1,10,3,11,-1,7,12,8,-1,8,12,13,-1,8,13,14,-1,14,13,15,-1,16,17,8,-1,8,17,18,-1,8,18,6,-1,6,18,0,-1,6,0,9,-1,9,0,2,-1,5,19,3,-1,3,19,20,-1,3,20,21,-1,21,22,3,-1,3,22,23,-1,3,23,11,-1,
        ]
    }
}
Shape{
    appearance Appearance {
        material  Material 	{
            diffuseColor 0.7764705882352941 0.7568627450980392 0.7372549019607844
            specularColor 0.38823529411764707 0.3764705882352941 0.3686274509803922
            ambientIntensity 0.7605
            transparency 0.0
            shininess 0.5
        }
    }
    geometry IndexedFaceSet {
        ccw TRUE
        solid FALSE
        coord DEF co Coordinate {
            point [
                2.4815 1.9685 0.5992, 2.7177 1.9685 0.5992, 2.7167 0.2045 0.5992, 2.7177 0.1969 0.5992, 2.7177 -1.9685 0.5992, 2.4815 -1.9685 0.5992, 2.4815 -1.6437 0.5992, 2.6626 0.2116 0.5992, 2.6597 0.2045 0.5992, 0.4421 1.6437 0.5992, 2.7177 -0.1968 0.5992, 2.7167 -0.2045 0.5992, 2.7138 -0.2116 0.5992, 2.7091 -0.2177 0.5992, 2.6587 -0.1968 0.5992, 2.6597 -0.2045 0.5992, 0.4421 -1.6437 0.5992, 2.4815 1.6437 0.5992, 2.7138 0.2116 0.5992, 2.7091 0.2177 0.5992, 2.6587 0.1969 0.5992, 2.6626 -0.2116 0.5992, 2.6673 -0.2177 0.5992, 2.6805 0.2254 0.5992, 2.6734 0.2224 0.5992, 2.6673 0.2177 0.5992, 2.6734 -0.2224 0.5992, 2.6805 -0.2254 0.5992, 2.6882 -0.2264 0.5992, 2.703 0.2224 0.5992, 2.6958 0.2254 0.5992, 2.6882 0.2264 0.5992, 2.6958 -0.2254 0.5992, 2.703 -0.2224 0.5992, 2.6587 -0.1968 0.05, 2.6597 -0.2045 0.05, 2.6626 -0.2116 0.05, 2.6673 -0.2177 0.05, 2.6734 -0.2224 0.05, 2.6805 -0.2254 0.05, 2.6882 -0.2264 0.05, 2.6958 -0.2254 0.05, 2.703 -0.2224 0.05, 2.7091 -0.2177 0.05, 2.7138 -0.2116 0.05, 2.7167 -0.2045 0.05, 2.7177 -0.1968 0.05, 2.6587 0.1969 0.05, 2.7177 0.1969 0.05, 2.7167 0.2045 0.05, 2.7138 0.2116 0.05, 2.7091 0.2177 0.05, 2.703 0.2224 0.05, 2.6958 0.2254 0.05, 2.6882 0.2264 0.05, 2.6805 0.2254 0.05, 2.6734 0.2224 0.05, 2.6673 0.2177 0.05, 2.6626 0.2116 0.05, 2.6597 0.2045 0.05, 2.4815 1.6437 0.05, 2.4815 1.9685 0.05, 0.4421 1.6437 0.05, 0.4421 -1.6437 0.05, 0.4421 0.0504 0.05, 2.4815 -1.6437 0.05, 2.4815 -1.9685 0.05
            ]
        }
        coordIndex [
            0,1,2,-1,2,1,3,-1,4,5,6,-1,7,8,9,-1,10,4,11,-1,11,4,6,-1,11,6,12,-1,12,6,13,-1,14,15,16,-1,0,2,17,-1,17,2,18,-1,17,18,19,-1,9,8,16,-1,16,8,20,-1,16,20,14,-1,15,21,16,-1,16,21,22,-1,16,22,6,-1,23,24,9,-1,9,24,25,-1,9,25,7,-1,22,26,6,-1,6,26,27,-1,6,27,28,-1,19,29,17,-1,17,29,30,-1,17,30,9,-1,9,30,31,-1,9,31,23,-1,28,32,6,-1,6,32,33,-1,6,33,13,-1,14,34,35,-1,14,35,15,-1,15,35,36,-1,15,36,21,-1,21,36,37,-1,21,37,22,-1,22,37,38,-1,22,38,26,-1,26,38,39,-1,26,39,27,-1,27,39,40,-1,27,40,28,-1,28,40,41,-1,28,41,32,-1,32,41,42,-1,32,42,33,-1,33,42,43,-1,33,43,13,-1,13,43,44,-1,13,44,12,-1,12,44,45,-1,12,45,11,-1,11,45,46,-1,11,46,10,-1,14,20,34,-1,34,20,47,-1,3,48,49,-1,3,49,2,-1,2,49,50,-1,2,50,18,-1,18,50,51,-1,18,51,19,-1,19,51,52,-1,19,52,29,-1,29,52,53,-1,29,53,30,-1,30,53,54,-1,30,54,31,-1,31,54,55,-1,31,55,23,-1,23,55,56,-1,23,56,24,-1,24,56,57,-1,24,57,25,-1,25,57,58,-1,25,58,7,-1,7,58,59,-1,7,59,8,-1,8,59,47,-1,8,47,20,-1,17,60,0,-1,0,60,61,-1,17,9,60,-1,60,9,62,-1,16,63,9,-1,9,63,64,-1,9,64,62,-1,6,65,16,-1,16,65,63,-1,5,66,6,-1,6,66,65,-1,46,48,10,-1,10,48,3,-1,
        ]
    }
}
Shape{
    appearance Appearance {
        material  Material 	{
            diffuseColor 0.10980392156862745 0.10980392156862745 0.10980392156862745
            specularColor 0.0784313725490196 0.0784313725490196 0.0784313725490196
            ambientIntensity 0.1098
            transparency 0.0
            shininess 0.5
        }
    }
    geometry IndexedFaceSet {
        ccw TRUE
        solid FALSE
        coord DEF co Coordinate {
            point [
                -0.8256 -0.7126 1.2311, -0.7468 0.0504 0.05, -0.8256 -1.2874 1.2311, -0.7468 -1.9685 0.05, -0.8256 -1.9685 1.2311, -0.8256 1.9685 1.2311, -0.7468 1.9685 0.05, -0.8256 0.2874 1.2311, -0.8256 -0.2874 1.2311, -0.1553 -1.9685 0.05, 2.4815 -1.9685 0.05, 2.4815 -1.9685 0.5992, 2.7177 -1.9685 0.5992, 2.5737 -1.9685 1.6516, -0.8256 -1.9685 1.6516, -0.1115 0.1658 1.75, -0.0742 0.1173 1.75, 2.5602 1.8701 1.75, -0.0508 0.0607 1.75, 2.5602 -1.8701 1.75, -0.0428 0.0 1.75, -0.0508 -0.0607 1.75, -0.0742 -0.1173 1.75, -0.8256 -1.8701 1.75, -0.5119 0.0 1.75, -0.8256 1.8701 1.75, -0.5039 0.0607 1.75, -0.4804 0.1173 1.75, -0.4432 0.1658 1.75, -0.3946 0.2031 1.75, -0.338 0.2265 1.75, -0.1115 -0.1658 1.75, -0.1601 -0.2031 1.75, -0.2166 -0.2265 1.75, -0.2773 -0.2345 1.75, -0.4432 -0.1658 1.75, -0.4804 -0.1173 1.75, -0.5039 -0.0607 1.75, -0.338 -0.2265 1.75, -0.3946 -0.2031 1.75, -0.2773 0.2345 1.75, -0.2166 0.2265 1.75, -0.1601 0.2031 1.75, -0.8256 1.9685 1.6516, 2.5737 1.9685 1.6516, 2.4815 1.9685 0.5992, 2.7177 1.9685 0.5992, 2.4815 1.9685 0.05, -0.1553 1.9685 0.05, 2.7177 -0.1968 0.5992, 2.562 -1.9193 1.7368, 2.563 -1.93 1.7297, 2.5642 -1.9397 1.7212, 2.5604 -1.8829 1.7492, 2.5607 -1.8956 1.7466, 2.5613 -1.9077 1.7425, 2.567 -1.9553 1.7008, 2.5702 -1.9651 1.677, 2.7177 0.1969 0.5992, 2.5702 1.9652 1.677, 2.567 1.9553 1.7008, 2.5642 1.9397 1.7212, 2.563 1.93 1.7297, 2.562 1.9193 1.7368, 2.5613 1.9077 1.7425, 2.5607 1.8956 1.7466, 2.5604 1.8829 1.7492, 2.6597 -0.2045 0.05, 2.6587 -0.1968 0.05, 2.7167 -0.2045 0.05, 2.7177 -0.1968 0.05, 2.7177 0.1969 0.05, 2.6587 0.1969 0.05, 2.7167 0.2045 0.05, 2.703 -0.2224 0.05, 2.6958 -0.2254 0.05, 2.6626 -0.2116 0.05, 2.7091 -0.2177 0.05, 2.7138 0.2116 0.05, 2.6597 0.2045 0.05, 2.6626 0.2116 0.05, 2.7138 -0.2116 0.05, 2.6673 0.2177 0.05, 2.6734 0.2224 0.05, 2.6805 0.2254 0.05, 2.6882 -0.2264 0.05, 2.6805 -0.2254 0.05, 2.6673 -0.2177 0.05, 2.6734 -0.2224 0.05, 2.6882 0.2264 0.05, 2.6958 0.2254 0.05, 2.7091 0.2177 0.05, 2.703 0.2224 0.05
            ]
        }
        coordIndex [
            0,1,2,-1,2,1,3,-1,2,3,4,-1,5,6,7,-1,7,6,1,-1,7,1,8,-1,8,1,0,-1,9,10,11,-1,12,13,11,-1,11,13,14,-1,11,14,9,-1,9,14,4,-1,9,4,3,-1,15,16,17,-1,17,16,18,-1,17,18,19,-1,18,20,19,-1,19,20,21,-1,19,21,22,-1,23,24,25,-1,25,24,26,-1,25,26,27,-1,27,28,25,-1,25,28,29,-1,25,29,30,-1,22,31,19,-1,19,31,32,-1,19,32,23,-1,23,32,33,-1,23,33,34,-1,35,36,23,-1,23,36,37,-1,23,37,24,-1,34,38,23,-1,23,38,39,-1,23,39,35,-1,30,40,25,-1,25,40,41,-1,25,41,17,-1,17,41,42,-1,17,42,15,-1,43,44,45,-1,45,44,46,-1,45,47,43,-1,43,47,48,-1,43,48,5,-1,5,48,6,-1,13,12,49,-1,50,51,49,-1,49,51,52,-1,53,54,49,-1,49,54,55,-1,49,55,50,-1,52,56,49,-1,49,56,57,-1,49,57,13,-1,46,44,58,-1,58,44,59,-1,59,60,58,-1,58,60,61,-1,58,61,62,-1,62,63,58,-1,58,63,64,-1,58,64,65,-1,65,66,58,-1,58,66,17,-1,58,17,49,-1,49,17,19,-1,49,19,53,-1,67,68,69,-1,69,68,70,-1,70,68,71,-1,71,68,72,-1,71,72,73,-1,74,75,76,-1,74,76,77,-1,73,72,78,-1,78,72,79,-1,78,79,80,-1,67,69,76,-1,76,69,81,-1,76,81,77,-1,80,82,78,-1,78,82,83,-1,78,83,84,-1,75,85,76,-1,76,85,86,-1,76,86,87,-1,87,86,88,-1,84,89,78,-1,78,89,90,-1,78,90,91,-1,91,90,92,-1,
        ]
    }
}
Shape{
    appearance Appearance {
        material  Material 	{
            diffuseColor 0.7764705882352941 0.7568627450980392 0.7372549019607844
            specularColor 0.38823529411764707 0.3764705882352941 0.3686274509803922
            ambientIntensity 0.7605
            transparency 0.0
            shininess 0.5
        }
    }
    geometry IndexedFaceSet {
        ccw TRUE
        solid FALSE
        coord DEF co Coordinate {
            point [
                -1.1176 0.2874 1.4516, -0.8256 0.2874 1.4516, -1.1176 0.2874 1.2311, -0.8256 0.2874 1.2311, -1.1176 -0.2874 1.2311, -0.8256 -0.2874 1.2311, -1.1176 -0.2874 1.4516, -0.8256 -0.2874 1.4516, -1.1176 -0.7126 1.4516, -0.8256 -0.7126 1.4516, -1.1176 -0.7126 1.2311, -0.8256 -0.7126 1.2311, -1.1176 -1.2874 1.2311, -0.8256 -1.2874 1.2311, -1.1176 -1.2874 1.4516, -0.8256 -1.2874 1.4516, -1.1969 -0.7126 1.1793, -1.3989 -0.7126 1.2678, -1.1869 -0.7126 1.1965, -1.3631 -0.7126 1.3291, -1.1731 -0.7126 1.211, -1.3142 -0.7126 1.3805, -1.1563 -0.7126 1.222, -1.2548 -0.7126 1.4192, -1.1375 -0.7126 1.2288, -1.1881 -0.7126 1.4434, -1.1375 -1.2874 1.2288, -1.1563 -1.2874 1.222, -1.1731 -1.2874 1.211, -1.1869 -1.2874 1.1965, -1.1969 -1.2874 1.1793, -1.1881 -1.2874 1.4434, -1.2548 -1.2874 1.4192, -1.3142 -1.2874 1.3805, -1.3631 -1.2874 1.3291, -1.3989 -1.2874 1.2678, -1.6336 -0.7126 0.1837, -1.6336 -1.2874 0.1837, -1.7751 -1.2874 0.4101, -1.7751 -1.2874 0.2458, -1.7751 -1.2874 0.0336, -1.7183 -1.2874 0.0711, -1.6694 -1.2874 0.1225, -1.9148 -0.8524 0.0, -2.8846 -0.8524 0.0, -1.9148 -0.8524 0.2205, -2.8846 -0.8524 0.2205, -1.8444 -0.7819 0.0082, -1.895 -0.8325 0.2228, -1.8761 -0.8137 0.2296, -1.7778 -0.7153 0.0326, -1.8594 -0.7969 0.2405, -1.7751 -0.7126 0.0336, -1.8456 -0.7831 0.255, -1.7751 -0.7126 0.2458, -1.8355 -0.773 0.2723, -1.7751 -0.7126 0.4101, -1.9148 -1.1476 0.0, -1.9148 -1.1476 0.2205, -2.8846 -1.1476 0.0, -2.8846 -1.1476 0.2205, -1.8355 -1.227 0.2723, -1.895 -1.1675 0.2228, -1.8444 -1.2181 0.0082, -1.8761 -1.1863 0.2296, -1.7778 -1.2847 0.0326, -1.8594 -1.2031 0.2405, -1.8456 -1.2169 0.255
            ]
        }
        coordIndex [
            0,1,2,-1,2,1,3,-1,2,3,4,-1,4,3,5,-1,4,5,6,-1,6,5,7,-1,7,1,6,-1,6,1,0,-1,8,9,10,-1,10,9,11,-1,10,11,12,-1,12,11,13,-1,12,13,14,-1,14,13,15,-1,15,9,14,-1,14,9,8,-1,16,17,18,-1,18,17,19,-1,18,19,20,-1,20,19,21,-1,20,21,22,-1,22,21,23,-1,22,23,24,-1,24,23,25,-1,24,25,10,-1,10,25,8,-1,10,12,24,-1,24,12,26,-1,24,26,22,-1,22,26,27,-1,22,27,20,-1,20,27,28,-1,20,28,18,-1,18,28,29,-1,18,29,16,-1,16,29,30,-1,12,14,26,-1,26,14,31,-1,26,31,27,-1,27,31,32,-1,27,32,28,-1,28,32,33,-1,28,33,29,-1,29,33,34,-1,29,34,30,-1,30,34,35,-1,17,35,34,-1,17,34,19,-1,19,34,33,-1,19,33,21,-1,21,33,32,-1,21,32,23,-1,23,32,31,-1,23,31,25,-1,25,31,14,-1,25,14,8,-1,36,16,37,-1,37,16,30,-1,30,35,37,-1,37,35,38,-1,37,38,39,-1,40,41,39,-1,39,41,42,-1,39,42,37,-1,43,44,45,-1,45,44,46,-1,47,43,45,-1,45,48,47,-1,47,48,49,-1,47,49,50,-1,50,49,51,-1,50,51,52,-1,52,51,53,-1,52,53,54,-1,54,53,55,-1,54,55,56,-1,57,58,59,-1,59,58,60,-1,39,38,61,-1,39,61,40,-1,58,57,62,-1,62,57,63,-1,62,63,64,-1,64,63,65,-1,64,65,66,-1,66,65,40,-1,66,40,67,-1,67,40,61,-1,6,0,4,-1,4,0,2,-1,
        ]
    }
}
Shape{
    appearance Appearance {
        material  Material 	{
            diffuseColor 0.4117647058823529 0.4117647058823529 0.4117647058823529
            specularColor 0.16470588235294117 0.16470588235294117 0.16470588235294117
            ambientIntensity 0.4118
            transparency 0.0
            shininess 0.5
        }
    }
    geometry IndexedFaceSet {
        ccw TRUE
        solid FALSE
        coord DEF co Coordinate {
            point [
                -0.2773 -0.2345 1.7303, -0.2773 -0.2345 1.75, -0.2166 -0.2265 1.7303, -0.2166 -0.2265 1.75, -0.1601 -0.2031 1.7303, -0.1601 -0.2031 1.75, -0.1115 -0.1658 1.7303, -0.1115 -0.1658 1.75, -0.0742 -0.1173 1.7303, -0.0742 -0.1173 1.75, -0.0508 -0.0607 1.7303, -0.0508 -0.0607 1.75, -0.0428 0.0 1.7303, -0.0428 0.0 1.75, -0.0508 0.0607 1.7303, -0.0508 0.0607 1.75, -0.0742 0.1173 1.7303, -0.0742 0.1173 1.75, -0.1115 0.1658 1.7303, -0.1115 0.1658 1.75, -0.1601 0.2031 1.7303, -0.1601 0.2031 1.75, -0.2166 0.2265 1.7303, -0.2166 0.2265 1.75, -0.2773 0.2345 1.7303, -0.2773 0.2345 1.75, -0.338 0.2265 1.7303, -0.338 0.2265 1.75, -0.3946 0.2031 1.7303, -0.3946 0.2031 1.75, -0.4432 0.1658 1.7303, -0.4432 0.1658 1.75, -0.4804 0.1173 1.7303, -0.4804 0.1173 1.75, -0.5039 0.0607 1.7303, -0.5039 0.0607 1.75, -0.5119 0.0 1.7303, -0.5119 0.0 1.75, -0.5039 -0.0607 1.7303, -0.5039 -0.0607 1.75, -0.4804 -0.1173 1.7303, -0.4804 -0.1173 1.75, -0.4432 -0.1658 1.7303, -0.4432 -0.1658 1.75, -0.3946 -0.2031 1.7303, -0.3946 -0.2031 1.75, -0.338 -0.2265 1.7303, -0.338 -0.2265 1.75, -0.2773 0.0 1.7303
            ]
        }
        coordIndex [
            0,1,2,-1,2,1,3,-1,2,3,4,-1,4,3,5,-1,4,5,6,-1,6,5,7,-1,6,7,8,-1,8,7,9,-1,8,9,10,-1,10,9,11,-1,10,11,12,-1,12,11,13,-1,12,13,14,-1,14,13,15,-1,14,15,16,-1,16,15,17,-1,16,17,18,-1,18,17,19,-1,18,19,20,-1,20,19,21,-1,20,21,22,-1,22,21,23,-1,22,23,24,-1,24,23,25,-1,24,25,26,-1,26,25,27,-1,26,27,28,-1,28,27,29,-1,28,29,30,-1,30,29,31,-1,30,31,32,-1,32,31,33,-1,32,33,34,-1,34,33,35,-1,34,35,36,-1,36,35,37,-1,36,37,38,-1,38,37,39,-1,38,39,40,-1,40,39,41,-1,40,41,42,-1,42,41,43,-1,42,43,44,-1,44,43,45,-1,44,45,46,-1,46,45,47,-1,46,47,0,-1,0,47,1,-1,44,46,48,-1,48,46,0,-1,48,0,2,-1,38,40,48,-1,48,40,42,-1,48,42,44,-1,32,34,48,-1,48,34,36,-1,48,36,38,-1,26,28,48,-1,48,28,30,-1,48,30,32,-1,20,22,48,-1,48,22,24,-1,48,24,26,-1,14,16,48,-1,48,16,18,-1,48,18,20,-1,8,10,48,-1,48,10,12,-1,48,12,14,-1,2,4,48,-1,48,4,6,-1,48,6,8,-1,
        ]
    }
}
Shape{
    appearance Appearance {
        material  Material 	{
            diffuseColor 0.10980392156862745 0.10980392156862745 0.10980392156862745
            specularColor 0.0784313725490196 0.0784313725490196 0.0784313725490196
            ambientIntensity 0.1098
            transparency 0.0
            shininess 0.5
        }
    }
    geometry IndexedFaceSet {
        ccw TRUE
        solid FALSE
        coord DEF co Coordinate {
            point [
                -0.8256 -1.8956 1.7466, 2.5607 -1.8956 1.7466, -0.8256 -1.8701 1.75, 2.5604 -1.8829 1.7492, 2.5602 -1.8701 1.75, 2.5642 -1.9397 1.7212, 2.563 -1.93 1.7297, -0.8256 -1.9193 1.7368, 2.562 -1.9193 1.7368, 2.5613 -1.9077 1.7425, -0.8256 -1.9397 1.7212, -0.8256 -1.9553 1.7008, 2.567 -1.9553 1.7008, -0.8256 -1.9651 1.677, 2.5702 -1.9651 1.677, -0.8256 -1.9685 1.6516, 2.5737 -1.9685 1.6516, 2.5737 1.9685 1.6516, -0.8256 1.9685 1.6516, -0.8256 1.9652 1.677, 2.5702 1.9652 1.677, -0.8256 1.9553 1.7008, 2.567 1.9553 1.7008, -0.8256 1.9397 1.7212, 2.5642 1.9397 1.7212, -0.8256 1.9193 1.7368, 2.562 1.9193 1.7368, 2.563 1.93 1.7297, -0.8256 1.8956 1.7466, -0.8256 1.8701 1.75, 2.5602 1.8701 1.75, 2.5604 1.8829 1.7492, 2.5607 1.8956 1.7466, 2.5613 1.9077 1.7425
            ]
        }
        coordIndex [
            0,1,2,-1,2,1,3,-1,2,3,4,-1,5,6,7,-1,7,6,8,-1,7,8,0,-1,0,8,9,-1,0,9,1,-1,7,10,5,-1,5,10,11,-1,5,11,12,-1,12,11,13,-1,12,13,14,-1,14,13,15,-1,14,15,16,-1,17,18,19,-1,17,19,20,-1,20,19,21,-1,20,21,22,-1,22,21,23,-1,22,23,24,-1,25,26,23,-1,23,26,27,-1,23,27,24,-1,28,29,30,-1,30,31,28,-1,28,31,32,-1,28,32,25,-1,25,32,33,-1,25,33,26,-1,
        ]
    }
}
Shape{
    appearance Appearance {
        material  Material 	{
            diffuseColor 0.7764705882352941 0.7568627450980392 0.7372549019607844
            specularColor 0.38823529411764707 0.3764705882352941 0.3686274509803922
            ambientIntensity 0.7605
            transparency 0.0
            shininess 0.5
        }
    }
    geometry IndexedFaceSet {
        ccw TRUE
        solid FALSE
        coord DEF co Coordinate {
            point [
                -0.1085 0.1982 0.0539, -0.1215 0.1942 0.0539, -0.1085 0.2377 0.0539, -0.1215 0.243 0.0539, -0.0592 0.2158 0.0539, -0.0365 0.2103 0.0539, -0.1546 0.1657 0.0539, -0.1546 0.183 0.0539, -0.0551 0.217 0.0539, -0.0509 0.2177 0.0539, -0.0365 0.2262 0.0539, -0.0509 0.2181 0.0539, -0.0551 0.2189 0.0539, -0.0592 0.2199 0.0539, -0.1546 0.2723 0.0539, -0.1546 0.255 0.0539, -0.1215 0.243 0.05, -0.1546 0.255 0.05, -0.1215 0.1942 0.05, -0.1546 0.183 0.05, -0.1546 0.1657 0.05, -0.0365 0.2103 0.05, -0.0365 0.2262 0.05, -0.1546 0.2723 0.05, -0.0592 0.2199 0.05, -0.0551 0.2189 0.05, -0.0509 0.2181 0.05, -0.0509 0.2177 0.05, -0.0551 0.217 0.05, -0.0592 0.2158 0.05, -0.1085 0.1982 0.05, -0.1085 0.2377 0.05, -0.0365 0.0953 0.0539, -0.0365 0.0953 0.05, -0.0365 0.062 0.0539, -0.0365 0.062 0.05, -0.0383 0.1124 0.0539, -0.0383 0.1124 0.05, -0.0432 0.1262 0.0539, -0.0432 0.1262 0.05, -0.0518 0.139 0.0539, -0.0518 0.139 0.05, -0.0519 0.1392 0.0539, -0.0519 0.1392 0.05, -0.0612 0.1475 0.0539, -0.0612 0.1475 0.05, -0.0713 0.153 0.0539, -0.0713 0.153 0.05, -0.0829 0.1562 0.0539, -0.0829 0.1562 0.05, -0.0941 0.157 0.0539, -0.0941 0.157 0.05, -0.1099 0.1554 0.0539, -0.1099 0.1554 0.05, -0.1222 0.1511 0.0539, -0.1222 0.1511 0.05, -0.1328 0.1444 0.0539, -0.1328 0.1444 0.05, -0.1421 0.1346 0.0539, -0.1421 0.1346 0.05, -0.1493 0.1223 0.0539, -0.1493 0.1223 0.05, -0.1533 0.1087 0.0539, -0.1533 0.1087 0.05, -0.1546 0.0941 0.0539, -0.1546 0.0941 0.05, -0.1546 0.062 0.0539, -0.1546 0.062 0.05, -0.066 0.1333 0.0539, -0.0599 0.1276 0.0539, -0.0544 0.119 0.0539, -0.0509 0.1092 0.0539, -0.0495 0.0952 0.0539, -0.0495 0.0778 0.0539, -0.1416 0.0778 0.0539, -0.1416 0.0946 0.0539, -0.1405 0.107 0.0539, -0.1374 0.117 0.0539, -0.1326 0.125 0.0539, -0.1261 0.1317 0.0539, -0.1179 0.1366 0.0539, -0.1068 0.1401 0.0539, -0.0944 0.1412 0.0539, -0.0826 0.1402 0.0539, -0.0733 0.1374 0.0539, -0.1416 0.0946 0.05, -0.1416 0.0778 0.05, -0.1405 0.107 0.05, -0.1374 0.117 0.05, -0.1326 0.125 0.05, -0.1261 0.1317 0.05, -0.1179 0.1366 0.05, -0.1068 0.1401 0.05, -0.0944 0.1412 0.05, -0.0826 0.1402 0.05, -0.0733 0.1374 0.05, -0.066 0.1333 0.05, -0.0599 0.1276 0.05, -0.0544 0.119 0.05, -0.0509 0.1092 0.05, -0.0495 0.0952 0.05, -0.0495 0.0778 0.05, -0.0365 -0.0245 0.0539, -0.0365 -0.0245 0.05, -0.1546 -0.0245 0.0539, -0.1546 -0.0245 0.05, -0.0365 0.036 0.0539, -0.0365 0.036 0.05, -0.0495 0.036 0.0539, -0.0495 0.036 0.05, -0.0495 -0.0086 0.0539, -0.0495 -0.0086 0.05, -0.0883 -0.0086 0.0539, -0.0883 -0.0086 0.05, -0.0883 0.0332 0.0539, -0.0883 0.0332 0.05, -0.1013 0.0332 0.0539, -0.1013 0.0332 0.05, -0.1013 -0.0086 0.0539, -0.1013 -0.0086 0.05, -0.1416 -0.0086 0.0539, -0.1416 -0.0086 0.05, -0.1416 0.0389 0.0539, -0.1416 0.0389 0.05, -0.1546 0.0389 0.0539, -0.1546 0.0389 0.05, -0.1553 -0.087 0.05, -0.156 -0.08 0.05, -0.156 -0.08 0.0539, -0.1545 -0.0946 0.05, -0.1545 -0.0946 0.0539, -0.1506 -0.106 0.0539, -0.1506 -0.106 0.05, -0.1445 -0.1155 0.0539, -0.1445 -0.1155 0.05, -0.1352 -0.1244 0.0539, -0.1352 -0.1244 0.05, -0.124 -0.1307 0.0539, -0.124 -0.1307 0.05, -0.1115 -0.1342 0.0539, -0.1115 -0.1342 0.05, -0.0978 -0.1354 0.0539, -0.0978 -0.1354 0.05, -0.081 -0.1337 0.0539, -0.081 -0.1337 0.05, -0.0676 -0.1291 0.0539, -0.0676 -0.1291 0.05, -0.0566 -0.1222 0.0539, -0.0566 -0.1222 0.05, -0.0463 -0.1116 0.0539, -0.0463 -0.1116 0.05, -0.0398 -0.1003 0.0539, -0.0398 -0.1003 0.05, -0.036 -0.0872 0.0539, -0.036 -0.0872 0.05, -0.0351 -0.0753 0.0539, -0.0351 -0.0753 0.05, -0.036 -0.0612 0.0539, -0.036 -0.0612 0.05, -0.0397 -0.0475 0.0539, -0.0397 -0.0475 0.05, -0.0556 -0.0475 0.0539, -0.0556 -0.0475 0.05, -0.0499 -0.0608 0.0539, -0.0499 -0.0608 0.05, -0.048 -0.0752 0.0539, -0.048 -0.0752 0.05, -0.0493 -0.0868 0.0539, -0.0493 -0.0868 0.05, -0.0525 -0.0956 0.0539, -0.0525 -0.0956 0.05, -0.058 -0.1038 0.0539, -0.058 -0.1038 0.05, -0.0659 -0.1109 0.0539, -0.0659 -0.1109 0.05, -0.075 -0.1158 0.0539, -0.075 -0.1158 0.05, -0.0876 -0.119 0.0539, -0.0876 -0.119 0.05, -0.0968 -0.1195 0.0539, -0.0968 -0.1195 0.05, -0.1096 -0.1183 0.0539, -0.1096 -0.1183 0.05, -0.1198 -0.1151 0.0539, -0.1198 -0.1151 0.05, -0.1279 -0.1102 0.0539, -0.1279 -0.1102 0.05, -0.1338 -0.1047 0.0539, -0.1338 -0.1047 0.05, -0.1387 -0.0974 0.0539, -0.1387 -0.0974 0.05, -0.1418 -0.0888 0.0539, -0.1418 -0.0888 0.05, -0.1431 -0.0778 0.0539, -0.1431 -0.0778 0.05, -0.1413 -0.0621 0.0539, -0.1413 -0.0621 0.05, -0.1367 -0.0496 0.0539, -0.1367 -0.0496 0.05, -0.1355 -0.0475 0.0539, -0.1355 -0.0475 0.05, -0.1485 -0.0475 0.0539, -0.1485 -0.0475 0.05, -0.1536 -0.0601 0.05, -0.1536 -0.0601 0.0539, -0.1553 -0.072 0.05, -0.156 -0.0768 0.0539, -0.156 -0.0768 0.05, -0.0365 -0.2059 0.0539, -0.0365 -0.2059 0.05, -0.1546 -0.2059 0.0539, -0.1546 -0.2059 0.05, -0.0365 -0.1901 0.0539, -0.0365 -0.1901 0.05, -0.1416 -0.1901 0.0539, -0.1416 -0.1901 0.05, -0.1416 -0.1455 0.0539, -0.1416 -0.1455 0.05, -0.1546 -0.1455 0.0539, -0.1546 -0.1455 0.05
            ]
        }
        coordIndex [
            0,1,2,-1,2,1,3,-1,4,5,0,-1,0,5,6,-1,0,6,1,-1,1,6,7,-1,4,8,5,-1,5,8,9,-1,5,9,10,-1,10,9,11,-1,10,11,12,-1,12,13,10,-1,10,13,2,-1,10,2,14,-1,14,2,3,-1,14,3,15,-1,3,16,15,-1,15,16,17,-1,1,18,3,-1,3,18,16,-1,7,19,1,-1,1,19,18,-1,6,20,7,-1,7,20,19,-1,5,21,6,-1,6,21,20,-1,10,22,5,-1,5,22,21,-1,14,23,10,-1,10,23,22,-1,14,15,23,-1,23,15,17,-1,24,13,12,-1,24,12,25,-1,25,12,11,-1,25,11,26,-1,9,27,11,-1,11,27,26,-1,27,9,8,-1,27,8,28,-1,28,8,4,-1,28,4,29,-1,0,30,4,-1,4,30,29,-1,2,31,0,-1,0,31,30,-1,24,31,13,-1,13,31,2,-1,32,33,34,-1,34,33,35,-1,33,32,36,-1,33,36,37,-1,37,36,38,-1,37,38,39,-1,39,38,40,-1,39,40,41,-1,41,40,42,-1,41,42,43,-1,43,42,44,-1,43,44,45,-1,45,44,46,-1,45,46,47,-1,47,46,48,-1,47,48,49,-1,49,48,50,-1,49,50,51,-1,51,50,52,-1,51,52,53,-1,53,52,54,-1,53,54,55,-1,55,54,56,-1,55,56,57,-1,57,56,58,-1,57,58,59,-1,59,58,60,-1,59,60,61,-1,61,60,62,-1,61,62,63,-1,63,62,64,-1,63,64,65,-1,66,67,64,-1,64,67,65,-1,66,34,67,-1,67,34,35,-1,46,44,68,-1,68,44,42,-1,68,42,69,-1,69,42,40,-1,69,40,70,-1,70,40,38,-1,70,38,71,-1,71,38,36,-1,71,36,72,-1,72,36,32,-1,72,32,73,-1,73,32,34,-1,73,34,74,-1,74,34,66,-1,74,66,75,-1,75,66,64,-1,75,64,76,-1,76,64,62,-1,76,62,77,-1,77,62,60,-1,77,60,78,-1,78,60,58,-1,78,58,79,-1,79,58,56,-1,79,56,80,-1,80,56,54,-1,80,54,81,-1,81,54,52,-1,81,52,82,-1,82,52,50,-1,82,50,83,-1,83,50,48,-1,83,48,84,-1,84,48,46,-1,84,46,68,-1,75,85,74,-1,74,85,86,-1,85,75,76,-1,85,76,87,-1,87,76,77,-1,87,77,88,-1,88,77,78,-1,88,78,89,-1,89,78,79,-1,89,79,90,-1,90,79,80,-1,90,80,91,-1,91,80,81,-1,91,81,92,-1,92,81,82,-1,92,82,93,-1,93,82,83,-1,93,83,94,-1,94,83,84,-1,94,84,95,-1,95,84,68,-1,95,68,96,-1,96,68,69,-1,96,69,97,-1,97,69,70,-1,97,70,98,-1,98,70,71,-1,98,71,99,-1,99,71,72,-1,99,72,100,-1,73,101,72,-1,72,101,100,-1,86,101,74,-1,74,101,73,-1,102,103,104,-1,104,103,105,-1,106,107,102,-1,102,107,103,-1,108,109,106,-1,106,109,107,-1,110,111,108,-1,108,111,109,-1,112,113,110,-1,110,113,111,-1,114,115,112,-1,112,115,113,-1,116,117,114,-1,114,117,115,-1,118,119,116,-1,116,119,117,-1,120,121,118,-1,118,121,119,-1,122,123,120,-1,120,123,121,-1,124,125,122,-1,122,125,123,-1,124,104,125,-1,125,104,105,-1,104,124,122,-1,122,120,104,-1,104,120,118,-1,104,118,102,-1,108,106,110,-1,110,106,102,-1,110,102,112,-1,112,102,118,-1,112,118,114,-1,114,118,116,-1,126,127,128,-1,126,128,129,-1,128,130,129,-1,129,130,131,-1,129,131,132,-1,132,131,133,-1,132,133,134,-1,134,133,135,-1,134,135,136,-1,136,135,137,-1,136,137,138,-1,138,137,139,-1,138,139,140,-1,140,139,141,-1,140,141,142,-1,142,141,143,-1,142,143,144,-1,144,143,145,-1,144,145,146,-1,146,145,147,-1,146,147,148,-1,148,147,149,-1,148,149,150,-1,150,149,151,-1,150,151,152,-1,152,151,153,-1,152,153,154,-1,154,153,155,-1,154,155,156,-1,156,155,157,-1,156,157,158,-1,158,157,159,-1,158,159,160,-1,161,162,159,-1,159,162,160,-1,162,161,163,-1,162,163,164,-1,164,163,165,-1,164,165,166,-1,166,165,167,-1,166,167,168,-1,168,167,169,-1,168,169,170,-1,170,169,171,-1,170,171,172,-1,172,171,173,-1,172,173,174,-1,174,173,175,-1,174,175,176,-1,176,175,177,-1,176,177,178,-1,178,177,179,-1,178,179,180,-1,180,179,181,-1,180,181,182,-1,182,181,183,-1,182,183,184,-1,184,183,185,-1,184,185,186,-1,186,185,187,-1,186,187,188,-1,188,187,189,-1,188,189,190,-1,190,189,191,-1,190,191,192,-1,192,191,193,-1,192,193,194,-1,194,193,195,-1,194,195,196,-1,196,195,197,-1,196,197,198,-1,198,197,199,-1,198,199,200,-1,201,202,199,-1,199,202,200,-1,203,202,204,-1,204,202,201,-1,203,204,205,-1,205,204,206,-1,205,206,207,-1,207,206,128,-1,207,128,127,-1,191,128,193,-1,193,128,206,-1,193,206,195,-1,195,206,204,-1,195,204,197,-1,197,204,201,-1,197,201,199,-1,161,159,163,-1,163,159,157,-1,163,157,165,-1,165,157,155,-1,165,155,167,-1,167,155,153,-1,167,153,169,-1,169,153,151,-1,169,151,171,-1,171,151,149,-1,171,149,173,-1,173,149,147,-1,173,147,175,-1,175,147,145,-1,175,145,177,-1,177,145,143,-1,177,143,179,-1,179,143,141,-1,179,141,181,-1,181,141,139,-1,181,139,183,-1,183,139,137,-1,183,137,185,-1,185,137,135,-1,185,135,187,-1,187,135,133,-1,187,133,189,-1,189,133,131,-1,189,131,191,-1,191,131,130,-1,191,130,128,-1,208,209,210,-1,210,209,211,-1,212,213,208,-1,208,213,209,-1,214,215,212,-1,212,215,213,-1,216,217,214,-1,214,217,215,-1,218,219,216,-1,216,219,217,-1,218,210,219,-1,219,210,211,-1,212,208,214,-1,214,208,210,-1,214,210,216,-1,216,210,218,-1,30,31,29,-1,29,31,24,-1,29,24,28,-1,28,24,25,-1,28,25,27,-1,27,25,26,-1,
        ]
    }
}
Shape{
    appearance Appearance {
        material  Material 	{
            diffuseColor 0.10980392156862745 0.10980392156862745 0.10980392156862745
            specularColor 0.0784313725490196 0.0784313725490196 0.0784313725490196
            ambientIntensity 0.1098
            transparency 0.0
            shininess 0.5
        }
    }
    geometry IndexedFaceSet {
        ccw TRUE
        solid FALSE
        coord DEF co Coordinate {
            point [
                -0.0495 0.0778 0.05, -0.1416 0.0778 0.05, -0.0495 0.0952 0.05, -0.1416 0.0946 0.05, -0.1405 0.107 0.05, -0.0944 0.1412 0.05, -0.0826 0.1402 0.05, -0.0733 0.1374 0.05, -0.0509 0.1092 0.05, -0.1374 0.117 0.05, -0.1326 0.125 0.05, -0.1261 0.1317 0.05, -0.1179 0.1366 0.05, -0.1068 0.1401 0.05, -0.066 0.1333 0.05, -0.0599 0.1276 0.05, -0.0544 0.119 0.05
            ]
        }
        coordIndex [
            0,1,2,-1,2,1,3,-1,2,3,4,-1,5,6,2,-1,2,6,7,-1,2,7,8,-1,4,9,2,-1,2,9,10,-1,2,10,11,-1,11,12,2,-1,2,12,13,-1,2,13,5,-1,14,15,7,-1,7,15,16,-1,7,16,8,-1,
        ]
    }
}
Shape{
    appearance Appearance {
        material  Material 	{
            diffuseColor 0.7764705882352941 0.7568627450980392 0.7372549019607844
            specularColor 0.38823529411764707 0.3764705882352941 0.3686274509803922
            ambientIntensity 0.7605
            transparency 0.0
            shininess 0.5
        }
    }
    geometry IndexedFaceSet {
        ccw TRUE
        solid FALSE
        coord DEF co Coordinate {
            point [
                2.7177 -1.9685 0.5992, 2.7177 1.9685 0.5992, 2.7177 0.1969 0.05, 2.7177 1.9685 0.05, 2.7177 -1.9685 0.05, 2.7177 -0.1968 0.05, 2.7177 -0.1968 0.0, 2.7177 0.1969 0.0, 2.4815 -1.9685 0.05, 2.7167 -0.2045 0.05, 2.4815 1.9685 0.05, 2.4815 1.6437 0.05, 2.7167 0.2045 0.05, 2.7091 -0.2177 0.05, 2.703 -0.2224 0.05, 2.4815 -1.6437 0.05, 2.6587 0.1969 0.05, 2.6597 0.2045 0.05, 0.4421 1.6437 0.05, 2.7138 -0.2116 0.05, 2.6673 -0.2177 0.05, 0.4421 -1.6437 0.05, 2.6734 -0.2224 0.05, 2.6805 -0.2254 0.05, 2.6805 0.2254 0.05, 2.6882 0.2264 0.05, 2.6958 0.2254 0.05, 2.703 0.2224 0.05, 2.7091 0.2177 0.05, 2.7138 0.2116 0.05, 2.6958 -0.2254 0.05, 2.6882 -0.2264 0.05, 2.6626 -0.2116 0.05, 2.6597 -0.2045 0.05, 2.6587 -0.1968 0.05, 2.6626 0.2116 0.05, 2.6673 0.2177 0.05, 2.6734 0.2224 0.05, 2.4815 1.9685 0.0, 2.4815 1.6437 0.0, 0.4421 1.6437 0.0, 0.4421 -1.6437 0.0, 3.1705 1.9685 0.5992, 3.1705 1.9685 0.0, 3.3673 1.5748 0.5992, 3.3673 1.5748 0.0, 3.3673 -1.5748 0.5992, 3.3673 -1.5748 0.0, 3.1705 -1.9685 0.5992, 3.1705 -1.9685 0.0, 2.4815 -1.9685 0.0, 2.7167 -0.2045 0.0, 2.6626 0.2116 0.0, 2.6597 0.2045 0.0, 2.6587 0.1969 0.0, 2.6587 -0.1968 0.0, 2.6597 -0.2045 0.0, 2.4815 -1.6437 0.0, 2.7138 -0.2116 0.0, 2.7091 -0.2177 0.0, 2.7167 0.2045 0.0, 2.7138 0.2116 0.0, 2.7091 0.2177 0.0, 2.6626 -0.2116 0.0, 2.6673 -0.2177 0.0, 2.6805 0.2254 0.0, 2.6734 0.2224 0.0, 2.6673 0.2177 0.0, 2.6734 -0.2224 0.0, 2.6805 -0.2254 0.0, 2.6882 -0.2264 0.0, 2.703 0.2224 0.0, 2.6958 0.2254 0.0, 2.6882 0.2264 0.0, 2.6958 -0.2254 0.0, 2.703 -0.2224 0.0
            ]
        }
        coordIndex [
            0,1,2,-1,2,1,3,-1,4,0,5,-1,5,0,2,-1,5,2,6,-1,6,2,7,-1,8,4,9,-1,9,4,5,-1,10,11,3,-1,3,11,12,-1,3,12,2,-1,13,14,15,-1,16,17,18,-1,8,9,15,-1,15,9,19,-1,15,19,13,-1,20,21,22,-1,22,21,15,-1,22,15,23,-1,24,25,11,-1,11,25,26,-1,11,26,27,-1,27,28,11,-1,11,28,29,-1,11,29,12,-1,14,30,15,-1,15,30,31,-1,15,31,23,-1,20,32,21,-1,21,32,33,-1,21,33,18,-1,18,33,34,-1,18,34,16,-1,17,35,18,-1,18,35,36,-1,18,36,11,-1,11,36,37,-1,11,37,24,-1,38,39,10,-1,10,39,11,-1,11,39,18,-1,18,39,40,-1,18,40,21,-1,21,40,41,-1,38,10,3,-1,1,42,3,-1,3,42,43,-1,3,43,38,-1,42,44,43,-1,43,44,45,-1,44,46,45,-1,45,46,47,-1,46,48,47,-1,47,48,49,-1,8,50,4,-1,4,50,49,-1,4,49,0,-1,0,49,48,-1,0,48,46,-1,0,46,1,-1,1,46,44,-1,1,44,42,-1,38,43,39,-1,39,43,45,-1,39,45,47,-1,51,6,47,-1,52,53,40,-1,40,53,54,-1,40,54,41,-1,41,54,55,-1,41,55,56,-1,51,57,58,-1,58,57,59,-1,51,47,57,-1,57,47,49,-1,57,49,50,-1,6,7,47,-1,47,7,60,-1,47,60,39,-1,39,60,61,-1,39,61,62,-1,56,63,41,-1,41,63,64,-1,41,64,57,-1,65,66,40,-1,40,66,67,-1,40,67,52,-1,64,68,57,-1,57,68,69,-1,57,69,70,-1,62,71,39,-1,39,71,72,-1,39,72,40,-1,40,72,73,-1,40,73,65,-1,70,74,57,-1,57,74,75,-1,57,75,59,-1,5,6,9,-1,9,6,51,-1,9,51,19,-1,19,51,58,-1,19,58,13,-1,13,58,59,-1,13,59,14,-1,14,59,75,-1,14,75,30,-1,30,75,74,-1,30,74,31,-1,31,74,70,-1,31,70,23,-1,23,70,69,-1,23,69,22,-1,22,69,68,-1,22,68,20,-1,20,68,64,-1,20,64,32,-1,32,64,63,-1,32,63,33,-1,33,63,56,-1,33,56,34,-1,34,56,55,-1,16,54,17,-1,17,54,53,-1,17,53,35,-1,35,53,52,-1,35,52,36,-1,36,52,67,-1,36,67,37,-1,37,67,66,-1,37,66,24,-1,24,66,65,-1,24,65,25,-1,25,65,73,-1,25,73,26,-1,26,73,72,-1,26,72,27,-1,27,72,71,-1,27,71,28,-1,28,71,62,-1,28,62,29,-1,29,62,61,-1,29,61,12,-1,12,61,60,-1,12,60,2,-1,2,60,7,-1,34,55,16,-1,16,55,54,-1,41,57,21,-1,21,57,15,-1,57,50,15,-1,15,50,8,-1,
        ]
    }
}