#VRML V2.0 utf8
# 3D model generated by easyeda2kicad.py (https://github.com/uPesy/easyeda2kicad.py)

Shape{
    appearance Appearance {
        material  Material 	{
            diffuseColor 0.19607843137254902 0.19607843137254902 0.19607843137254902
            specularColor 0.09803921568627451 0.09803921568627451 0.09803921568627451
            ambientIntensity 0.1961
            transparency 0.0
            shininess 0.5
        }
    }
    geometry IndexedFaceSet {
        ccw TRUE
        solid FALSE
        coord DEF co Coordinate {
            point [
                0.9843 0.8467 0.1918, 0.9843 0.9578 0.1918, 0.9843 1.1811 0.3386, 0.9843 1.1811 0.0079, 0.9843 0.9578 0.1398, 0.9843 0.7373 0.0079, 0.9843 0.8467 0.1398, 0.9843 0.5354 0.0079, 0.9843 -1.1811 0.3386, 0.9843 -0.8467 0.1918, 0.9843 -0.8467 0.1398, 0.9843 0.4928 0.0079, 0.9843 -1.1811 0.0079, 0.9843 -0.9578 0.1398, 0.9843 -0.9578 0.1918, -0.3696 0.4928 0.0079, -0.6782 0.4928 0.0079, -0.6782 0.5354 0.0079, -0.692 0.9656 0.0079, -0.6782 0.9864 0.0079, -0.6782 0.7373 0.0079, -0.6713 1.0157 0.0079, -0.6713 1.1811 0.0079, -0.3696 1.1811 0.0079, 0.7579 0.9449 0.0079, 0.785 0.9503 0.0079, 0.808 0.9656 0.0079, 0.8233 0.9886 0.0079, 0.8287 1.0157 0.0079, 0.8287 1.1811 0.0079, 0.1945 0.7373 0.0079, 0.715 0.9503 0.0079, 0.7421 0.9449 0.0079, 0.3287 1.0157 0.0079, 0.3287 1.1811 0.0079, 0.6713 1.1811 0.0079, 0.2421 0.9449 0.0079, 0.2579 0.9449 0.0079, 0.285 0.9503 0.0079, 0.308 0.9656 0.0079, 0.692 0.9656 0.0079, 0.3233 0.9886 0.0079, 0.6767 0.9886 0.0079, 0.6713 1.0157 0.0079, 0.1767 0.9886 0.0079, 0.192 0.9656 0.0079, -0.0289 0.7373 0.0079, 0.1945 0.964 0.0079, 0.215 0.9503 0.0079, 0.1713 1.0157 0.0079, -0.0289 1.1811 0.0079, 0.1713 1.1811 0.0079, -0.2421 0.9449 0.0079, -0.215 0.9503 0.0079, -0.1778 0.7373 0.0079, -0.3287 1.0157 0.0079, -0.3233 0.9886 0.0079, -0.3696 0.7373 0.0079, -0.2579 0.9449 0.0079, -0.192 0.9656 0.0079, -0.1778 0.987 0.0079, -0.1767 0.9886 0.0079, -0.1713 1.0157 0.0079, -0.1713 1.1811 0.0079, -0.308 0.9656 0.0079, -0.285 0.9503 0.0079, -0.3287 1.1811 0.0079, -0.6767 0.9886 0.0079, -0.8233 0.9886 0.0079, -0.808 0.9656 0.0079, -0.9843 0.7373 0.0079, -0.785 0.9503 0.0079, -0.8287 1.0157 0.0079, -0.9843 1.1811 0.0079, -0.8287 1.1811 0.0079, -0.7579 0.9449 0.0079, -0.7421 0.9449 0.0079, -0.715 0.9503 0.0079, -0.6782 0.4528 0.0079, -0.7874 0.4528 0.0079, -0.7874 -0.4528 0.0079, -0.9843 -1.1811 0.0079, -0.9843 0.4928 0.0079, -0.6782 -0.4528 0.0079, -0.6782 -0.9864 0.0079, -0.692 -0.9656 0.0079, -0.785 -0.9503 0.0079, -0.808 -0.9656 0.0079, -0.8233 -0.9886 0.0079, -0.8287 -1.0157 0.0079, -0.8287 -1.1811 0.0079, -0.715 -0.9503 0.0079, -0.7421 -0.9449 0.0079, -0.7579 -0.9449 0.0079, -0.6767 -0.9886 0.0079, -0.3696 -0.4528 0.0079, -0.6713 -1.0157 0.0079, -0.3696 -1.1811 0.0079, -0.6713 -1.1811 0.0079, -0.285 -0.9503 0.0079, -0.308 -0.9656 0.0079, -0.1778 -0.4528 0.0079, -0.1778 -0.987 0.0079, -0.192 -0.9656 0.0079, -0.215 -0.9503 0.0079, -0.2421 -0.9449 0.0079, -0.2579 -0.9449 0.0079, -0.3287 -1.1811 0.0079, -0.3287 -1.0157 0.0079, -0.3233 -0.9886 0.0079, -0.1767 -0.9886 0.0079, -0.0289 -0.4528 0.0079, -0.1713 -1.0157 0.0079, -0.0289 -1.1811 0.0079, -0.1713 -1.1811 0.0079, 0.1945 -0.4528 0.0079, 0.1945 -0.964 0.0079, 0.192 -0.9656 0.0079, 0.1767 -0.9886 0.0079, 0.1713 -1.0157 0.0079, 0.1713 -1.1811 0.0079, 0.7874 0.4528 0.0079, 0.7874 -0.4528 0.0079, 0.8287 -1.1811 0.0079, 0.8287 -1.0157 0.0079, 0.8233 -0.9886 0.0079, 0.808 -0.9656 0.0079, 0.785 -0.9503 0.0079, 0.2579 -0.9449 0.0079, 0.2421 -0.9449 0.0079, 0.215 -0.9503 0.0079, 0.7579 -0.9449 0.0079, 0.7421 -0.9449 0.0079, 0.715 -0.9503 0.0079, 0.692 -0.9656 0.0079, 0.6713 -1.1811 0.0079, 0.3287 -1.1811 0.0079, 0.6713 -1.0157 0.0079, 0.3287 -1.0157 0.0079, 0.6767 -0.9886 0.0079, 0.3233 -0.9886 0.0079, 0.308 -0.9656 0.0079, 0.285 -0.9503 0.0079, -0.3696 0.4528 0.0079, -0.1778 0.4528 0.0079, 0.1945 0.4928 0.0079, 0.1945 0.4528 0.0079, -0.0289 0.4928 0.0079, -0.0289 0.4528 0.0079, -0.1778 0.4928 0.0079, 0.1831 0.6375 0.0079, 0.1705 0.6877 0.0079, 0.0859 0.7395 0.0079, 0.0929 0.7373 0.0079, 0.1368 0.7232 0.0079, 0.1945 0.5354 0.0079, 0.1771 0.6 0.0079, 0.1407 0.5513 0.0079, 0.1519 0.5606 0.0079, 0.1582 0.5673 0.0079, 0.0521 0.5354 0.0079, 0.0671 0.5332 0.0079, 0.077 0.5328 0.0079, 0.091 0.5354 0.0079, 0.1216 0.5408 0.0079, 0.0772 0.7398 0.0079, 0.0652 0.7373 0.0079, 0.0292 0.7297 0.0079, -0.0087 0.5741 0.0079, 0.0291 0.5431 0.0079, -0.0289 0.5354 0.0079, 0.0515 0.5355 0.0079, 0.009 0.7172 0.0079, -0.0025 0.7063 0.0079, -0.0087 0.6986 0.0079, 0.122 0.7088 0.0079, 0.1525 0.6813 0.0079, 0.0783 0.7196 0.0079, 0.1652 0.644 0.0079, 0.1655 0.6361 0.0079, 0.1553 0.5955 0.0079, 0.1281 0.5671 0.0079, 0.0895 0.5537 0.0079, -0.1778 0.5354 0.0079, -0.3696 0.5354 0.0079, 0.2059 0.5379 0.0079, 0.2992 0.5379 0.0079, 0.2059 0.5581 0.0079, 0.2816 0.5581 0.0079, 0.2816 0.7347 0.0079, 0.2992 0.7347 0.0079, -0.1601 0.7145 0.0079, -0.1601 0.7347 0.0079, -0.049 0.7347 0.0079, -0.049 0.5379 0.0079, -0.1601 0.6338 0.0079, -0.0667 0.6338 0.0079, -0.0667 0.5581 0.0079, -0.1601 0.5581 0.0079, -0.1601 0.654 0.0079, -0.0667 0.654 0.0079, -0.0667 0.7145 0.0079, -0.1601 0.5379 0.0079, 0.0068 0.5858 0.0079, 0.0068 0.6868 0.0079, 0.0382 0.5614 0.0079, 0.0387 0.7115 0.0079, 0.0771 0.553 0.0079, 0.0573 0.7175 0.0079, 0.0702 0.7193 0.0079, -0.2976 0.7276 0.0079, -0.3331 0.7038 0.0079, -0.2667 0.7335 0.0079, -0.3532 0.6648 0.0079, -0.3569 0.6338 0.0079, -0.3458 0.5843 0.0079, -0.3173 0.5517 0.0079, -0.2352 0.7347 0.0079, -0.2777 0.539 0.0079, -0.2564 0.5379 0.0079, -0.1954 0.5379 0.0079, -0.1954 0.7347 0.0079, -0.5497 0.5379 0.0079, -0.5689 0.5379 0.0079, -0.4781 0.7347 0.0079, -0.5206 0.601 0.0079, -0.4314 0.601 0.0079, -0.4015 0.5379 0.0079, -0.3822 0.5379 0.0079, -0.4756 0.7347 0.0079, -0.9843 0.5354 0.0079, 0.8287 1.1811 0.0787, 0.6713 1.1811 0.0787, -0.9843 1.1811 0.3386, -0.1713 1.1811 0.0787, -0.3287 1.1811 0.0787, 0.3287 1.1811 0.0787, 0.1713 1.1811 0.0787, -0.6713 1.1811 0.0787, -0.8287 1.1811 0.0787, -0.9843 0.9578 0.1918, -0.9843 0.9578 0.1398, -0.9843 0.8467 0.1398, -0.9843 0.8467 0.1918, -0.9843 -0.8467 0.1398, -0.9843 -0.8467 0.1918, -0.9843 -1.1811 0.3386, -0.9843 -0.9578 0.1918, -0.9843 -0.9578 0.1398, -0.3287 -1.1811 0.0787, -0.8287 -1.1811 0.0787, -0.6713 -1.1811 0.0787, -0.1713 -1.1811 0.0787, 0.1713 -1.1811 0.0787, 0.3287 -1.1811 0.0787, 0.8287 -1.1811 0.0787, 0.6713 -1.1811 0.0787, -0.6513 -0.9763 0.3386, -0.6805 -1.0055 0.3386, -0.7203 -1.0162 0.3386, -0.7602 -1.0055 0.3386, -0.7894 -0.8966 0.3386, -0.8001 -0.9364 0.3386, -0.7894 -0.9763 0.3386, -0.7602 -0.8674 0.3386, -0.7203 -0.8567 0.3386, -0.6805 -0.8674 0.3386, -0.6513 -0.8966 0.3386, -0.6406 -0.9364 0.3386
            ]
        }
        coordIndex [
            0,1,2,-1,2,1,3,-1,3,1,4,-1,3,4,5,-1,5,4,6,-1,5,6,7,-1,2,8,0,-1,0,8,9,-1,0,9,6,-1,6,9,10,-1,7,6,11,-1,11,6,10,-1,11,10,12,-1,12,10,13,-1,12,13,8,-1,8,13,14,-1,8,14,9,-1,15,16,17,-1,18,19,20,-1,21,22,23,-1,24,25,5,-1,25,26,5,-1,5,26,27,-1,5,27,3,-1,3,27,28,-1,3,28,29,-1,30,31,5,-1,5,31,32,-1,5,32,24,-1,33,34,35,-1,36,37,30,-1,30,37,38,-1,30,38,31,-1,31,38,39,-1,31,39,40,-1,40,39,41,-1,40,41,42,-1,42,41,33,-1,42,33,43,-1,43,33,35,-1,44,45,46,-1,45,47,30,-1,30,47,48,-1,30,48,36,-1,44,46,49,-1,49,46,50,-1,49,50,51,-1,52,53,54,-1,55,56,57,-1,52,54,58,-1,53,59,54,-1,54,59,60,-1,54,60,46,-1,46,60,61,-1,46,61,50,-1,50,61,62,-1,50,62,63,-1,56,64,57,-1,57,64,65,-1,57,65,58,-1,23,66,55,-1,55,57,23,-1,23,57,67,-1,23,67,21,-1,68,69,70,-1,70,69,71,-1,68,70,72,-1,72,70,73,-1,72,73,74,-1,71,75,20,-1,75,76,20,-1,20,76,77,-1,20,77,18,-1,16,78,79,-1,80,81,82,-1,83,84,85,-1,86,87,80,-1,80,87,88,-1,80,88,81,-1,81,88,89,-1,81,89,90,-1,85,91,83,-1,83,91,92,-1,83,92,80,-1,80,92,93,-1,80,93,86,-1,84,83,94,-1,94,83,95,-1,94,95,96,-1,96,95,97,-1,96,97,98,-1,95,99,100,-1,101,102,103,-1,103,104,101,-1,101,104,105,-1,101,105,95,-1,95,105,106,-1,95,106,99,-1,107,97,108,-1,108,97,95,-1,108,95,109,-1,109,95,100,-1,102,101,110,-1,110,101,111,-1,110,111,112,-1,112,111,113,-1,112,113,114,-1,111,115,116,-1,116,117,111,-1,111,117,118,-1,111,118,113,-1,113,118,119,-1,113,119,120,-1,121,11,122,-1,122,11,12,-1,123,124,12,-1,12,124,125,-1,12,125,122,-1,122,125,126,-1,122,126,127,-1,128,129,115,-1,115,129,130,-1,115,130,116,-1,127,131,122,-1,122,131,132,-1,122,132,115,-1,115,132,133,-1,115,133,134,-1,135,136,137,-1,137,136,138,-1,137,138,139,-1,139,138,140,-1,139,140,134,-1,134,140,141,-1,134,141,115,-1,115,141,142,-1,115,142,128,-1,78,16,143,-1,143,16,15,-1,143,15,144,-1,145,146,147,-1,147,146,148,-1,147,148,149,-1,150,151,30,-1,152,45,153,-1,153,45,30,-1,153,30,154,-1,154,30,151,-1,155,156,150,-1,157,158,155,-1,155,158,159,-1,155,159,156,-1,160,161,147,-1,147,161,162,-1,147,162,145,-1,145,162,163,-1,145,163,155,-1,155,163,164,-1,155,164,157,-1,152,165,45,-1,45,165,166,-1,45,166,46,-1,46,166,167,-1,168,169,170,-1,170,169,171,-1,167,172,46,-1,46,172,173,-1,46,173,174,-1,175,176,177,-1,177,176,178,-1,177,178,179,-1,179,180,177,-1,177,180,181,-1,177,181,182,-1,171,160,170,-1,170,160,147,-1,170,147,183,-1,183,147,149,-1,183,149,184,-1,185,186,155,-1,150,30,155,-1,155,30,187,-1,155,187,185,-1,188,187,189,-1,189,187,30,-1,189,30,190,-1,190,30,5,-1,190,5,186,-1,186,5,7,-1,186,7,155,-1,155,7,11,-1,155,11,145,-1,145,11,121,-1,145,121,146,-1,183,54,191,-1,191,54,192,-1,192,54,193,-1,193,54,46,-1,193,46,194,-1,195,196,197,-1,197,198,195,-1,195,198,183,-1,195,183,199,-1,199,183,191,-1,199,191,200,-1,200,191,201,-1,198,202,183,-1,183,202,194,-1,183,194,170,-1,170,194,46,-1,170,46,168,-1,168,46,174,-1,168,174,203,-1,203,174,204,-1,203,204,205,-1,205,204,206,-1,205,206,207,-1,207,206,208,-1,207,208,182,-1,182,208,209,-1,182,209,177,-1,210,211,57,-1,210,57,212,-1,211,213,57,-1,57,213,214,-1,57,214,184,-1,184,214,215,-1,184,215,216,-1,58,54,57,-1,57,54,217,-1,57,217,212,-1,216,218,184,-1,184,218,219,-1,184,219,183,-1,183,219,220,-1,183,220,54,-1,54,220,221,-1,54,221,217,-1,148,144,149,-1,149,144,15,-1,149,15,184,-1,184,15,17,-1,184,17,222,-1,222,17,223,-1,223,17,224,-1,224,17,20,-1,224,20,57,-1,57,20,19,-1,57,19,67,-1,225,226,222,-1,222,226,227,-1,222,227,184,-1,184,227,228,-1,184,228,57,-1,57,228,229,-1,57,229,224,-1,71,20,70,-1,70,20,17,-1,70,17,230,-1,230,17,16,-1,230,16,82,-1,82,16,79,-1,82,79,80,-1,2,3,29,-1,29,231,2,-1,2,231,232,-1,2,232,233,-1,50,63,234,-1,234,235,233,-1,35,34,232,-1,232,34,236,-1,232,236,233,-1,233,236,237,-1,233,237,234,-1,234,237,51,-1,234,51,50,-1,23,22,238,-1,74,73,239,-1,239,73,233,-1,239,233,238,-1,238,233,235,-1,238,235,23,-1,23,235,66,-1,240,233,241,-1,241,233,73,-1,241,73,242,-1,242,73,70,-1,242,70,243,-1,243,244,245,-1,81,244,82,-1,82,244,243,-1,82,243,230,-1,230,243,70,-1,240,243,233,-1,233,243,245,-1,233,245,246,-1,246,245,247,-1,246,247,81,-1,81,247,248,-1,81,248,244,-1,246,81,90,-1,97,107,249,-1,90,250,246,-1,246,250,251,-1,246,251,8,-1,252,114,113,-1,253,254,8,-1,98,97,251,-1,251,97,249,-1,251,249,8,-1,8,249,252,-1,8,252,253,-1,253,252,113,-1,253,113,120,-1,123,12,255,-1,255,12,8,-1,255,8,256,-1,256,8,254,-1,256,254,135,-1,135,254,136,-1,257,258,8,-1,8,258,259,-1,8,259,246,-1,246,259,260,-1,261,233,262,-1,262,233,246,-1,262,246,263,-1,263,246,260,-1,261,264,233,-1,233,264,265,-1,233,265,2,-1,265,266,2,-1,2,266,267,-1,2,267,8,-1,8,267,268,-1,8,268,257,-1,
        ]
    }
}
Shape{
    appearance Appearance {
        material  Material 	{
            diffuseColor 0.7529411764705882 0.7529411764705882 0.7529411764705882
            specularColor 0.3764705882352941 0.3764705882352941 0.3764705882352941
            ambientIntensity 0.7529
            transparency 0.0
            shininess 0.5
        }
    }
    geometry IndexedFaceSet {
        ccw TRUE
        solid FALSE
        coord DEF co Coordinate {
            point [
                -0.6406 -0.9364 0.3307, -0.6406 -0.9364 0.3386, -0.6513 -0.8966 0.3307, -0.6513 -0.8966 0.3386, -0.6805 -0.8674 0.3307, -0.6805 -0.8674 0.3386, -0.7203 -0.8567 0.3307, -0.7203 -0.8567 0.3386, -0.7602 -0.8674 0.3307, -0.7602 -0.8674 0.3386, -0.7894 -0.8966 0.3307, -0.7894 -0.8966 0.3386, -0.8001 -0.9364 0.3307, -0.8001 -0.9364 0.3386, -0.7894 -0.9763 0.3307, -0.7894 -0.9763 0.3386, -0.7602 -1.0055 0.3307, -0.7602 -1.0055 0.3386, -0.7203 -1.0162 0.3307, -0.7203 -1.0162 0.3386, -0.6805 -1.0055 0.3307, -0.6805 -1.0055 0.3386, -0.6513 -0.9763 0.3307, -0.6513 -0.9763 0.3386, -0.7203 -0.9364 0.3307
            ]
        }
        coordIndex [
            0,1,2,-1,2,1,3,-1,2,3,4,-1,4,3,5,-1,4,5,6,-1,6,5,7,-1,6,7,8,-1,8,7,9,-1,8,9,10,-1,10,9,11,-1,10,11,12,-1,12,11,13,-1,12,13,14,-1,14,13,15,-1,14,15,16,-1,16,15,17,-1,16,17,18,-1,18,17,19,-1,18,19,20,-1,20,19,21,-1,20,21,22,-1,22,21,23,-1,22,23,0,-1,0,23,1,-1,20,22,24,-1,24,22,0,-1,24,0,2,-1,14,16,24,-1,24,16,18,-1,24,18,20,-1,8,10,24,-1,24,10,12,-1,24,12,14,-1,2,4,24,-1,24,4,6,-1,24,6,8,-1,
        ]
    }
}
Shape{
    appearance Appearance {
        material  Material 	{
            diffuseColor 0.6470588235294118 0.5176470588235295 0.0
            specularColor 0.45098039215686275 0.3607843137254902 0.0
            ambientIntensity 0.4973
            transparency 0.0
            shininess 0.5
        }
    }
    geometry IndexedFaceSet {
        ccw TRUE
        solid FALSE
        coord DEF co Coordinate {
            point [
                0.6713 -1.1811 0.0787, 0.6713 -1.185 0.0787, 0.8287 -1.1811 0.0787, 0.8287 -1.185 0.0787, 0.6713 -1.0157 0.0079, 0.6713 -1.0157 0.0, 0.6713 -1.1811 0.0079, 0.6713 -1.185 0.0, 0.8287 -1.1811 0.0079, 0.8287 -1.185 0.0, 0.8287 -1.0157 0.0079, 0.8287 -1.0157 0.0, 0.8233 -0.9886 0.0, 0.8233 -0.9886 0.0079, 0.808 -0.9656 0.0, 0.808 -0.9656 0.0079, 0.785 -0.9503 0.0, 0.785 -0.9503 0.0079, 0.7579 -0.9449 0.0, 0.7579 -0.9449 0.0079, 0.7421 -0.9449 0.0, 0.7421 -0.9449 0.0079, 0.715 -0.9503 0.0, 0.715 -0.9503 0.0079, 0.692 -0.9656 0.0, 0.692 -0.9656 0.0079, 0.6767 -0.9886 0.0, 0.6767 -0.9886 0.0079, -0.6713 1.1811 0.0787, -0.6713 1.185 0.0787, -0.8287 1.1811 0.0787, -0.8287 1.185 0.0787, -0.8287 1.0157 0.0079, -0.8287 1.0157 0.0, -0.8233 0.9886 0.0, -0.8233 0.9886 0.0079, -0.808 0.9656 0.0, -0.808 0.9656 0.0079, -0.785 0.9503 0.0, -0.785 0.9503 0.0079, -0.7579 0.9449 0.0, -0.7579 0.9449 0.0079, -0.7421 0.9449 0.0, -0.7421 0.9449 0.0079, -0.715 0.9503 0.0, -0.715 0.9503 0.0079, -0.692 0.9656 0.0, -0.692 0.9656 0.0079, -0.6782 0.9864 0.0079, -0.6767 0.9886 0.0, -0.6767 0.9886 0.0079, -0.6713 1.0157 0.0, -0.6713 1.0157 0.0079, -0.6713 1.1811 0.0079, -0.6713 1.185 0.0, -0.8287 1.1811 0.0079, -0.8287 1.185 0.0, 0.1713 -1.185 0.0787, 0.3287 -1.185 0.0787, 0.1713 -1.1811 0.0787, 0.3287 -1.1811 0.0787, 0.3287 -1.1811 0.0079, 0.3287 -1.185 0.0, 0.3287 -1.0157 0.0079, 0.3287 -1.0157 0.0, 0.3233 -0.9886 0.0, 0.3233 -0.9886 0.0079, 0.308 -0.9656 0.0, 0.308 -0.9656 0.0079, 0.285 -0.9503 0.0, 0.285 -0.9503 0.0079, 0.2579 -0.9449 0.0, 0.2579 -0.9449 0.0079, 0.2421 -0.9449 0.0, 0.2421 -0.9449 0.0079, 0.215 -0.9503 0.0, 0.215 -0.9503 0.0079, 0.1945 -0.964 0.0079, 0.192 -0.9656 0.0, 0.192 -0.9656 0.0079, 0.1767 -0.9886 0.0, 0.1767 -0.9886 0.0079, 0.1713 -1.0157 0.0, 0.1713 -1.0157 0.0079, 0.1713 -1.1811 0.0079, 0.1713 -1.185 0.0, -0.3287 -1.185 0.0787, -0.1713 -1.185 0.0787, -0.3287 -1.1811 0.0787, -0.1713 -1.1811 0.0787, -0.1713 -1.1811 0.0079, -0.1713 -1.185 0.0, -0.1713 -1.0157 0.0079, -0.1713 -1.0157 0.0, -0.1767 -0.9886 0.0, -0.1767 -0.9886 0.0079, -0.1778 -0.987 0.0079, -0.192 -0.9656 0.0, -0.192 -0.9656 0.0079, -0.215 -0.9503 0.0, -0.215 -0.9503 0.0079, -0.2421 -0.9449 0.0, -0.2421 -0.9449 0.0079, -0.2579 -0.9449 0.0, -0.2579 -0.9449 0.0079, -0.285 -0.9503 0.0, -0.285 -0.9503 0.0079, -0.308 -0.9656 0.0, -0.308 -0.9656 0.0079, -0.3233 -0.9886 0.0, -0.3233 -0.9886 0.0079, -0.3287 -1.0157 0.0, -0.3287 -1.0157 0.0079, -0.3287 -1.1811 0.0079, -0.3287 -1.185 0.0, -0.8287 -1.185 0.0787, -0.6713 -1.185 0.0787, -0.8287 -1.1811 0.0787, -0.6713 -1.1811 0.0787, -0.6713 -1.1811 0.0079, -0.6713 -1.185 0.0, -0.6713 -1.0157 0.0079, -0.6713 -1.0157 0.0, -0.6767 -0.9886 0.0, -0.6767 -0.9886 0.0079, -0.6782 -0.9864 0.0079, -0.692 -0.9656 0.0, -0.692 -0.9656 0.0079, -0.715 -0.9503 0.0, -0.715 -0.9503 0.0079, -0.7421 -0.9449 0.0, -0.7421 -0.9449 0.0079, -0.7579 -0.9449 0.0, -0.7579 -0.9449 0.0079, -0.785 -0.9503 0.0, -0.785 -0.9503 0.0079, -0.808 -0.9656 0.0, -0.808 -0.9656 0.0079, -0.8233 -0.9886 0.0, -0.8233 -0.9886 0.0079, -0.8287 -1.0157 0.0, -0.8287 -1.0157 0.0079, -0.8287 -1.1811 0.0079, -0.8287 -1.185 0.0, -0.1713 1.1811 0.0787, -0.1713 1.185 0.0787, -0.3287 1.1811 0.0787, -0.3287 1.185 0.0787, -0.3287 1.0157 0.0079, -0.3287 1.0157 0.0, -0.3233 0.9886 0.0, -0.3233 0.9886 0.0079, -0.308 0.9656 0.0, -0.308 0.9656 0.0079, -0.285 0.9503 0.0, -0.285 0.9503 0.0079, -0.2579 0.9449 0.0, -0.2579 0.9449 0.0079, -0.2421 0.9449 0.0, -0.2421 0.9449 0.0079, -0.215 0.9503 0.0, -0.215 0.9503 0.0079, -0.192 0.9656 0.0, -0.192 0.9656 0.0079, -0.1778 0.987 0.0079, -0.1767 0.9886 0.0, -0.1767 0.9886 0.0079, -0.1713 1.0157 0.0, -0.1713 1.0157 0.0079, -0.1713 1.1811 0.0079, -0.1713 1.185 0.0, -0.3287 1.1811 0.0079, -0.3287 1.185 0.0, 0.3287 1.1811 0.0787, 0.3287 1.185 0.0787, 0.1713 1.1811 0.0787, 0.1713 1.185 0.0787, 0.1713 1.0157 0.0079, 0.1713 1.0157 0.0, 0.1767 0.9886 0.0, 0.1767 0.9886 0.0079, 0.192 0.9656 0.0, 0.192 0.9656 0.0079, 0.1945 0.964 0.0079, 0.215 0.9503 0.0, 0.215 0.9503 0.0079, 0.2421 0.9449 0.0, 0.2421 0.9449 0.0079, 0.2579 0.9449 0.0, 0.2579 0.9449 0.0079, 0.285 0.9503 0.0, 0.285 0.9503 0.0079, 0.308 0.9656 0.0, 0.308 0.9656 0.0079, 0.3233 0.9886 0.0, 0.3233 0.9886 0.0079, 0.3287 1.0157 0.0, 0.3287 1.0157 0.0079, 0.3287 1.1811 0.0079, 0.3287 1.185 0.0, 0.1713 1.1811 0.0079, 0.1713 1.185 0.0, 0.8287 1.185 0.0787, 0.6713 1.185 0.0787, 0.8287 1.1811 0.0787, 0.6713 1.1811 0.0787, 0.7579 0.9449 0.0079, 0.7579 0.9449 0.0, 0.785 0.9503 0.0, 0.785 0.9503 0.0079, 0.808 0.9656 0.0, 0.808 0.9656 0.0079, 0.8233 0.9886 0.0, 0.8233 0.9886 0.0079, 0.8287 1.0157 0.0, 0.8287 1.0157 0.0079, 0.8287 1.1811 0.0079, 0.8287 1.185 0.0, 0.6713 1.1811 0.0079, 0.6713 1.185 0.0, 0.6713 1.0157 0.0079, 0.6713 1.0157 0.0, 0.6767 0.9886 0.0, 0.6767 0.9886 0.0079, 0.692 0.9656 0.0, 0.692 0.9656 0.0079, 0.715 0.9503 0.0, 0.715 0.9503 0.0079, 0.7421 0.9449 0.0, 0.7421 0.9449 0.0079, -0.7874 0.4528 0.0, -0.7874 -0.4528 0.0, -0.7874 0.4528 0.0079, -0.7874 -0.4528 0.0079, -0.6782 0.4528 0.0079, -0.3696 0.4528 0.0079, -0.1778 0.4528 0.0079, -0.0289 0.4528 0.0079, 0.7874 0.4528 0.0, 0.1945 0.4528 0.0079, 0.7874 0.4528 0.0079, 0.7874 -0.4528 0.0, 0.7874 -0.4528 0.0079, 0.1945 -0.4528 0.0079, -0.0289 -0.4528 0.0079, -0.1778 -0.4528 0.0079, -0.3696 -0.4528 0.0079, -0.6782 -0.4528 0.0079
            ]
        }
        coordIndex [
            0,1,2,-1,2,1,3,-1,4,5,6,-1,6,5,7,-1,6,7,0,-1,0,7,1,-1,2,3,8,-1,8,3,9,-1,8,9,10,-1,10,9,11,-1,10,11,12,-1,10,12,13,-1,13,12,14,-1,13,14,15,-1,15,14,16,-1,15,16,17,-1,17,16,18,-1,17,18,19,-1,18,20,19,-1,19,20,21,-1,21,20,22,-1,21,22,23,-1,23,22,24,-1,23,24,25,-1,25,24,26,-1,25,26,27,-1,27,26,5,-1,27,5,4,-1,9,3,7,-1,7,3,1,-1,9,7,11,-1,11,7,5,-1,11,5,26,-1,26,24,11,-1,11,24,22,-1,11,22,20,-1,14,12,16,-1,16,12,11,-1,16,11,18,-1,18,11,20,-1,28,29,30,-1,30,29,31,-1,32,33,34,-1,32,34,35,-1,35,34,36,-1,35,36,37,-1,37,36,38,-1,37,38,39,-1,39,38,40,-1,39,40,41,-1,40,42,41,-1,41,42,43,-1,43,42,44,-1,43,44,45,-1,45,44,46,-1,45,46,47,-1,47,46,48,-1,48,46,49,-1,48,49,50,-1,50,49,51,-1,50,51,52,-1,52,51,53,-1,53,51,54,-1,53,54,28,-1,28,54,29,-1,30,31,55,-1,55,31,56,-1,55,56,32,-1,32,56,33,-1,56,31,54,-1,54,31,29,-1,56,54,51,-1,33,56,40,-1,40,56,42,-1,44,42,46,-1,46,42,56,-1,46,56,49,-1,49,56,51,-1,38,36,40,-1,40,36,34,-1,40,34,33,-1,57,58,59,-1,59,58,60,-1,60,58,61,-1,61,58,62,-1,61,62,63,-1,63,62,64,-1,63,64,65,-1,63,65,66,-1,66,65,67,-1,66,67,68,-1,68,67,69,-1,68,69,70,-1,70,69,71,-1,70,71,72,-1,71,73,72,-1,72,73,74,-1,73,75,74,-1,74,75,76,-1,76,75,77,-1,77,75,78,-1,77,78,79,-1,79,78,80,-1,79,80,81,-1,81,80,82,-1,81,82,83,-1,83,82,84,-1,84,82,85,-1,84,85,59,-1,59,85,57,-1,62,58,85,-1,85,58,57,-1,78,75,73,-1,85,82,62,-1,62,82,80,-1,62,80,78,-1,71,69,67,-1,78,73,62,-1,62,73,71,-1,62,71,64,-1,64,71,67,-1,64,67,65,-1,86,87,88,-1,88,87,89,-1,89,87,90,-1,90,87,91,-1,90,91,92,-1,92,91,93,-1,93,94,92,-1,92,94,95,-1,95,94,96,-1,96,94,97,-1,96,97,98,-1,98,97,99,-1,98,99,100,-1,100,99,101,-1,100,101,102,-1,101,103,102,-1,102,103,104,-1,104,103,105,-1,104,105,106,-1,106,105,107,-1,106,107,108,-1,108,107,109,-1,108,109,110,-1,110,109,111,-1,110,111,112,-1,112,111,113,-1,113,111,114,-1,113,114,88,-1,88,114,86,-1,91,87,114,-1,114,87,86,-1,107,105,103,-1,114,111,91,-1,91,111,109,-1,91,109,107,-1,101,99,97,-1,107,103,91,-1,91,103,101,-1,91,101,93,-1,93,101,97,-1,93,97,94,-1,115,116,117,-1,117,116,118,-1,118,116,119,-1,119,116,120,-1,119,120,121,-1,121,120,122,-1,122,123,121,-1,121,123,124,-1,124,123,125,-1,125,123,126,-1,125,126,127,-1,127,126,128,-1,127,128,129,-1,129,128,130,-1,129,130,131,-1,130,132,131,-1,131,132,133,-1,133,132,134,-1,133,134,135,-1,135,134,136,-1,135,136,137,-1,137,136,138,-1,137,138,139,-1,139,138,140,-1,139,140,141,-1,141,140,142,-1,142,140,143,-1,142,143,117,-1,117,143,115,-1,120,116,143,-1,143,116,115,-1,122,120,143,-1,132,130,140,-1,140,130,143,-1,123,122,126,-1,126,122,143,-1,126,143,128,-1,128,143,130,-1,138,136,140,-1,140,136,134,-1,140,134,132,-1,144,145,146,-1,146,145,147,-1,148,149,150,-1,148,150,151,-1,151,150,152,-1,151,152,153,-1,153,152,154,-1,153,154,155,-1,155,154,156,-1,155,156,157,-1,156,158,157,-1,157,158,159,-1,159,158,160,-1,159,160,161,-1,161,160,162,-1,161,162,163,-1,163,162,164,-1,164,162,165,-1,164,165,166,-1,166,165,167,-1,166,167,168,-1,168,167,169,-1,169,167,170,-1,169,170,144,-1,144,170,145,-1,146,147,171,-1,171,147,172,-1,171,172,148,-1,148,172,149,-1,172,147,170,-1,170,147,145,-1,149,172,170,-1,158,156,170,-1,149,170,150,-1,162,160,165,-1,165,160,158,-1,165,158,167,-1,167,158,170,-1,156,154,170,-1,170,154,152,-1,170,152,150,-1,173,174,175,-1,175,174,176,-1,177,178,179,-1,177,179,180,-1,180,179,181,-1,180,181,182,-1,182,181,183,-1,183,181,184,-1,183,184,185,-1,185,184,186,-1,185,186,187,-1,186,188,187,-1,187,188,189,-1,189,188,190,-1,189,190,191,-1,191,190,192,-1,191,192,193,-1,193,192,194,-1,193,194,195,-1,195,194,196,-1,195,196,197,-1,197,196,198,-1,198,196,199,-1,198,199,173,-1,173,199,174,-1,175,176,200,-1,200,176,201,-1,200,201,177,-1,177,201,178,-1,201,176,199,-1,199,176,174,-1,178,201,199,-1,188,186,199,-1,178,199,179,-1,192,190,194,-1,194,190,188,-1,194,188,196,-1,196,188,199,-1,186,184,199,-1,199,184,181,-1,199,181,179,-1,202,203,204,-1,204,203,205,-1,206,207,208,-1,206,208,209,-1,209,208,210,-1,209,210,211,-1,211,210,212,-1,211,212,213,-1,213,212,214,-1,213,214,215,-1,215,214,216,-1,216,214,217,-1,216,217,204,-1,204,217,202,-1,205,203,218,-1,218,203,219,-1,218,219,220,-1,220,219,221,-1,220,221,222,-1,220,222,223,-1,223,222,224,-1,223,224,225,-1,225,224,226,-1,225,226,227,-1,227,226,228,-1,227,228,229,-1,228,207,229,-1,229,207,206,-1,219,203,217,-1,217,203,202,-1,224,222,217,-1,217,222,221,-1,217,221,219,-1,212,210,214,-1,214,210,208,-1,208,207,214,-1,214,207,228,-1,214,228,217,-1,217,228,226,-1,217,226,224,-1,230,231,232,-1,232,231,233,-1,232,234,230,-1,230,234,235,-1,235,236,230,-1,230,236,237,-1,230,237,238,-1,238,237,239,-1,238,239,240,-1,241,238,242,-1,242,238,240,-1,242,243,241,-1,241,243,244,-1,241,244,231,-1,231,244,245,-1,245,246,231,-1,231,246,247,-1,231,247,233,-1,238,241,230,-1,230,241,231,-1,
        ]
    }
}
Shape{
    appearance Appearance {
        material  Material 	{
            diffuseColor 0.7529411764705882 0.7529411764705882 0.7529411764705882
            specularColor 0.3764705882352941 0.3764705882352941 0.3764705882352941
            ambientIntensity 0.7529
            transparency 0.0
            shininess 0.5
        }
    }
    geometry IndexedFaceSet {
        ccw TRUE
        solid FALSE
        coord DEF co Coordinate {
            point [
                -0.4756 0.7347 0.0157, -0.4781 0.7347 0.0157, -0.4756 0.7347 0.0079, -0.4781 0.7347 0.0079, -0.5689 0.5379 0.0157, -0.5689 0.5379 0.0079, -0.5497 0.5379 0.0157, -0.5497 0.5379 0.0079, -0.5206 0.601 0.0157, -0.5206 0.601 0.0079, -0.4314 0.601 0.0157, -0.4314 0.601 0.0079, -0.4015 0.5379 0.0157, -0.4015 0.5379 0.0079, -0.3822 0.5379 0.0157, -0.3822 0.5379 0.0079, -0.5113 0.6212 0.0157, -0.441 0.6212 0.0157, -0.4766 0.6964 0.0157, -0.5113 0.6212 0.0079, -0.4766 0.6964 0.0079, -0.441 0.6212 0.0079, -0.2564 0.5379 0.0157, -0.1954 0.5379 0.0157, -0.2564 0.5379 0.0079, -0.1954 0.5379 0.0079, -0.1954 0.7347 0.0157, -0.1954 0.7347 0.0079, -0.2352 0.7347 0.0157, -0.2352 0.7347 0.0079, -0.2976 0.7276 0.0157, -0.2976 0.7276 0.0079, -0.2667 0.7335 0.0079, -0.2667 0.7335 0.0157, -0.3569 0.6338 0.0157, -0.3569 0.6338 0.0079, -0.3532 0.6648 0.0079, -0.3532 0.6648 0.0157, -0.3331 0.7038 0.0079, -0.3331 0.7038 0.0157, -0.2777 0.539 0.0079, -0.2777 0.539 0.0157, -0.3173 0.5517 0.0079, -0.3173 0.5517 0.0157, -0.3458 0.5843 0.0079, -0.3458 0.5843 0.0157, -0.3362 0.6094 0.0157, -0.3201 0.5805 0.0157, -0.292 0.5631 0.0157, -0.264 0.5589 0.0157, -0.2357 0.5581 0.0157, -0.2131 0.5581 0.0157, -0.2131 0.7145 0.0157, -0.2269 0.7145 0.0157, -0.2574 0.7136 0.0157, -0.2874 0.709 0.0157, -0.3092 0.6985 0.0157, -0.3307 0.6732 0.0157, -0.3393 0.6339 0.0157, -0.2131 0.7145 0.0079, -0.2131 0.5581 0.0079, -0.2269 0.7145 0.0079, -0.2574 0.7136 0.0079, -0.2874 0.709 0.0079, -0.3092 0.6985 0.0079, -0.3307 0.6732 0.0079, -0.3393 0.6339 0.0079, -0.3362 0.6094 0.0079, -0.3201 0.5805 0.0079, -0.292 0.5631 0.0079, -0.264 0.5589 0.0079, -0.2357 0.5581 0.0079, -0.049 0.5379 0.0157, -0.049 0.7347 0.0157, -0.049 0.5379 0.0079, -0.049 0.7347 0.0079, -0.1601 0.7347 0.0157, -0.1601 0.7347 0.0079, -0.1601 0.7145 0.0157, -0.1601 0.7145 0.0079, -0.0667 0.7145 0.0157, -0.0667 0.7145 0.0079, -0.0667 0.654 0.0157, -0.0667 0.654 0.0079, -0.1601 0.654 0.0157, -0.1601 0.654 0.0079, -0.1601 0.6338 0.0157, -0.1601 0.6338 0.0079, -0.0667 0.6338 0.0157, -0.0667 0.6338 0.0079, -0.0667 0.5581 0.0157, -0.0667 0.5581 0.0079, -0.1601 0.5581 0.0157, -0.1601 0.5581 0.0079, -0.1601 0.5379 0.0157, -0.1601 0.5379 0.0079, -0.0087 0.6986 0.0157, -0.0087 0.6986 0.0079, -0.0025 0.7063 0.0079, -0.0025 0.7063 0.0157, 0.009 0.7172 0.0079, 0.009 0.7172 0.0157, 0.0292 0.7297 0.0079, 0.0292 0.7297 0.0157, 0.0772 0.7398 0.0157, 0.0652 0.7373 0.0079, 0.0772 0.7398 0.0079, 0.0068 0.6868 0.0157, 0.0068 0.6868 0.0079, 0.0783 0.7196 0.0157, 0.0783 0.7196 0.0079, 0.0702 0.7193 0.0079, 0.0702 0.7193 0.0157, 0.0573 0.7175 0.0079, 0.0573 0.7175 0.0157, 0.0387 0.7115 0.0079, 0.0387 0.7115 0.0157, 0.1655 0.6361 0.0157, 0.1655 0.6361 0.0079, 0.1652 0.644 0.0079, 0.1652 0.644 0.0157, 0.1525 0.6813 0.0079, 0.1525 0.6813 0.0157, 0.122 0.7088 0.0079, 0.122 0.7088 0.0157, 0.0771 0.553 0.0157, 0.0771 0.553 0.0079, 0.0895 0.5537 0.0079, 0.0895 0.5537 0.0157, 0.1281 0.5671 0.0079, 0.1281 0.5671 0.0157, 0.1553 0.5955 0.0079, 0.1553 0.5955 0.0157, 0.0068 0.5858 0.0157, 0.0068 0.5858 0.0079, 0.0382 0.5614 0.0079, 0.0382 0.5614 0.0157, -0.0087 0.5741 0.0157, -0.0087 0.5741 0.0079, 0.077 0.5328 0.0157, 0.077 0.5328 0.0079, 0.0671 0.5332 0.0079, 0.0671 0.5332 0.0157, 0.0521 0.5354 0.0079, 0.0515 0.5355 0.0157, 0.0515 0.5355 0.0079, 0.0291 0.5431 0.0079, 0.0291 0.5431 0.0157, 0.1582 0.5673 0.0157, 0.1582 0.5673 0.0079, 0.1519 0.5606 0.0079, 0.1519 0.5606 0.0157, 0.1407 0.5513 0.0079, 0.1407 0.5513 0.0157, 0.1216 0.5408 0.0079, 0.1216 0.5408 0.0157, 0.091 0.5354 0.0079, 0.1831 0.6375 0.0157, 0.1831 0.6375 0.0079, 0.1771 0.6 0.0079, 0.1771 0.6 0.0157, 0.0859 0.7395 0.0079, 0.0859 0.7395 0.0157, 0.0929 0.7373 0.0079, 0.1368 0.7232 0.0157, 0.1368 0.7232 0.0079, 0.1705 0.6877 0.0079, 0.1705 0.6877 0.0157, 0.2992 0.5379 0.0157, 0.2992 0.7347 0.0157, 0.2992 0.5379 0.0079, 0.2992 0.7347 0.0079, 0.2816 0.7347 0.0157, 0.2816 0.7347 0.0079, 0.2816 0.5581 0.0157, 0.2816 0.5581 0.0079, 0.2059 0.5581 0.0157, 0.2059 0.5581 0.0079, 0.2059 0.5379 0.0157, 0.2059 0.5379 0.0079
            ]
        }
        coordIndex [
            0,1,2,-1,2,1,3,-1,1,4,3,-1,3,4,5,-1,4,6,5,-1,5,6,7,-1,6,8,7,-1,7,8,9,-1,8,10,9,-1,9,10,11,-1,10,12,11,-1,11,12,13,-1,12,14,13,-1,13,14,15,-1,14,0,15,-1,15,0,2,-1,16,4,1,-1,0,17,1,-1,1,17,18,-1,1,18,16,-1,14,12,10,-1,6,4,8,-1,8,4,16,-1,8,16,10,-1,10,16,17,-1,10,17,14,-1,14,17,0,-1,16,18,19,-1,19,18,20,-1,17,16,21,-1,21,16,19,-1,18,17,20,-1,20,17,21,-1,22,23,24,-1,24,23,25,-1,23,26,25,-1,25,26,27,-1,26,28,27,-1,27,28,29,-1,30,31,32,-1,30,32,33,-1,33,32,29,-1,33,29,28,-1,34,35,36,-1,34,36,37,-1,37,36,38,-1,37,38,39,-1,39,38,31,-1,39,31,30,-1,22,24,40,-1,22,40,41,-1,41,40,42,-1,41,42,43,-1,43,42,44,-1,43,44,45,-1,45,44,35,-1,45,35,34,-1,46,47,43,-1,43,47,48,-1,43,48,41,-1,41,48,49,-1,41,49,22,-1,22,49,50,-1,22,50,23,-1,23,50,51,-1,23,51,26,-1,26,51,52,-1,26,52,28,-1,28,52,53,-1,28,53,33,-1,33,53,54,-1,33,54,30,-1,30,54,55,-1,30,55,39,-1,39,55,56,-1,39,56,37,-1,37,56,57,-1,37,57,34,-1,34,57,58,-1,34,58,45,-1,45,58,46,-1,45,46,43,-1,52,51,59,-1,59,51,60,-1,53,52,61,-1,61,52,59,-1,53,61,62,-1,53,62,54,-1,54,62,63,-1,54,63,55,-1,55,63,64,-1,55,64,56,-1,56,64,65,-1,56,65,57,-1,57,65,66,-1,57,66,58,-1,58,66,67,-1,58,67,46,-1,46,67,68,-1,46,68,47,-1,47,68,69,-1,47,69,48,-1,48,69,70,-1,48,70,49,-1,49,70,71,-1,49,71,50,-1,51,50,60,-1,60,50,71,-1,72,73,74,-1,74,73,75,-1,73,76,75,-1,75,76,77,-1,76,78,77,-1,77,78,79,-1,78,80,79,-1,79,80,81,-1,80,82,81,-1,81,82,83,-1,82,84,83,-1,83,84,85,-1,84,86,85,-1,85,86,87,-1,86,88,87,-1,87,88,89,-1,88,90,89,-1,89,90,91,-1,90,92,91,-1,91,92,93,-1,92,94,93,-1,93,94,95,-1,94,72,95,-1,95,72,74,-1,72,94,92,-1,92,90,72,-1,72,90,88,-1,72,88,73,-1,78,76,80,-1,80,76,73,-1,80,73,82,-1,82,73,88,-1,82,88,84,-1,84,88,86,-1,96,97,98,-1,96,98,99,-1,99,98,100,-1,99,100,101,-1,101,100,102,-1,101,102,103,-1,103,102,104,-1,104,102,105,-1,104,105,106,-1,96,107,97,-1,97,107,108,-1,109,110,111,-1,109,111,112,-1,112,111,113,-1,112,113,114,-1,114,113,115,-1,114,115,116,-1,116,115,108,-1,116,108,107,-1,117,118,119,-1,117,119,120,-1,120,119,121,-1,120,121,122,-1,122,121,123,-1,122,123,124,-1,124,123,110,-1,124,110,109,-1,125,126,127,-1,125,127,128,-1,128,127,129,-1,128,129,130,-1,130,129,131,-1,130,131,132,-1,132,131,118,-1,132,118,117,-1,133,134,135,-1,133,135,136,-1,136,135,126,-1,136,126,125,-1,133,137,134,-1,134,137,138,-1,139,140,141,-1,139,141,142,-1,142,141,143,-1,142,143,144,-1,143,145,144,-1,144,145,146,-1,144,146,147,-1,147,146,138,-1,147,138,137,-1,148,149,150,-1,148,150,151,-1,151,150,152,-1,151,152,153,-1,153,152,154,-1,153,154,155,-1,155,154,139,-1,139,154,156,-1,139,156,140,-1,157,158,159,-1,157,159,160,-1,160,159,149,-1,160,149,148,-1,104,106,161,-1,104,161,162,-1,162,161,163,-1,162,163,164,-1,163,165,164,-1,164,165,166,-1,164,166,167,-1,167,166,158,-1,167,158,157,-1,137,133,147,-1,147,133,136,-1,157,160,132,-1,132,160,130,-1,130,160,148,-1,130,148,151,-1,107,96,99,-1,107,99,116,-1,116,99,101,-1,116,101,103,-1,151,153,130,-1,130,153,155,-1,130,155,128,-1,128,155,139,-1,128,139,125,-1,125,139,142,-1,125,142,136,-1,136,142,144,-1,136,144,147,-1,132,117,157,-1,157,117,120,-1,157,120,167,-1,167,120,122,-1,167,122,164,-1,164,122,124,-1,164,124,162,-1,162,124,109,-1,162,109,104,-1,104,109,112,-1,104,112,103,-1,103,112,114,-1,103,114,116,-1,168,169,170,-1,170,169,171,-1,169,172,171,-1,171,172,173,-1,172,174,173,-1,173,174,175,-1,174,176,175,-1,175,176,177,-1,176,178,177,-1,177,178,179,-1,178,168,179,-1,179,168,170,-1,172,169,174,-1,174,169,168,-1,174,168,176,-1,176,168,178,-1,
        ]
    }
}
Shape{
    appearance Appearance {
        material  Material 	{
            diffuseColor 0.19607843137254902 0.19607843137254902 0.19607843137254902
            specularColor 0.09803921568627451 0.09803921568627451 0.09803921568627451
            ambientIntensity 0.1961
            transparency 0.0
            shininess 0.5
        }
    }
    geometry IndexedFaceSet {
        ccw TRUE
        solid FALSE
        coord DEF co Coordinate {
            point [
                -0.4766 0.6964 0.0079, -0.441 0.6212 0.0079, -0.5113 0.6212 0.0079, -0.2131 0.7145 0.0079, -0.2131 0.5581 0.0079, -0.2269 0.7145 0.0079, -0.2357 0.5581 0.0079, -0.2574 0.7136 0.0079, -0.264 0.5589 0.0079, -0.2874 0.709 0.0079, -0.292 0.5631 0.0079, -0.3201 0.5805 0.0079, -0.3362 0.6094 0.0079, -0.3393 0.6339 0.0079, -0.3307 0.6732 0.0079, -0.3092 0.6985 0.0079
            ]
        }
        coordIndex [
            0,1,2,-1,3,4,5,-1,5,4,6,-1,5,6,7,-1,7,6,8,-1,7,8,9,-1,10,11,8,-1,8,11,12,-1,8,12,13,-1,13,14,8,-1,8,14,15,-1,8,15,9,-1,
        ]
    }
}
Shape{
    appearance Appearance {
        material  Material 	{
            diffuseColor 0.6470588235294118 0.5176470588235295 0.0
            specularColor 0.45098039215686275 0.3607843137254902 0.0
            ambientIntensity 0.4973
            transparency 0.0
            shininess 0.5
        }
    }
    geometry IndexedFaceSet {
        ccw TRUE
        solid FALSE
        coord DEF co Coordinate {
            point [
                0.9921 0.8467 0.1918, 0.9921 0.9578 0.1918, 0.9843 0.8467 0.1918, 0.9843 0.9578 0.1918, 0.9921 0.8467 0.1398, 0.9843 0.8467 0.1398, 0.9921 0.9578 0.1398, 0.9843 0.9578 0.1398, 0.9921 -0.9578 0.1398, 0.9921 -0.9578 0.1918, 0.9843 -0.9578 0.1398, 0.9843 -0.9578 0.1918, 0.9921 -0.8467 0.1398, 0.9843 -0.8467 0.1398, 0.9921 -0.8467 0.1918, 0.9843 -0.8467 0.1918, -0.9921 0.9578 0.1918, -0.9921 0.8467 0.1918, -0.9843 0.9578 0.1918, -0.9843 0.8467 0.1918, -0.9921 0.9578 0.1398, -0.9843 0.9578 0.1398, -0.9921 0.8467 0.1398, -0.9843 0.8467 0.1398, -0.9921 -0.9578 0.1918, -0.9921 -0.9578 0.1398, -0.9843 -0.9578 0.1918, -0.9843 -0.9578 0.1398, -0.9921 -0.8467 0.1918, -0.9843 -0.8467 0.1918, -0.9921 -0.8467 0.1398, -0.9843 -0.8467 0.1398
            ]
        }
        coordIndex [
            0,1,2,-1,2,1,3,-1,4,0,5,-1,5,0,2,-1,6,4,7,-1,7,4,5,-1,1,6,3,-1,3,6,7,-1,4,6,0,-1,0,6,1,-1,8,9,10,-1,10,9,11,-1,12,8,13,-1,13,8,10,-1,14,12,15,-1,15,12,13,-1,9,14,11,-1,11,14,15,-1,12,14,8,-1,8,14,9,-1,16,17,18,-1,18,17,19,-1,20,16,21,-1,21,16,18,-1,22,20,23,-1,23,20,21,-1,17,22,19,-1,19,22,23,-1,20,22,16,-1,16,22,17,-1,24,25,26,-1,26,25,27,-1,28,24,29,-1,29,24,26,-1,30,28,31,-1,31,28,29,-1,25,30,27,-1,27,30,31,-1,28,30,24,-1,24,30,25,-1,
        ]
    }
}