%TF.GenerationSoftware,KiCad,Pcbnew,10.0.1-1-gbb48a3fe96*%
%TF.CreationDate,2026-08-11T15:11:09+08:00*%
%TF.ProjectId,MarineBoard,4d617269-6e65-4426-9f61-72642e6b6963,rev?*%
%TF.SameCoordinates,Original*%
%TF.FileFunction,Soldermask,Bot*%
%TF.FilePolarity,Negative*%
%FSLAX46Y46*%
G04 Gerber Fmt 4.6, Leading zero omitted, Abs format (unit mm)*
G04 Created by KiCad (PCBNEW 10.0.1-1-gbb48a3fe96) date 2026-08-11 15:11:09*
%MOMM*%
%LPD*%
G01*
G04 APERTURE LIST*
G04 Aperture macros list*
%AMRoundRect*
0 Rectangle with rounded corners*
0 $1 Rounding radius*
0 $2 $3 $4 $5 $6 $7 $8 $9 X,Y pos of 4 corners*
0 Add a 4 corners polygon primitive as box body*
4,1,4,$2,$3,$4,$5,$6,$7,$8,$9,$2,$3,0*
0 Add four circle primitives for the rounded corners*
1,1,$1+$1,$2,$3*
1,1,$1+$1,$4,$5*
1,1,$1+$1,$6,$7*
1,1,$1+$1,$8,$9*
0 Add four rect primitives between the rounded corners*
20,1,$1+$1,$2,$3,$4,$5,0*
20,1,$1+$1,$4,$5,$6,$7,0*
20,1,$1+$1,$6,$7,$8,$9,0*
20,1,$1+$1,$8,$9,$2,$3,0*%
G04 Aperture macros list end*
%ADD10O,2.600000X1.200000*%
%ADD11R,2.200000X2.200000*%
%ADD12C,2.200000*%
%ADD13C,3.200000*%
%ADD14C,2.790000*%
%ADD15C,0.650000*%
%ADD16O,2.100000X1.000000*%
%ADD17O,1.600000X1.000000*%
%ADD18O,1.820000X1.460000*%
%ADD19R,1.000000X1.000000*%
%ADD20C,1.000000*%
%ADD21RoundRect,0.050800X-0.566270X-0.688505X0.566270X-0.688505X0.566270X0.688505X-0.566270X0.688505X0*%
%ADD22R,0.700000X1.100000*%
%ADD23RoundRect,0.140000X-0.140000X-0.170000X0.140000X-0.170000X0.140000X0.170000X-0.140000X0.170000X0*%
%ADD24RoundRect,0.250000X0.650000X-0.325000X0.650000X0.325000X-0.650000X0.325000X-0.650000X-0.325000X0*%
%ADD25RoundRect,0.250000X0.475000X-0.250000X0.475000X0.250000X-0.475000X0.250000X-0.475000X-0.250000X0*%
%ADD26RoundRect,0.050800X0.688505X-0.566270X0.688505X0.566270X-0.688505X0.566270X-0.688505X-0.566270X0*%
%ADD27RoundRect,0.140000X-0.170000X0.140000X-0.170000X-0.140000X0.170000X-0.140000X0.170000X0.140000X0*%
%ADD28RoundRect,0.075000X-0.125000X-0.075000X0.125000X-0.075000X0.125000X0.075000X-0.125000X0.075000X0*%
%ADD29R,1.635000X2.160000*%
%ADD30RoundRect,0.140000X0.170000X-0.140000X0.170000X0.140000X-0.170000X0.140000X-0.170000X-0.140000X0*%
%ADD31R,0.600000X1.550000*%
%ADD32R,3.100000X2.600000*%
%ADD33R,0.320000X0.300000*%
%ADD34RoundRect,0.140000X0.140000X0.170000X-0.140000X0.170000X-0.140000X-0.170000X0.140000X-0.170000X0*%
%ADD35R,0.860000X0.810000*%
%ADD36RoundRect,0.075000X-0.075000X0.125000X-0.075000X-0.125000X0.075000X-0.125000X0.075000X0.125000X0*%
%ADD37RoundRect,0.250000X-0.650000X1.000000X-0.650000X-1.000000X0.650000X-1.000000X0.650000X1.000000X0*%
%ADD38R,0.600000X0.500000*%
%ADD39R,1.377000X1.133000*%
%ADD40RoundRect,0.135000X0.185000X-0.135000X0.185000X0.135000X-0.185000X0.135000X-0.185000X-0.135000X0*%
%ADD41R,3.500000X1.200000*%
%ADD42RoundRect,0.250000X1.000000X0.650000X-1.000000X0.650000X-1.000000X-0.650000X1.000000X-0.650000X0*%
%ADD43R,0.570000X0.540000*%
%ADD44RoundRect,0.050800X0.566270X0.688505X-0.566270X0.688505X-0.566270X-0.688505X0.566270X-0.688505X0*%
%ADD45R,2.190000X2.050000*%
%ADD46RoundRect,0.135000X-0.135000X-0.185000X0.135000X-0.185000X0.135000X0.185000X-0.135000X0.185000X0*%
%ADD47R,1.200000X1.200000*%
G04 APERTURE END LIST*
D10*
%TO.C,F2*%
X103660000Y-82190000D03*
X103660000Y-78490000D03*
X103660000Y-74190000D03*
X103660000Y-70490000D03*
%TD*%
D11*
%TO.C,CN1*%
X110460000Y-105470000D03*
D12*
X115540000Y-105470000D03*
%TD*%
D13*
%TO.C,H2*%
X104000000Y-105000000D03*
%TD*%
D14*
%TO.C,Relay1*%
X137287500Y-85640000D03*
X137287500Y-97840000D03*
X149287500Y-97840000D03*
X149287500Y-85640000D03*
X143287500Y-83640000D03*
%TD*%
D11*
%TO.C,U7*%
X164500000Y-47500000D03*
D12*
X164500000Y-51000000D03*
X164500000Y-54500000D03*
%TD*%
D11*
%TO.C,U6*%
X164468323Y-83457922D03*
D12*
X164468323Y-79957922D03*
%TD*%
D15*
%TO.C,J1*%
X105472495Y-56675010D03*
X105472495Y-62675010D03*
D16*
X106577495Y-55355010D03*
D17*
X102397495Y-55355010D03*
D16*
X106577495Y-63995010D03*
D17*
X102397495Y-63995010D03*
%TD*%
D11*
%TO.C,CN2*%
X123460000Y-105470000D03*
D12*
X128540000Y-105470000D03*
%TD*%
D13*
%TO.C,H3*%
X163500000Y-42000000D03*
%TD*%
D11*
%TO.C,U9*%
X152500000Y-106000000D03*
D12*
X149000000Y-106000000D03*
X145500000Y-106000000D03*
%TD*%
D13*
%TO.C,H1*%
X163500000Y-105000000D03*
%TD*%
D11*
%TO.C,U5*%
X164468323Y-75957922D03*
D12*
X164468323Y-72457922D03*
%TD*%
D11*
%TO.C,U4*%
X164500000Y-91250000D03*
D12*
X164500000Y-87750000D03*
%TD*%
D11*
%TO.C,U12*%
X141000000Y-106000000D03*
D12*
X137500000Y-106000000D03*
X134000000Y-106000000D03*
%TD*%
D18*
%TO.C,U15*%
X125550000Y-66960000D03*
X125550000Y-69500000D03*
X125550000Y-72040000D03*
X125550000Y-74580000D03*
X133170000Y-74580000D03*
X133170000Y-72040000D03*
X133170000Y-69500000D03*
X133170000Y-66960000D03*
%TD*%
D13*
%TO.C,H4*%
X104000000Y-42000000D03*
%TD*%
D11*
%TO.C,U13*%
X164500000Y-59000000D03*
D12*
X164500000Y-62500000D03*
X164500000Y-66000000D03*
%TD*%
D10*
%TO.C,F3*%
X131150000Y-99590000D03*
X131150000Y-95890000D03*
X131150000Y-91590000D03*
X131150000Y-87890000D03*
%TD*%
D19*
%TO.C,JP1*%
X156020000Y-40720000D03*
D20*
X157280000Y-40720000D03*
%TD*%
D10*
%TO.C,F1*%
X103720000Y-97640000D03*
X103720000Y-93940000D03*
X103720000Y-89640000D03*
X103720000Y-85940000D03*
%TD*%
D21*
%TO.C,L4*%
X119164050Y-76960050D03*
X121096480Y-76960050D03*
%TD*%
D22*
%TO.C,U1*%
X111295500Y-49436446D03*
X112245500Y-49436446D03*
X113195500Y-49436446D03*
X113195500Y-52016446D03*
X111295500Y-52016446D03*
%TD*%
D23*
%TO.C,C4*%
X107495500Y-45876446D03*
X108455500Y-45876446D03*
%TD*%
D24*
%TO.C,C15*%
X121170000Y-81845000D03*
X121170000Y-78895000D03*
%TD*%
D25*
%TO.C,C13*%
X121570000Y-74980000D03*
X121570000Y-73080000D03*
%TD*%
D26*
%TO.C,L3*%
X118620050Y-81155950D03*
X118620050Y-79223520D03*
%TD*%
D27*
%TO.C,C19*%
X106550000Y-90780000D03*
X106550000Y-91740000D03*
%TD*%
D28*
%TO.C,C21*%
X115420000Y-71910000D03*
X115920000Y-71910000D03*
%TD*%
D27*
%TO.C,C8*%
X115440000Y-50710000D03*
X115440000Y-51670000D03*
%TD*%
D29*
%TO.C,L1*%
X112395500Y-46526446D03*
X110055500Y-46526446D03*
%TD*%
D30*
%TO.C,C17*%
X115350000Y-78910000D03*
X115350000Y-77950000D03*
%TD*%
D31*
%TO.C,U3*%
X109185000Y-74190000D03*
X110455000Y-74190000D03*
X111725000Y-74190000D03*
X112995000Y-74190000D03*
X112995000Y-79590000D03*
X111725000Y-79590000D03*
X110455000Y-79590000D03*
X109185000Y-79590000D03*
D32*
X111090000Y-76890000D03*
%TD*%
D33*
%TO.C,R11*%
X122700000Y-79430000D03*
X122700000Y-78950000D03*
%TD*%
D34*
%TO.C,C3*%
X108425500Y-46896446D03*
X107465500Y-46896446D03*
%TD*%
D35*
%TO.C,R13*%
X117410000Y-73420000D03*
X117410000Y-74920000D03*
%TD*%
D27*
%TO.C,C16*%
X116450000Y-77950000D03*
X116450000Y-78910000D03*
%TD*%
D30*
%TO.C,C14*%
X123050000Y-74760000D03*
X123050000Y-73800000D03*
%TD*%
D36*
%TO.C,C18*%
X107820000Y-73420000D03*
X107820000Y-73920000D03*
%TD*%
D37*
%TO.C,D4*%
X115010000Y-58002500D03*
X115010000Y-62002500D03*
%TD*%
D27*
%TO.C,C37*%
X158390000Y-79080000D03*
X158390000Y-80040000D03*
%TD*%
D30*
%TO.C,C5*%
X116430000Y-51690000D03*
X116430000Y-50730000D03*
%TD*%
D38*
%TO.C,D19*%
X159430000Y-78590000D03*
X159430000Y-79990000D03*
%TD*%
D23*
%TO.C,C22*%
X115120000Y-74920000D03*
X116080000Y-74920000D03*
%TD*%
D28*
%TO.C,C23*%
X114160000Y-71910000D03*
X114660000Y-71910000D03*
%TD*%
D39*
%TO.C,R8*%
X106675500Y-49636446D03*
X106675500Y-51636446D03*
%TD*%
D23*
%TO.C,C1*%
X111740000Y-62470000D03*
X112700000Y-62470000D03*
%TD*%
D40*
%TO.C,R3*%
X114425500Y-51786446D03*
X114425500Y-50766446D03*
%TD*%
D23*
%TO.C,C7*%
X111760000Y-61430000D03*
X112720000Y-61430000D03*
%TD*%
D41*
%TO.C,C20*%
X119410000Y-67600000D03*
X114070000Y-67600000D03*
%TD*%
D42*
%TO.C,D1*%
X114667500Y-54680000D03*
X110667500Y-54680000D03*
%TD*%
D43*
%TO.C,R12*%
X116030000Y-73780000D03*
X115170000Y-73780000D03*
%TD*%
D23*
%TO.C,C6*%
X107675500Y-48186446D03*
X108635500Y-48186446D03*
%TD*%
D44*
%TO.C,L6*%
X119715950Y-62059950D03*
X117783520Y-62059950D03*
%TD*%
D45*
%TO.C,D6*%
X109000000Y-88480000D03*
X109000000Y-93200000D03*
%TD*%
D46*
%TO.C,R10*%
X115060000Y-72730000D03*
X116080000Y-72730000D03*
%TD*%
D47*
%TO.C,D7*%
X109010000Y-71720000D03*
X112270000Y-71720000D03*
%TD*%
D39*
%TO.C,R4*%
X109215500Y-51636446D03*
X109215500Y-49636446D03*
%TD*%
M02*
